<svg width="42" height="42" viewBox="0 0 42 42" fill="none" xmlns="http://www.w3.org/2000/svg">
    <rect width="42" height="42" fill="white"/>
    <path fill-rule="evenodd" clip-rule="evenodd"
          d="M19.88 5.82277C20.6184 5.66585 21.3816 5.66585 22.12 5.82277C22.9549 6.00021 23.7404 6.45363 25.3108 7.36033L30.6892 10.4659C32.2595 11.3726 33.0449 11.8257 33.616 12.4599C34.1212 13.0211 34.5027 13.6822 34.736 14.4003C34.9998 15.2119 35 16.1186 35 17.9318V24.142C35 25.9555 34.9998 26.8629 34.736 27.6746C34.5027 28.3927 34.1212 29.0539 33.616 29.615C33.0449 30.2492 32.2595 30.7023 30.6892 31.609L25.3108 34.7146C23.7405 35.6212 22.9548 36.0747 22.12 36.2522C21.3816 36.409 20.6184 36.409 19.88 36.2522C19.0452 36.0747 18.2595 35.6212 16.6892 34.7146L11.3108 31.609C9.7405 30.7023 8.95508 30.2492 8.38401 29.615C7.87882 29.0539 7.49734 28.3927 7.26397 27.6746C7.00024 26.8629 7 25.9555 7 24.142V17.9318C7 16.1186 7.00025 15.2119 7.26397 14.4003C7.49731 13.6822 7.87879 13.0211 8.38401 12.4599C8.95507 11.8257 9.74053 11.3726 11.3108 10.4659L16.6892 7.36033C18.2596 6.45363 19.0451 6.00021 19.88 5.82277ZM21 11.3052C15.6471 11.3052 11.3077 15.6446 11.3077 20.9975C11.3077 26.3504 15.6471 30.6898 21 30.6898C26.3529 30.6898 30.6923 26.3504 30.6923 20.9975C30.6923 15.6446 26.3529 11.3052 21 11.3052Z"
          fill="#2845C1"/>
    <path d="M21.0072 28.5506C19.9718 28.5506 18.9999 28.3503 18.0915 27.9498C17.183 27.5591 16.3821 27.017 15.6885 26.3235C14.995 25.6299 14.448 24.8289 14.0475 23.9205C13.6568 23.0121 13.4614 22.0402 13.4614 21.0048C13.4614 19.9791 13.6568 19.0121 14.0475 18.1037C14.448 17.1855 14.995 16.3796 15.6885 15.6861C16.3821 14.9926 17.1782 14.4504 18.0768 14.0597C18.9852 13.6592 19.9572 13.459 20.9926 13.459C22.0182 13.459 22.9852 13.6592 23.8937 14.0597C24.8119 14.4504 25.6177 14.9926 26.3112 15.6861C27.0048 16.3796 27.5469 17.1855 27.9376 18.1037C28.3381 19.0121 28.5383 19.9791 28.5383 21.0048C28.5383 22.0402 28.3381 23.0121 27.9376 23.9205C27.5469 24.8289 27.0048 25.6299 26.3112 26.3235C25.6275 27.017 24.8265 27.5591 23.9083 27.9498C22.9999 28.3503 22.0329 28.5506 21.0072 28.5506ZM21.0072 26.6311C22.0426 26.6311 22.9852 26.3772 23.8351 25.8692C24.6849 25.3711 25.3589 24.6971 25.857 23.8473C26.365 22.9974 26.6189 22.0499 26.6189 21.0048C26.6189 19.9694 26.365 19.0267 25.857 18.1769C25.3589 17.3271 24.6849 16.6482 23.8351 16.1403C22.9852 15.6324 22.0377 15.3784 20.9926 15.3784C19.9572 15.3784 19.0145 15.6324 18.1647 16.1403C17.3247 16.6482 16.6507 17.3271 16.1427 18.1769C15.6446 19.0267 15.3955 19.9694 15.3955 21.0048C15.3955 22.0499 15.6446 22.9974 16.1427 23.8473C16.6507 24.6971 17.3247 25.3711 18.1647 25.8692C19.0145 26.3772 19.962 26.6311 21.0072 26.6311ZM20.9926 25.3125C20.2111 25.3125 19.4932 25.1171 18.8387 24.7264C18.194 24.3357 17.6763 23.8131 17.2856 23.1586C16.8949 22.5139 16.6995 21.8009 16.6995 21.0194C16.6995 20.2282 16.8949 19.5054 17.2856 18.8509C17.6763 18.1965 18.194 17.6788 18.8387 17.2978C19.4932 16.9071 20.2111 16.7117 20.9926 16.7117C21.774 16.7117 22.492 16.9071 23.1464 17.2978C23.8009 17.6788 24.3235 18.1965 24.7142 18.8509C25.1049 19.5054 25.3003 20.2282 25.3003 21.0194C25.3003 21.8009 25.1049 22.5139 24.7142 23.1586C24.3332 23.8131 23.8155 24.3357 23.1611 24.7264C22.5066 25.1171 21.7838 25.3125 20.9926 25.3125Z"
          fill="#C83F49"/>
</svg>
