<svg width="159" height="40" viewBox="0 0 159 40" fill="none" xmlns="http://www.w3.org/2000/svg">
    <g clip-path="url(#clip0_4916_7672)">
        <path fill-rule="evenodd" clip-rule="evenodd" d="M129.463 21.6855C130.689 21.6856 131.739 21.977 132.613 22.5596C133.502 23.1268 134.185 23.8855 134.66 24.8359C135.151 25.7713 135.396 26.8067 135.396 27.9414C135.396 28.7846 135.258 29.5818 134.982 30.333C134.706 31.0843 134.307 31.7513 133.786 32.334C133.28 32.9165 132.66 33.3766 131.924 33.7139C131.203 34.0358 130.383 34.1972 129.463 34.1973C128.666 34.1973 127.96 34.0672 127.347 33.8066C126.733 33.546 126.189 33.1702 125.714 32.6797C125.689 32.653 125.645 32.6695 125.645 32.7061V39.0752C125.645 39.187 125.645 39.2434 125.623 39.2861C125.604 39.3238 125.573 39.3548 125.535 39.374C125.492 39.3957 125.436 39.3955 125.324 39.3955H123.458C123.346 39.3955 123.29 39.3957 123.247 39.374C123.209 39.3548 123.178 39.3238 123.159 39.2861C123.138 39.2434 123.138 39.187 123.138 39.0752V22.4658C123.138 22.354 123.138 22.2976 123.159 22.2549C123.178 22.2173 123.209 22.1862 123.247 22.167C123.29 22.1453 123.346 22.1455 123.458 22.1455H125.324C125.436 22.1455 125.492 22.1453 125.535 22.167C125.573 22.1862 125.604 22.2173 125.623 22.2549C125.645 22.2976 125.645 22.354 125.645 22.4658V23.1758C125.645 23.2122 125.689 23.2293 125.714 23.2031C126.189 22.7126 126.733 22.3368 127.347 22.0762C127.96 21.8156 128.666 21.6855 129.463 21.6855ZM129.141 24.0547C128.42 24.0547 127.753 24.2232 127.14 24.5605C126.68 24.8081 126.275 25.1511 125.924 25.5889C125.842 25.6912 125.8 25.7425 125.754 25.833C125.719 25.9018 125.681 26.0113 125.665 26.0869C125.645 26.1865 125.645 26.2748 125.645 26.4512V29.4307C125.645 29.6071 125.645 29.6959 125.665 29.7949C125.681 29.8706 125.718 29.9791 125.753 30.0479C125.799 30.1379 125.84 30.19 125.923 30.2939C126.274 30.7354 126.679 31.0861 127.14 31.3457C127.753 31.6676 128.42 31.8281 129.141 31.8281C129.877 31.8281 130.513 31.6596 131.05 31.3223C131.602 30.9696 132.023 30.5015 132.314 29.9189C132.621 29.3364 132.774 28.6773 132.774 27.9414C132.774 27.2054 132.621 26.5456 132.314 25.9629C132.023 25.3804 131.602 24.9203 131.05 24.583C130.513 24.2304 129.877 24.0547 129.141 24.0547Z" fill="#2845C1"/>
        <path d="M90.6904 21.6855C91.5491 21.6855 92.3389 21.8693 93.0596 22.2373C93.69 22.5525 94.2025 22.9354 94.5967 23.3857C94.6603 23.4584 94.6924 23.4953 94.7041 23.542C94.7138 23.5809 94.7103 23.6278 94.6953 23.665C94.6773 23.7097 94.6374 23.7441 94.5586 23.8125L93.3223 24.8848C93.2311 24.9638 93.1853 25.0031 93.1387 25.0146C93.0956 25.0253 93.0568 25.0226 93.0156 25.0059C92.9711 24.9878 92.928 24.9383 92.8428 24.8398C92.6012 24.5608 92.3284 24.3218 92.0244 24.123C91.6259 23.8625 91.189 23.7325 90.7139 23.7324C90.3767 23.7324 90.0851 23.7934 89.8398 23.916C89.6098 24.0387 89.4332 24.2001 89.3105 24.3994C89.1879 24.5987 89.127 24.8211 89.127 25.0664C89.127 25.4344 89.265 25.741 89.541 25.9863C89.817 26.2162 90.1695 26.4154 90.5986 26.584C91.028 26.7527 91.4807 26.9374 91.9561 27.1367C92.4311 27.3207 92.8834 27.5503 93.3125 27.8262C93.7418 28.0868 94.0951 28.4401 94.3711 28.8848C94.6469 29.314 94.7842 29.8585 94.7842 30.5176C94.7688 31.2995 94.5779 31.9666 94.21 32.5186C93.842 33.0552 93.3506 33.4694 92.7373 33.7607C92.1242 34.0519 91.4496 34.1972 90.7139 34.1973C89.7172 34.1973 88.8503 34.0135 88.1143 33.6455C87.4703 33.3101 86.8966 32.8749 86.3936 32.3398C86.3213 32.263 86.2847 32.224 86.2715 32.1768C86.2602 32.1365 86.2623 32.0898 86.2773 32.0508C86.295 32.005 86.3371 31.9684 86.4199 31.8955L87.6514 30.8115C87.7404 30.7331 87.7854 30.6935 87.832 30.6816C87.8744 30.6709 87.9144 30.6733 87.9551 30.6895C87.9997 30.7073 88.0414 30.7543 88.124 30.8486C88.4358 31.2045 88.7776 31.5008 89.1494 31.7363C89.6094 32.0123 90.1232 32.1504 90.6904 32.1504C91.2271 32.1504 91.6413 32.0123 91.9326 31.7363C92.2239 31.4451 92.37 31.0925 92.3701 30.6787C92.3701 30.2956 92.2317 29.9887 91.9561 29.7588C91.6801 29.5288 91.3268 29.3288 90.8975 29.1602C90.4682 28.9915 90.0082 28.8148 89.5176 28.6309C89.0423 28.4315 88.5894 28.1939 88.1602 27.918C87.731 27.642 87.3784 27.2814 87.1025 26.8369C86.842 26.3923 86.7119 25.8327 86.7119 25.1582C86.7119 24.499 86.8805 23.909 87.2178 23.3877C87.5551 22.8664 88.0231 22.4522 88.6211 22.1455C89.2343 21.839 89.924 21.6856 90.6904 21.6855Z" fill="#2845C1"/>
        <path d="M102.357 21.6855C103.415 21.6855 104.359 21.8999 105.187 22.3291C105.931 22.6944 106.556 23.179 107.062 23.7832C107.128 23.8632 107.161 23.9039 107.172 23.9521C107.181 23.993 107.176 24.0402 107.158 24.0781C107.137 24.1228 107.094 24.1567 107.007 24.2236L105.545 25.3438C105.452 25.415 105.406 25.4508 105.36 25.46C105.318 25.4686 105.281 25.4646 105.241 25.4473C105.199 25.4287 105.157 25.3801 105.073 25.2822C104.798 24.9584 104.46 24.6871 104.06 24.4688C103.569 24.1928 102.994 24.0547 102.335 24.0547C101.798 24.0547 101.3 24.1542 100.84 24.3535C100.395 24.5375 100.004 24.8056 99.667 25.1582C99.345 25.5108 99.0922 25.9251 98.9082 26.4004C98.7395 26.8757 98.6543 27.3894 98.6543 27.9414C98.6543 28.6774 98.8157 29.3444 99.1377 29.9424C99.4597 30.525 99.8972 30.9849 100.449 31.3223C101.001 31.6595 101.645 31.8281 102.381 31.8281C103.009 31.8281 103.569 31.69 104.06 31.4141C104.46 31.1957 104.798 30.9245 105.073 30.6006C105.157 30.5025 105.199 30.4531 105.241 30.4346C105.281 30.4172 105.318 30.4133 105.36 30.4219C105.406 30.431 105.453 30.4667 105.546 30.5381L107.004 31.6572C107.092 31.7247 107.137 31.7587 107.157 31.8037C107.175 31.8419 107.179 31.8896 107.17 31.9307C107.159 31.9791 107.125 32.0195 107.057 32.0996C106.552 32.6911 105.929 33.176 105.187 33.5537C104.359 33.9829 103.415 34.1973 102.357 34.1973C101.054 34.1972 99.9271 33.914 98.9766 33.3467C98.0259 32.764 97.2899 31.9966 96.7686 31.0459C96.2627 30.0954 96.0098 29.0605 96.0098 27.9414C96.0098 27.0981 96.155 26.3002 96.4463 25.5488C96.7376 24.7976 97.16 24.1304 97.7119 23.5479C98.2639 22.9653 98.931 22.5133 99.7129 22.1914C100.495 21.8541 101.376 21.6856 102.357 21.6855Z" fill="#2845C1"/>
        <path d="M149.868 21.6855C150.727 21.6856 151.517 21.8693 152.237 22.2373C152.868 22.5526 153.38 22.9354 153.774 23.3857C153.838 23.4584 153.87 23.4953 153.882 23.542C153.892 23.5809 153.888 23.6278 153.873 23.665C153.855 23.7097 153.815 23.7441 153.736 23.8125L152.5 24.8848C152.409 24.9638 152.363 25.0031 152.316 25.0146C152.273 25.0253 152.235 25.0226 152.193 25.0059C152.149 24.9878 152.106 24.9383 152.021 24.8398C151.779 24.5608 151.506 24.3218 151.202 24.123C150.803 23.8624 150.366 23.7324 149.891 23.7324C149.553 23.7325 149.262 23.7934 149.017 23.916C148.787 24.0387 148.611 24.2002 148.488 24.3994C148.366 24.5987 148.304 24.8211 148.304 25.0664C148.304 25.4343 148.442 25.741 148.718 25.9863C148.994 26.2163 149.347 26.4153 149.776 26.584C150.206 26.7526 150.658 26.9374 151.133 27.1367C151.608 27.3207 152.061 27.5502 152.49 27.8262C152.92 28.0868 153.272 28.4401 153.548 28.8848C153.824 29.3141 153.962 29.8584 153.962 30.5176C153.947 31.2995 153.755 31.9666 153.387 32.5186C153.019 33.0551 152.528 33.4695 151.915 33.7607C151.302 34.052 150.627 34.1973 149.891 34.1973C148.894 34.1972 148.028 34.0134 147.292 33.6455C146.648 33.3101 146.074 32.8749 145.571 32.3398C145.499 32.2629 145.462 32.224 145.449 32.1768C145.438 32.1365 145.44 32.0898 145.455 32.0508C145.473 32.005 145.515 31.9684 145.598 31.8955L146.829 30.8115C146.918 30.7331 146.963 30.6935 147.01 30.6816C147.052 30.6709 147.092 30.6733 147.133 30.6895C147.177 30.7073 147.219 30.7543 147.302 30.8486C147.614 31.2045 147.955 31.5008 148.327 31.7363C148.787 32.0123 149.301 32.1504 149.868 32.1504C150.405 32.1504 150.819 32.0123 151.11 31.7363C151.401 31.4451 151.547 31.0925 151.547 30.6787C151.547 30.2954 151.409 29.9888 151.133 29.7588C150.857 29.5288 150.504 29.3288 150.075 29.1602C149.646 28.9915 149.186 28.8148 148.695 28.6309C148.22 28.4315 147.767 28.194 147.338 27.918C146.909 27.642 146.556 27.2815 146.28 26.8369C146.02 26.3923 145.889 25.8328 145.889 25.1582C145.889 24.4991 146.057 23.9089 146.395 23.3877C146.732 22.8664 147.2 22.4522 147.798 22.1455C148.411 21.8388 149.101 21.6855 149.868 21.6855Z" fill="#2845C1"/>
        <path fill-rule="evenodd" clip-rule="evenodd" d="M65.9512 21.6855C67.0092 21.6855 67.9066 21.8774 68.6426 22.2607C69.3784 22.6441 69.9309 23.1731 70.2988 23.8477C70.6666 24.5068 70.8505 25.2657 70.8506 26.124V33.417C70.8506 33.5288 70.8508 33.5852 70.8291 33.6279C70.8099 33.6656 70.7788 33.6966 70.7412 33.7158C70.6985 33.7375 70.6421 33.7373 70.5303 33.7373H68.6865C68.5747 33.7373 68.5183 33.7375 68.4756 33.7158C68.438 33.6966 68.4069 33.6656 68.3877 33.6279C68.366 33.5852 68.3662 33.5288 68.3662 33.417V32.915C68.3662 32.769 68.3662 32.6958 68.3428 32.668C68.3212 32.6424 68.2941 32.631 68.2607 32.6328C68.2244 32.6349 68.168 32.688 68.0557 32.7939C67.9798 32.8654 67.8993 32.9343 67.8145 33.001C67.4005 33.3383 66.9172 33.5992 66.3652 33.7832C65.8286 33.9825 65.2763 34.082 64.709 34.082C63.5592 34.082 62.6239 33.7754 61.9033 33.1621C61.1828 32.5488 60.8223 31.7284 60.8223 30.7012C60.8223 29.8272 61.1522 29.0911 61.8115 28.4932C62.4708 27.8799 63.4213 27.4656 64.6631 27.251L68.0996 26.667C68.1943 26.6509 68.2418 26.6429 68.2773 26.6191C68.3085 26.5983 68.3333 26.5693 68.3486 26.5352C68.3661 26.4962 68.3662 26.4476 68.3662 26.3516V26.124C68.3661 25.4342 68.1286 24.8898 67.6533 24.4912C67.1933 24.0926 66.5953 23.8936 65.8594 23.8936C65.2614 23.8936 64.7172 24.0316 64.2266 24.3076C63.8467 24.516 63.5154 24.7883 63.2334 25.124C63.1522 25.2207 63.111 25.2693 63.0684 25.2881C63.0288 25.3054 62.9916 25.3092 62.9492 25.3008C62.9036 25.2917 62.8569 25.2562 62.7646 25.1855L61.417 24.1533C61.3298 24.0866 61.2864 24.0526 61.2656 24.0078C61.2482 23.9701 61.2424 23.9235 61.251 23.8828C61.2613 23.8346 61.295 23.7946 61.3613 23.7148C61.8508 23.1269 62.4532 22.6574 63.168 22.3066C63.9806 21.8927 64.9086 21.6856 65.9512 21.6855ZM68.1787 28.4365L65.3076 28.9307C64.6176 29.038 64.1192 29.237 63.8125 29.5283C63.5059 29.8196 63.3526 30.1721 63.3525 30.5859C63.3525 31.0152 63.5131 31.3686 63.835 31.6445C64.1723 31.9205 64.6179 32.0586 65.1699 32.0586C65.8904 32.0585 66.5191 31.8971 67.0557 31.5752C67.4604 31.3323 67.8083 31.0282 68.0996 30.6631C68.1738 30.5702 68.2109 30.5236 68.2568 30.4336C68.2908 30.3669 68.3307 30.2531 68.3457 30.1797C68.366 30.0804 68.3662 29.9956 68.3662 29.8262V28.5938C68.3662 28.5287 68.3658 28.4958 68.3525 28.4727C68.3408 28.4526 68.3226 28.4367 68.3008 28.4287C68.2757 28.4195 68.243 28.4255 68.1787 28.4365Z" fill="#2845C1"/>
        <path d="M140.329 19.2471C140.441 19.2471 140.497 19.2469 140.54 19.2686C140.578 19.2877 140.609 19.3188 140.628 19.3564C140.65 19.3992 140.649 19.4556 140.649 19.5674V21.8252C140.649 21.937 140.649 21.9934 140.671 22.0361C140.69 22.0738 140.721 22.1048 140.759 22.124C140.802 22.1457 140.858 22.1455 140.97 22.1455H144.078C144.19 22.1455 144.246 22.1453 144.289 22.167C144.327 22.1862 144.358 22.2173 144.377 22.2549C144.399 22.2976 144.398 22.354 144.398 22.4658V24.0791C144.398 24.1909 144.399 24.2473 144.377 24.29C144.358 24.3277 144.327 24.3588 144.289 24.3779C144.246 24.3996 144.19 24.3994 144.078 24.3994H140.97C140.858 24.3994 140.802 24.3992 140.759 24.4209C140.721 24.4401 140.69 24.4712 140.671 24.5088C140.649 24.5515 140.649 24.6079 140.649 24.7197V29.6436C140.649 30.1494 140.727 30.5557 140.88 30.8623C141.049 31.1536 141.286 31.3608 141.593 31.4834C141.899 31.606 142.267 31.667 142.696 31.667C143.095 31.667 143.433 31.6446 143.709 31.5986C143.813 31.5756 143.911 31.5525 144.004 31.5293C144.153 31.4922 144.228 31.4737 144.281 31.4902C144.329 31.5051 144.367 31.5343 144.393 31.5771C144.422 31.6249 144.422 31.6996 144.422 31.8477V33.4092C144.422 33.4858 144.422 33.5247 144.408 33.5596C144.397 33.5888 144.375 33.6193 144.352 33.6396C144.323 33.6638 144.29 33.6751 144.224 33.6982C143.989 33.7803 143.741 33.8393 143.479 33.875C143.141 33.9363 142.742 33.9678 142.282 33.9678C141.363 33.9677 140.588 33.8062 139.96 33.4844C139.347 33.1624 138.879 32.6792 138.557 32.0352C138.25 31.3912 138.097 30.5941 138.097 29.6436V24.7197C138.097 24.6079 138.097 24.5515 138.075 24.5088C138.056 24.4712 138.025 24.4401 137.987 24.4209C137.945 24.3992 137.888 24.3994 137.776 24.3994H136.255C136.143 24.3994 136.087 24.3996 136.044 24.3779C136.006 24.3588 135.975 24.3277 135.956 24.29C135.934 24.2473 135.935 24.1909 135.935 24.0791V22.4658C135.935 22.354 135.934 22.2976 135.956 22.2549C135.975 22.2173 136.006 22.1862 136.044 22.167C136.087 22.1453 136.143 22.1455 136.255 22.1455H137.776C137.888 22.1455 137.945 22.1457 137.987 22.124C138.025 22.1048 138.056 22.0738 138.075 22.0361C138.097 21.9934 138.097 21.937 138.097 21.8252V19.5674C138.097 19.4556 138.096 19.3992 138.118 19.3564C138.137 19.3188 138.168 19.2877 138.206 19.2686C138.249 19.2469 138.305 19.2471 138.417 19.2471H140.329Z" fill="#2845C1"/>
        <path d="M52.7207 17.6377C52.8325 17.6377 52.8889 17.6375 52.9316 17.6592C52.9693 17.6784 53.0004 17.7094 53.0195 17.7471C53.0412 17.7898 53.041 17.8462 53.041 17.958V19.8701C53.041 19.9819 53.0412 20.0383 53.0195 20.0811C53.0004 20.1187 52.9693 20.1498 52.9316 20.1689C52.8889 20.1906 52.8325 20.1904 52.7207 20.1904H48.2324C48.1206 20.1904 48.0642 20.1902 48.0215 20.2119C47.9839 20.2311 47.9528 20.2622 47.9336 20.2998C47.9119 20.3426 47.9121 20.399 47.9121 20.5107V33.417C47.9121 33.5288 47.9123 33.5852 47.8906 33.6279C47.8715 33.6656 47.8404 33.6966 47.8027 33.7158C47.76 33.7375 47.7036 33.7373 47.5918 33.7373H45.4268C45.315 33.7373 45.2586 33.7375 45.2158 33.7158C45.1782 33.6966 45.1471 33.6656 45.1279 33.6279C45.1063 33.5852 45.1064 33.5288 45.1064 33.417V20.5107C45.1064 20.399 45.1066 20.3426 45.085 20.2998C45.0658 20.2622 45.0347 20.2311 44.9971 20.2119C44.9543 20.1902 44.8979 20.1904 44.7861 20.1904H40.3203C40.2085 20.1904 40.1521 20.1906 40.1094 20.1689C40.0717 20.1498 40.0407 20.1187 40.0215 20.0811C39.9998 20.0383 40 19.9819 40 19.8701V17.958C40 17.8462 39.9998 17.7898 40.0215 17.7471C40.0407 17.7094 40.0717 17.6784 40.1094 17.6592C40.1521 17.6375 40.2085 17.6377 40.3203 17.6377H52.7207Z" fill="#2845C1"/>
        <path d="M59.1465 21.915C59.3457 21.9151 59.5297 21.9303 59.6982 21.9609C59.7814 21.9761 59.8608 21.9928 59.9365 22.0117C60.0092 22.0299 60.0459 22.0393 60.0781 22.0635C60.1049 22.0835 60.1296 22.1156 60.1426 22.1465C60.158 22.1835 60.1582 22.2246 60.1582 22.3066V24.127C60.1582 24.2674 60.1578 24.3383 60.1309 24.3848C60.1064 24.4268 60.0722 24.4561 60.0264 24.4727C59.9758 24.4909 59.9029 24.4774 59.7578 24.4512C59.7003 24.4408 59.6418 24.4309 59.583 24.4219C59.399 24.3912 59.1766 24.376 58.916 24.376C58.4407 24.376 58.0112 24.4531 57.6279 24.6064C57.2447 24.7598 56.9146 24.9669 56.6387 25.2275C56.4762 25.381 56.3298 25.5425 56.1992 25.7119C56.1311 25.8004 56.0965 25.8451 56.0527 25.9336C56.0208 25.9983 55.9828 26.111 55.9688 26.1816C55.9495 26.2784 55.9492 26.3595 55.9492 26.5215V33.417C55.9492 33.5288 55.9494 33.5852 55.9277 33.6279C55.9086 33.6656 55.8775 33.6966 55.8398 33.7158C55.7971 33.7375 55.7407 33.7373 55.6289 33.7373H53.7627C53.6509 33.7373 53.5945 33.7375 53.5518 33.7158C53.5141 33.6966 53.483 33.6656 53.4639 33.6279C53.4422 33.5852 53.4424 33.5288 53.4424 33.417V22.4658C53.4424 22.354 53.4422 22.2976 53.4639 22.2549C53.483 22.2173 53.5141 22.1862 53.5518 22.167C53.5945 22.1453 53.6509 22.1455 53.7627 22.1455H55.6289C55.7407 22.1455 55.7971 22.1453 55.8398 22.167C55.8775 22.1862 55.9086 22.2173 55.9277 22.2549C55.9494 22.2976 55.9492 22.354 55.9492 22.4658V23.0078C55.9492 23.1366 55.9492 23.2014 55.9727 23.2295C55.9936 23.2543 56.0233 23.2668 56.0557 23.2646C56.0922 23.2621 56.1405 23.2163 56.2354 23.124C56.3298 23.0322 56.4259 22.9435 56.5244 22.8584C56.877 22.5671 57.268 22.3366 57.6973 22.168C58.1265 21.9994 58.6099 21.915 59.1465 21.915Z" fill="#2845C1"/>
        <path d="M79.8994 21.6855C80.7581 21.6855 81.5255 21.8774 82.2002 22.2607C82.8899 22.644 83.4263 23.211 83.8096 23.9619C84.2082 24.7132 84.4082 25.6565 84.4082 26.791V33.417C84.4082 33.5288 84.4084 33.5852 84.3867 33.6279C84.3675 33.6656 84.3365 33.6966 84.2988 33.7158C84.2561 33.7375 84.1997 33.7373 84.0879 33.7373H82.1982C82.0865 33.7373 82.0301 33.7375 81.9873 33.7158C81.9497 33.6966 81.9186 33.6656 81.8994 33.6279C81.8778 33.5852 81.8779 33.5288 81.8779 33.417V26.8838C81.8779 25.9945 81.6475 25.3041 81.1875 24.8135C80.7275 24.3075 80.099 24.0547 79.3018 24.0547C78.7958 24.0547 78.3511 24.1542 77.9678 24.3535C77.5845 24.5375 77.2545 24.7751 76.9785 25.0664C76.8219 25.2414 76.6763 25.4223 76.542 25.6084C76.4628 25.7181 76.4236 25.7733 76.3838 25.8584C76.3524 25.9254 76.3204 26.023 76.3066 26.0957C76.2891 26.1881 76.2891 26.2725 76.2891 26.4414V33.417C76.2891 33.5288 76.2892 33.5852 76.2676 33.6279C76.2484 33.6656 76.2173 33.6966 76.1797 33.7158C76.1369 33.7375 76.0805 33.7373 75.9688 33.7373H74.1025C73.9908 33.7373 73.9343 33.7375 73.8916 33.7158C73.854 33.6966 73.8229 33.6656 73.8037 33.6279C73.782 33.5852 73.7822 33.5288 73.7822 33.417V22.4658C73.7822 22.354 73.782 22.2976 73.8037 22.2549C73.8229 22.2173 73.854 22.1862 73.8916 22.167C73.9343 22.1453 73.9908 22.1455 74.1025 22.1455H75.9688C76.0805 22.1455 76.1369 22.1453 76.1797 22.167C76.2173 22.1862 76.2484 22.2173 76.2676 22.2549C76.2892 22.2976 76.2891 22.354 76.2891 22.4658V22.8223C76.2891 22.9496 76.2888 23.0141 76.3115 23.042C76.3322 23.067 76.3612 23.0795 76.3936 23.0781C76.4295 23.0764 76.4791 23.0325 76.5771 22.9443C76.9372 22.6205 77.3468 22.3461 77.8066 22.1221C78.4045 21.8308 79.1023 21.6856 79.8994 21.6855Z" fill="#2845C1"/>
        <path d="M114.679 21.915C114.878 21.915 115.062 21.9303 115.23 21.9609C115.314 21.976 115.393 21.9928 115.469 22.0117C115.541 22.0299 115.578 22.0393 115.61 22.0635C115.637 22.0835 115.662 22.1156 115.675 22.1465C115.69 22.1835 115.69 22.2246 115.69 22.3066V24.127C115.69 24.2674 115.69 24.3383 115.663 24.3848C115.639 24.4268 115.604 24.4561 115.559 24.4727C115.508 24.4909 115.435 24.4774 115.29 24.4512C115.232 24.4408 115.174 24.4309 115.115 24.4219C114.931 24.3913 114.709 24.376 114.448 24.376C113.973 24.376 113.543 24.4531 113.16 24.6064C112.777 24.7598 112.448 24.967 112.172 25.2275C112.009 25.3812 111.862 25.5433 111.731 25.7129C111.664 25.8008 111.629 25.845 111.585 25.9336C111.553 25.9983 111.515 26.1111 111.501 26.1816C111.482 26.2785 111.481 26.3596 111.481 26.5215V33.417C111.481 33.5288 111.482 33.5852 111.46 33.6279C111.441 33.6656 111.41 33.6966 111.372 33.7158C111.329 33.7375 111.273 33.7373 111.161 33.7373H109.295C109.183 33.7373 109.127 33.7375 109.084 33.7158C109.046 33.6966 109.015 33.6656 108.996 33.6279C108.974 33.5852 108.975 33.5288 108.975 33.417V22.4658C108.975 22.354 108.974 22.2976 108.996 22.2549C109.015 22.2173 109.046 22.1862 109.084 22.167C109.127 22.1453 109.183 22.1455 109.295 22.1455H111.161C111.273 22.1455 111.329 22.1453 111.372 22.167C111.41 22.1862 111.441 22.2173 111.46 22.2549C111.482 22.2976 111.481 22.354 111.481 22.4658V23.0078C111.481 23.1366 111.481 23.2014 111.505 23.2295C111.526 23.2543 111.556 23.2668 111.588 23.2646C111.624 23.2621 111.673 23.2163 111.768 23.124C111.862 23.0322 111.958 22.9435 112.057 22.8584C112.409 22.5671 112.8 22.3366 113.229 22.168C113.659 21.9993 114.142 21.915 114.679 21.915Z" fill="#2845C1"/>
        <path d="M119.726 22.1455C119.837 22.1455 119.894 22.1453 119.937 22.167C119.974 22.1862 120.005 22.2173 120.024 22.2549C120.046 22.2976 120.046 22.354 120.046 22.4658V33.417C120.046 33.5288 120.046 33.5852 120.024 33.6279C120.005 33.6656 119.974 33.6966 119.937 33.7158C119.894 33.7375 119.837 33.7373 119.726 33.7373H117.858C117.747 33.7373 117.69 33.7375 117.647 33.7158C117.61 33.6966 117.579 33.6656 117.56 33.6279C117.538 33.5852 117.538 33.5288 117.538 33.417V22.4658C117.538 22.354 117.538 22.2976 117.56 22.2549C117.579 22.2173 117.61 22.1862 117.647 22.167C117.69 22.1453 117.747 22.1455 117.858 22.1455H119.726Z" fill="#2845C1"/>
        <path d="M118.804 16.3496C119.11 16.3497 119.387 16.4258 119.632 16.5791C119.892 16.7171 120.1 16.9171 120.253 17.1777C120.406 17.4383 120.482 17.7219 120.482 18.0283C120.482 18.3348 120.406 18.6184 120.253 18.8789C120.1 19.1242 119.892 19.3242 119.632 19.4775C119.387 19.6308 119.11 19.707 118.804 19.707C118.512 19.707 118.236 19.6308 117.976 19.4775C117.715 19.3242 117.508 19.1242 117.354 18.8789C117.201 18.6183 117.124 18.3349 117.124 18.0283C117.124 17.5684 117.285 17.1774 117.607 16.8555C117.945 16.5181 118.344 16.3496 118.804 16.3496Z" fill="#2845C1"/>
        <path d="M25.9806 10.0539C25.9806 9.37231 25.9806 9.03151 25.9098 8.72032C25.7791 8.14516 25.4727 7.62489 25.0331 7.23159C24.7953 7.01879 24.4973 6.8535 23.9012 6.52291L22.378 5.6781C21.8149 5.36579 21.5334 5.20963 21.2428 5.12176C20.7061 4.95941 20.1333 4.95941 19.5965 5.12176C19.3059 5.20963 19.0244 5.36579 18.4613 5.6781L17.8331 6.02651C17.0707 6.44937 16.6894 6.66081 16.5148 6.90692C16.1881 7.36724 16.1884 7.98382 16.5155 8.44382C16.6904 8.68977 17.0718 8.90084 17.8347 9.32298L18.3432 9.60438C18.9402 9.93474 19.2387 10.0999 19.4769 10.3127C19.9172 10.7061 20.2241 11.2267 20.3551 11.8023C20.4259 12.1138 20.4259 12.4549 20.4259 13.1372V13.7195C20.4259 14.5463 20.4259 14.9597 20.5502 15.2263C20.7823 15.7243 21.2975 16.0278 21.8457 15.9894C22.139 15.9688 22.5006 15.7684 23.2237 15.3675L23.9004 14.9925C24.4967 14.6619 24.7948 14.4967 25.0327 14.2839C25.4725 13.8905 25.779 13.3702 25.9098 12.7949C25.9806 12.4837 25.9806 12.1428 25.9806 11.461V10.0539Z" fill="#2845C1"/>
        <path d="M9.02562 20.1571C8.43534 20.4979 8.1402 20.6683 7.90608 20.8852C7.47335 21.286 7.17597 21.8115 7.05514 22.3888C6.98977 22.7012 6.99563 23.0419 7.00736 23.7234L7.03734 25.4649C7.04843 26.1088 7.05397 26.4307 7.12313 26.7262C7.25092 27.2723 7.53733 27.7683 7.94632 28.152C8.16767 28.3597 8.44369 28.5254 8.99572 28.857L9.61153 29.2268C10.359 29.6756 10.7327 29.9001 11.0331 29.9282C11.5951 29.981 12.1289 29.6724 12.3638 29.1592C12.4893 28.8847 12.4814 28.4489 12.4656 27.5772L12.455 26.9961C12.4426 26.3139 12.4364 25.9728 12.5016 25.6601C12.6221 25.0821 12.9195 24.556 13.3526 24.1548C13.5869 23.9377 13.8823 23.7671 14.4732 23.4259L14.9775 23.1348C15.6935 22.7214 16.0515 22.5147 16.2202 22.2739C16.5355 21.8238 16.5407 21.2259 16.2333 20.7703C16.0689 20.5266 15.7145 20.3137 15.0058 19.8878L14.3426 19.4894C13.7582 19.1382 13.466 18.9627 13.1628 18.863C12.6023 18.6788 11.9984 18.6736 11.4348 18.8479C11.1298 18.9423 10.8346 19.1127 10.2442 19.4536L9.02562 20.1571Z" fill="#2845C1"/>
        <path d="M14.8587 29.9461C14.8587 30.6277 14.8587 30.9685 14.9295 31.2797C15.0602 31.8548 15.3666 32.3751 15.8062 32.7684C16.044 32.9812 16.342 33.1465 16.9381 33.4771L18.4613 34.3219C19.0244 34.6342 19.306 34.7904 19.5965 34.8782C20.1333 35.0406 20.7061 35.0406 21.2428 34.8782C21.5334 34.7904 21.8149 34.6342 22.378 34.3219L23.0062 33.9735C23.7686 33.5506 24.1499 33.3392 24.3245 33.0931C24.6512 32.6328 24.6509 32.0162 24.3238 31.5562C24.1489 31.3102 23.7675 31.0992 23.0046 30.677L22.4961 30.3956C21.8991 30.0653 21.6006 29.9001 21.3624 29.6873C20.9222 29.2939 20.6152 28.7733 20.4842 28.1977C20.4134 27.8862 20.4134 27.5451 20.4134 26.8627V26.2805C20.4134 25.4537 20.4134 25.0403 20.2892 24.7737C20.057 24.2757 19.5418 23.9722 18.9936 24.0106C18.7003 24.0312 18.3387 24.2316 17.6156 24.6325L16.9389 25.0075C16.3426 25.3381 16.0445 25.5033 15.8066 25.7161C15.3668 26.1095 15.0603 26.6298 14.9295 27.2051C14.8587 27.5163 14.8587 27.8572 14.8587 28.539V29.9461Z" fill="#2845C1"/>
        <path d="M26.2528 29.7889C26.843 30.1297 27.1382 30.3001 27.4431 30.3945C28.0065 30.5688 28.6103 30.5636 29.1707 30.3796C29.4739 30.28 29.766 30.1046 30.3504 29.7537L31.8436 28.8569C32.3956 28.5254 32.6716 28.3597 32.893 28.152C33.302 27.7683 33.5884 27.2723 33.7162 26.7262C33.7853 26.4307 33.7909 26.1088 33.802 25.4649L33.8143 24.7467C33.8293 23.875 33.8368 23.4391 33.711 23.1648C33.4757 22.6518 32.9416 22.3437 32.3797 22.397C32.0792 22.4255 31.7057 22.6503 30.9587 23.0999L30.4608 23.3995C29.8762 23.7514 29.5839 23.9273 29.2805 24.0272C28.7197 24.2118 28.1154 24.2173 27.5513 24.0429C27.2462 23.9485 26.9507 23.778 26.3598 23.4368L25.8556 23.1457C25.1395 22.7323 24.7815 22.5256 24.4886 22.4999C23.9411 22.4519 23.4208 22.7463 23.18 23.2403C23.0511 23.5046 23.0439 23.9179 23.0294 24.7446L23.0159 25.5182C23.004 26.1998 22.9981 26.5407 23.0634 26.8531C23.1842 27.4306 23.4816 27.9562 23.9144 28.3572C24.1485 28.5741 24.4438 28.7445 25.0342 29.0854L26.2528 29.7889Z" fill="#2845C1"/>
        <path d="M31.8137 19.8429C32.404 19.5021 32.6991 19.3317 32.9332 19.1148C33.366 18.714 33.6633 18.1885 33.7842 17.6112C33.8495 17.2988 33.8437 16.9581 33.8319 16.2766L33.802 14.5351C33.7909 13.8912 33.7853 13.5693 33.7162 13.2738C33.5884 12.7277 33.302 12.2317 32.893 11.848C32.6716 11.6403 32.3956 11.4746 31.8436 11.1431L31.2278 10.7732C30.4804 10.3244 30.1066 10.0999 29.8062 10.0718C29.2442 10.019 28.7104 10.3276 28.4755 10.8408C28.35 11.1153 28.3579 11.5511 28.3737 12.4228L28.3843 13.0039C28.3967 13.6861 28.4029 14.0272 28.3377 14.3399C28.2172 14.9179 27.9198 15.444 27.4867 15.8452C27.2524 16.0623 26.957 16.2329 26.3661 16.5741L25.8618 16.8652C25.1458 17.2786 24.7878 17.4853 24.6191 17.7261C24.3038 18.1762 24.2986 18.7741 24.606 19.2297C24.7704 19.4734 25.1248 19.6863 25.8335 20.1122L26.4967 20.5106C27.0811 20.8618 27.3733 21.0373 27.6765 21.137C28.237 21.3212 28.8409 21.3264 29.4045 21.1521C29.7095 21.0577 30.0047 20.8873 30.5951 20.5464L31.8137 19.8429Z" fill="#2845C1"/>
        <path d="M14.5865 10.2111C13.9962 9.87031 13.7011 9.69991 13.3962 9.60558C12.8327 9.43123 12.229 9.43642 11.6686 9.62044C11.3654 9.72001 11.0732 9.89546 10.4889 10.2464L8.99568 11.1431C8.44365 11.4746 8.16763 11.6404 7.94627 11.848C7.53729 12.2317 7.25088 12.7278 7.12309 13.2738C7.05393 13.5694 7.04839 13.8913 7.0373 14.5351L7.02494 15.2533C7.00993 16.1251 7.00243 16.5609 7.12825 16.8352C7.36357 17.3483 7.89769 17.6563 8.45961 17.603C8.76005 17.5746 9.13355 17.3498 9.88056 16.9002L10.3785 16.6005C10.9631 16.2487 11.2554 16.0728 11.5588 15.9729C12.1196 15.7883 12.7239 15.7828 13.2879 15.9572C13.5931 16.0515 13.8885 16.2221 14.4794 16.5632L14.9837 16.8544C15.6997 17.2678 16.0577 17.4745 16.3507 17.5002C16.8981 17.5482 17.4185 17.2537 17.6593 16.7598C17.7882 16.4955 17.7954 16.0821 17.8098 15.2554L17.8233 14.4819C17.8352 13.8002 17.8412 13.4594 17.7758 13.1469C17.6551 12.5694 17.3577 12.0438 16.9249 11.6429C16.6907 11.426 16.3955 11.2555 15.8051 10.9146L14.5865 10.2111Z" fill="#C83F49"/>
        <rect x="8" y="27" width="24" height="9" rx="4.5" fill="#EEF1F4"/>
        <rect x="8" y="27" width="24" height="9" rx="4.5" fill="url(#paint0_linear_4916_7672)" fill-opacity="0.1"/>
        <path d="M12.3425 33.7359C12.2926 33.7359 12.2676 33.7359 12.2486 33.7262C12.2318 33.7176 12.2182 33.704 12.2097 33.6872C12.2 33.6682 12.2 33.6433 12.2 33.5934V29.2421C12.2 29.1922 12.2 29.1673 12.2097 29.1482C12.2182 29.1315 12.2318 29.1179 12.2486 29.1093C12.2676 29.0996 12.2926 29.0996 12.3425 29.0996H13.5643C14.5313 29.0996 15.1208 29.5765 15.1208 30.358C15.1208 30.6476 15.0195 30.9061 14.8257 31.1064C14.7572 31.1773 14.7229 31.2128 14.7171 31.236C14.7109 31.2611 14.7123 31.2736 14.7237 31.2968C14.7343 31.3183 14.7739 31.3447 14.8532 31.3975C15.1981 31.6271 15.3857 31.9696 15.3857 32.3715C15.3857 33.2193 14.73 33.7359 13.6637 33.7359H12.3425ZM13.5842 29.8812H13.283C13.2331 29.8812 13.2081 29.8812 13.1891 29.8909C13.1723 29.8994 13.1587 29.913 13.1502 29.9298C13.1405 29.9488 13.1405 29.9738 13.1405 30.0237V30.7851C13.1405 30.835 13.1405 30.8599 13.1502 30.879C13.1587 30.8958 13.1723 30.9094 13.1891 30.9179C13.2081 30.9276 13.2331 30.9276 13.283 30.9276H13.5842C13.9419 30.9276 14.1538 30.7355 14.1538 30.3978C14.1538 30.0732 13.9419 29.8812 13.5842 29.8812ZM13.7167 31.7092H13.283C13.2331 31.7092 13.2081 31.7092 13.1891 31.7189C13.1723 31.7274 13.1587 31.741 13.1502 31.7578C13.1405 31.7768 13.1405 31.8018 13.1405 31.8517V32.8118C13.1405 32.8617 13.1405 32.8867 13.1502 32.9057C13.1587 32.9225 13.1723 32.9361 13.1891 32.9446C13.2081 32.9543 13.2331 32.9543 13.283 32.9543H13.7167C14.1538 32.9543 14.4187 32.7225 14.4187 32.3318C14.4187 31.9344 14.1538 31.7092 13.7167 31.7092Z" fill="#2845C1"/>
        <path d="M16.4271 33.7359C16.3772 33.7359 16.3523 33.7359 16.3333 33.7262C16.3165 33.7176 16.3029 33.704 16.2943 33.6872C16.2846 33.6682 16.2846 33.6433 16.2846 33.5934V29.2421C16.2846 29.1922 16.2846 29.1673 16.2943 29.1482C16.3029 29.1315 16.3165 29.1179 16.3333 29.1093C16.3523 29.0996 16.3772 29.0996 16.4271 29.0996H18.8444C18.8943 29.0996 18.9192 29.0996 18.9383 29.1093C18.955 29.1179 18.9687 29.1315 18.9772 29.1482C18.9869 29.1673 18.9869 29.1922 18.9869 29.2421V29.7387C18.9869 29.7885 18.9869 29.8135 18.9772 29.8325C18.9687 29.8493 18.955 29.8629 18.9383 29.8714C18.9192 29.8812 18.8943 29.8812 18.8444 29.8812H17.3676C17.3177 29.8812 17.2928 29.8812 17.2738 29.8909C17.257 29.8994 17.2434 29.913 17.2348 29.9298C17.2251 29.9488 17.2251 29.9738 17.2251 30.0237V30.8381C17.2251 30.888 17.2251 30.9129 17.2348 30.932C17.2434 30.9487 17.257 30.9624 17.2738 30.9709C17.2928 30.9806 17.3177 30.9806 17.3676 30.9806H18.5795C18.6294 30.9806 18.6543 30.9806 18.6733 30.9903C18.6901 30.9989 18.7037 31.0125 18.7123 31.0292C18.722 31.0483 18.722 31.0732 18.722 31.1231V31.6197C18.722 31.6695 18.722 31.6945 18.7123 31.7135C18.7037 31.7303 18.6901 31.7439 18.6733 31.7524C18.6543 31.7622 18.6294 31.7622 18.5795 31.7622H17.3676C17.3177 31.7622 17.2928 31.7622 17.2738 31.7719C17.257 31.7804 17.2434 31.794 17.2348 31.8108C17.2251 31.8298 17.2251 31.8548 17.2251 31.9047V32.8118C17.2251 32.8617 17.2251 32.8867 17.2348 32.9057C17.2434 32.9225 17.257 32.9361 17.2738 32.9446C17.2928 32.9543 17.3177 32.9543 17.3676 32.9543H18.8444C18.8943 32.9543 18.9192 32.9543 18.9383 32.964C18.955 32.9726 18.9687 32.9862 18.9772 33.003C18.9869 33.022 18.9869 33.047 18.9869 33.0968V33.5934C18.9869 33.6433 18.9869 33.6682 18.9772 33.6872C18.9687 33.704 18.955 33.7176 18.9383 33.7262C18.9192 33.7359 18.8943 33.7359 18.8444 33.7359H16.4271Z" fill="#2845C1"/>
        <path d="M19.7762 29.954C19.7263 29.954 19.7014 29.954 19.6823 29.9443C19.6656 29.9358 19.652 29.9221 19.6434 29.9054C19.6337 29.8863 19.6337 29.8614 19.6337 29.8115V29.2421C19.6337 29.1922 19.6337 29.1673 19.6434 29.1482C19.652 29.1315 19.6656 29.1179 19.6823 29.1093C19.7014 29.0996 19.7263 29.0996 19.7762 29.0996H23.2929C23.3428 29.0996 23.3678 29.0996 23.3868 29.1093C23.4036 29.1179 23.4172 29.1315 23.4257 29.1482C23.4354 29.1673 23.4354 29.1922 23.4354 29.2421V29.8115C23.4354 29.8614 23.4354 29.8863 23.4257 29.9054C23.4172 29.9221 23.4036 29.9358 23.3868 29.9443C23.3678 29.954 23.3428 29.954 23.2929 29.954H22.1473C22.0974 29.954 22.0725 29.954 22.0535 29.9637C22.0367 29.9723 22.0231 29.9859 22.0145 30.0026C22.0048 30.0217 22.0048 30.0466 22.0048 30.0965V33.5934C22.0048 33.6433 22.0048 33.6682 21.9951 33.6872C21.9866 33.704 21.973 33.7176 21.9562 33.7262C21.9371 33.7359 21.9122 33.7359 21.8623 33.7359H21.2068C21.1569 33.7359 21.132 33.7359 21.113 33.7262C21.0962 33.7176 21.0826 33.704 21.074 33.6872C21.0643 33.6682 21.0643 33.6433 21.0643 33.5934V30.0965C21.0643 30.0466 21.0643 30.0217 21.0546 30.0026C21.0461 29.9859 21.0325 29.9723 21.0157 29.9637C20.9966 29.954 20.9717 29.954 20.9218 29.954H19.7762Z" fill="#2845C1"/>
        <path d="M23.3724 33.7359C23.3031 33.7359 23.2685 33.7359 23.2463 33.7213C23.2268 33.7086 23.2131 33.6888 23.2081 33.6661C23.2024 33.6401 23.2146 33.6077 23.2392 33.5429L24.8864 29.1917C24.899 29.1585 24.9053 29.1419 24.9161 29.1296C24.9257 29.1188 24.9377 29.1105 24.9512 29.1054C24.9665 29.0996 24.9842 29.0996 25.0197 29.0996H26.0548C26.0903 29.0996 26.108 29.0996 26.1233 29.1054C26.1368 29.1105 26.1488 29.1188 26.1584 29.1296C26.1692 29.1419 26.1755 29.1585 26.188 29.1917L27.8353 33.5429C27.8598 33.6077 27.8721 33.6401 27.8664 33.6661C27.8613 33.6888 27.8476 33.7086 27.8282 33.7213C27.806 33.7359 27.7713 33.7359 27.702 33.7359H27.0076C26.9718 33.7359 26.9539 33.7359 26.9385 33.73C26.925 33.7248 26.9129 33.7164 26.9033 33.7054C26.8925 33.693 26.8863 33.6762 26.8739 33.6426L26.4988 32.6237C26.4865 32.5901 26.4803 32.5733 26.4694 32.5609C26.4599 32.55 26.4478 32.5415 26.4342 32.5363C26.4188 32.5304 26.4009 32.5304 26.3651 32.5304H24.7094C24.6736 32.5304 24.6556 32.5304 24.6403 32.5363C24.6267 32.5415 24.6146 32.55 24.605 32.5609C24.5942 32.5733 24.588 32.5901 24.5757 32.6237L24.2006 33.6426C24.1882 33.6762 24.182 33.693 24.1712 33.7054C24.1616 33.7164 24.1495 33.7248 24.1359 33.73C24.1206 33.7359 24.1027 33.7359 24.0668 33.7359H23.3724ZM24.9713 31.5377C24.9478 31.602 24.936 31.6342 24.9419 31.66C24.9471 31.6825 24.9608 31.7021 24.9802 31.7147C25.0023 31.729 25.0366 31.729 25.1051 31.729H25.9694C26.0379 31.729 26.0721 31.729 26.0943 31.7147C26.1136 31.7021 26.1274 31.6825 26.1325 31.66C26.1385 31.6342 26.1267 31.602 26.1032 31.5377L25.6711 30.3538C25.6298 30.2408 25.6092 30.1842 25.579 30.1682C25.5529 30.1543 25.5216 30.1543 25.4955 30.1682C25.4653 30.1842 25.4447 30.2408 25.4034 30.3538L24.9713 31.5377Z" fill="#2845C1"/>
        <path d="M52.8845 6.63368C53.377 6.63368 53.8338 6.74117 54.2546 6.95604C54.6463 7.15189 54.96 7.39601 55.1955 7.68851C55.2342 7.73652 55.2258 7.80612 55.1789 7.84613L54.3513 8.55217C54.2991 8.59669 54.2203 8.58723 54.177 8.53399C54.0241 8.34586 53.8484 8.18694 53.6501 8.05728C53.4174 7.90512 53.162 7.82874 52.8845 7.82874C52.6877 7.82877 52.5177 7.86482 52.3745 7.93639C52.2402 8.00802 52.137 8.10206 52.0654 8.21846C52.0027 8.33486 51.9715 8.46492 51.9715 8.60818C51.9716 8.82294 52.0474 9.00206 52.1995 9.14527C52.3607 9.27959 52.567 9.3962 52.8177 9.4947C53.0684 9.59316 53.3324 9.7007 53.6098 9.81706C53.8964 9.92451 54.1651 10.0589 54.4158 10.22C54.6665 10.3722 54.868 10.578 55.0202 10.8377C55.1813 11.0884 55.2619 11.4061 55.262 11.791C55.262 12.2476 55.1502 12.6373 54.9264 12.9596C54.7115 13.2729 54.425 13.5148 54.0669 13.6849C53.7087 13.855 53.3143 13.9405 52.8845 13.9405C52.3026 13.9405 51.7968 13.833 51.3671 13.6181C50.9711 13.4119 50.6206 13.1406 50.3158 12.8051C50.2724 12.7573 50.2777 12.6835 50.3262 12.6409L51.1534 11.9129C51.2039 11.8685 51.2812 11.8754 51.3251 11.9264C51.5198 12.1522 51.7353 12.3402 51.9715 12.4898C52.2401 12.6599 52.54 12.7449 52.8713 12.7449C53.1847 12.7449 53.4222 12.6643 53.5834 12.5031C53.7534 12.333 53.8384 12.1271 53.8384 11.8854C53.8384 11.6616 53.7577 11.4826 53.5966 11.3483C53.4444 11.214 53.2429 11.0974 52.9922 10.9989C52.7414 10.9004 52.4728 10.7972 52.1862 10.6898C51.9088 10.5734 51.6448 10.4347 51.3941 10.2736C51.1435 10.1124 50.9371 9.90655 50.7759 9.65588C50.6237 9.3962 50.5479 9.06467 50.5479 8.66172C50.5479 8.28567 50.6463 7.94551 50.8432 7.64108C51.0402 7.32767 51.3132 7.08102 51.6624 6.90193C52.0205 6.72289 52.428 6.63371 52.8845 6.63368Z" fill="#2845C1"/>
        <path d="M58.4632 6.63368C58.9556 6.6337 59.4125 6.74116 59.8333 6.95604C60.2249 7.15189 60.5387 7.39602 60.7742 7.68851C60.8129 7.73652 60.8045 7.80612 60.7576 7.84612L59.93 8.55216C59.8778 8.59669 59.799 8.58722 59.7557 8.53398C59.6028 8.34583 59.4272 8.18696 59.2288 8.05728C58.9961 7.90508 58.7407 7.82877 58.4632 7.82874C58.2662 7.82874 58.0959 7.86475 57.9526 7.93639C57.8183 8.00802 57.7151 8.10206 57.6435 8.21846C57.5808 8.33485 57.5497 8.46495 57.5497 8.60818C57.5497 8.823 57.626 9.00204 57.7782 9.14527C57.9394 9.27956 58.1452 9.39622 58.3959 9.4947C58.6466 9.59319 58.911 9.70066 59.1885 9.81706C59.475 9.9245 59.7438 10.0589 59.9945 10.22C60.2451 10.3722 60.4467 10.5781 60.5989 10.8377C60.76 11.0883 60.8406 11.4062 60.8407 11.791C60.8407 12.2476 60.7283 12.6372 60.5045 12.9596C60.2896 13.273 60.0032 13.5148 59.645 13.6849C59.2869 13.855 58.893 13.9405 58.4632 13.9405C57.8812 13.9405 57.375 13.833 56.9452 13.6181C56.5492 13.4119 56.1987 13.1406 55.8939 12.8051C55.8505 12.7573 55.8558 12.6835 55.9043 12.6409L56.7316 11.9129C56.7821 11.8685 56.8593 11.8754 56.9033 11.9264C57.0979 12.1522 57.3134 12.3402 57.5497 12.4898C57.8182 12.6599 58.1182 12.7448 58.4494 12.7449C58.7628 12.7449 59.0003 12.6643 59.1615 12.5031C59.3316 12.333 59.4165 12.1271 59.4165 11.8854C59.4165 11.6616 59.3359 11.4826 59.1747 11.3483C59.0225 11.214 58.821 11.0974 58.5703 10.9989C58.3196 10.9004 58.0508 10.7972 57.7644 10.6898C57.4869 10.5734 57.2229 10.4347 56.9723 10.2736C56.7216 10.1124 56.5157 9.90647 56.3546 9.65588C56.2024 9.3962 56.126 9.06467 56.126 8.66172C56.126 8.2857 56.2244 7.94549 56.4214 7.64108C56.6183 7.32771 56.8914 7.08102 57.2405 6.90193C57.5987 6.72284 58.0065 6.63368 58.4632 6.63368Z" fill="#2845C1"/>
        <path d="M67.3111 6.63368C67.8036 6.63368 68.2603 6.74114 68.6811 6.95604C69.0728 7.1519 69.3865 7.39599 69.6221 7.68851C69.6607 7.73652 69.6523 7.80612 69.6054 7.84612L68.7778 8.55217C68.7257 8.59669 68.6468 8.58723 68.6036 8.53399C68.4507 8.34584 68.275 8.18695 68.0767 8.05728C67.8439 7.90506 67.5887 7.82874 67.3111 7.82874C67.1141 7.82875 66.9437 7.86476 66.8005 7.93639C66.6663 8.008 66.5635 8.10214 66.4919 8.21846C66.4292 8.33487 66.3975 8.46491 66.3975 8.60818C66.3976 8.82299 66.4739 9.00205 66.626 9.14527C66.7872 9.27957 66.9931 9.39621 67.2437 9.4947C67.4945 9.59319 67.7588 9.70066 68.0364 9.81706C68.3229 9.92451 68.5916 10.0589 68.8423 10.22C69.093 10.3722 69.2946 10.5781 69.4468 10.8377C69.6079 11.0884 69.6885 11.4061 69.6885 11.791C69.6885 12.2475 69.5767 12.6373 69.3529 12.9596C69.138 13.273 68.8511 13.5148 68.4929 13.6849C68.1347 13.855 67.7409 13.9405 67.3111 13.9405C66.7291 13.9405 66.2229 13.833 65.7931 13.6181C65.3971 13.4119 65.047 13.1406 64.7423 12.8051C64.699 12.7573 64.7043 12.6835 64.7527 12.6409L65.5794 11.913C65.6299 11.8685 65.7072 11.8754 65.7511 11.9264C65.9458 12.1522 66.1613 12.3402 66.3975 12.4898C66.6661 12.66 66.9665 12.7449 67.2978 12.7449C67.6111 12.7448 67.8482 12.6642 68.0094 12.5031C68.1795 12.333 68.2649 12.1271 68.2649 11.8854C68.2649 11.6617 68.1842 11.4826 68.0232 11.3483C67.871 11.214 67.6694 11.0974 67.4187 10.9989C67.168 10.9004 66.8993 10.7972 66.6128 10.6898C66.3352 10.5734 66.0709 10.4347 65.8201 10.2736C65.5695 10.1124 65.3636 9.9065 65.2024 9.65588C65.0502 9.3962 64.9739 9.06467 64.9739 8.66172C64.9739 8.28563 65.0728 7.94553 65.2698 7.64108C65.4668 7.32768 65.7397 7.08102 66.089 6.90193C66.4471 6.72291 66.8545 6.63368 67.3111 6.63368Z" fill="#2845C1"/>
        <path fill-rule="evenodd" clip-rule="evenodd" d="M79.0178 6.76838C79.6356 6.76839 80.1596 6.88014 80.5894 7.10399C81.0191 7.32785 81.3416 7.63682 81.5565 8.0308C81.7803 8.42478 81.8921 8.86809 81.8921 9.36057V13.6885C81.8921 13.7536 81.8393 13.8064 81.7742 13.8064H80.5322C80.4671 13.8064 80.4144 13.7536 80.4144 13.6885V13.2408C80.4144 13.1852 80.3423 13.1588 80.3035 13.1988C80.2436 13.2606 80.1777 13.3198 80.1058 13.3764C79.864 13.5734 79.5819 13.726 79.2596 13.8334C78.9373 13.9498 78.6105 14.0078 78.2792 14.0079C77.6166 14.0079 77.0744 13.8289 76.6536 13.4708C76.2328 13.1126 76.0227 12.6333 76.0227 12.0333C76.0227 11.523 76.2151 11.0888 76.6 10.7306C76.9851 10.3725 77.5402 10.135 78.2654 10.0185L80.3162 9.67025C80.3729 9.66062 80.4144 9.61151 80.4144 9.55402V9.36057C80.4144 8.95775 80.2804 8.64436 80.012 8.42052C79.7434 8.18775 79.394 8.07114 78.9643 8.07109C78.6151 8.07109 78.297 8.14741 78.0104 8.29963C77.7679 8.43262 77.5595 8.60995 77.3854 8.83177C77.344 8.88452 77.2677 8.89657 77.2145 8.85582L76.3149 8.16761C76.2643 8.12891 76.2535 8.05685 76.2925 8.00651C76.5781 7.63819 76.9402 7.3463 77.3789 7.13104C77.8624 6.88928 78.4089 6.76838 79.0178 6.76838ZM78.6419 10.9995C78.239 11.0621 77.9477 11.1782 77.7686 11.3483C77.5896 11.5094 77.4999 11.7154 77.4998 11.966C77.4998 12.2167 77.5939 12.4231 77.7819 12.5843C77.9789 12.7454 78.2432 12.826 78.5746 12.826C78.9864 12.826 79.3492 12.732 79.6625 12.544C79.9197 12.3896 80.1372 12.1927 80.3158 11.9539C80.3834 11.8634 80.4144 11.7517 80.4144 11.6387V10.8444C80.4144 10.7716 80.349 10.7162 80.2772 10.7281L78.6419 10.9995Z" fill="#2845C1"/>
        <path d="M73.0028 6.91874C73.0028 6.98385 73.0555 7.03664 73.1207 7.03664H75.0747C75.1398 7.03664 75.1926 7.08942 75.1926 7.15453V8.24851C75.1926 8.31362 75.1398 8.36641 75.0747 8.36641H73.1207C73.0555 8.36641 73.0028 8.41919 73.0028 8.4843V11.4157C73.0028 11.7111 73.0523 11.9438 73.1507 12.1139C73.2491 12.284 73.388 12.4092 73.5669 12.4898C73.746 12.5615 73.9566 12.5975 74.1984 12.5975C74.4312 12.5975 74.6284 12.5841 74.7896 12.5572C74.8815 12.5368 74.966 12.5149 75.0433 12.4916C75.1225 12.4677 75.2058 12.5252 75.2058 12.608V13.6624C75.2058 13.709 75.1785 13.7516 75.1351 13.7685C74.9915 13.8244 74.8313 13.864 74.6549 13.887C74.4579 13.9228 74.2252 13.9405 73.9566 13.9405C73.4194 13.9405 72.9669 13.8465 72.5998 13.6584C72.2418 13.4614 71.9686 13.1792 71.7806 12.8122C71.6016 12.4362 71.5124 11.9707 71.5124 11.4157V8.4843C71.5124 8.41919 71.4596 8.36641 71.3945 8.36641H70.422C70.3569 8.36641 70.3041 8.31362 70.3041 8.24851V7.15453C70.3041 7.08942 70.3569 7.03664 70.422 7.03664H71.3945C71.4596 7.03664 71.5124 6.98385 71.5124 6.91874V5.46267C71.5124 5.39756 71.5652 5.34478 71.6303 5.34478H72.8849C72.95 5.34478 73.0028 5.39756 73.0028 5.46267V6.91874Z" fill="#2845C1"/>
        <path d="M93.3845 6.91874C93.3845 6.98385 93.4373 7.03664 93.5024 7.03664H95.4558C95.5209 7.03664 95.5737 7.08942 95.5737 7.15453V8.24851C95.5737 8.31362 95.5209 8.36641 95.4558 8.36641H93.5024C93.4373 8.36641 93.3845 8.41919 93.3845 8.4843V11.4157C93.3845 11.711 93.4335 11.9438 93.5319 12.1139C93.6304 12.2841 93.7696 12.4093 93.9487 12.4898C94.1277 12.5615 94.3379 12.5975 94.5796 12.5975C94.8124 12.5975 95.0096 12.5841 95.1708 12.5572C95.2626 12.5368 95.3472 12.5149 95.4245 12.4916C95.5037 12.4676 95.587 12.5252 95.587 12.6079V13.6624C95.587 13.709 95.5597 13.7516 95.5163 13.7685C95.3728 13.8244 95.213 13.864 95.0366 13.887C94.8396 13.9228 94.6064 13.9405 94.3378 13.9405C93.8006 13.9405 93.3486 13.8464 92.9815 13.6584C92.6234 13.4614 92.3504 13.1793 92.1624 12.8122C91.9833 12.4362 91.8936 11.9707 91.8936 11.4157V8.4843C91.8936 8.41919 91.8408 8.36641 91.7757 8.36641H90.749C90.6839 8.36641 90.6311 8.31362 90.6311 8.24851V7.15453C90.6311 7.08942 90.6839 7.03664 90.749 7.03664H91.7757C91.8408 7.03664 91.8936 6.98385 91.8936 6.91874V5.46267C91.8936 5.39756 91.9463 5.34478 92.0114 5.34478H93.2666C93.3317 5.34478 93.3845 5.39756 93.3845 5.46267V6.91874Z" fill="#2845C1"/>
        <path fill-rule="evenodd" clip-rule="evenodd" d="M49.9155 13.6459C49.9454 13.7232 49.8884 13.8064 49.8055 13.8064H48.2998C48.2508 13.8064 48.2069 13.776 48.1896 13.7302L47.2715 11.3036C47.2541 11.2578 47.2102 11.2274 47.1612 11.2274H43.3427C43.2938 11.2274 43.2499 11.2577 43.2325 11.3035L42.3105 13.7303C42.2931 13.7761 42.2493 13.8064 42.2003 13.8064H40.7075C40.6247 13.8064 40.5677 13.7233 40.5975 13.6461L44.1326 4.47963C44.1502 4.43415 44.1939 4.40415 44.2426 4.40415H46.2569C46.3056 4.40415 46.3493 4.43408 46.3669 4.47949L49.9155 13.6459ZM43.8529 9.67111C43.8236 9.74826 43.8805 9.83088 43.9631 9.83088H46.5435C46.626 9.83088 46.683 9.74838 46.6538 9.67125L45.3661 6.2693C45.3277 6.16783 45.1842 6.16773 45.1456 6.26916L43.8529 9.67111Z" fill="#2845C1"/>
        <path d="M63.6598 13.6885C63.6598 13.7536 63.6071 13.8064 63.5419 13.8064H62.3006C62.2355 13.8064 62.1827 13.7536 62.1827 13.6885V7.15453C62.1827 7.08942 62.2355 7.03664 62.3006 7.03664H63.5419C63.6071 7.03664 63.6598 7.08942 63.6598 7.15453V13.6885Z" fill="#2845C1"/>
        <path d="M87.1634 6.76838C87.6648 6.76838 88.1124 6.88018 88.5064 7.10399C88.9093 7.32785 89.2274 7.65938 89.4602 8.09815C89.693 8.53689 89.8097 9.08774 89.8097 9.75029V13.6885C89.8097 13.7536 89.7569 13.8064 89.6918 13.8064H88.4366C88.3715 13.8064 88.3187 13.7536 88.3187 13.6885V9.80382C88.3187 9.28453 88.1843 8.88148 87.9158 8.59494C87.6471 8.29945 87.2796 8.15169 86.8139 8.15169C86.5186 8.15171 86.2589 8.20975 86.0351 8.32611C85.8112 8.43356 85.6189 8.57275 85.4577 8.74289C85.342 8.87219 85.2391 9.00658 85.1492 9.14619C85.0937 9.23244 85.068 9.33393 85.068 9.43652V13.6885C85.068 13.7536 85.0152 13.8064 84.9501 13.8064H83.7087C83.6436 13.8064 83.5908 13.7536 83.5908 13.6885V7.15453C83.5908 7.08942 83.6436 7.03664 83.7087 7.03664H84.9501C85.0152 7.03664 85.068 7.08942 85.068 7.15453V7.50706C85.068 7.56018 85.1335 7.5869 85.1721 7.55044C85.3944 7.34072 85.6508 7.16491 85.9412 7.0234C86.2904 6.85331 86.6978 6.76838 87.1634 6.76838Z" fill="#2845C1"/>
        <path d="M62.9345 3.65234C63.1136 3.65234 63.2748 3.69694 63.4181 3.78647C63.5703 3.87602 63.6869 3.99691 63.7675 4.14914C63.857 4.29238 63.9016 4.45364 63.9016 4.63269C63.9016 4.8117 63.857 4.97731 63.7675 5.12948C63.6869 5.28171 63.5703 5.4026 63.4181 5.49215C63.2748 5.57273 63.1136 5.61303 62.9345 5.61303C62.7555 5.61302 62.5899 5.57271 62.4377 5.49215C62.2855 5.4026 62.1646 5.28171 62.075 5.12948C61.9855 4.97729 61.9409 4.81173 61.9409 4.63269C61.9409 4.36406 62.035 4.1357 62.223 3.94766C62.4199 3.75076 62.657 3.65236 62.9345 3.65234Z" fill="#2845C1"/>
    </g>
    <defs>
        <linearGradient id="paint0_linear_4916_7672" x1="20" y1="27" x2="20" y2="36" gradientUnits="userSpaceOnUse">
            <stop stop-color="#2845C1"/>
            <stop offset="1" stop-color="#EEF1F4"/>
        </linearGradient>
        <clipPath id="clip0_4916_7672">
            <rect width="159" height="40" fill="white"/>
        </clipPath>
    </defs>
</svg>
