<svg width="32" height="32" viewBox="0 0 32 32" fill="none" xmlns="http://www.w3.org/2000/svg">
    <path fill-rule="evenodd" clip-rule="evenodd"
          d="M14.88 0.822766C15.6184 0.665849 16.3816 0.665849 17.12 0.822766C17.9549 1.00021 18.7404 1.45363 20.3108 2.36033L25.6892 5.46594C27.2595 6.37257 28.0449 6.82571 28.616 7.45994C29.1212 8.02108 29.5027 8.68218 29.736 9.40029C29.9998 10.2119 30 11.1186 30 12.9318V19.142C30 20.9555 29.9998 21.8629 29.736 22.6746C29.5027 23.3927 29.1212 24.0539 28.616 24.615C28.0449 25.2492 27.2595 25.7023 25.6892 26.609L20.3108 29.7146C18.7405 30.6212 17.9548 31.0747 17.12 31.2522C16.3816 31.409 15.6184 31.409 14.88 31.2522C14.0452 31.0747 13.2595 30.6212 11.6892 29.7146L6.31085 26.609C4.7405 25.7023 3.95508 25.2492 3.38401 24.615C2.87882 24.0539 2.49734 23.3927 2.26397 22.6746C2.00024 21.8629 2 20.9555 2 19.142V12.9318C2 11.1186 2.00025 10.2119 2.26397 9.40029C2.49731 8.68218 2.87879 8.02108 3.38401 7.45994C3.95507 6.82571 4.74053 6.37257 6.31085 5.46594L11.6892 2.36033C13.2596 1.45363 14.0451 1.00021 14.88 0.822766ZM16 6.30519C10.6471 6.30519 6.30769 10.6446 6.30769 15.9975C6.30775 21.3504 10.6471 25.6898 16 25.6898C21.3529 25.6898 25.6923 21.3504 25.6923 15.9975C25.6923 10.6446 21.3529 6.30519 16 6.30519Z"
          fill="#2845C1"/>
    <path d="M16.0073 23.5506C14.9719 23.5506 14 23.3503 13.0916 22.9498C12.1832 22.5591 11.3822 22.017 10.6887 21.3235C9.99513 20.6299 9.44812 19.8289 9.04763 18.9205C8.65691 18.0121 8.46155 17.0402 8.46155 16.0048C8.46155 14.9791 8.65691 14.0121 9.04763 13.1037C9.44812 12.1855 9.99513 11.3796 10.6887 10.6861C11.3822 9.99256 12.1783 9.45044 13.0769 9.05972C13.9854 8.65923 14.9573 8.45898 15.9927 8.45898C17.0183 8.45898 17.9854 8.65923 18.8938 9.05972C19.812 9.45044 20.6178 9.99256 21.3114 10.6861C22.0049 11.3796 22.547 12.1855 22.9377 13.1037C23.3382 14.0121 23.5385 14.9791 23.5385 16.0048C23.5385 17.0402 23.3382 18.0121 22.9377 18.9205C22.547 19.8289 22.0049 20.6299 21.3114 21.3235C20.6276 22.017 19.8266 22.5591 18.9084 22.9498C18 23.3503 17.033 23.5506 16.0073 23.5506ZM16.0073 21.6311C17.0427 21.6311 17.9854 21.3772 18.8352 20.8692C19.685 20.3711 20.359 19.6971 20.8572 18.8473C21.3651 17.9974 21.6191 17.0499 21.6191 16.0048C21.6191 14.9694 21.3651 14.0267 20.8572 13.1769C20.359 12.3271 19.685 11.6482 18.8352 11.1403C17.9854 10.6324 17.0379 10.3784 15.9927 10.3784C14.9573 10.3784 14.0147 10.6324 13.1648 11.1403C12.3248 11.6482 11.6508 12.3271 11.1429 13.1769C10.6447 14.0267 10.3956 14.9694 10.3956 16.0048C10.3956 17.0499 10.6447 17.9974 11.1429 18.8473C11.6508 19.6971 12.3248 20.3711 13.1648 20.8692C14.0147 21.3772 14.9622 21.6311 16.0073 21.6311ZM15.9927 20.3125C15.2112 20.3125 14.4933 20.1171 13.8388 19.7264C13.1941 19.3357 12.6764 18.8131 12.2857 18.1586C11.895 17.5139 11.6996 16.8009 11.6996 16.0194C11.6996 15.2282 11.895 14.5054 12.2857 13.8509C12.6764 13.1965 13.1941 12.6788 13.8388 12.2978C14.4933 11.9071 15.2112 11.7117 15.9927 11.7117C16.7741 11.7117 17.4921 11.9071 18.1465 12.2978C18.801 12.6788 19.3236 13.1965 19.7143 13.8509C20.105 14.5054 20.3004 15.2282 20.3004 16.0194C20.3004 16.8009 20.105 17.5139 19.7143 18.1586C19.3333 18.8131 18.8156 19.3357 18.1612 19.7264C17.5067 20.1171 16.7839 20.3125 15.9927 20.3125Z"
          fill="#C83F49"/>
</svg>
