<svg width="32" height="32" viewBox="0 0 32 32" fill="none" xmlns="http://www.w3.org/2000/svg">
    <path fill-rule="evenodd" clip-rule="evenodd" d="M14.96 1.90909C15.6457 1.76338 16.3543 1.76338 17.04 1.90909C17.8152 2.07386 18.5447 2.49488 20.0029 3.33682L24.9971 6.22061C26.4552 7.06247 27.1846 7.48325 27.7148 8.07217C28.184 8.59323 28.5382 9.20711 28.7549 9.87393C28.9998 10.6276 29 11.4695 29 13.1532V18.9198C29 20.6037 28.9998 21.4464 28.7549 22.2001C28.5382 22.8668 28.184 23.4809 27.7148 24.0019C27.1846 24.5908 26.4552 25.0115 24.9971 25.8534L20.0029 28.7372C18.5448 29.5791 17.8152 30.0002 17.04 30.1649C16.3544 30.3106 15.6456 30.3106 14.96 30.1649C14.1848 30.0002 13.4552 29.5791 11.9971 28.7372L7.00293 25.8534C5.54475 25.0115 4.81543 24.5908 4.28516 24.0019C3.81605 23.4809 3.46182 22.8668 3.24512 22.2001C3.00022 21.4464 3 20.6037 3 18.9198V13.1532C3 11.4695 3.00023 10.6276 3.24512 9.87393C3.46179 9.20711 3.81602 8.59323 4.28516 8.07217C4.81542 7.48325 5.54478 7.06247 7.00293 6.22061L11.9971 3.33682C13.4553 2.49488 14.1848 2.07386 14.96 1.90909ZM16 6.99991C11.0294 6.99991 7 11.0293 7 15.9999C7.00005 20.9704 11.0295 24.9999 16 24.9999C20.9705 24.9999 24.9999 20.9704 25 15.9999C25 11.0293 20.9706 6.99991 16 6.99991Z" fill="#2845C1"/>
    <path d="M16.0068 23.0136C15.0454 23.0136 14.1429 22.8277 13.2993 22.4558C12.4558 22.093 11.712 21.5896 11.068 20.9456C10.424 20.3016 9.9161 19.5578 9.54422 18.7143C9.18141 17.8707 9 16.9683 9 16.0068C9 15.0544 9.18141 14.1565 9.54422 13.3129C9.9161 12.4603 10.424 11.712 11.068 11.068C11.712 10.424 12.4512 9.92063 13.2857 9.55782C14.1293 9.18594 15.0317 9 15.9932 9C16.9456 9 17.8435 9.18594 18.6871 9.55782C19.5397 9.92063 20.288 10.424 20.932 11.068C21.576 11.712 22.0794 12.4603 22.4422 13.3129C22.8141 14.1565 23 15.0544 23 16.0068C23 16.9683 22.8141 17.8707 22.4422 18.7143C22.0794 19.5578 21.576 20.3016 20.932 20.9456C20.2971 21.5896 19.5533 22.093 18.7007 22.4558C17.8571 22.8277 16.9592 23.0136 16.0068 23.0136ZM16.0068 21.2313C16.9683 21.2313 17.8435 20.9955 18.6327 20.5238C19.4218 20.0612 20.0476 19.4354 20.5102 18.6463C20.9819 17.8571 21.2177 16.9773 21.2177 16.0068C21.2177 15.0454 20.9819 14.1701 20.5102 13.381C20.0476 12.5918 19.4218 11.9615 18.6327 11.4898C17.8435 11.0181 16.9637 10.7823 15.9932 10.7823C15.0317 10.7823 14.1565 11.0181 13.3673 11.4898C12.5873 11.9615 11.9615 12.5918 11.4898 13.381C11.0272 14.1701 10.7959 15.0454 10.7959 16.0068C10.7959 16.9773 11.0272 17.8571 11.4898 18.6463C11.9615 19.4354 12.5873 20.0612 13.3673 20.5238C14.1565 20.9955 15.0363 21.2313 16.0068 21.2313ZM15.9932 20.0068C15.2676 20.0068 14.6009 19.8254 13.9932 19.4626C13.3946 19.0998 12.9138 18.6145 12.551 18.0068C12.1882 17.4082 12.0068 16.746 12.0068 16.0204C12.0068 15.2857 12.1882 14.6145 12.551 14.0068C12.9138 13.3991 13.3946 12.9184 13.9932 12.5646C14.6009 12.2018 15.2676 12.0204 15.9932 12.0204C16.7188 12.0204 17.3855 12.2018 17.9932 12.5646C18.6009 12.9184 19.0862 13.3991 19.449 14.0068C19.8118 14.6145 19.9932 15.2857 19.9932 16.0204C19.9932 16.746 19.8118 17.4082 19.449 18.0068C19.0952 18.6145 18.6145 19.0998 18.0068 19.4626C17.3991 19.8254 16.7279 20.0068 15.9932 20.0068Z" fill="#C83F49"/>
</svg>
