<svg width="159" height="40" viewBox="0 0 159 40" fill="none" xmlns="http://www.w3.org/2000/svg">
    <g clip-path="url(#clip0_4910_1417)">
        <path fill-rule="evenodd" clip-rule="evenodd" d="M129.463 21.6855C130.689 21.6856 131.739 21.977 132.613 22.5596C133.502 23.1268 134.185 23.8855 134.66 24.8359C135.151 25.7713 135.396 26.8067 135.396 27.9414C135.396 28.7846 135.258 29.5818 134.982 30.333C134.706 31.0843 134.307 31.7513 133.786 32.334C133.28 32.9165 132.66 33.3766 131.924 33.7139C131.203 34.0358 130.383 34.1972 129.463 34.1973C128.666 34.1973 127.96 34.0672 127.347 33.8066C126.733 33.546 126.189 33.1702 125.714 32.6797C125.689 32.653 125.645 32.6695 125.645 32.7061V39.0752C125.645 39.187 125.645 39.2434 125.623 39.2861C125.604 39.3238 125.573 39.3548 125.535 39.374C125.492 39.3957 125.436 39.3955 125.324 39.3955H123.458C123.346 39.3955 123.29 39.3957 123.247 39.374C123.209 39.3548 123.178 39.3238 123.159 39.2861C123.138 39.2434 123.138 39.187 123.138 39.0752V22.4658C123.138 22.354 123.138 22.2976 123.159 22.2549C123.178 22.2173 123.209 22.1862 123.247 22.167C123.29 22.1453 123.346 22.1455 123.458 22.1455H125.324C125.436 22.1455 125.492 22.1453 125.535 22.167C125.573 22.1862 125.604 22.2173 125.623 22.2549C125.645 22.2976 125.645 22.354 125.645 22.4658V23.1758C125.645 23.2122 125.689 23.2293 125.714 23.2031C126.189 22.7126 126.733 22.3368 127.347 22.0762C127.96 21.8156 128.666 21.6855 129.463 21.6855ZM129.141 24.0547C128.42 24.0547 127.753 24.2232 127.14 24.5605C126.68 24.8081 126.275 25.1511 125.924 25.5889C125.842 25.6912 125.8 25.7425 125.754 25.833C125.719 25.9018 125.681 26.0113 125.665 26.0869C125.645 26.1865 125.645 26.2748 125.645 26.4512V29.4307C125.645 29.6071 125.645 29.6959 125.665 29.7949C125.681 29.8706 125.718 29.9791 125.753 30.0479C125.799 30.1379 125.84 30.19 125.923 30.2939C126.274 30.7354 126.679 31.0861 127.14 31.3457C127.753 31.6676 128.42 31.8281 129.141 31.8281C129.877 31.8281 130.513 31.6596 131.05 31.3223C131.602 30.9696 132.023 30.5015 132.314 29.9189C132.621 29.3364 132.774 28.6773 132.774 27.9414C132.774 27.2054 132.621 26.5456 132.314 25.9629C132.023 25.3804 131.602 24.9203 131.05 24.583C130.513 24.2304 129.877 24.0547 129.141 24.0547Z" fill="#2845C1"/>
        <path d="M90.6904 21.6855C91.5491 21.6855 92.3389 21.8693 93.0596 22.2373C93.69 22.5525 94.2025 22.9354 94.5967 23.3857C94.6603 23.4584 94.6924 23.4953 94.7041 23.542C94.7138 23.5809 94.7103 23.6278 94.6953 23.665C94.6773 23.7097 94.6374 23.7441 94.5586 23.8125L93.3223 24.8848C93.2311 24.9638 93.1853 25.0031 93.1387 25.0146C93.0956 25.0253 93.0568 25.0226 93.0156 25.0059C92.9711 24.9878 92.928 24.9383 92.8428 24.8398C92.6012 24.5608 92.3284 24.3218 92.0244 24.123C91.6259 23.8625 91.189 23.7325 90.7139 23.7324C90.3767 23.7324 90.0851 23.7934 89.8398 23.916C89.6098 24.0387 89.4332 24.2001 89.3105 24.3994C89.1879 24.5987 89.127 24.8211 89.127 25.0664C89.127 25.4344 89.265 25.741 89.541 25.9863C89.817 26.2162 90.1695 26.4154 90.5986 26.584C91.028 26.7527 91.4807 26.9374 91.9561 27.1367C92.4311 27.3207 92.8834 27.5503 93.3125 27.8262C93.7418 28.0868 94.0951 28.4401 94.3711 28.8848C94.6469 29.314 94.7842 29.8585 94.7842 30.5176C94.7688 31.2995 94.5779 31.9666 94.21 32.5186C93.842 33.0552 93.3506 33.4694 92.7373 33.7607C92.1242 34.0519 91.4496 34.1972 90.7139 34.1973C89.7172 34.1973 88.8503 34.0135 88.1143 33.6455C87.4703 33.3101 86.8966 32.8749 86.3936 32.3398C86.3213 32.263 86.2847 32.224 86.2715 32.1768C86.2602 32.1365 86.2623 32.0898 86.2773 32.0508C86.295 32.005 86.3371 31.9684 86.4199 31.8955L87.6514 30.8115C87.7404 30.7331 87.7854 30.6935 87.832 30.6816C87.8744 30.6709 87.9144 30.6733 87.9551 30.6895C87.9997 30.7073 88.0414 30.7543 88.124 30.8486C88.4358 31.2045 88.7776 31.5008 89.1494 31.7363C89.6094 32.0123 90.1232 32.1504 90.6904 32.1504C91.2271 32.1504 91.6413 32.0123 91.9326 31.7363C92.2239 31.4451 92.37 31.0925 92.3701 30.6787C92.3701 30.2956 92.2317 29.9887 91.9561 29.7588C91.6801 29.5288 91.3268 29.3288 90.8975 29.1602C90.4682 28.9915 90.0082 28.8148 89.5176 28.6309C89.0423 28.4315 88.5894 28.1939 88.1602 27.918C87.731 27.642 87.3784 27.2814 87.1025 26.8369C86.842 26.3923 86.7119 25.8327 86.7119 25.1582C86.7119 24.499 86.8805 23.909 87.2178 23.3877C87.5551 22.8664 88.0231 22.4522 88.6211 22.1455C89.2343 21.839 89.924 21.6856 90.6904 21.6855Z" fill="#2845C1"/>
        <path d="M102.357 21.6855C103.415 21.6855 104.359 21.8999 105.187 22.3291C105.931 22.6944 106.556 23.179 107.062 23.7832C107.128 23.8632 107.161 23.9039 107.172 23.9521C107.181 23.993 107.176 24.0402 107.158 24.0781C107.137 24.1228 107.094 24.1567 107.007 24.2236L105.545 25.3438C105.452 25.415 105.406 25.4508 105.36 25.46C105.318 25.4686 105.281 25.4646 105.241 25.4473C105.199 25.4287 105.157 25.3801 105.073 25.2822C104.798 24.9584 104.46 24.6871 104.06 24.4688C103.569 24.1928 102.994 24.0547 102.335 24.0547C101.798 24.0547 101.3 24.1542 100.84 24.3535C100.395 24.5375 100.004 24.8056 99.667 25.1582C99.345 25.5108 99.0922 25.9251 98.9082 26.4004C98.7395 26.8757 98.6543 27.3894 98.6543 27.9414C98.6543 28.6774 98.8157 29.3444 99.1377 29.9424C99.4597 30.525 99.8972 30.9849 100.449 31.3223C101.001 31.6595 101.645 31.8281 102.381 31.8281C103.009 31.8281 103.569 31.69 104.06 31.4141C104.46 31.1957 104.798 30.9245 105.073 30.6006C105.157 30.5025 105.199 30.4531 105.241 30.4346C105.281 30.4172 105.318 30.4133 105.36 30.4219C105.406 30.431 105.453 30.4667 105.546 30.5381L107.004 31.6572C107.092 31.7247 107.137 31.7587 107.157 31.8037C107.175 31.8419 107.179 31.8896 107.17 31.9307C107.159 31.9791 107.125 32.0195 107.057 32.0996C106.552 32.6911 105.929 33.176 105.187 33.5537C104.359 33.9829 103.415 34.1973 102.357 34.1973C101.054 34.1972 99.9271 33.914 98.9766 33.3467C98.0259 32.764 97.2899 31.9966 96.7686 31.0459C96.2627 30.0954 96.0098 29.0605 96.0098 27.9414C96.0098 27.0981 96.155 26.3002 96.4463 25.5488C96.7376 24.7976 97.16 24.1304 97.7119 23.5479C98.2639 22.9653 98.931 22.5133 99.7129 22.1914C100.495 21.8541 101.376 21.6856 102.357 21.6855Z" fill="#2845C1"/>
        <path d="M149.868 21.6855C150.727 21.6856 151.517 21.8693 152.237 22.2373C152.868 22.5526 153.38 22.9354 153.774 23.3857C153.838 23.4584 153.87 23.4953 153.882 23.542C153.892 23.5809 153.888 23.6278 153.873 23.665C153.855 23.7097 153.815 23.7441 153.736 23.8125L152.5 24.8848C152.409 24.9638 152.363 25.0031 152.316 25.0146C152.273 25.0253 152.235 25.0226 152.193 25.0059C152.149 24.9878 152.106 24.9383 152.021 24.8398C151.779 24.5608 151.506 24.3218 151.202 24.123C150.803 23.8624 150.366 23.7324 149.891 23.7324C149.553 23.7325 149.262 23.7934 149.017 23.916C148.787 24.0387 148.611 24.2002 148.488 24.3994C148.366 24.5987 148.304 24.8211 148.304 25.0664C148.304 25.4343 148.442 25.741 148.718 25.9863C148.994 26.2163 149.347 26.4153 149.776 26.584C150.206 26.7526 150.658 26.9374 151.133 27.1367C151.608 27.3207 152.061 27.5502 152.49 27.8262C152.92 28.0868 153.272 28.4401 153.548 28.8848C153.824 29.3141 153.962 29.8584 153.962 30.5176C153.947 31.2995 153.755 31.9666 153.387 32.5186C153.019 33.0551 152.528 33.4695 151.915 33.7607C151.302 34.052 150.627 34.1973 149.891 34.1973C148.894 34.1972 148.028 34.0134 147.292 33.6455C146.648 33.3101 146.074 32.8749 145.571 32.3398C145.499 32.2629 145.462 32.224 145.449 32.1768C145.438 32.1365 145.44 32.0898 145.455 32.0508C145.473 32.005 145.515 31.9684 145.598 31.8955L146.829 30.8115C146.918 30.7331 146.963 30.6935 147.01 30.6816C147.052 30.6709 147.092 30.6733 147.133 30.6895C147.177 30.7073 147.219 30.7543 147.302 30.8486C147.614 31.2045 147.955 31.5008 148.327 31.7363C148.787 32.0123 149.301 32.1504 149.868 32.1504C150.405 32.1504 150.819 32.0123 151.11 31.7363C151.401 31.4451 151.547 31.0925 151.547 30.6787C151.547 30.2954 151.409 29.9888 151.133 29.7588C150.857 29.5288 150.504 29.3288 150.075 29.1602C149.646 28.9915 149.186 28.8148 148.695 28.6309C148.22 28.4315 147.767 28.194 147.338 27.918C146.909 27.642 146.556 27.2815 146.28 26.8369C146.02 26.3923 145.889 25.8328 145.889 25.1582C145.889 24.4991 146.057 23.9089 146.395 23.3877C146.732 22.8664 147.2 22.4522 147.798 22.1455C148.411 21.8388 149.101 21.6855 149.868 21.6855Z" fill="#2845C1"/>
        <path fill-rule="evenodd" clip-rule="evenodd" d="M65.9512 21.6855C67.0092 21.6855 67.9066 21.8774 68.6426 22.2607C69.3784 22.6441 69.9309 23.1731 70.2988 23.8477C70.6666 24.5068 70.8505 25.2657 70.8506 26.124V33.417C70.8506 33.5288 70.8508 33.5852 70.8291 33.6279C70.8099 33.6656 70.7788 33.6966 70.7412 33.7158C70.6985 33.7375 70.6421 33.7373 70.5303 33.7373H68.6865C68.5747 33.7373 68.5183 33.7375 68.4756 33.7158C68.438 33.6966 68.4069 33.6656 68.3877 33.6279C68.366 33.5852 68.3662 33.5288 68.3662 33.417V32.915C68.3662 32.769 68.3662 32.6958 68.3428 32.668C68.3212 32.6424 68.2941 32.631 68.2607 32.6328C68.2244 32.6349 68.168 32.688 68.0557 32.7939C67.9798 32.8654 67.8993 32.9343 67.8145 33.001C67.4005 33.3383 66.9172 33.5992 66.3652 33.7832C65.8286 33.9825 65.2763 34.082 64.709 34.082C63.5592 34.082 62.6239 33.7754 61.9033 33.1621C61.1828 32.5488 60.8223 31.7284 60.8223 30.7012C60.8223 29.8272 61.1522 29.0911 61.8115 28.4932C62.4708 27.8799 63.4213 27.4656 64.6631 27.251L68.0996 26.667C68.1943 26.6509 68.2418 26.6429 68.2773 26.6191C68.3085 26.5983 68.3333 26.5693 68.3486 26.5352C68.3661 26.4962 68.3662 26.4476 68.3662 26.3516V26.124C68.3661 25.4342 68.1286 24.8898 67.6533 24.4912C67.1933 24.0926 66.5953 23.8936 65.8594 23.8936C65.2614 23.8936 64.7172 24.0316 64.2266 24.3076C63.8467 24.516 63.5154 24.7883 63.2334 25.124C63.1522 25.2207 63.111 25.2693 63.0684 25.2881C63.0288 25.3054 62.9916 25.3092 62.9492 25.3008C62.9036 25.2917 62.8569 25.2562 62.7646 25.1855L61.417 24.1533C61.3298 24.0866 61.2864 24.0526 61.2656 24.0078C61.2482 23.9701 61.2424 23.9235 61.251 23.8828C61.2613 23.8346 61.295 23.7946 61.3613 23.7148C61.8508 23.1269 62.4532 22.6574 63.168 22.3066C63.9806 21.8927 64.9086 21.6856 65.9512 21.6855ZM68.1787 28.4365L65.3076 28.9307C64.6176 29.038 64.1192 29.237 63.8125 29.5283C63.5059 29.8196 63.3526 30.1721 63.3525 30.5859C63.3525 31.0152 63.5131 31.3686 63.835 31.6445C64.1723 31.9205 64.6179 32.0586 65.1699 32.0586C65.8904 32.0585 66.5191 31.8971 67.0557 31.5752C67.4604 31.3323 67.8083 31.0282 68.0996 30.6631C68.1738 30.5702 68.2109 30.5236 68.2568 30.4336C68.2908 30.3669 68.3307 30.2531 68.3457 30.1797C68.366 30.0804 68.3662 29.9956 68.3662 29.8262V28.5938C68.3662 28.5287 68.3658 28.4958 68.3525 28.4727C68.3408 28.4526 68.3226 28.4367 68.3008 28.4287C68.2757 28.4195 68.243 28.4255 68.1787 28.4365Z" fill="#2845C1"/>
        <path d="M140.329 19.2471C140.441 19.2471 140.497 19.2469 140.54 19.2686C140.578 19.2877 140.609 19.3188 140.628 19.3564C140.65 19.3992 140.649 19.4556 140.649 19.5674V21.8252C140.649 21.937 140.649 21.9934 140.671 22.0361C140.69 22.0738 140.721 22.1048 140.759 22.124C140.802 22.1457 140.858 22.1455 140.97 22.1455H144.078C144.19 22.1455 144.246 22.1453 144.289 22.167C144.327 22.1862 144.358 22.2173 144.377 22.2549C144.399 22.2976 144.398 22.354 144.398 22.4658V24.0791C144.398 24.1909 144.399 24.2473 144.377 24.29C144.358 24.3277 144.327 24.3588 144.289 24.3779C144.246 24.3996 144.19 24.3994 144.078 24.3994H140.97C140.858 24.3994 140.802 24.3992 140.759 24.4209C140.721 24.4401 140.69 24.4712 140.671 24.5088C140.649 24.5515 140.649 24.6079 140.649 24.7197V29.6436C140.649 30.1494 140.727 30.5557 140.88 30.8623C141.049 31.1536 141.286 31.3608 141.593 31.4834C141.899 31.606 142.267 31.667 142.696 31.667C143.095 31.667 143.433 31.6446 143.709 31.5986C143.813 31.5756 143.911 31.5525 144.004 31.5293C144.153 31.4922 144.228 31.4737 144.281 31.4902C144.329 31.5051 144.367 31.5343 144.393 31.5771C144.422 31.6249 144.422 31.6996 144.422 31.8477V33.4092C144.422 33.4858 144.422 33.5247 144.408 33.5596C144.397 33.5888 144.375 33.6193 144.352 33.6396C144.323 33.6638 144.29 33.6751 144.224 33.6982C143.989 33.7803 143.741 33.8393 143.479 33.875C143.141 33.9363 142.742 33.9678 142.282 33.9678C141.363 33.9677 140.588 33.8062 139.96 33.4844C139.347 33.1624 138.879 32.6792 138.557 32.0352C138.25 31.3912 138.097 30.5941 138.097 29.6436V24.7197C138.097 24.6079 138.097 24.5515 138.075 24.5088C138.056 24.4712 138.025 24.4401 137.987 24.4209C137.945 24.3992 137.888 24.3994 137.776 24.3994H136.255C136.143 24.3994 136.087 24.3996 136.044 24.3779C136.006 24.3588 135.975 24.3277 135.956 24.29C135.934 24.2473 135.935 24.1909 135.935 24.0791V22.4658C135.935 22.354 135.934 22.2976 135.956 22.2549C135.975 22.2173 136.006 22.1862 136.044 22.167C136.087 22.1453 136.143 22.1455 136.255 22.1455H137.776C137.888 22.1455 137.945 22.1457 137.987 22.124C138.025 22.1048 138.056 22.0738 138.075 22.0361C138.097 21.9934 138.097 21.937 138.097 21.8252V19.5674C138.097 19.4556 138.096 19.3992 138.118 19.3564C138.137 19.3188 138.168 19.2877 138.206 19.2686C138.249 19.2469 138.305 19.2471 138.417 19.2471H140.329Z" fill="#2845C1"/>
        <path d="M52.7207 17.6377C52.8325 17.6377 52.8889 17.6375 52.9316 17.6592C52.9693 17.6784 53.0004 17.7094 53.0195 17.7471C53.0412 17.7898 53.041 17.8462 53.041 17.958V19.8701C53.041 19.9819 53.0412 20.0383 53.0195 20.0811C53.0004 20.1187 52.9693 20.1498 52.9316 20.1689C52.8889 20.1906 52.8325 20.1904 52.7207 20.1904H48.2324C48.1206 20.1904 48.0642 20.1902 48.0215 20.2119C47.9839 20.2311 47.9528 20.2622 47.9336 20.2998C47.9119 20.3426 47.9121 20.399 47.9121 20.5107V33.417C47.9121 33.5288 47.9123 33.5852 47.8906 33.6279C47.8715 33.6656 47.8404 33.6966 47.8027 33.7158C47.76 33.7375 47.7036 33.7373 47.5918 33.7373H45.4268C45.315 33.7373 45.2586 33.7375 45.2158 33.7158C45.1782 33.6966 45.1471 33.6656 45.1279 33.6279C45.1063 33.5852 45.1064 33.5288 45.1064 33.417V20.5107C45.1064 20.399 45.1066 20.3426 45.085 20.2998C45.0658 20.2622 45.0347 20.2311 44.9971 20.2119C44.9543 20.1902 44.8979 20.1904 44.7861 20.1904H40.3203C40.2085 20.1904 40.1521 20.1906 40.1094 20.1689C40.0717 20.1498 40.0407 20.1187 40.0215 20.0811C39.9998 20.0383 40 19.9819 40 19.8701V17.958C40 17.8462 39.9998 17.7898 40.0215 17.7471C40.0407 17.7094 40.0717 17.6784 40.1094 17.6592C40.1521 17.6375 40.2085 17.6377 40.3203 17.6377H52.7207Z" fill="#2845C1"/>
        <path d="M59.1465 21.915C59.3457 21.9151 59.5297 21.9303 59.6982 21.9609C59.7814 21.9761 59.8608 21.9928 59.9365 22.0117C60.0092 22.0299 60.0459 22.0393 60.0781 22.0635C60.1049 22.0835 60.1296 22.1156 60.1426 22.1465C60.158 22.1835 60.1582 22.2246 60.1582 22.3066V24.127C60.1582 24.2674 60.1578 24.3383 60.1309 24.3848C60.1064 24.4268 60.0722 24.4561 60.0264 24.4727C59.9758 24.4909 59.9029 24.4774 59.7578 24.4512C59.7003 24.4408 59.6418 24.4309 59.583 24.4219C59.399 24.3912 59.1766 24.376 58.916 24.376C58.4407 24.376 58.0112 24.4531 57.6279 24.6064C57.2447 24.7598 56.9146 24.9669 56.6387 25.2275C56.4762 25.381 56.3298 25.5425 56.1992 25.7119C56.1311 25.8004 56.0965 25.8451 56.0527 25.9336C56.0208 25.9983 55.9828 26.111 55.9688 26.1816C55.9495 26.2784 55.9492 26.3595 55.9492 26.5215V33.417C55.9492 33.5288 55.9494 33.5852 55.9277 33.6279C55.9086 33.6656 55.8775 33.6966 55.8398 33.7158C55.7971 33.7375 55.7407 33.7373 55.6289 33.7373H53.7627C53.6509 33.7373 53.5945 33.7375 53.5518 33.7158C53.5141 33.6966 53.483 33.6656 53.4639 33.6279C53.4422 33.5852 53.4424 33.5288 53.4424 33.417V22.4658C53.4424 22.354 53.4422 22.2976 53.4639 22.2549C53.483 22.2173 53.5141 22.1862 53.5518 22.167C53.5945 22.1453 53.6509 22.1455 53.7627 22.1455H55.6289C55.7407 22.1455 55.7971 22.1453 55.8398 22.167C55.8775 22.1862 55.9086 22.2173 55.9277 22.2549C55.9494 22.2976 55.9492 22.354 55.9492 22.4658V23.0078C55.9492 23.1366 55.9492 23.2014 55.9727 23.2295C55.9936 23.2543 56.0233 23.2668 56.0557 23.2646C56.0922 23.2621 56.1405 23.2163 56.2354 23.124C56.3298 23.0322 56.4259 22.9435 56.5244 22.8584C56.877 22.5671 57.268 22.3366 57.6973 22.168C58.1265 21.9994 58.6099 21.915 59.1465 21.915Z" fill="#2845C1"/>
        <path d="M79.8994 21.6855C80.7581 21.6855 81.5255 21.8774 82.2002 22.2607C82.8899 22.644 83.4263 23.211 83.8096 23.9619C84.2082 24.7132 84.4082 25.6565 84.4082 26.791V33.417C84.4082 33.5288 84.4084 33.5852 84.3867 33.6279C84.3675 33.6656 84.3365 33.6966 84.2988 33.7158C84.2561 33.7375 84.1997 33.7373 84.0879 33.7373H82.1982C82.0865 33.7373 82.0301 33.7375 81.9873 33.7158C81.9497 33.6966 81.9186 33.6656 81.8994 33.6279C81.8778 33.5852 81.8779 33.5288 81.8779 33.417V26.8838C81.8779 25.9945 81.6475 25.3041 81.1875 24.8135C80.7275 24.3075 80.099 24.0547 79.3018 24.0547C78.7958 24.0547 78.3511 24.1542 77.9678 24.3535C77.5845 24.5375 77.2545 24.7751 76.9785 25.0664C76.8219 25.2414 76.6763 25.4223 76.542 25.6084C76.4628 25.7181 76.4236 25.7733 76.3838 25.8584C76.3524 25.9254 76.3204 26.023 76.3066 26.0957C76.2891 26.1881 76.2891 26.2725 76.2891 26.4414V33.417C76.2891 33.5288 76.2892 33.5852 76.2676 33.6279C76.2484 33.6656 76.2173 33.6966 76.1797 33.7158C76.1369 33.7375 76.0805 33.7373 75.9688 33.7373H74.1025C73.9908 33.7373 73.9343 33.7375 73.8916 33.7158C73.854 33.6966 73.8229 33.6656 73.8037 33.6279C73.782 33.5852 73.7822 33.5288 73.7822 33.417V22.4658C73.7822 22.354 73.782 22.2976 73.8037 22.2549C73.8229 22.2173 73.854 22.1862 73.8916 22.167C73.9343 22.1453 73.9908 22.1455 74.1025 22.1455H75.9688C76.0805 22.1455 76.1369 22.1453 76.1797 22.167C76.2173 22.1862 76.2484 22.2173 76.2676 22.2549C76.2892 22.2976 76.2891 22.354 76.2891 22.4658V22.8223C76.2891 22.9496 76.2888 23.0141 76.3115 23.042C76.3322 23.067 76.3612 23.0795 76.3936 23.0781C76.4295 23.0764 76.4791 23.0325 76.5771 22.9443C76.9372 22.6205 77.3468 22.3461 77.8066 22.1221C78.4045 21.8308 79.1023 21.6856 79.8994 21.6855Z" fill="#2845C1"/>
        <path d="M114.679 21.915C114.878 21.915 115.062 21.9303 115.23 21.9609C115.314 21.976 115.393 21.9928 115.469 22.0117C115.541 22.0299 115.578 22.0393 115.61 22.0635C115.637 22.0835 115.662 22.1156 115.675 22.1465C115.69 22.1835 115.69 22.2246 115.69 22.3066V24.127C115.69 24.2674 115.69 24.3383 115.663 24.3848C115.639 24.4268 115.604 24.4561 115.559 24.4727C115.508 24.4909 115.435 24.4774 115.29 24.4512C115.232 24.4408 115.174 24.4309 115.115 24.4219C114.931 24.3913 114.709 24.376 114.448 24.376C113.973 24.376 113.543 24.4531 113.16 24.6064C112.777 24.7598 112.448 24.967 112.172 25.2275C112.009 25.3812 111.862 25.5433 111.731 25.7129C111.664 25.8008 111.629 25.845 111.585 25.9336C111.553 25.9983 111.515 26.1111 111.501 26.1816C111.482 26.2785 111.481 26.3596 111.481 26.5215V33.417C111.481 33.5288 111.482 33.5852 111.46 33.6279C111.441 33.6656 111.41 33.6966 111.372 33.7158C111.329 33.7375 111.273 33.7373 111.161 33.7373H109.295C109.183 33.7373 109.127 33.7375 109.084 33.7158C109.046 33.6966 109.015 33.6656 108.996 33.6279C108.974 33.5852 108.975 33.5288 108.975 33.417V22.4658C108.975 22.354 108.974 22.2976 108.996 22.2549C109.015 22.2173 109.046 22.1862 109.084 22.167C109.127 22.1453 109.183 22.1455 109.295 22.1455H111.161C111.273 22.1455 111.329 22.1453 111.372 22.167C111.41 22.1862 111.441 22.2173 111.46 22.2549C111.482 22.2976 111.481 22.354 111.481 22.4658V23.0078C111.481 23.1366 111.481 23.2014 111.505 23.2295C111.526 23.2543 111.556 23.2668 111.588 23.2646C111.624 23.2621 111.673 23.2163 111.768 23.124C111.862 23.0322 111.958 22.9435 112.057 22.8584C112.409 22.5671 112.8 22.3366 113.229 22.168C113.659 21.9993 114.142 21.915 114.679 21.915Z" fill="#2845C1"/>
        <path d="M119.726 22.1455C119.837 22.1455 119.894 22.1453 119.937 22.167C119.974 22.1862 120.005 22.2173 120.024 22.2549C120.046 22.2976 120.046 22.354 120.046 22.4658V33.417C120.046 33.5288 120.046 33.5852 120.024 33.6279C120.005 33.6656 119.974 33.6966 119.937 33.7158C119.894 33.7375 119.837 33.7373 119.726 33.7373H117.858C117.747 33.7373 117.69 33.7375 117.647 33.7158C117.61 33.6966 117.579 33.6656 117.56 33.6279C117.538 33.5852 117.538 33.5288 117.538 33.417V22.4658C117.538 22.354 117.538 22.2976 117.56 22.2549C117.579 22.2173 117.61 22.1862 117.647 22.167C117.69 22.1453 117.747 22.1455 117.858 22.1455H119.726Z" fill="#2845C1"/>
        <path d="M118.804 16.3496C119.11 16.3497 119.387 16.4258 119.632 16.5791C119.892 16.7171 120.1 16.9171 120.253 17.1777C120.406 17.4383 120.482 17.7219 120.482 18.0283C120.482 18.3348 120.406 18.6184 120.253 18.8789C120.1 19.1242 119.892 19.3242 119.632 19.4775C119.387 19.6308 119.11 19.707 118.804 19.707C118.512 19.707 118.236 19.6308 117.976 19.4775C117.715 19.3242 117.508 19.1242 117.354 18.8789C117.201 18.6183 117.124 18.3349 117.124 18.0283C117.124 17.5684 117.285 17.1774 117.607 16.8555C117.945 16.5181 118.344 16.3496 118.804 16.3496Z" fill="#2845C1"/>
        <path d="M52.8845 6.63368C53.377 6.63368 53.8338 6.74117 54.2546 6.95604C54.6463 7.15189 54.96 7.39601 55.1955 7.68851C55.2342 7.73652 55.2258 7.80612 55.1789 7.84613L54.3513 8.55217C54.2991 8.59669 54.2203 8.58723 54.177 8.53399C54.0241 8.34586 53.8484 8.18694 53.6501 8.05728C53.4174 7.90512 53.162 7.82874 52.8845 7.82874C52.6877 7.82877 52.5177 7.86482 52.3745 7.93639C52.2402 8.00802 52.137 8.10206 52.0654 8.21846C52.0027 8.33486 51.9715 8.46492 51.9715 8.60818C51.9716 8.82294 52.0474 9.00206 52.1995 9.14527C52.3607 9.27959 52.567 9.3962 52.8177 9.4947C53.0684 9.59316 53.3324 9.7007 53.6098 9.81706C53.8964 9.92451 54.1651 10.0589 54.4158 10.22C54.6665 10.3722 54.868 10.578 55.0202 10.8377C55.1813 11.0884 55.2619 11.4061 55.262 11.791C55.262 12.2476 55.1502 12.6373 54.9264 12.9596C54.7115 13.2729 54.425 13.5148 54.0669 13.6849C53.7087 13.855 53.3143 13.9405 52.8845 13.9405C52.3026 13.9405 51.7968 13.833 51.3671 13.6181C50.9711 13.4119 50.6206 13.1406 50.3158 12.8051C50.2724 12.7573 50.2777 12.6835 50.3262 12.6409L51.1534 11.9129C51.2039 11.8685 51.2812 11.8754 51.3251 11.9264C51.5198 12.1522 51.7353 12.3402 51.9715 12.4898C52.2401 12.6599 52.54 12.7449 52.8713 12.7449C53.1847 12.7449 53.4222 12.6643 53.5834 12.5031C53.7534 12.333 53.8384 12.1271 53.8384 11.8854C53.8384 11.6616 53.7577 11.4826 53.5966 11.3483C53.4444 11.214 53.2429 11.0974 52.9922 10.9989C52.7414 10.9004 52.4728 10.7972 52.1862 10.6898C51.9088 10.5734 51.6448 10.4347 51.3941 10.2736C51.1435 10.1124 50.9371 9.90655 50.7759 9.65588C50.6237 9.3962 50.5479 9.06467 50.5479 8.66172C50.5479 8.28567 50.6463 7.94551 50.8432 7.64108C51.0402 7.32767 51.3132 7.08102 51.6624 6.90193C52.0205 6.72289 52.428 6.63371 52.8845 6.63368Z" fill="#2845C1"/>
        <path d="M58.4632 6.63368C58.9556 6.6337 59.4125 6.74116 59.8333 6.95604C60.2249 7.15189 60.5387 7.39602 60.7742 7.68851C60.8129 7.73652 60.8045 7.80612 60.7576 7.84612L59.93 8.55216C59.8778 8.59669 59.799 8.58722 59.7557 8.53398C59.6028 8.34583 59.4272 8.18696 59.2288 8.05728C58.9961 7.90508 58.7407 7.82877 58.4632 7.82874C58.2662 7.82874 58.0959 7.86475 57.9526 7.93639C57.8183 8.00802 57.7151 8.10206 57.6435 8.21846C57.5808 8.33485 57.5497 8.46495 57.5497 8.60818C57.5497 8.823 57.626 9.00204 57.7782 9.14527C57.9394 9.27956 58.1452 9.39622 58.3959 9.4947C58.6466 9.59319 58.911 9.70066 59.1885 9.81706C59.475 9.9245 59.7438 10.0589 59.9945 10.22C60.2451 10.3722 60.4467 10.5781 60.5989 10.8377C60.76 11.0883 60.8406 11.4062 60.8407 11.791C60.8407 12.2476 60.7283 12.6372 60.5045 12.9596C60.2896 13.273 60.0032 13.5148 59.645 13.6849C59.2869 13.855 58.893 13.9405 58.4632 13.9405C57.8812 13.9405 57.375 13.833 56.9452 13.6181C56.5492 13.4119 56.1987 13.1406 55.8939 12.8051C55.8505 12.7573 55.8558 12.6835 55.9043 12.6409L56.7316 11.9129C56.7821 11.8685 56.8593 11.8754 56.9033 11.9264C57.0979 12.1522 57.3134 12.3402 57.5497 12.4898C57.8182 12.6599 58.1182 12.7448 58.4494 12.7449C58.7628 12.7449 59.0003 12.6643 59.1615 12.5031C59.3316 12.333 59.4165 12.1271 59.4165 11.8854C59.4165 11.6616 59.3359 11.4826 59.1747 11.3483C59.0225 11.214 58.821 11.0974 58.5703 10.9989C58.3196 10.9004 58.0508 10.7972 57.7644 10.6898C57.4869 10.5734 57.2229 10.4347 56.9723 10.2736C56.7216 10.1124 56.5157 9.90647 56.3546 9.65588C56.2024 9.3962 56.126 9.06467 56.126 8.66172C56.126 8.2857 56.2244 7.94549 56.4214 7.64108C56.6183 7.32771 56.8914 7.08102 57.2405 6.90193C57.5987 6.72284 58.0065 6.63368 58.4632 6.63368Z" fill="#2845C1"/>
        <path d="M67.3111 6.63368C67.8036 6.63368 68.2603 6.74114 68.6811 6.95604C69.0728 7.1519 69.3865 7.39599 69.6221 7.68851C69.6607 7.73652 69.6523 7.80612 69.6054 7.84612L68.7778 8.55217C68.7257 8.59669 68.6468 8.58723 68.6036 8.53399C68.4507 8.34584 68.275 8.18695 68.0767 8.05728C67.8439 7.90506 67.5887 7.82874 67.3111 7.82874C67.1141 7.82875 66.9437 7.86476 66.8005 7.93639C66.6663 8.008 66.5635 8.10214 66.4919 8.21846C66.4292 8.33487 66.3975 8.46491 66.3975 8.60818C66.3976 8.82299 66.4739 9.00205 66.626 9.14527C66.7872 9.27957 66.9931 9.39621 67.2437 9.4947C67.4945 9.59319 67.7588 9.70066 68.0364 9.81706C68.3229 9.92451 68.5916 10.0589 68.8423 10.22C69.093 10.3722 69.2946 10.5781 69.4468 10.8377C69.6079 11.0884 69.6885 11.4061 69.6885 11.791C69.6885 12.2475 69.5767 12.6373 69.3529 12.9596C69.138 13.273 68.8511 13.5148 68.4929 13.6849C68.1347 13.855 67.7409 13.9405 67.3111 13.9405C66.7291 13.9405 66.2229 13.833 65.7931 13.6181C65.3971 13.4119 65.047 13.1406 64.7423 12.8051C64.699 12.7573 64.7043 12.6835 64.7527 12.6409L65.5794 11.913C65.6299 11.8685 65.7072 11.8754 65.7511 11.9264C65.9458 12.1522 66.1613 12.3402 66.3975 12.4898C66.6661 12.66 66.9665 12.7449 67.2978 12.7449C67.6111 12.7448 67.8482 12.6642 68.0094 12.5031C68.1795 12.333 68.2649 12.1271 68.2649 11.8854C68.2649 11.6617 68.1842 11.4826 68.0232 11.3483C67.871 11.214 67.6694 11.0974 67.4187 10.9989C67.168 10.9004 66.8993 10.7972 66.6128 10.6898C66.3352 10.5734 66.0709 10.4347 65.8201 10.2736C65.5695 10.1124 65.3636 9.9065 65.2024 9.65588C65.0502 9.3962 64.9739 9.06467 64.9739 8.66172C64.9739 8.28563 65.0728 7.94553 65.2698 7.64108C65.4668 7.32768 65.7397 7.08102 66.089 6.90193C66.4471 6.72291 66.8545 6.63368 67.3111 6.63368Z" fill="#2845C1"/>
        <path fill-rule="evenodd" clip-rule="evenodd" d="M79.0178 6.76838C79.6356 6.76839 80.1596 6.88014 80.5894 7.10399C81.0191 7.32785 81.3416 7.63682 81.5565 8.0308C81.7803 8.42478 81.8921 8.86809 81.8921 9.36057V13.6885C81.8921 13.7536 81.8393 13.8064 81.7742 13.8064H80.5322C80.4671 13.8064 80.4144 13.7536 80.4144 13.6885V13.2408C80.4144 13.1852 80.3423 13.1588 80.3035 13.1988C80.2436 13.2606 80.1777 13.3198 80.1058 13.3764C79.864 13.5734 79.5819 13.726 79.2596 13.8334C78.9373 13.9498 78.6105 14.0078 78.2792 14.0079C77.6166 14.0079 77.0744 13.8289 76.6536 13.4708C76.2328 13.1126 76.0227 12.6333 76.0227 12.0333C76.0227 11.523 76.2151 11.0888 76.6 10.7306C76.9851 10.3725 77.5402 10.135 78.2654 10.0185L80.3162 9.67025C80.3729 9.66062 80.4144 9.61151 80.4144 9.55402V9.36057C80.4144 8.95775 80.2804 8.64436 80.012 8.42052C79.7434 8.18775 79.394 8.07114 78.9643 8.07109C78.6151 8.07109 78.297 8.14741 78.0104 8.29963C77.7679 8.43262 77.5595 8.60995 77.3854 8.83177C77.344 8.88452 77.2677 8.89657 77.2145 8.85582L76.3149 8.16761C76.2643 8.12891 76.2535 8.05685 76.2925 8.00651C76.5781 7.63819 76.9402 7.3463 77.3789 7.13104C77.8624 6.88928 78.4089 6.76838 79.0178 6.76838ZM78.6419 10.9995C78.239 11.0621 77.9477 11.1782 77.7686 11.3483C77.5896 11.5094 77.4999 11.7154 77.4998 11.966C77.4998 12.2167 77.5939 12.4231 77.7819 12.5843C77.9789 12.7454 78.2432 12.826 78.5746 12.826C78.9864 12.826 79.3492 12.732 79.6625 12.544C79.9197 12.3896 80.1372 12.1927 80.3158 11.9539C80.3834 11.8634 80.4144 11.7517 80.4144 11.6387V10.8444C80.4144 10.7716 80.349 10.7162 80.2772 10.7281L78.6419 10.9995Z" fill="#2845C1"/>
        <path d="M73.0028 6.91874C73.0028 6.98385 73.0555 7.03664 73.1207 7.03664H75.0747C75.1398 7.03664 75.1926 7.08942 75.1926 7.15453V8.24851C75.1926 8.31362 75.1398 8.36641 75.0747 8.36641H73.1207C73.0555 8.36641 73.0028 8.41919 73.0028 8.4843V11.4157C73.0028 11.7111 73.0523 11.9438 73.1507 12.1139C73.2491 12.284 73.388 12.4092 73.5669 12.4898C73.746 12.5615 73.9566 12.5975 74.1984 12.5975C74.4312 12.5975 74.6284 12.5841 74.7896 12.5572C74.8815 12.5368 74.966 12.5149 75.0433 12.4916C75.1225 12.4677 75.2058 12.5252 75.2058 12.608V13.6624C75.2058 13.709 75.1785 13.7516 75.1351 13.7685C74.9915 13.8244 74.8313 13.864 74.6549 13.887C74.4579 13.9228 74.2252 13.9405 73.9566 13.9405C73.4194 13.9405 72.9669 13.8465 72.5998 13.6584C72.2418 13.4614 71.9686 13.1792 71.7806 12.8122C71.6016 12.4362 71.5124 11.9707 71.5124 11.4157V8.4843C71.5124 8.41919 71.4596 8.36641 71.3945 8.36641H70.422C70.3569 8.36641 70.3041 8.31362 70.3041 8.24851V7.15453C70.3041 7.08942 70.3569 7.03664 70.422 7.03664H71.3945C71.4596 7.03664 71.5124 6.98385 71.5124 6.91874V5.46267C71.5124 5.39756 71.5652 5.34478 71.6303 5.34478H72.8849C72.95 5.34478 73.0028 5.39756 73.0028 5.46267V6.91874Z" fill="#2845C1"/>
        <path d="M93.3845 6.91874C93.3845 6.98385 93.4373 7.03664 93.5024 7.03664H95.4558C95.5209 7.03664 95.5737 7.08942 95.5737 7.15453V8.24851C95.5737 8.31362 95.5209 8.36641 95.4558 8.36641H93.5024C93.4373 8.36641 93.3845 8.41919 93.3845 8.4843V11.4157C93.3845 11.711 93.4335 11.9438 93.5319 12.1139C93.6304 12.2841 93.7696 12.4093 93.9487 12.4898C94.1277 12.5615 94.3379 12.5975 94.5796 12.5975C94.8124 12.5975 95.0096 12.5841 95.1708 12.5572C95.2626 12.5368 95.3472 12.5149 95.4245 12.4916C95.5037 12.4676 95.587 12.5252 95.587 12.6079V13.6624C95.587 13.709 95.5597 13.7516 95.5163 13.7685C95.3728 13.8244 95.213 13.864 95.0366 13.887C94.8396 13.9228 94.6064 13.9405 94.3378 13.9405C93.8006 13.9405 93.3486 13.8464 92.9815 13.6584C92.6234 13.4614 92.3504 13.1793 92.1624 12.8122C91.9833 12.4362 91.8936 11.9707 91.8936 11.4157V8.4843C91.8936 8.41919 91.8408 8.36641 91.7757 8.36641H90.749C90.6839 8.36641 90.6311 8.31362 90.6311 8.24851V7.15453C90.6311 7.08942 90.6839 7.03664 90.749 7.03664H91.7757C91.8408 7.03664 91.8936 6.98385 91.8936 6.91874V5.46267C91.8936 5.39756 91.9463 5.34478 92.0114 5.34478H93.2666C93.3317 5.34478 93.3845 5.39756 93.3845 5.46267V6.91874Z" fill="#2845C1"/>
        <path fill-rule="evenodd" clip-rule="evenodd" d="M49.9155 13.6459C49.9454 13.7232 49.8884 13.8064 49.8055 13.8064H48.2998C48.2508 13.8064 48.2069 13.776 48.1896 13.7302L47.2715 11.3036C47.2541 11.2578 47.2102 11.2274 47.1612 11.2274H43.3427C43.2938 11.2274 43.2499 11.2577 43.2325 11.3035L42.3105 13.7303C42.2931 13.7761 42.2493 13.8064 42.2003 13.8064H40.7075C40.6247 13.8064 40.5677 13.7233 40.5975 13.6461L44.1326 4.47963C44.1502 4.43415 44.1939 4.40415 44.2426 4.40415H46.2569C46.3056 4.40415 46.3493 4.43408 46.3669 4.47949L49.9155 13.6459ZM43.8529 9.67111C43.8236 9.74826 43.8805 9.83088 43.9631 9.83088H46.5435C46.626 9.83088 46.683 9.74838 46.6538 9.67125L45.3661 6.2693C45.3277 6.16783 45.1842 6.16773 45.1456 6.26916L43.8529 9.67111Z" fill="#2845C1"/>
        <path d="M63.6598 13.6885C63.6598 13.7536 63.6071 13.8064 63.5419 13.8064H62.3006C62.2355 13.8064 62.1827 13.7536 62.1827 13.6885V7.15453C62.1827 7.08942 62.2355 7.03664 62.3006 7.03664H63.5419C63.6071 7.03664 63.6598 7.08942 63.6598 7.15453V13.6885Z" fill="#2845C1"/>
        <path d="M87.1634 6.76838C87.6648 6.76838 88.1124 6.88018 88.5064 7.10399C88.9093 7.32785 89.2274 7.65938 89.4602 8.09815C89.693 8.53689 89.8097 9.08774 89.8097 9.75029V13.6885C89.8097 13.7536 89.7569 13.8064 89.6918 13.8064H88.4366C88.3715 13.8064 88.3187 13.7536 88.3187 13.6885V9.80382C88.3187 9.28453 88.1843 8.88148 87.9158 8.59494C87.6471 8.29945 87.2796 8.15169 86.8139 8.15169C86.5186 8.15171 86.2589 8.20975 86.0351 8.32611C85.8112 8.43356 85.6189 8.57275 85.4577 8.74289C85.342 8.87219 85.2391 9.00658 85.1492 9.14619C85.0937 9.23244 85.068 9.33393 85.068 9.43652V13.6885C85.068 13.7536 85.0152 13.8064 84.9501 13.8064H83.7087C83.6436 13.8064 83.5908 13.7536 83.5908 13.6885V7.15453C83.5908 7.08942 83.6436 7.03664 83.7087 7.03664H84.9501C85.0152 7.03664 85.068 7.08942 85.068 7.15453V7.50706C85.068 7.56018 85.1335 7.5869 85.1721 7.55044C85.3944 7.34072 85.6508 7.16491 85.9412 7.0234C86.2904 6.85331 86.6978 6.76838 87.1634 6.76838Z" fill="#2845C1"/>
        <path d="M62.9345 3.65234C63.1136 3.65234 63.2748 3.69694 63.4181 3.78647C63.5703 3.87602 63.6869 3.99691 63.7675 4.14914C63.857 4.29238 63.9016 4.45364 63.9016 4.63269C63.9016 4.8117 63.857 4.97731 63.7675 5.12948C63.6869 5.28171 63.5703 5.4026 63.4181 5.49215C63.2748 5.57273 63.1136 5.61303 62.9345 5.61303C62.7555 5.61302 62.5899 5.57271 62.4377 5.49215C62.2855 5.4026 62.1646 5.28171 62.075 5.12948C61.9855 4.97729 61.9409 4.81173 61.9409 4.63269C61.9409 4.36406 62.035 4.1357 62.223 3.94766C62.4199 3.75076 62.657 3.65236 62.9345 3.65234Z" fill="#2845C1"/>
        <path fill-rule="evenodd" clip-rule="evenodd" d="M18.88 4.82277C19.6184 4.66585 20.3816 4.66585 21.12 4.82277C21.9549 5.00021 22.7404 5.45363 24.3108 6.36033L29.6892 9.46594C31.2595 10.3726 32.0449 10.8257 32.616 11.4599C33.1212 12.0211 33.5027 12.6822 33.736 13.4003C33.9998 14.2119 34 15.1186 34 16.9318V23.142C34 24.9555 33.9998 25.8629 33.736 26.6746C33.5027 27.3927 33.1212 28.0539 32.616 28.615C32.0449 29.2492 31.2595 29.7023 29.6892 30.609L24.3108 33.7146C22.7405 34.6212 21.9548 35.0747 21.12 35.2522C20.3816 35.409 19.6184 35.409 18.88 35.2522C18.0452 35.0747 17.2595 34.6212 15.6892 33.7146L10.3108 30.609C8.7405 29.7023 7.95508 29.2492 7.38401 28.615C6.87882 28.0539 6.49734 27.3927 6.26397 26.6746C6.00024 25.8629 6 24.9555 6 23.142V16.9318C6 15.1186 6.00025 14.2119 6.26397 13.4003C6.49731 12.6822 6.87879 12.0211 7.38401 11.4599C7.95507 10.8257 8.74053 10.3726 10.3108 9.46594L15.6892 6.36033C17.2596 5.45363 18.0451 5.00021 18.88 4.82277ZM20 10.3052C14.6471 10.3052 10.3077 14.6446 10.3077 19.9975C10.3077 25.3504 14.6471 29.6898 20 29.6898C25.3529 29.6898 29.6923 25.3504 29.6923 19.9975C29.6923 14.6446 25.3529 10.3052 20 10.3052Z" fill="#2845C1"/>
        <path d="M20.0073 27.5506C18.9719 27.5506 18 27.3503 17.0916 26.9498C16.1832 26.5591 15.3822 26.017 14.6887 25.3235C13.9951 24.6299 13.4481 23.8289 13.0476 22.9205C12.6569 22.0121 12.4615 21.0402 12.4615 20.0048C12.4615 18.9791 12.6569 18.0121 13.0476 17.1037C13.4481 16.1855 13.9951 15.3796 14.6887 14.6861C15.3822 13.9926 16.1783 13.4504 17.0769 13.0597C17.9854 12.6592 18.9573 12.459 19.9927 12.459C21.0183 12.459 21.9854 12.6592 22.8938 13.0597C23.812 13.4504 24.6178 13.9926 25.3114 14.6861C26.0049 15.3796 26.547 16.1855 26.9377 17.1037C27.3382 18.0121 27.5385 18.9791 27.5385 20.0048C27.5385 21.0402 27.3382 22.0121 26.9377 22.9205C26.547 23.8289 26.0049 24.6299 25.3114 25.3235C24.6276 26.017 23.8266 26.5591 22.9084 26.9498C22 27.3503 21.033 27.5506 20.0073 27.5506ZM20.0073 25.6311C21.0427 25.6311 21.9854 25.3772 22.8352 24.8692C23.685 24.3711 24.359 23.6971 24.8572 22.8473C25.3651 21.9974 25.6191 21.0499 25.6191 20.0048C25.6191 18.9694 25.3651 18.0267 24.8572 17.1769C24.359 16.3271 23.685 15.6482 22.8352 15.1403C21.9854 14.6324 21.0379 14.3784 19.9927 14.3784C18.9573 14.3784 18.0147 14.6324 17.1648 15.1403C16.3248 15.6482 15.6508 16.3271 15.1429 17.1769C14.6447 18.0267 14.3956 18.9694 14.3956 20.0048C14.3956 21.0499 14.6447 21.9974 15.1429 22.8473C15.6508 23.6971 16.3248 24.3711 17.1648 24.8692C18.0147 25.3772 18.9622 25.6311 20.0073 25.6311ZM19.9927 24.3125C19.2112 24.3125 18.4933 24.1171 17.8388 23.7264C17.1941 23.3357 16.6764 22.8131 16.2857 22.1586C15.895 21.5139 15.6996 20.8009 15.6996 20.0194C15.6996 19.2282 15.895 18.5054 16.2857 17.8509C16.6764 17.1965 17.1941 16.6788 17.8388 16.2978C18.4933 15.9071 19.2112 15.7117 19.9927 15.7117C20.7741 15.7117 21.4921 15.9071 22.1465 16.2978C22.801 16.6788 23.3236 17.1965 23.7143 17.8509C24.105 18.5054 24.3004 19.2282 24.3004 20.0194C24.3004 20.8009 24.105 21.5139 23.7143 22.1586C23.3333 22.8131 22.8156 23.3357 22.1612 23.7264C21.5067 24.1171 20.7839 24.3125 19.9927 24.3125Z" fill="#C83F49"/>
    </g>
    <defs>
        <clipPath id="clip0_4910_1417">
            <rect width="159" height="40" fill="white"/>
        </clipPath>
    </defs>
</svg>
