<svg width="262" height="40" viewBox="0 0 262 40" fill="none" xmlns="http://www.w3.org/2000/svg">
    <path d="M61.8577 15.8076C62.6931 15.8076 63.468 15.99 64.1819 16.3545C64.8463 16.6867 65.3785 17.1009 65.7781 17.5971C65.8437 17.6785 65.8294 17.7966 65.7498 17.8645L64.3459 19.0622C64.2574 19.1377 64.1236 19.1217 64.0503 19.0314C63.7909 18.7122 63.4929 18.4426 63.1565 18.2227C62.7616 17.9645 62.3285 17.835 61.8577 17.835C61.5237 17.835 61.2353 17.8962 60.9924 18.0176C60.7646 18.1391 60.5895 18.2986 60.468 18.4961C60.3617 18.6936 60.3088 18.9142 60.3088 19.1572C60.3089 19.5216 60.4375 19.8254 60.6955 20.0684C60.969 20.2962 61.319 20.494 61.7444 20.6611C62.1696 20.8282 62.6174 21.0106 63.0881 21.208C63.5742 21.3903 64.03 21.6182 64.4553 21.8916C64.8806 22.1498 65.2225 22.4989 65.4807 22.9395C65.7541 23.3647 65.8908 23.9037 65.8909 24.5566C65.8909 25.3312 65.7012 25.9923 65.3215 26.5391C64.957 27.0706 64.471 27.4809 63.8635 27.7695C63.2559 28.0582 62.5868 28.2031 61.8577 28.2031C60.8706 28.2031 60.0124 28.0207 59.2834 27.6562C58.6116 27.3063 58.0171 26.8462 57.5 26.2769C57.4264 26.1959 57.4354 26.0708 57.5176 25.9985L58.921 24.7635C59.0067 24.6881 59.1377 24.6998 59.2123 24.7863C59.5425 25.1694 59.9081 25.4884 60.3088 25.7422C60.7645 26.0307 61.2733 26.1748 61.8352 26.1748C62.3669 26.1748 62.7698 26.0381 63.0432 25.7646C63.3316 25.4761 63.4758 25.1268 63.4758 24.7168C63.4758 24.3371 63.339 24.0335 63.0657 23.8057C62.8074 23.5778 62.4656 23.38 62.0403 23.2129C61.6149 23.0458 61.1592 22.8708 60.6731 22.6885C60.2024 22.4911 59.7545 22.2557 59.3293 21.9824C58.9041 21.709 58.5539 21.3598 58.2805 20.9346C58.0223 20.494 57.8938 19.9316 57.8938 19.248C57.8938 18.6101 58.0606 18.033 58.3948 17.5166C58.729 16.9849 59.192 16.5665 59.7844 16.2627C60.3919 15.959 61.0831 15.8077 61.8577 15.8076Z" fill="#2845C1"/>
    <path d="M71.3215 15.8076C72.1569 15.8077 72.9319 15.99 73.6457 16.3545C74.3101 16.6867 74.8424 17.1009 75.2419 17.5971C75.3075 17.6785 75.2933 17.7966 75.2137 17.8644L73.8098 19.0622C73.7213 19.1377 73.5875 19.1217 73.5141 19.0313C73.2548 18.7122 72.9568 18.4427 72.6204 18.2227C72.2255 17.9645 71.7923 17.835 71.3215 17.835C70.9873 17.835 70.6984 17.8961 70.4553 18.0176C70.2275 18.1391 70.0524 18.2986 69.9309 18.4961C69.8246 18.6935 69.7717 18.9142 69.7717 19.1572C69.7718 19.5217 69.9013 19.8254 70.1594 20.0684C70.4328 20.2962 70.782 20.4941 71.2073 20.6611C71.6326 20.8282 72.0811 21.0105 72.552 21.208C73.0379 21.3903 73.494 21.6182 73.9192 21.8916C74.3443 22.1498 74.6864 22.4991 74.9446 22.9395C75.2178 23.3646 75.3547 23.9038 75.3547 24.5566C75.3547 25.3313 75.1641 25.9922 74.7844 26.5391C74.4199 27.0707 73.934 27.4809 73.3264 27.7695C72.7189 28.0581 72.0506 28.2031 71.3215 28.2031C70.3341 28.2031 69.4755 28.0208 68.7463 27.6562C68.0745 27.3063 67.48 26.8462 66.9629 26.2769C66.8893 26.1959 66.8983 26.0708 66.9805 25.9985L68.3839 24.7635C68.4696 24.6881 68.6006 24.6998 68.6752 24.7863C69.0054 25.1694 69.371 25.4884 69.7717 25.7422C70.2273 26.0307 70.7362 26.1747 71.2981 26.1748C71.8298 26.1748 72.2327 26.0381 72.5061 25.7646C72.7946 25.4761 72.9387 25.1268 72.9387 24.7168C72.9387 24.337 72.802 24.0335 72.5286 23.8057C72.2703 23.5778 71.9285 23.38 71.5032 23.2129C71.0779 23.0458 70.622 22.8707 70.136 22.6885C69.6653 22.4911 69.2174 22.2557 68.7922 21.9824C68.3671 21.7091 68.0178 21.3597 67.7444 20.9346C67.4861 20.494 67.3567 19.9316 67.3567 19.248C67.3567 18.6102 67.5236 18.033 67.8577 17.5166C68.1918 16.985 68.655 16.5665 69.2473 16.2627C69.8549 15.9589 70.5468 15.8076 71.3215 15.8076Z" fill="#2845C1"/>
    <path d="M86.3313 15.8076C87.1668 15.8076 87.9416 15.9899 88.6555 16.3545C89.32 16.6868 89.8521 17.1008 90.2517 17.5971C90.3173 17.6785 90.303 17.7966 90.2235 17.8644L88.8195 19.0622C88.731 19.1377 88.5973 19.1217 88.5239 19.0314C88.2646 18.7122 87.9666 18.4426 87.6301 18.2227C87.2352 17.9644 86.8022 17.835 86.3313 17.835C85.9971 17.835 85.7081 17.8961 85.4651 18.0176C85.2374 18.1391 85.0631 18.2988 84.9416 18.4961C84.8353 18.6936 84.7815 18.9142 84.7815 19.1572C84.7816 19.5216 84.911 19.8254 85.1692 20.0684C85.4426 20.2962 85.7918 20.4941 86.217 20.6611C86.6424 20.8282 87.0909 21.0105 87.5618 21.208C88.0478 21.3903 88.5036 21.6182 88.9289 21.8916C89.3542 22.1498 89.6961 22.499 89.9543 22.9395C90.2276 23.3647 90.3644 23.9037 90.3645 24.5566C90.3645 25.3311 90.1747 25.9923 89.7952 26.5391C89.4306 27.0707 88.9438 27.4809 88.3362 27.7695C87.7286 28.0581 87.0604 28.2031 86.3313 28.2031C85.3439 28.2031 84.4852 28.0208 83.7561 27.6562C83.0843 27.3063 82.4905 26.8461 81.9736 26.2769C81.9 26.1959 81.909 26.0708 81.9911 25.9985L83.3937 24.7636C83.4793 24.6881 83.6104 24.6998 83.685 24.7863C84.0152 25.1694 84.3808 25.4884 84.7815 25.7422C85.2372 26.0308 85.7468 26.1748 86.3088 26.1748C86.8403 26.1748 87.2425 26.038 87.5159 25.7646C87.8044 25.4761 87.9494 25.1269 87.9495 24.7168C87.9495 24.3372 87.8125 24.0335 87.5393 23.8057C87.2811 23.5779 86.9391 23.38 86.5139 23.2129C86.0886 23.0458 85.6328 22.8707 85.1467 22.6885C84.6758 22.491 84.2273 22.2559 83.802 21.9824C83.3768 21.7091 83.0275 21.3597 82.7541 20.9346C82.4959 20.494 82.3664 19.9316 82.3664 19.248C82.3664 18.61 82.5342 18.0331 82.8684 17.5166C83.2026 16.9849 83.6656 16.5665 84.258 16.2627C84.8656 15.959 85.5567 15.8076 86.3313 15.8076Z" fill="#2845C1"/>
    <path fill-rule="evenodd" clip-rule="evenodd" d="M106.191 16.0361C107.239 16.0361 108.128 16.2257 108.857 16.6055C109.586 16.9852 110.133 17.5094 110.498 18.1777C110.877 18.8461 111.067 19.5981 111.067 20.4336V27.7756C111.067 27.886 110.977 27.9756 110.867 27.9756H108.76C108.65 27.9756 108.56 27.886 108.56 27.7756V27.0162C108.56 26.9218 108.438 26.8771 108.372 26.9448C108.27 27.0497 108.159 27.1502 108.037 27.2461C107.626 27.5803 107.148 27.8392 106.601 28.0215C106.054 28.2189 105.5 28.3173 104.938 28.3174C103.814 28.3174 102.894 28.0139 102.18 27.4062C101.466 26.7986 101.11 25.9855 101.11 24.9678C101.11 24.102 101.436 23.3654 102.089 22.7578C102.743 22.1502 103.684 21.7473 104.915 21.5498L108.394 20.9589C108.49 20.9426 108.56 20.8593 108.56 20.7618V20.4336C108.56 19.7502 108.333 19.2186 107.877 18.8389C107.422 18.444 106.829 18.2462 106.1 18.2461C105.508 18.2461 104.968 18.3756 104.482 18.6338C104.071 18.8594 103.717 19.1602 103.422 19.5365C103.351 19.626 103.222 19.6465 103.132 19.5773L101.606 18.4098C101.52 18.3442 101.501 18.2219 101.568 18.1365C102.052 17.5117 102.666 17.0165 103.411 16.6514C104.231 16.2412 105.158 16.0361 106.191 16.0361ZM105.553 23.2139C104.87 23.3202 104.376 23.5171 104.072 23.8057C103.768 24.079 103.616 24.4284 103.616 24.8535C103.616 25.2788 103.775 25.6289 104.094 25.9023C104.428 26.1758 104.877 26.3125 105.439 26.3125C106.138 26.3125 106.753 26.153 107.285 25.834C107.721 25.5722 108.09 25.2382 108.393 24.833C108.508 24.6795 108.56 24.4899 108.56 24.2983V22.9508C108.56 22.8272 108.449 22.7332 108.327 22.7535L105.553 23.2139Z" fill="#2845C1"/>
    <path d="M95.9868 16.2912C95.9868 16.4017 96.0764 16.4912 96.1868 16.4912H99.5017C99.6121 16.4912 99.7017 16.5808 99.7017 16.6912V18.5471C99.7017 18.6575 99.6121 18.7471 99.5017 18.7471H96.1868C96.0764 18.7471 95.9868 18.8366 95.9868 18.9471V23.9199C95.9868 24.421 96.0708 24.8159 96.2378 25.1045C96.4048 25.3929 96.6403 25.6055 96.9439 25.7422C97.2477 25.8637 97.605 25.9248 98.0151 25.9248C98.4101 25.9248 98.7446 25.902 99.0181 25.8564C99.1739 25.8218 99.3174 25.7847 99.4485 25.7451C99.5829 25.7045 99.7241 25.8022 99.7241 25.9426V27.7314C99.7241 27.8104 99.6778 27.8826 99.6042 27.9113C99.3605 28.0061 99.0888 28.0733 98.7896 28.1123C98.4554 28.173 98.0605 28.2031 97.605 28.2031C96.6936 28.2031 95.926 28.0436 95.3032 27.7246C94.6959 27.3904 94.2325 26.9117 93.9136 26.2891C93.6099 25.6512 93.4585 24.8615 93.4585 23.9199V18.9471C93.4585 18.8366 93.369 18.7471 93.2585 18.7471H91.6087C91.4982 18.7471 91.4087 18.6575 91.4087 18.5471V16.6912C91.4087 16.5808 91.4982 16.4912 91.6087 16.4912H93.2585C93.369 16.4912 93.4585 16.4017 93.4585 16.2912V13.8211C93.4585 13.7106 93.548 13.6211 93.6585 13.6211H95.7868C95.8973 13.6211 95.9868 13.7106 95.9868 13.8211V16.2912Z" fill="#2845C1"/>
    <path d="M130.563 16.2912C130.563 16.4017 130.653 16.4912 130.763 16.4912H134.077C134.187 16.4912 134.277 16.5808 134.277 16.6912V18.5471C134.277 18.6575 134.187 18.7471 134.077 18.7471H130.763C130.653 18.7471 130.563 18.8366 130.563 18.9471V23.9199C130.563 24.421 130.646 24.8159 130.813 25.1045C130.98 25.3931 131.216 25.6055 131.52 25.7422C131.824 25.8637 132.18 25.9248 132.59 25.9248C132.985 25.9248 133.32 25.902 133.593 25.8564C133.749 25.8218 133.893 25.7847 134.024 25.7451C134.158 25.7045 134.299 25.8022 134.299 25.9425V27.7313C134.299 27.8104 134.253 27.8826 134.179 27.9113C133.936 28.0061 133.665 28.0733 133.366 28.1123C133.032 28.1731 132.636 28.2031 132.18 28.2031C131.269 28.2031 130.502 28.0436 129.879 27.7246C129.272 27.3904 128.809 26.9119 128.49 26.2891C128.186 25.6511 128.034 24.8616 128.034 23.9199V18.9471C128.034 18.8366 127.944 18.7471 127.834 18.7471H126.092C125.982 18.7471 125.892 18.6575 125.892 18.5471V16.6912C125.892 16.5808 125.982 16.4912 126.092 16.4912H127.834C127.944 16.4912 128.034 16.4017 128.034 16.2912V13.8211C128.034 13.7106 128.123 13.6211 128.234 13.6211H130.363C130.473 13.6211 130.563 13.7106 130.563 13.8211V16.2912Z" fill="#2845C1"/>
    <path fill-rule="evenodd" clip-rule="evenodd" d="M56.8209 27.7034C56.8716 27.8344 56.7749 27.9756 56.6344 27.9756H54.0801C53.9969 27.9756 53.9224 27.9241 53.893 27.8464L52.3355 23.7298C52.3061 23.652 52.2316 23.6006 52.1485 23.6006H45.6707C45.5876 23.6006 45.5132 23.6519 45.4837 23.7296L43.9196 27.8466C43.8901 27.9243 43.8157 27.9756 43.7326 27.9756H41.2002C41.0598 27.9756 40.9631 27.8346 41.0136 27.7036L47.0107 12.1534C47.0404 12.0763 47.1146 12.0254 47.1973 12.0254H50.6144C50.697 12.0254 50.7711 12.0762 50.8009 12.1532L56.8209 27.7034ZM46.5361 20.9604C46.4864 21.0913 46.5831 21.2314 46.7231 21.2314H51.1006C51.2405 21.2314 51.3372 21.0915 51.2876 20.9606L49.1032 15.1895C49.038 15.0173 48.7946 15.0172 48.7292 15.1892L46.5361 20.9604Z" fill="#2845C1"/>
    <path d="M80.1372 27.7756C80.1372 27.886 80.0477 27.9756 79.9372 27.9756H77.8314C77.7209 27.9756 77.6314 27.886 77.6314 27.7756V16.6912C77.6314 16.5808 77.7209 16.4912 77.8314 16.4912H79.9372C80.0477 16.4912 80.1372 16.5808 80.1372 16.6912V27.7756Z" fill="#2845C1"/>
    <path d="M120.009 16.0361C120.86 16.0361 121.619 16.2258 122.288 16.6055C122.971 16.9852 123.511 17.5477 123.906 18.292C124.301 19.0363 124.499 19.9708 124.499 21.0947V27.7756C124.499 27.886 124.409 27.9756 124.299 27.9756H122.169C122.059 27.9756 121.969 27.886 121.969 27.7756V21.1855C121.969 20.3046 121.741 19.6209 121.286 19.1348C120.83 18.6335 120.206 18.3828 119.417 18.3828C118.915 18.3829 118.475 18.4813 118.095 18.6787C117.715 18.861 117.389 19.0971 117.116 19.3857C116.919 19.6051 116.745 19.8331 116.592 20.0699C116.498 20.2162 116.455 20.3884 116.455 20.5624V27.7756C116.455 27.886 116.365 27.9756 116.255 27.9756H114.149C114.038 27.9756 113.949 27.886 113.949 27.7756V16.6912C113.949 16.5808 114.038 16.4912 114.149 16.4912H116.255C116.365 16.4912 116.455 16.5808 116.455 16.6912V17.2892C116.455 17.3794 116.566 17.4247 116.631 17.3628C117.008 17.0071 117.443 16.7088 117.936 16.4688C118.528 16.1802 119.219 16.0361 120.009 16.0361Z" fill="#2845C1"/>
    <path d="M78.9067 10.75C79.2105 10.75 79.484 10.8257 79.7271 10.9775C79.9853 11.1294 80.1831 11.3345 80.3198 11.5928C80.4717 11.8358 80.5474 12.1093 80.5474 12.4131C80.5474 12.7168 80.4716 12.9977 80.3198 13.2559C80.1831 13.5141 79.9853 13.7192 79.7271 13.8711C79.484 14.0078 79.2106 14.0762 78.9067 14.0762C78.603 14.0762 78.3222 14.0078 78.064 13.8711C77.8057 13.7192 77.6006 13.5141 77.4487 13.2559C77.2969 12.9977 77.2212 12.7168 77.2212 12.4131C77.2212 11.9574 77.3807 11.57 77.6997 11.251C78.0338 10.917 78.436 10.75 78.9067 10.75Z" fill="#2845C1"/>
    <path fill-rule="evenodd" clip-rule="evenodd" d="M230.463 16.1855C231.689 16.1856 232.739 16.477 233.613 17.0596C234.502 17.6268 235.185 18.3855 235.66 19.3359C236.151 20.2713 236.396 21.3067 236.396 22.4414C236.396 23.2846 236.258 24.0818 235.982 24.833C235.706 25.5843 235.307 26.2513 234.786 26.834C234.28 27.4165 233.66 27.8766 232.924 28.2139C232.203 28.5358 231.383 28.6972 230.463 28.6973C229.666 28.6973 228.96 28.5672 228.347 28.3066C227.733 28.046 227.189 27.6702 226.714 27.1797C226.689 27.153 226.645 27.1695 226.645 27.2061V33.5752C226.645 33.687 226.645 33.7434 226.623 33.7861C226.604 33.8238 226.573 33.8548 226.535 33.874C226.492 33.8957 226.436 33.8955 226.324 33.8955H224.458C224.346 33.8955 224.29 33.8957 224.247 33.874C224.209 33.8548 224.178 33.8238 224.159 33.7861C224.138 33.7434 224.138 33.687 224.138 33.5752V16.9658C224.138 16.854 224.138 16.7976 224.159 16.7549C224.178 16.7173 224.209 16.6862 224.247 16.667C224.29 16.6453 224.346 16.6455 224.458 16.6455H226.324C226.436 16.6455 226.492 16.6453 226.535 16.667C226.573 16.6862 226.604 16.7173 226.623 16.7549C226.645 16.7976 226.645 16.854 226.645 16.9658V17.6758C226.645 17.7122 226.689 17.7293 226.714 17.7031C227.189 17.2126 227.733 16.8368 228.347 16.5762C228.96 16.3156 229.666 16.1855 230.463 16.1855ZM230.141 18.5547C229.42 18.5547 228.753 18.7232 228.14 19.0605C227.68 19.3081 227.275 19.6511 226.924 20.0889C226.842 20.1912 226.8 20.2425 226.754 20.333C226.719 20.4018 226.681 20.5113 226.665 20.5869C226.645 20.6865 226.645 20.7748 226.645 20.9512V23.9307C226.645 24.1071 226.645 24.1959 226.665 24.2949C226.681 24.3706 226.718 24.4791 226.753 24.5479C226.799 24.6379 226.84 24.69 226.923 24.7939C227.274 25.2354 227.679 25.5861 228.14 25.8457C228.753 26.1676 229.42 26.3281 230.141 26.3281C230.877 26.3281 231.513 26.1596 232.05 25.8223C232.602 25.4696 233.023 25.0015 233.314 24.4189C233.621 23.8364 233.774 23.1773 233.774 22.4414C233.774 21.7054 233.621 21.0456 233.314 20.4629C233.023 19.8804 232.602 19.4203 232.05 19.083C231.513 18.7304 230.877 18.5547 230.141 18.5547Z" fill="#2845C1"/>
    <path d="M191.69 16.1855C192.549 16.1855 193.339 16.3693 194.06 16.7373C194.69 17.0525 195.203 17.4354 195.597 17.8857C195.66 17.9584 195.692 17.9953 195.704 18.042C195.714 18.0809 195.71 18.1278 195.695 18.165C195.677 18.2097 195.637 18.2441 195.559 18.3125L194.322 19.3848C194.231 19.4638 194.185 19.5031 194.139 19.5146C194.096 19.5253 194.057 19.5226 194.016 19.5059C193.971 19.4878 193.928 19.4383 193.843 19.3398C193.601 19.0608 193.328 18.8218 193.024 18.623C192.626 18.3625 192.189 18.2325 191.714 18.2324C191.377 18.2324 191.085 18.2934 190.84 18.416C190.61 18.5387 190.433 18.7001 190.311 18.8994C190.188 19.0987 190.127 19.3211 190.127 19.5664C190.127 19.9344 190.265 20.241 190.541 20.4863C190.817 20.7162 191.169 20.9154 191.599 21.084C192.028 21.2527 192.481 21.4374 192.956 21.6367C193.431 21.8207 193.883 22.0503 194.312 22.3262C194.742 22.5868 195.095 22.9401 195.371 23.3848C195.647 23.814 195.784 24.3585 195.784 25.0176C195.769 25.7995 195.578 26.4666 195.21 27.0186C194.842 27.5552 194.351 27.9694 193.737 28.2607C193.124 28.5519 192.45 28.6972 191.714 28.6973C190.717 28.6973 189.85 28.5135 189.114 28.1455C188.47 27.8101 187.897 27.3749 187.394 26.8398C187.321 26.763 187.285 26.724 187.271 26.6768C187.26 26.6365 187.262 26.5898 187.277 26.5508C187.295 26.505 187.337 26.4684 187.42 26.3955L188.651 25.3115C188.74 25.2331 188.785 25.1935 188.832 25.1816C188.874 25.1709 188.914 25.1733 188.955 25.1895C189 25.2073 189.041 25.2543 189.124 25.3486C189.436 25.7045 189.778 26.0008 190.149 26.2363C190.609 26.5123 191.123 26.6504 191.69 26.6504C192.227 26.6504 192.641 26.5123 192.933 26.2363C193.224 25.9451 193.37 25.5925 193.37 25.1787C193.37 24.7956 193.232 24.4887 192.956 24.2588C192.68 24.0288 192.327 23.8288 191.897 23.6602C191.468 23.4915 191.008 23.3148 190.518 23.1309C190.042 22.9315 189.589 22.6939 189.16 22.418C188.731 22.142 188.378 21.7814 188.103 21.3369C187.842 20.8923 187.712 20.3327 187.712 19.6582C187.712 18.999 187.881 18.409 188.218 17.8877C188.555 17.3664 189.023 16.9522 189.621 16.6455C190.234 16.339 190.924 16.1856 191.69 16.1855Z" fill="#2845C1"/>
    <path d="M203.357 16.1855C204.415 16.1855 205.359 16.3999 206.187 16.8291C206.931 17.1944 207.556 17.679 208.062 18.2832C208.128 18.3632 208.161 18.4039 208.172 18.4521C208.181 18.493 208.176 18.5402 208.158 18.5781C208.137 18.6228 208.094 18.6567 208.007 18.7236L206.545 19.8438C206.452 19.915 206.406 19.9508 206.36 19.96C206.318 19.9686 206.281 19.9646 206.241 19.9473C206.199 19.9287 206.157 19.8801 206.073 19.7822C205.798 19.4584 205.46 19.1871 205.06 18.9688C204.569 18.6928 203.994 18.5547 203.335 18.5547C202.798 18.5547 202.3 18.6542 201.84 18.8535C201.395 19.0375 201.004 19.3056 200.667 19.6582C200.345 20.0108 200.092 20.4251 199.908 20.9004C199.74 21.3757 199.654 21.8894 199.654 22.4414C199.654 23.1774 199.816 23.8444 200.138 24.4424C200.46 25.025 200.897 25.4849 201.449 25.8223C202.001 26.1595 202.645 26.3281 203.381 26.3281C204.009 26.3281 204.569 26.19 205.06 25.9141C205.46 25.6957 205.798 25.4245 206.073 25.1006C206.157 25.0025 206.199 24.9531 206.241 24.9346C206.281 24.9172 206.318 24.9133 206.36 24.9219C206.406 24.931 206.453 24.9667 206.546 25.0381L208.004 26.1572C208.092 26.2247 208.137 26.2587 208.157 26.3037C208.175 26.3419 208.179 26.3896 208.17 26.4307C208.159 26.4791 208.125 26.5195 208.057 26.5996C207.552 27.1911 206.929 27.676 206.187 28.0537C205.359 28.4829 204.415 28.6973 203.357 28.6973C202.054 28.6972 200.927 28.414 199.977 27.8467C199.026 27.264 198.29 26.4966 197.769 25.5459C197.263 24.5954 197.01 23.5605 197.01 22.4414C197.01 21.5981 197.155 20.8002 197.446 20.0488C197.738 19.2976 198.16 18.6304 198.712 18.0479C199.264 17.4653 199.931 17.0133 200.713 16.6914C201.495 16.3541 202.376 16.1856 203.357 16.1855Z" fill="#2845C1"/>
    <path d="M250.868 16.1855C251.727 16.1856 252.517 16.3693 253.237 16.7373C253.868 17.0526 254.38 17.4354 254.774 17.8857C254.838 17.9584 254.87 17.9953 254.882 18.042C254.892 18.0809 254.888 18.1278 254.873 18.165C254.855 18.2097 254.815 18.2441 254.736 18.3125L253.5 19.3848C253.409 19.4638 253.363 19.5031 253.316 19.5146C253.273 19.5253 253.235 19.5226 253.193 19.5059C253.149 19.4878 253.106 19.4383 253.021 19.3398C252.779 19.0608 252.506 18.8218 252.202 18.623C251.803 18.3624 251.366 18.2324 250.891 18.2324C250.553 18.2325 250.262 18.2934 250.017 18.416C249.787 18.5387 249.611 18.7002 249.488 18.8994C249.366 19.0987 249.304 19.3211 249.304 19.5664C249.304 19.9343 249.442 20.241 249.718 20.4863C249.994 20.7163 250.347 20.9153 250.776 21.084C251.206 21.2526 251.658 21.4374 252.133 21.6367C252.608 21.8207 253.061 22.0502 253.49 22.3262C253.92 22.5868 254.272 22.9401 254.548 23.3848C254.824 23.8141 254.962 24.3584 254.962 25.0176C254.947 25.7995 254.755 26.4666 254.387 27.0186C254.019 27.5551 253.528 27.9695 252.915 28.2607C252.302 28.552 251.627 28.6973 250.891 28.6973C249.894 28.6972 249.028 28.5134 248.292 28.1455C247.648 27.8101 247.074 27.3749 246.571 26.8398C246.499 26.7629 246.462 26.724 246.449 26.6768C246.438 26.6365 246.44 26.5898 246.455 26.5508C246.473 26.505 246.515 26.4684 246.598 26.3955L247.829 25.3115C247.918 25.2331 247.963 25.1935 248.01 25.1816C248.052 25.1709 248.092 25.1733 248.133 25.1895C248.177 25.2073 248.219 25.2543 248.302 25.3486C248.614 25.7045 248.955 26.0008 249.327 26.2363C249.787 26.5123 250.301 26.6504 250.868 26.6504C251.405 26.6504 251.819 26.5123 252.11 26.2363C252.401 25.9451 252.547 25.5925 252.547 25.1787C252.547 24.7954 252.409 24.4888 252.133 24.2588C251.857 24.0288 251.504 23.8288 251.075 23.6602C250.646 23.4915 250.186 23.3148 249.695 23.1309C249.22 22.9315 248.767 22.694 248.338 22.418C247.909 22.142 247.556 21.7815 247.28 21.3369C247.02 20.8923 246.889 20.3328 246.889 19.6582C246.889 18.9991 247.057 18.4089 247.395 17.8877C247.732 17.3664 248.2 16.9522 248.798 16.6455C249.411 16.3388 250.101 16.1855 250.868 16.1855Z" fill="#2845C1"/>
    <path fill-rule="evenodd" clip-rule="evenodd" d="M166.951 16.1855C168.009 16.1855 168.907 16.3774 169.643 16.7607C170.378 17.1441 170.931 17.6731 171.299 18.3477C171.667 19.0068 171.851 19.7657 171.851 20.624V27.917C171.851 28.0288 171.851 28.0852 171.829 28.1279C171.81 28.1656 171.779 28.1966 171.741 28.2158C171.698 28.2375 171.642 28.2373 171.53 28.2373H169.687C169.575 28.2373 169.518 28.2375 169.476 28.2158C169.438 28.1966 169.407 28.1656 169.388 28.1279C169.366 28.0852 169.366 28.0288 169.366 27.917V27.415C169.366 27.269 169.366 27.1958 169.343 27.168C169.321 27.1424 169.294 27.131 169.261 27.1328C169.224 27.1349 169.168 27.188 169.056 27.2939C168.98 27.3654 168.899 27.4343 168.814 27.501C168.4 27.8383 167.917 28.0992 167.365 28.2832C166.829 28.4825 166.276 28.582 165.709 28.582C164.559 28.582 163.624 28.2754 162.903 27.6621C162.183 27.0488 161.822 26.2284 161.822 25.2012C161.822 24.3272 162.152 23.5911 162.812 22.9932C163.471 22.3799 164.421 21.9656 165.663 21.751L169.1 21.167C169.194 21.1509 169.242 21.1429 169.277 21.1191C169.308 21.0983 169.333 21.0693 169.349 21.0352C169.366 20.9962 169.366 20.9476 169.366 20.8516V20.624C169.366 19.9342 169.129 19.3898 168.653 18.9912C168.193 18.5926 167.595 18.3936 166.859 18.3936C166.261 18.3936 165.717 18.5316 165.227 18.8076C164.847 19.016 164.515 19.2883 164.233 19.624C164.152 19.7207 164.111 19.7693 164.068 19.7881C164.029 19.8054 163.992 19.8092 163.949 19.8008C163.904 19.7917 163.857 19.7562 163.765 19.6855L162.417 18.6533C162.33 18.5866 162.286 18.5526 162.266 18.5078C162.248 18.4701 162.242 18.4235 162.251 18.3828C162.261 18.3346 162.295 18.2946 162.361 18.2148C162.851 17.6269 163.453 17.1574 164.168 16.8066C164.981 16.3927 165.909 16.1856 166.951 16.1855ZM169.179 22.9365L166.308 23.4307C165.618 23.538 165.119 23.737 164.812 24.0283C164.506 24.3196 164.353 24.6721 164.353 25.0859C164.353 25.5152 164.513 25.8686 164.835 26.1445C165.172 26.4205 165.618 26.5586 166.17 26.5586C166.89 26.5585 167.519 26.3971 168.056 26.0752C168.46 25.8323 168.808 25.5282 169.1 25.1631C169.174 25.0702 169.211 25.0236 169.257 24.9336C169.291 24.8669 169.331 24.7531 169.346 24.6797C169.366 24.5804 169.366 24.4956 169.366 24.3262V23.0938C169.366 23.0287 169.366 22.9958 169.353 22.9727C169.341 22.9526 169.323 22.9367 169.301 22.9287C169.276 22.9195 169.243 22.9255 169.179 22.9365Z" fill="#2845C1"/>
    <path d="M241.329 13.7471C241.441 13.7471 241.497 13.7469 241.54 13.7686C241.578 13.7877 241.609 13.8188 241.628 13.8564C241.65 13.8992 241.649 13.9556 241.649 14.0674V16.3252C241.649 16.437 241.649 16.4934 241.671 16.5361C241.69 16.5738 241.721 16.6048 241.759 16.624C241.802 16.6457 241.858 16.6455 241.97 16.6455H245.078C245.19 16.6455 245.246 16.6453 245.289 16.667C245.327 16.6862 245.358 16.7173 245.377 16.7549C245.399 16.7976 245.398 16.854 245.398 16.9658V18.5791C245.398 18.6909 245.399 18.7473 245.377 18.79C245.358 18.8277 245.327 18.8588 245.289 18.8779C245.246 18.8996 245.19 18.8994 245.078 18.8994H241.97C241.858 18.8994 241.802 18.8992 241.759 18.9209C241.721 18.9401 241.69 18.9712 241.671 19.0088C241.649 19.0515 241.649 19.1079 241.649 19.2197V24.1436C241.649 24.6494 241.727 25.0557 241.88 25.3623C242.049 25.6536 242.286 25.8608 242.593 25.9834C242.899 26.106 243.267 26.167 243.696 26.167C244.095 26.167 244.433 26.1446 244.709 26.0986C244.813 26.0756 244.911 26.0525 245.004 26.0293C245.153 25.9922 245.228 25.9737 245.281 25.9902C245.329 26.0051 245.367 26.0343 245.393 26.0771C245.422 26.1249 245.422 26.1996 245.422 26.3477V27.9092C245.422 27.9858 245.422 28.0247 245.408 28.0596C245.397 28.0888 245.375 28.1193 245.352 28.1396C245.323 28.1638 245.29 28.1751 245.224 28.1982C244.989 28.2803 244.741 28.3393 244.479 28.375C244.141 28.4363 243.742 28.4678 243.282 28.4678C242.363 28.4677 241.588 28.3062 240.96 27.9844C240.347 27.6624 239.879 27.1792 239.557 26.5352C239.25 25.8912 239.097 25.0941 239.097 24.1436V19.2197C239.097 19.1079 239.097 19.0515 239.075 19.0088C239.056 18.9712 239.025 18.9401 238.987 18.9209C238.945 18.8992 238.888 18.8994 238.776 18.8994H237.255C237.143 18.8994 237.087 18.8996 237.044 18.8779C237.006 18.8588 236.975 18.8277 236.956 18.79C236.934 18.7473 236.935 18.6909 236.935 18.5791V16.9658C236.935 16.854 236.934 16.7976 236.956 16.7549C236.975 16.7173 237.006 16.6862 237.044 16.667C237.087 16.6453 237.143 16.6455 237.255 16.6455H238.776C238.888 16.6455 238.945 16.6457 238.987 16.624C239.025 16.6048 239.056 16.5738 239.075 16.5361C239.097 16.4934 239.097 16.437 239.097 16.3252V14.0674C239.097 13.9556 239.096 13.8992 239.118 13.8564C239.137 13.8188 239.168 13.7877 239.206 13.7686C239.249 13.7469 239.305 13.7471 239.417 13.7471H241.329Z" fill="#2845C1"/>
    <path d="M153.721 12.1377C153.832 12.1377 153.889 12.1375 153.932 12.1592C153.969 12.1784 154 12.2094 154.02 12.2471C154.041 12.2898 154.041 12.3462 154.041 12.458V14.3701C154.041 14.4819 154.041 14.5383 154.02 14.5811C154 14.6187 153.969 14.6498 153.932 14.6689C153.889 14.6906 153.832 14.6904 153.721 14.6904H149.232C149.121 14.6904 149.064 14.6902 149.021 14.7119C148.984 14.7311 148.953 14.7622 148.934 14.7998C148.912 14.8426 148.912 14.899 148.912 15.0107V27.917C148.912 28.0288 148.912 28.0852 148.891 28.1279C148.871 28.1656 148.84 28.1966 148.803 28.2158C148.76 28.2375 148.704 28.2373 148.592 28.2373H146.427C146.315 28.2373 146.259 28.2375 146.216 28.2158C146.178 28.1966 146.147 28.1656 146.128 28.1279C146.106 28.0852 146.106 28.0288 146.106 27.917V15.0107C146.106 14.899 146.107 14.8426 146.085 14.7998C146.066 14.7622 146.035 14.7311 145.997 14.7119C145.954 14.6902 145.898 14.6904 145.786 14.6904H141.32C141.209 14.6904 141.152 14.6906 141.109 14.6689C141.072 14.6498 141.041 14.6187 141.021 14.5811C141 14.5383 141 14.4819 141 14.3701V12.458C141 12.3462 141 12.2898 141.021 12.2471C141.041 12.2094 141.072 12.1784 141.109 12.1592C141.152 12.1375 141.209 12.1377 141.32 12.1377H153.721Z" fill="#2845C1"/>
    <path d="M160.146 16.415C160.346 16.4151 160.53 16.4303 160.698 16.4609C160.781 16.4761 160.861 16.4928 160.937 16.5117C161.009 16.5299 161.046 16.5393 161.078 16.5635C161.105 16.5835 161.13 16.6156 161.143 16.6465C161.158 16.6835 161.158 16.7246 161.158 16.8066V18.627C161.158 18.7674 161.158 18.8383 161.131 18.8848C161.106 18.9268 161.072 18.9561 161.026 18.9727C160.976 18.9909 160.903 18.9774 160.758 18.9512C160.7 18.9408 160.642 18.9309 160.583 18.9219C160.399 18.8912 160.177 18.876 159.916 18.876C159.441 18.876 159.011 18.9531 158.628 19.1064C158.245 19.2598 157.915 19.4669 157.639 19.7275C157.476 19.881 157.33 20.0425 157.199 20.2119C157.131 20.3004 157.097 20.3451 157.053 20.4336C157.021 20.4983 156.983 20.611 156.969 20.6816C156.949 20.7784 156.949 20.8595 156.949 21.0215V27.917C156.949 28.0288 156.949 28.0852 156.928 28.1279C156.909 28.1656 156.877 28.1966 156.84 28.2158C156.797 28.2375 156.741 28.2373 156.629 28.2373H154.763C154.651 28.2373 154.595 28.2375 154.552 28.2158C154.514 28.1966 154.483 28.1656 154.464 28.1279C154.442 28.0852 154.442 28.0288 154.442 27.917V16.9658C154.442 16.854 154.442 16.7976 154.464 16.7549C154.483 16.7173 154.514 16.6862 154.552 16.667C154.595 16.6453 154.651 16.6455 154.763 16.6455H156.629C156.741 16.6455 156.797 16.6453 156.84 16.667C156.877 16.6862 156.909 16.7173 156.928 16.7549C156.949 16.7976 156.949 16.854 156.949 16.9658V17.5078C156.949 17.6366 156.949 17.7014 156.973 17.7295C156.994 17.7543 157.023 17.7668 157.056 17.7646C157.092 17.7621 157.14 17.7163 157.235 17.624C157.33 17.5322 157.426 17.4435 157.524 17.3584C157.877 17.0671 158.268 16.8366 158.697 16.668C159.127 16.4994 159.61 16.415 160.146 16.415Z" fill="#2845C1"/>
    <path d="M180.899 16.1855C181.758 16.1855 182.526 16.3774 183.2 16.7607C183.89 17.144 184.426 17.711 184.81 18.4619C185.208 19.2132 185.408 20.1565 185.408 21.291V27.917C185.408 28.0288 185.408 28.0852 185.387 28.1279C185.368 28.1656 185.336 28.1966 185.299 28.2158C185.256 28.2375 185.2 28.2373 185.088 28.2373H183.198C183.086 28.2373 183.03 28.2375 182.987 28.2158C182.95 28.1966 182.919 28.1656 182.899 28.1279C182.878 28.0852 182.878 28.0288 182.878 27.917V21.3838C182.878 20.4945 182.647 19.8041 182.188 19.3135C181.728 18.8075 181.099 18.5547 180.302 18.5547C179.796 18.5547 179.351 18.6542 178.968 18.8535C178.585 19.0375 178.254 19.2751 177.979 19.5664C177.822 19.7414 177.676 19.9223 177.542 20.1084C177.463 20.2181 177.424 20.2733 177.384 20.3584C177.352 20.4254 177.32 20.523 177.307 20.5957C177.289 20.6881 177.289 20.7725 177.289 20.9414V27.917C177.289 28.0288 177.289 28.0852 177.268 28.1279C177.248 28.1656 177.217 28.1966 177.18 28.2158C177.137 28.2375 177.081 28.2373 176.969 28.2373H175.103C174.991 28.2373 174.934 28.2375 174.892 28.2158C174.854 28.1966 174.823 28.1656 174.804 28.1279C174.782 28.0852 174.782 28.0288 174.782 27.917V16.9658C174.782 16.854 174.782 16.7976 174.804 16.7549C174.823 16.7173 174.854 16.6862 174.892 16.667C174.934 16.6453 174.991 16.6455 175.103 16.6455H176.969C177.081 16.6455 177.137 16.6453 177.18 16.667C177.217 16.6862 177.248 16.7173 177.268 16.7549C177.289 16.7976 177.289 16.854 177.289 16.9658V17.3223C177.289 17.4496 177.289 17.5141 177.312 17.542C177.332 17.567 177.361 17.5795 177.394 17.5781C177.429 17.5764 177.479 17.5325 177.577 17.4443C177.937 17.1205 178.347 16.8461 178.807 16.6221C179.405 16.3308 180.102 16.1856 180.899 16.1855Z" fill="#2845C1"/>
    <path d="M215.679 16.415C215.878 16.415 216.062 16.4303 216.23 16.4609C216.314 16.476 216.393 16.4928 216.469 16.5117C216.541 16.5299 216.578 16.5393 216.61 16.5635C216.637 16.5835 216.662 16.6156 216.675 16.6465C216.69 16.6835 216.69 16.7246 216.69 16.8066V18.627C216.69 18.7674 216.69 18.8383 216.663 18.8848C216.639 18.9268 216.604 18.9561 216.559 18.9727C216.508 18.9909 216.435 18.9774 216.29 18.9512C216.232 18.9408 216.174 18.9309 216.115 18.9219C215.931 18.8913 215.709 18.876 215.448 18.876C214.973 18.876 214.543 18.9531 214.16 19.1064C213.777 19.2598 213.448 19.467 213.172 19.7275C213.009 19.8812 212.862 20.0433 212.731 20.2129C212.664 20.3008 212.629 20.345 212.585 20.4336C212.553 20.4983 212.515 20.6111 212.501 20.6816C212.482 20.7785 212.481 20.8596 212.481 21.0215V27.917C212.481 28.0288 212.482 28.0852 212.46 28.1279C212.441 28.1656 212.41 28.1966 212.372 28.2158C212.329 28.2375 212.273 28.2373 212.161 28.2373H210.295C210.183 28.2373 210.127 28.2375 210.084 28.2158C210.046 28.1966 210.015 28.1656 209.996 28.1279C209.974 28.0852 209.975 28.0288 209.975 27.917V16.9658C209.975 16.854 209.974 16.7976 209.996 16.7549C210.015 16.7173 210.046 16.6862 210.084 16.667C210.127 16.6453 210.183 16.6455 210.295 16.6455H212.161C212.273 16.6455 212.329 16.6453 212.372 16.667C212.41 16.6862 212.441 16.7173 212.46 16.7549C212.482 16.7976 212.481 16.854 212.481 16.9658V17.5078C212.481 17.6366 212.481 17.7014 212.505 17.7295C212.526 17.7543 212.556 17.7668 212.588 17.7646C212.624 17.7621 212.673 17.7163 212.768 17.624C212.862 17.5322 212.958 17.4435 213.057 17.3584C213.409 17.0671 213.8 16.8366 214.229 16.668C214.659 16.4993 215.142 16.415 215.679 16.415Z" fill="#2845C1"/>
    <path d="M220.726 16.6455C220.837 16.6455 220.894 16.6453 220.937 16.667C220.974 16.6862 221.005 16.7173 221.024 16.7549C221.046 16.7976 221.046 16.854 221.046 16.9658V27.917C221.046 28.0288 221.046 28.0852 221.024 28.1279C221.005 28.1656 220.974 28.1966 220.937 28.2158C220.894 28.2375 220.837 28.2373 220.726 28.2373H218.858C218.747 28.2373 218.69 28.2375 218.647 28.2158C218.61 28.1966 218.579 28.1656 218.56 28.1279C218.538 28.0852 218.538 28.0288 218.538 27.917V16.9658C218.538 16.854 218.538 16.7976 218.56 16.7549C218.579 16.7173 218.61 16.6862 218.647 16.667C218.69 16.6453 218.747 16.6455 218.858 16.6455H220.726Z" fill="#2845C1"/>
    <path d="M219.804 10.8496C220.11 10.8497 220.387 10.9258 220.632 11.0791C220.892 11.2171 221.1 11.4171 221.253 11.6777C221.406 11.9383 221.482 12.2219 221.482 12.5283C221.482 12.8348 221.406 13.1184 221.253 13.3789C221.1 13.6242 220.892 13.8242 220.632 13.9775C220.387 14.1308 220.11 14.207 219.804 14.207C219.512 14.207 219.236 14.1308 218.976 13.9775C218.715 13.8242 218.508 13.6242 218.354 13.3789C218.201 13.1183 218.124 12.8349 218.124 12.5283C218.124 12.0684 218.285 11.6774 218.607 11.3555C218.945 11.0181 219.344 10.8496 219.804 10.8496Z" fill="#2845C1"/>
    <path fill-rule="evenodd" clip-rule="evenodd" d="M18.88 4.82277C19.6184 4.66585 20.3816 4.66585 21.12 4.82277C21.9549 5.00021 22.7404 5.45363 24.3108 6.36033L29.6892 9.46594C31.2595 10.3726 32.0449 10.8257 32.616 11.4599C33.1212 12.0211 33.5027 12.6822 33.736 13.4003C33.9998 14.2119 34 15.1186 34 16.9318V23.142C34 24.9555 33.9998 25.8629 33.736 26.6746C33.5027 27.3927 33.1212 28.0539 32.616 28.615C32.0449 29.2492 31.2595 29.7023 29.6892 30.609L24.3108 33.7146C22.7405 34.6212 21.9548 35.0747 21.12 35.2522C20.3816 35.409 19.6184 35.409 18.88 35.2522C18.0452 35.0747 17.2595 34.6212 15.6892 33.7146L10.3108 30.609C8.7405 29.7023 7.95508 29.2492 7.38401 28.615C6.87882 28.0539 6.49734 27.3927 6.26397 26.6746C6.00024 25.8629 6 24.9555 6 23.142V16.9318C6 15.1186 6.00025 14.2119 6.26397 13.4003C6.49731 12.6822 6.87879 12.0211 7.38401 11.4599C7.95507 10.8257 8.74053 10.3726 10.3108 9.46594L15.6892 6.36033C17.2596 5.45363 18.0451 5.00021 18.88 4.82277ZM20 10.3052C14.6471 10.3052 10.3077 14.6446 10.3077 19.9975C10.3077 25.3504 14.6471 29.6898 20 29.6898C25.3529 29.6898 29.6923 25.3504 29.6923 19.9975C29.6923 14.6446 25.3529 10.3052 20 10.3052Z" fill="#2845C1"/>
    <path d="M20.0073 27.5506C18.9719 27.5506 18 27.3503 17.0916 26.9498C16.1832 26.5591 15.3822 26.017 14.6887 25.3235C13.9951 24.6299 13.4481 23.8289 13.0476 22.9205C12.6569 22.0121 12.4615 21.0402 12.4615 20.0048C12.4615 18.9791 12.6569 18.0121 13.0476 17.1037C13.4481 16.1855 13.9951 15.3796 14.6887 14.6861C15.3822 13.9926 16.1783 13.4504 17.0769 13.0597C17.9854 12.6592 18.9573 12.459 19.9927 12.459C21.0183 12.459 21.9854 12.6592 22.8938 13.0597C23.812 13.4504 24.6178 13.9926 25.3114 14.6861C26.0049 15.3796 26.547 16.1855 26.9377 17.1037C27.3382 18.0121 27.5385 18.9791 27.5385 20.0048C27.5385 21.0402 27.3382 22.0121 26.9377 22.9205C26.547 23.8289 26.0049 24.6299 25.3114 25.3235C24.6276 26.017 23.8266 26.5591 22.9084 26.9498C22 27.3503 21.033 27.5506 20.0073 27.5506ZM20.0073 25.6311C21.0427 25.6311 21.9854 25.3772 22.8352 24.8692C23.685 24.3711 24.359 23.6971 24.8572 22.8473C25.3651 21.9974 25.6191 21.0499 25.6191 20.0048C25.6191 18.9694 25.3651 18.0267 24.8572 17.1769C24.359 16.3271 23.685 15.6482 22.8352 15.1403C21.9854 14.6324 21.0379 14.3784 19.9927 14.3784C18.9573 14.3784 18.0147 14.6324 17.1648 15.1403C16.3248 15.6482 15.6508 16.3271 15.1429 17.1769C14.6447 18.0267 14.3956 18.9694 14.3956 20.0048C14.3956 21.0499 14.6447 21.9974 15.1429 22.8473C15.6508 23.6971 16.3248 24.3711 17.1648 24.8692C18.0147 25.3772 18.9622 25.6311 20.0073 25.6311ZM19.9927 24.3125C19.2112 24.3125 18.4933 24.1171 17.8388 23.7264C17.1941 23.3357 16.6764 22.8131 16.2857 22.1586C15.895 21.5139 15.6996 20.8009 15.6996 20.0194C15.6996 19.2282 15.895 18.5054 16.2857 17.8509C16.6764 17.1965 17.1941 16.6788 17.8388 16.2978C18.4933 15.9071 19.2112 15.7117 19.9927 15.7117C20.7741 15.7117 21.4921 15.9071 22.1465 16.2978C22.801 16.6788 23.3236 17.1965 23.7143 17.8509C24.105 18.5054 24.3004 19.2282 24.3004 20.0194C24.3004 20.8009 24.105 21.5139 23.7143 22.1586C23.3333 22.8131 22.8156 23.3357 22.1612 23.7264C21.5067 24.1171 20.7839 24.3125 19.9927 24.3125Z" fill="#C83F49"/>
</svg>
