<svg width="262" height="40" viewBox="0 0 262 40" fill="none" xmlns="http://www.w3.org/2000/svg">
    <path d="M25.9806 10.0539C25.9806 9.37231 25.9806 9.03151 25.9098 8.72032C25.7791 8.14516 25.4727 7.62489 25.0331 7.23159C24.7953 7.01879 24.4973 6.8535 23.9012 6.52291L22.378 5.6781C21.8149 5.36579 21.5334 5.20963 21.2428 5.12176C20.7061 4.95941 20.1333 4.95941 19.5965 5.12176C19.3059 5.20963 19.0244 5.36579 18.4613 5.6781L17.8331 6.02651C17.0707 6.44937 16.6894 6.66081 16.5148 6.90692C16.1881 7.36724 16.1884 7.98382 16.5155 8.44382C16.6904 8.68977 17.0718 8.90084 17.8347 9.32298L18.3432 9.60438C18.9402 9.93474 19.2387 10.0999 19.4769 10.3127C19.9172 10.7061 20.2241 11.2267 20.3551 11.8023C20.4259 12.1138 20.4259 12.4549 20.4259 13.1372V13.7195C20.4259 14.5463 20.4259 14.9597 20.5502 15.2263C20.7823 15.7243 21.2975 16.0278 21.8457 15.9894C22.139 15.9688 22.5006 15.7684 23.2237 15.3675L23.9004 14.9925C24.4967 14.6619 24.7948 14.4967 25.0327 14.2839C25.4725 13.8905 25.779 13.3702 25.9098 12.7949C25.9806 12.4837 25.9806 12.1428 25.9806 11.461V10.0539Z" fill="#2845C1"/>
    <path d="M9.02562 20.1571C8.43534 20.4979 8.1402 20.6683 7.90608 20.8852C7.47335 21.286 7.17597 21.8115 7.05514 22.3888C6.98977 22.7012 6.99563 23.0419 7.00736 23.7234L7.03734 25.4649C7.04843 26.1088 7.05397 26.4307 7.12313 26.7262C7.25092 27.2723 7.53733 27.7683 7.94632 28.152C8.16767 28.3597 8.44369 28.5254 8.99572 28.857L9.61153 29.2268C10.359 29.6756 10.7327 29.9001 11.0331 29.9282C11.5951 29.981 12.1289 29.6724 12.3638 29.1592C12.4893 28.8847 12.4814 28.4489 12.4656 27.5772L12.455 26.9961C12.4426 26.3139 12.4364 25.9728 12.5016 25.6601C12.6221 25.0821 12.9195 24.556 13.3526 24.1548C13.5869 23.9377 13.8823 23.7671 14.4732 23.4259L14.9775 23.1348C15.6935 22.7214 16.0515 22.5147 16.2202 22.2739C16.5355 21.8238 16.5407 21.2259 16.2333 20.7703C16.0689 20.5266 15.7145 20.3137 15.0058 19.8878L14.3426 19.4894C13.7582 19.1382 13.466 18.9627 13.1628 18.863C12.6023 18.6788 11.9984 18.6736 11.4348 18.8479C11.1298 18.9423 10.8346 19.1127 10.2442 19.4536L9.02562 20.1571Z" fill="#2845C1"/>
    <path d="M14.8587 29.9461C14.8587 30.6277 14.8587 30.9685 14.9295 31.2797C15.0602 31.8548 15.3666 32.3751 15.8062 32.7684C16.044 32.9812 16.342 33.1465 16.9381 33.4771L18.4613 34.3219C19.0244 34.6342 19.306 34.7904 19.5965 34.8782C20.1333 35.0406 20.7061 35.0406 21.2428 34.8782C21.5334 34.7904 21.8149 34.6342 22.378 34.3219L23.0062 33.9735C23.7686 33.5506 24.1499 33.3392 24.3245 33.0931C24.6512 32.6328 24.6509 32.0162 24.3238 31.5562C24.1489 31.3102 23.7675 31.0992 23.0046 30.677L22.4961 30.3956C21.8991 30.0653 21.6006 29.9001 21.3624 29.6873C20.9222 29.2939 20.6152 28.7733 20.4842 28.1977C20.4134 27.8862 20.4134 27.5451 20.4134 26.8627V26.2805C20.4134 25.4537 20.4134 25.0403 20.2892 24.7737C20.057 24.2757 19.5418 23.9722 18.9936 24.0106C18.7003 24.0312 18.3387 24.2316 17.6156 24.6325L16.9389 25.0075C16.3426 25.3381 16.0445 25.5033 15.8066 25.7161C15.3668 26.1095 15.0603 26.6298 14.9295 27.2051C14.8587 27.5163 14.8587 27.8572 14.8587 28.539V29.9461Z" fill="#2845C1"/>
    <path d="M26.2528 29.7889C26.843 30.1297 27.1382 30.3001 27.4431 30.3945C28.0065 30.5688 28.6103 30.5636 29.1707 30.3796C29.4739 30.28 29.766 30.1046 30.3504 29.7537L31.8436 28.8569C32.3956 28.5254 32.6716 28.3597 32.893 28.152C33.302 27.7683 33.5884 27.2723 33.7162 26.7262C33.7853 26.4307 33.7909 26.1088 33.802 25.4649L33.8143 24.7467C33.8293 23.875 33.8368 23.4391 33.711 23.1648C33.4757 22.6518 32.9416 22.3437 32.3797 22.397C32.0792 22.4255 31.7057 22.6503 30.9587 23.0999L30.4608 23.3995C29.8762 23.7514 29.5839 23.9273 29.2805 24.0272C28.7197 24.2118 28.1154 24.2173 27.5513 24.0429C27.2462 23.9485 26.9507 23.778 26.3598 23.4368L25.8556 23.1457C25.1395 22.7323 24.7815 22.5256 24.4886 22.4999C23.9411 22.4519 23.4208 22.7463 23.18 23.2403C23.0511 23.5046 23.0439 23.9179 23.0294 24.7446L23.0159 25.5182C23.004 26.1998 22.9981 26.5407 23.0634 26.8531C23.1842 27.4306 23.4816 27.9562 23.9144 28.3572C24.1485 28.5741 24.4438 28.7445 25.0342 29.0854L26.2528 29.7889Z" fill="#2845C1"/>
    <path d="M31.8137 19.8429C32.404 19.5021 32.6991 19.3317 32.9332 19.1148C33.366 18.714 33.6633 18.1885 33.7842 17.6112C33.8495 17.2988 33.8437 16.9581 33.8319 16.2766L33.802 14.5351C33.7909 13.8912 33.7853 13.5693 33.7162 13.2738C33.5884 12.7277 33.302 12.2317 32.893 11.848C32.6716 11.6403 32.3956 11.4746 31.8436 11.1431L31.2278 10.7732C30.4804 10.3244 30.1066 10.0999 29.8062 10.0718C29.2442 10.019 28.7104 10.3276 28.4755 10.8408C28.35 11.1153 28.3579 11.5511 28.3737 12.4228L28.3843 13.0039C28.3967 13.6861 28.4029 14.0272 28.3377 14.3399C28.2172 14.9179 27.9198 15.444 27.4867 15.8452C27.2524 16.0623 26.957 16.2329 26.3661 16.5741L25.8618 16.8652C25.1458 17.2786 24.7878 17.4853 24.6191 17.7261C24.3038 18.1762 24.2986 18.7741 24.606 19.2297C24.7704 19.4734 25.1248 19.6863 25.8335 20.1122L26.4967 20.5106C27.0811 20.8618 27.3733 21.0373 27.6765 21.137C28.237 21.3212 28.8409 21.3264 29.4045 21.1521C29.7095 21.0577 30.0047 20.8873 30.5951 20.5464L31.8137 19.8429Z" fill="#2845C1"/>
    <path d="M14.5865 10.2111C13.9962 9.87031 13.7011 9.69991 13.3962 9.60558C12.8327 9.43123 12.229 9.43642 11.6686 9.62044C11.3654 9.72001 11.0732 9.89546 10.4889 10.2464L8.99568 11.1431C8.44365 11.4746 8.16763 11.6404 7.94627 11.848C7.53729 12.2317 7.25088 12.7278 7.12309 13.2738C7.05393 13.5694 7.04839 13.8913 7.0373 14.5351L7.02494 15.2533C7.00993 16.1251 7.00243 16.5609 7.12825 16.8352C7.36357 17.3483 7.89769 17.6563 8.45961 17.603C8.76005 17.5746 9.13355 17.3498 9.88056 16.9002L10.3785 16.6005C10.9631 16.2487 11.2554 16.0728 11.5588 15.9729C12.1196 15.7883 12.7239 15.7828 13.2879 15.9572C13.5931 16.0515 13.8885 16.2221 14.4794 16.5632L14.9837 16.8544C15.6997 17.2678 16.0577 17.4745 16.3507 17.5002C16.8981 17.5482 17.4185 17.2537 17.6593 16.7598C17.7882 16.4955 17.7954 16.0821 17.8098 15.2554L17.8233 14.4819C17.8352 13.8002 17.8412 13.4594 17.7758 13.1469C17.6551 12.5694 17.3577 12.0438 16.9249 11.6429C16.6907 11.426 16.3955 11.2555 15.8051 10.9146L14.5865 10.2111Z" fill="#C83F49"/>
    <rect x="8" y="27" width="24" height="9" rx="4.5" fill="#EEF1F4"/>
    <rect x="8" y="27" width="24" height="9" rx="4.5" fill="url(#paint0_linear_4916_2872)" fill-opacity="0.1"/>
    <path d="M12.3425 33.7362C12.2926 33.7362 12.2676 33.7362 12.2486 33.7265C12.2318 33.718 12.2182 33.7044 12.2097 33.6876C12.2 33.6686 12.2 33.6436 12.2 33.5937V29.2425C12.2 29.1926 12.2 29.1677 12.2097 29.1486C12.2182 29.1318 12.2318 29.1182 12.2486 29.1097C12.2676 29.1 12.2926 29.1 12.3425 29.1H13.5643C14.5313 29.1 15.1208 29.5768 15.1208 30.3584C15.1208 30.648 15.0195 30.9064 14.8257 31.1068C14.7572 31.1777 14.7229 31.2131 14.7171 31.2364C14.7109 31.2615 14.7123 31.274 14.7237 31.2972C14.7343 31.3187 14.7739 31.3451 14.8532 31.3978C15.1981 31.6275 15.3857 31.9699 15.3857 32.3719C15.3857 33.2196 14.73 33.7362 13.6637 33.7362H12.3425ZM13.5842 29.8815H13.283C13.2331 29.8815 13.2081 29.8815 13.1891 29.8912C13.1723 29.8998 13.1587 29.9134 13.1502 29.9301C13.1405 29.9492 13.1405 29.9741 13.1405 30.024V30.7855C13.1405 30.8354 13.1405 30.8603 13.1502 30.8794C13.1587 30.8961 13.1723 30.9097 13.1891 30.9183C13.2081 30.928 13.2331 30.928 13.283 30.928H13.5842C13.9419 30.928 14.1538 30.7359 14.1538 30.3981C14.1538 30.0736 13.9419 29.8815 13.5842 29.8815ZM13.7167 31.7095H13.283C13.2331 31.7095 13.2081 31.7095 13.1891 31.7192C13.1723 31.7278 13.1587 31.7414 13.1502 31.7582C13.1405 31.7772 13.1405 31.8022 13.1405 31.852V32.8122C13.1405 32.8621 13.1405 32.887 13.1502 32.9061C13.1587 32.9228 13.1723 32.9365 13.1891 32.945C13.2081 32.9547 13.2331 32.9547 13.283 32.9547H13.7167C14.1538 32.9547 14.4187 32.7229 14.4187 32.3321C14.4187 31.9347 14.1538 31.7095 13.7167 31.7095Z" fill="#2845C1"/>
    <path d="M16.4271 33.7362C16.3772 33.7362 16.3523 33.7362 16.3333 33.7265C16.3165 33.718 16.3029 33.7044 16.2943 33.6876C16.2846 33.6686 16.2846 33.6436 16.2846 33.5937V29.2425C16.2846 29.1926 16.2846 29.1677 16.2943 29.1486C16.3029 29.1318 16.3165 29.1182 16.3333 29.1097C16.3523 29.1 16.3772 29.1 16.4271 29.1H18.8444C18.8943 29.1 18.9192 29.1 18.9383 29.1097C18.955 29.1182 18.9687 29.1318 18.9772 29.1486C18.9869 29.1677 18.9869 29.1926 18.9869 29.2425V29.739C18.9869 29.7889 18.9869 29.8138 18.9772 29.8329C18.9687 29.8496 18.955 29.8633 18.9383 29.8718C18.9192 29.8815 18.8943 29.8815 18.8444 29.8815H17.3676C17.3177 29.8815 17.2928 29.8815 17.2738 29.8912C17.257 29.8998 17.2434 29.9134 17.2348 29.9301C17.2251 29.9492 17.2251 29.9741 17.2251 30.024V30.8385C17.2251 30.8884 17.2251 30.9133 17.2348 30.9323C17.2434 30.9491 17.257 30.9627 17.2738 30.9713C17.2928 30.981 17.3177 30.981 17.3676 30.981H18.5795C18.6294 30.981 18.6543 30.981 18.6733 30.9907C18.6901 30.9992 18.7037 31.0128 18.7123 31.0296C18.722 31.0487 18.722 31.0736 18.722 31.1235V31.62C18.722 31.6699 18.722 31.6948 18.7123 31.7139C18.7037 31.7306 18.6901 31.7443 18.6733 31.7528C18.6543 31.7625 18.6294 31.7625 18.5795 31.7625H17.3676C17.3177 31.7625 17.2928 31.7625 17.2738 31.7722C17.257 31.7808 17.2434 31.7944 17.2348 31.8111C17.2251 31.8302 17.2251 31.8551 17.2251 31.905V32.8122C17.2251 32.8621 17.2251 32.887 17.2348 32.9061C17.2434 32.9228 17.257 32.9365 17.2738 32.945C17.2928 32.9547 17.3177 32.9547 17.3676 32.9547H18.8444C18.8943 32.9547 18.9192 32.9547 18.9383 32.9644C18.955 32.9729 18.9687 32.9866 18.9772 33.0033C18.9869 33.0224 18.9869 33.0473 18.9869 33.0972V33.5937C18.9869 33.6436 18.9869 33.6686 18.9772 33.6876C18.9687 33.7044 18.955 33.718 18.9383 33.7265C18.9192 33.7362 18.8943 33.7362 18.8444 33.7362H16.4271Z" fill="#2845C1"/>
    <path d="M19.7762 29.9544C19.7263 29.9544 19.7014 29.9544 19.6823 29.9447C19.6656 29.9361 19.652 29.9225 19.6434 29.9057C19.6337 29.8867 19.6337 29.8618 19.6337 29.8119V29.2425C19.6337 29.1926 19.6337 29.1677 19.6434 29.1486C19.652 29.1318 19.6656 29.1182 19.6823 29.1097C19.7014 29.1 19.7263 29.1 19.7762 29.1H23.2929C23.3428 29.1 23.3678 29.1 23.3868 29.1097C23.4036 29.1182 23.4172 29.1318 23.4257 29.1486C23.4354 29.1677 23.4354 29.1926 23.4354 29.2425V29.8119C23.4354 29.8618 23.4354 29.8867 23.4257 29.9057C23.4172 29.9225 23.4036 29.9361 23.3868 29.9447C23.3678 29.9544 23.3428 29.9544 23.2929 29.9544H22.1473C22.0974 29.9544 22.0725 29.9544 22.0535 29.9641C22.0367 29.9726 22.0231 29.9862 22.0145 30.003C22.0048 30.0221 22.0048 30.047 22.0048 30.0969V33.5937C22.0048 33.6436 22.0048 33.6686 21.9951 33.6876C21.9866 33.7044 21.973 33.718 21.9562 33.7265C21.9371 33.7362 21.9122 33.7362 21.8623 33.7362H21.2068C21.1569 33.7362 21.132 33.7362 21.113 33.7265C21.0962 33.718 21.0826 33.7044 21.074 33.6876C21.0643 33.6686 21.0643 33.6436 21.0643 33.5937V30.0969C21.0643 30.047 21.0643 30.0221 21.0546 30.003C21.0461 29.9862 21.0325 29.9726 21.0157 29.9641C20.9966 29.9544 20.9717 29.9544 20.9218 29.9544H19.7762Z" fill="#2845C1"/>
    <path d="M23.3724 33.7362C23.3031 33.7362 23.2685 33.7362 23.2463 33.7217C23.2268 33.709 23.2131 33.6891 23.2081 33.6664C23.2024 33.6405 23.2146 33.6081 23.2392 33.5433L24.8864 29.192C24.899 29.1588 24.9053 29.1422 24.9161 29.13C24.9257 29.1192 24.9377 29.1109 24.9512 29.1058C24.9665 29.1 24.9842 29.1 25.0197 29.1H26.0548C26.0903 29.1 26.108 29.1 26.1233 29.1058C26.1368 29.1109 26.1488 29.1192 26.1584 29.13C26.1692 29.1422 26.1755 29.1588 26.188 29.192L27.8353 33.5433C27.8598 33.6081 27.8721 33.6405 27.8664 33.6664C27.8613 33.6891 27.8476 33.709 27.8282 33.7217C27.806 33.7362 27.7713 33.7362 27.702 33.7362H27.0076C26.9718 33.7362 26.9539 33.7362 26.9385 33.7304C26.925 33.7252 26.9129 33.7167 26.9033 33.7058C26.8925 33.6934 26.8863 33.6766 26.8739 33.643L26.4988 32.6241C26.4865 32.5905 26.4803 32.5737 26.4694 32.5613C26.4599 32.5503 26.4478 32.5419 26.4342 32.5367C26.4188 32.5308 26.4009 32.5308 26.3651 32.5308H24.7094C24.6736 32.5308 24.6556 32.5308 24.6403 32.5367C24.6267 32.5419 24.6146 32.5503 24.605 32.5613C24.5942 32.5737 24.588 32.5905 24.5757 32.6241L24.2006 33.643C24.1882 33.6766 24.182 33.6934 24.1712 33.7058C24.1616 33.7167 24.1495 33.7252 24.1359 33.7304C24.1206 33.7362 24.1027 33.7362 24.0668 33.7362H23.3724ZM24.9713 31.538C24.9478 31.6024 24.936 31.6346 24.9419 31.6603C24.9471 31.6828 24.9608 31.7024 24.9802 31.715C25.0023 31.7294 25.0366 31.7294 25.1051 31.7294H25.9694C26.0379 31.7294 26.0721 31.7294 26.0943 31.715C26.1136 31.7024 26.1274 31.6828 26.1325 31.6603C26.1385 31.6346 26.1267 31.6024 26.1032 31.538L25.6711 30.3542C25.6298 30.2411 25.6092 30.1846 25.579 30.1686C25.5529 30.1547 25.5216 30.1547 25.4955 30.1686C25.4653 30.1846 25.4447 30.2411 25.4034 30.3542L24.9713 31.538Z" fill="#2845C1"/>
    <path d="M61.8577 15.8076C62.6931 15.8076 63.468 15.99 64.1819 16.3545C64.8463 16.6867 65.3785 17.1009 65.7781 17.5971C65.8437 17.6785 65.8294 17.7966 65.7498 17.8645L64.3459 19.0622C64.2574 19.1377 64.1236 19.1217 64.0503 19.0314C63.7909 18.7122 63.4929 18.4426 63.1565 18.2227C62.7616 17.9645 62.3285 17.835 61.8577 17.835C61.5237 17.835 61.2353 17.8962 60.9924 18.0176C60.7646 18.1391 60.5895 18.2986 60.468 18.4961C60.3617 18.6936 60.3088 18.9142 60.3088 19.1572C60.3089 19.5216 60.4375 19.8254 60.6955 20.0684C60.969 20.2962 61.319 20.494 61.7444 20.6611C62.1696 20.8282 62.6174 21.0106 63.0881 21.208C63.5742 21.3903 64.03 21.6182 64.4553 21.8916C64.8806 22.1498 65.2225 22.4989 65.4807 22.9395C65.7541 23.3647 65.8908 23.9037 65.8909 24.5566C65.8909 25.3312 65.7012 25.9923 65.3215 26.5391C64.957 27.0706 64.471 27.4809 63.8635 27.7695C63.2559 28.0582 62.5868 28.2031 61.8577 28.2031C60.8706 28.2031 60.0124 28.0207 59.2834 27.6562C58.6116 27.3063 58.0171 26.8462 57.5 26.2769C57.4264 26.1959 57.4354 26.0708 57.5176 25.9985L58.921 24.7635C59.0067 24.6881 59.1377 24.6998 59.2123 24.7863C59.5425 25.1694 59.9081 25.4884 60.3088 25.7422C60.7645 26.0307 61.2733 26.1748 61.8352 26.1748C62.3669 26.1748 62.7698 26.0381 63.0432 25.7646C63.3316 25.4761 63.4758 25.1268 63.4758 24.7168C63.4758 24.3371 63.339 24.0335 63.0657 23.8057C62.8074 23.5778 62.4656 23.38 62.0403 23.2129C61.6149 23.0458 61.1592 22.8708 60.6731 22.6885C60.2024 22.4911 59.7545 22.2557 59.3293 21.9824C58.9041 21.709 58.5539 21.3598 58.2805 20.9346C58.0223 20.494 57.8938 19.9316 57.8938 19.248C57.8938 18.6101 58.0606 18.033 58.3948 17.5166C58.729 16.9849 59.192 16.5665 59.7844 16.2627C60.3919 15.959 61.0831 15.8077 61.8577 15.8076Z" fill="#2845C1"/>
    <path d="M71.3215 15.8076C72.1569 15.8077 72.9319 15.99 73.6457 16.3545C74.3101 16.6867 74.8424 17.1009 75.2419 17.5971C75.3075 17.6785 75.2933 17.7966 75.2137 17.8644L73.8098 19.0622C73.7213 19.1377 73.5875 19.1217 73.5141 19.0313C73.2548 18.7122 72.9568 18.4427 72.6204 18.2227C72.2255 17.9645 71.7923 17.835 71.3215 17.835C70.9873 17.835 70.6984 17.8961 70.4553 18.0176C70.2275 18.1391 70.0524 18.2986 69.9309 18.4961C69.8246 18.6935 69.7717 18.9142 69.7717 19.1572C69.7718 19.5217 69.9013 19.8254 70.1594 20.0684C70.4328 20.2962 70.782 20.4941 71.2073 20.6611C71.6326 20.8282 72.0811 21.0105 72.552 21.208C73.0379 21.3903 73.494 21.6182 73.9192 21.8916C74.3443 22.1498 74.6864 22.4991 74.9446 22.9395C75.2178 23.3646 75.3547 23.9038 75.3547 24.5566C75.3547 25.3313 75.1641 25.9922 74.7844 26.5391C74.4199 27.0707 73.934 27.4809 73.3264 27.7695C72.7189 28.0581 72.0506 28.2031 71.3215 28.2031C70.3341 28.2031 69.4755 28.0208 68.7463 27.6562C68.0745 27.3063 67.48 26.8462 66.9629 26.2769C66.8893 26.1959 66.8983 26.0708 66.9805 25.9985L68.3839 24.7635C68.4696 24.6881 68.6006 24.6998 68.6752 24.7863C69.0054 25.1694 69.371 25.4884 69.7717 25.7422C70.2273 26.0307 70.7362 26.1747 71.2981 26.1748C71.8298 26.1748 72.2327 26.0381 72.5061 25.7646C72.7946 25.4761 72.9387 25.1268 72.9387 24.7168C72.9387 24.337 72.802 24.0335 72.5286 23.8057C72.2703 23.5778 71.9285 23.38 71.5032 23.2129C71.0779 23.0458 70.622 22.8707 70.136 22.6885C69.6653 22.4911 69.2174 22.2557 68.7922 21.9824C68.3671 21.7091 68.0178 21.3597 67.7444 20.9346C67.4861 20.494 67.3567 19.9316 67.3567 19.248C67.3567 18.6102 67.5236 18.033 67.8577 17.5166C68.1918 16.985 68.655 16.5665 69.2473 16.2627C69.8549 15.9589 70.5468 15.8076 71.3215 15.8076Z" fill="#2845C1"/>
    <path d="M86.3313 15.8076C87.1668 15.8076 87.9416 15.9899 88.6555 16.3545C89.32 16.6868 89.8521 17.1008 90.2517 17.5971C90.3173 17.6785 90.303 17.7966 90.2235 17.8644L88.8195 19.0622C88.731 19.1377 88.5973 19.1217 88.5239 19.0314C88.2646 18.7122 87.9666 18.4426 87.6301 18.2227C87.2352 17.9644 86.8022 17.835 86.3313 17.835C85.9971 17.835 85.7081 17.8961 85.4651 18.0176C85.2374 18.1391 85.0631 18.2988 84.9416 18.4961C84.8353 18.6936 84.7815 18.9142 84.7815 19.1572C84.7816 19.5216 84.911 19.8254 85.1692 20.0684C85.4426 20.2962 85.7918 20.4941 86.217 20.6611C86.6424 20.8282 87.0909 21.0105 87.5618 21.208C88.0478 21.3903 88.5036 21.6182 88.9289 21.8916C89.3542 22.1498 89.6961 22.499 89.9543 22.9395C90.2276 23.3647 90.3644 23.9037 90.3645 24.5566C90.3645 25.3311 90.1747 25.9923 89.7952 26.5391C89.4306 27.0707 88.9438 27.4809 88.3362 27.7695C87.7286 28.0581 87.0604 28.2031 86.3313 28.2031C85.3439 28.2031 84.4852 28.0208 83.7561 27.6562C83.0843 27.3063 82.4905 26.8461 81.9736 26.2769C81.9 26.1959 81.909 26.0708 81.9911 25.9985L83.3937 24.7636C83.4793 24.6881 83.6104 24.6998 83.685 24.7863C84.0152 25.1694 84.3808 25.4884 84.7815 25.7422C85.2372 26.0308 85.7468 26.1748 86.3088 26.1748C86.8403 26.1748 87.2425 26.038 87.5159 25.7646C87.8044 25.4761 87.9494 25.1269 87.9495 24.7168C87.9495 24.3372 87.8125 24.0335 87.5393 23.8057C87.2811 23.5779 86.9391 23.38 86.5139 23.2129C86.0886 23.0458 85.6328 22.8707 85.1467 22.6885C84.6758 22.491 84.2273 22.2559 83.802 21.9824C83.3768 21.7091 83.0275 21.3597 82.7541 20.9346C82.4959 20.494 82.3664 19.9316 82.3664 19.248C82.3664 18.61 82.5342 18.0331 82.8684 17.5166C83.2026 16.9849 83.6656 16.5665 84.258 16.2627C84.8656 15.959 85.5567 15.8076 86.3313 15.8076Z" fill="#2845C1"/>
    <path fill-rule="evenodd" clip-rule="evenodd" d="M106.191 16.0361C107.239 16.0361 108.128 16.2257 108.857 16.6055C109.586 16.9852 110.133 17.5094 110.498 18.1777C110.877 18.8461 111.067 19.5981 111.067 20.4336V27.7756C111.067 27.886 110.977 27.9756 110.867 27.9756H108.76C108.65 27.9756 108.56 27.886 108.56 27.7756V27.0162C108.56 26.9218 108.438 26.8771 108.372 26.9448C108.27 27.0497 108.159 27.1502 108.037 27.2461C107.626 27.5803 107.148 27.8392 106.601 28.0215C106.054 28.2189 105.5 28.3173 104.938 28.3174C103.814 28.3174 102.894 28.0139 102.18 27.4062C101.466 26.7986 101.11 25.9855 101.11 24.9678C101.11 24.102 101.436 23.3654 102.089 22.7578C102.743 22.1502 103.684 21.7473 104.915 21.5498L108.394 20.9589C108.49 20.9426 108.56 20.8593 108.56 20.7618V20.4336C108.56 19.7502 108.333 19.2186 107.877 18.8389C107.422 18.444 106.829 18.2462 106.1 18.2461C105.508 18.2461 104.968 18.3756 104.482 18.6338C104.071 18.8594 103.717 19.1602 103.422 19.5365C103.351 19.626 103.222 19.6465 103.132 19.5773L101.606 18.4098C101.52 18.3442 101.501 18.2219 101.568 18.1365C102.052 17.5117 102.666 17.0165 103.411 16.6514C104.231 16.2412 105.158 16.0361 106.191 16.0361ZM105.553 23.2139C104.87 23.3202 104.376 23.5171 104.072 23.8057C103.768 24.079 103.616 24.4284 103.616 24.8535C103.616 25.2788 103.775 25.6289 104.094 25.9023C104.428 26.1758 104.877 26.3125 105.439 26.3125C106.138 26.3125 106.753 26.153 107.285 25.834C107.721 25.5722 108.09 25.2382 108.393 24.833C108.508 24.6795 108.56 24.4899 108.56 24.2983V22.9508C108.56 22.8272 108.449 22.7332 108.327 22.7535L105.553 23.2139Z" fill="#2845C1"/>
    <path d="M95.9868 16.2912C95.9868 16.4017 96.0764 16.4912 96.1868 16.4912H99.5017C99.6121 16.4912 99.7017 16.5808 99.7017 16.6912V18.5471C99.7017 18.6575 99.6121 18.7471 99.5017 18.7471H96.1868C96.0764 18.7471 95.9868 18.8366 95.9868 18.9471V23.9199C95.9868 24.421 96.0708 24.8159 96.2378 25.1045C96.4048 25.3929 96.6403 25.6055 96.9439 25.7422C97.2477 25.8637 97.605 25.9248 98.0151 25.9248C98.4101 25.9248 98.7446 25.902 99.0181 25.8564C99.1739 25.8218 99.3174 25.7847 99.4485 25.7451C99.5829 25.7045 99.7241 25.8022 99.7241 25.9426V27.7314C99.7241 27.8104 99.6778 27.8826 99.6042 27.9113C99.3605 28.0061 99.0888 28.0733 98.7896 28.1123C98.4554 28.173 98.0605 28.2031 97.605 28.2031C96.6936 28.2031 95.926 28.0436 95.3032 27.7246C94.6959 27.3904 94.2325 26.9117 93.9136 26.2891C93.6099 25.6512 93.4585 24.8615 93.4585 23.9199V18.9471C93.4585 18.8366 93.369 18.7471 93.2585 18.7471H91.6087C91.4982 18.7471 91.4087 18.6575 91.4087 18.5471V16.6912C91.4087 16.5808 91.4982 16.4912 91.6087 16.4912H93.2585C93.369 16.4912 93.4585 16.4017 93.4585 16.2912V13.8211C93.4585 13.7106 93.548 13.6211 93.6585 13.6211H95.7868C95.8973 13.6211 95.9868 13.7106 95.9868 13.8211V16.2912Z" fill="#2845C1"/>
    <path d="M130.563 16.2912C130.563 16.4017 130.653 16.4912 130.763 16.4912H134.077C134.187 16.4912 134.277 16.5808 134.277 16.6912V18.5471C134.277 18.6575 134.187 18.7471 134.077 18.7471H130.763C130.653 18.7471 130.563 18.8366 130.563 18.9471V23.9199C130.563 24.421 130.646 24.8159 130.813 25.1045C130.98 25.3931 131.216 25.6055 131.52 25.7422C131.824 25.8637 132.18 25.9248 132.59 25.9248C132.985 25.9248 133.32 25.902 133.593 25.8564C133.749 25.8218 133.893 25.7847 134.024 25.7451C134.158 25.7045 134.299 25.8022 134.299 25.9425V27.7313C134.299 27.8104 134.253 27.8826 134.179 27.9113C133.936 28.0061 133.665 28.0733 133.366 28.1123C133.032 28.1731 132.636 28.2031 132.18 28.2031C131.269 28.2031 130.502 28.0436 129.879 27.7246C129.272 27.3904 128.809 26.9119 128.49 26.2891C128.186 25.6511 128.034 24.8616 128.034 23.9199V18.9471C128.034 18.8366 127.944 18.7471 127.834 18.7471H126.092C125.982 18.7471 125.892 18.6575 125.892 18.5471V16.6912C125.892 16.5808 125.982 16.4912 126.092 16.4912H127.834C127.944 16.4912 128.034 16.4017 128.034 16.2912V13.8211C128.034 13.7106 128.123 13.6211 128.234 13.6211H130.363C130.473 13.6211 130.563 13.7106 130.563 13.8211V16.2912Z" fill="#2845C1"/>
    <path fill-rule="evenodd" clip-rule="evenodd" d="M56.8209 27.7034C56.8716 27.8344 56.7749 27.9756 56.6344 27.9756H54.0801C53.9969 27.9756 53.9224 27.9241 53.893 27.8464L52.3355 23.7298C52.3061 23.652 52.2316 23.6006 52.1485 23.6006H45.6707C45.5876 23.6006 45.5132 23.6519 45.4837 23.7296L43.9196 27.8466C43.8901 27.9243 43.8157 27.9756 43.7326 27.9756H41.2002C41.0598 27.9756 40.9631 27.8346 41.0136 27.7036L47.0107 12.1534C47.0404 12.0763 47.1146 12.0254 47.1973 12.0254H50.6144C50.697 12.0254 50.7711 12.0762 50.8009 12.1532L56.8209 27.7034ZM46.5361 20.9604C46.4864 21.0913 46.5831 21.2314 46.7231 21.2314H51.1006C51.2405 21.2314 51.3372 21.0915 51.2876 20.9606L49.1032 15.1895C49.038 15.0173 48.7946 15.0172 48.7292 15.1892L46.5361 20.9604Z" fill="#2845C1"/>
    <path d="M80.1372 27.7756C80.1372 27.886 80.0477 27.9756 79.9372 27.9756H77.8314C77.7209 27.9756 77.6314 27.886 77.6314 27.7756V16.6912C77.6314 16.5808 77.7209 16.4912 77.8314 16.4912H79.9372C80.0477 16.4912 80.1372 16.5808 80.1372 16.6912V27.7756Z" fill="#2845C1"/>
    <path d="M120.009 16.0361C120.86 16.0361 121.619 16.2258 122.288 16.6055C122.971 16.9852 123.511 17.5477 123.906 18.292C124.301 19.0363 124.499 19.9708 124.499 21.0947V27.7756C124.499 27.886 124.409 27.9756 124.299 27.9756H122.169C122.059 27.9756 121.969 27.886 121.969 27.7756V21.1855C121.969 20.3046 121.741 19.6209 121.286 19.1348C120.83 18.6335 120.206 18.3828 119.417 18.3828C118.915 18.3829 118.475 18.4813 118.095 18.6787C117.715 18.861 117.389 19.0971 117.116 19.3857C116.919 19.6051 116.745 19.8331 116.592 20.0699C116.498 20.2162 116.455 20.3884 116.455 20.5624V27.7756C116.455 27.886 116.365 27.9756 116.255 27.9756H114.149C114.038 27.9756 113.949 27.886 113.949 27.7756V16.6912C113.949 16.5808 114.038 16.4912 114.149 16.4912H116.255C116.365 16.4912 116.455 16.5808 116.455 16.6912V17.2892C116.455 17.3794 116.566 17.4247 116.631 17.3628C117.008 17.0071 117.443 16.7088 117.936 16.4688C118.528 16.1802 119.219 16.0361 120.009 16.0361Z" fill="#2845C1"/>
    <path d="M78.9067 10.75C79.2105 10.75 79.484 10.8257 79.7271 10.9775C79.9853 11.1294 80.1831 11.3345 80.3198 11.5928C80.4717 11.8358 80.5474 12.1093 80.5474 12.4131C80.5474 12.7168 80.4716 12.9977 80.3198 13.2559C80.1831 13.5141 79.9853 13.7192 79.7271 13.8711C79.484 14.0078 79.2106 14.0762 78.9067 14.0762C78.603 14.0762 78.3222 14.0078 78.064 13.8711C77.8057 13.7192 77.6006 13.5141 77.4487 13.2559C77.2969 12.9977 77.2212 12.7168 77.2212 12.4131C77.2212 11.9574 77.3807 11.57 77.6997 11.251C78.0338 10.917 78.436 10.75 78.9067 10.75Z" fill="#2845C1"/>
    <path fill-rule="evenodd" clip-rule="evenodd" d="M230.463 16.1859C231.689 16.186 232.739 16.4773 233.613 17.0599C234.502 17.6272 235.185 18.3858 235.66 19.3363C236.151 20.2716 236.396 21.3071 236.396 22.4418C236.396 23.285 236.258 24.0821 235.982 24.8334C235.706 25.5847 235.307 26.2517 234.786 26.8344C234.28 27.4169 233.66 27.8769 232.924 28.2142C232.203 28.5362 231.383 28.6976 230.463 28.6976C229.666 28.6976 228.96 28.5676 228.347 28.307C227.733 28.0464 227.189 27.6705 226.714 27.1801C226.689 27.1533 226.645 27.1699 226.645 27.2064V33.5756C226.645 33.6873 226.645 33.7437 226.623 33.7865C226.604 33.8241 226.573 33.8552 226.535 33.8744C226.492 33.8961 226.436 33.8959 226.324 33.8959H224.458C224.346 33.8959 224.29 33.8961 224.247 33.8744C224.209 33.8552 224.178 33.8241 224.159 33.7865C224.138 33.7437 224.138 33.6873 224.138 33.5756V16.9662C224.138 16.8544 224.138 16.798 224.159 16.7552C224.178 16.7176 224.209 16.6865 224.247 16.6674C224.29 16.6457 224.346 16.6459 224.458 16.6459H226.324C226.436 16.6459 226.492 16.6457 226.535 16.6674C226.573 16.6865 226.604 16.7176 226.623 16.7552C226.645 16.798 226.645 16.8544 226.645 16.9662V17.6761C226.645 17.7125 226.689 17.7296 226.714 17.7035C227.189 17.213 227.733 16.8372 228.347 16.5765C228.96 16.3159 229.666 16.1859 230.463 16.1859ZM230.141 18.5551C229.42 18.5551 228.753 18.7236 228.14 19.0609C227.68 19.3084 227.275 19.6514 226.924 20.0892C226.842 20.1916 226.8 20.2429 226.754 20.3334C226.719 20.4022 226.681 20.5117 226.665 20.5873C226.645 20.6869 226.645 20.7752 226.645 20.9515V23.931C226.645 24.1075 226.645 24.1962 226.665 24.2953C226.681 24.371 226.718 24.4795 226.753 24.5482C226.799 24.6382 226.84 24.6904 226.923 24.7943C227.274 25.2357 227.679 25.5865 228.14 25.8461C228.753 26.168 229.42 26.3285 230.141 26.3285C230.877 26.3285 231.513 26.1599 232.05 25.8226C232.602 25.47 233.023 25.0019 233.314 24.4193C233.621 23.8367 233.774 23.1776 233.774 22.4418C233.774 21.7058 233.621 21.0459 233.314 20.4633C233.023 19.8808 232.602 19.4206 232.05 19.0834C231.513 18.7307 230.877 18.5551 230.141 18.5551Z" fill="#2845C1"/>
    <path d="M191.69 16.1859C192.549 16.1859 193.339 16.3697 194.06 16.7377C194.69 17.0529 195.203 17.4358 195.597 17.8861C195.66 17.9588 195.692 17.9957 195.704 18.0424C195.714 18.0813 195.71 18.1282 195.695 18.1654C195.677 18.2101 195.637 18.2445 195.559 18.3129L194.322 19.3851C194.231 19.4642 194.185 19.5035 194.139 19.515C194.096 19.5257 194.057 19.5229 194.016 19.5062C193.971 19.4881 193.928 19.4386 193.843 19.3402C193.601 19.0612 193.328 18.8221 193.024 18.6234C192.626 18.3629 192.189 18.2328 191.714 18.2328C191.377 18.2328 191.085 18.2938 190.84 18.4164C190.61 18.539 190.433 18.7004 190.311 18.8998C190.188 19.0991 190.127 19.3215 190.127 19.5668C190.127 19.9347 190.265 20.2414 190.541 20.4867C190.817 20.7166 191.169 20.9157 191.599 21.0844C192.028 21.253 192.481 21.4378 192.956 21.6371C193.431 21.821 193.883 22.0507 194.312 22.3265C194.742 22.5872 195.095 22.9405 195.371 23.3851C195.647 23.8144 195.784 24.3589 195.784 25.0179C195.769 25.7998 195.578 26.467 195.21 27.0189C194.842 27.5556 194.351 27.9698 193.737 28.2611C193.124 28.5523 192.45 28.6976 191.714 28.6976C190.717 28.6976 189.85 28.5139 189.114 28.1459C188.47 27.8104 187.897 27.3752 187.394 26.8402C187.321 26.7633 187.285 26.7244 187.271 26.6771C187.26 26.6369 187.262 26.5901 187.277 26.5511C187.295 26.5054 187.337 26.4688 187.42 26.3959L188.651 25.3119C188.74 25.2335 188.785 25.1939 188.832 25.182C188.874 25.1713 188.914 25.1736 188.955 25.1898C189 25.2076 189.041 25.2547 189.124 25.349C189.436 25.7048 189.778 26.0012 190.149 26.2367C190.609 26.5127 191.123 26.6507 191.69 26.6508C192.227 26.6508 192.641 26.5127 192.933 26.2367C193.224 25.9455 193.37 25.5929 193.37 25.1791C193.37 24.796 193.232 24.4891 192.956 24.2592C192.68 24.0292 192.327 23.8292 191.897 23.6605C191.468 23.4919 191.008 23.3152 190.518 23.1312C190.042 22.9319 189.589 22.6943 189.16 22.4183C188.731 22.1424 188.378 21.7818 188.103 21.3373C187.842 20.8927 187.712 20.3331 187.712 19.6586C187.712 18.9994 187.881 18.4093 188.218 17.8881C188.555 17.3667 189.023 16.9525 189.621 16.6459C190.234 16.3393 190.924 16.1859 191.69 16.1859Z" fill="#2845C1"/>
    <path d="M203.357 16.1859C204.415 16.1859 205.359 16.4002 206.187 16.8295C206.931 17.1948 207.556 17.6794 208.062 18.2836C208.128 18.3636 208.161 18.4043 208.172 18.4525C208.181 18.4934 208.176 18.5406 208.158 18.5785C208.137 18.6232 208.094 18.6571 208.007 18.724L206.545 19.8441C206.452 19.9154 206.406 19.9512 206.36 19.9603C206.318 19.9689 206.281 19.965 206.241 19.9476C206.199 19.9291 206.157 19.8805 206.073 19.7826C205.798 19.4587 205.46 19.1875 205.06 18.9691C204.569 18.6931 203.994 18.5551 203.335 18.5551C202.798 18.5551 202.3 18.6546 201.84 18.8539C201.395 19.0379 201.004 19.306 200.667 19.6586C200.345 20.0112 200.092 20.4255 199.908 20.9008C199.74 21.3761 199.654 21.8898 199.654 22.4418C199.654 23.1777 199.816 23.8448 200.138 24.4427C200.46 25.0254 200.897 25.4853 201.449 25.8226C202.001 26.1598 202.645 26.3285 203.381 26.3285C204.009 26.3285 204.569 26.1904 205.06 25.9144C205.46 25.6961 205.798 25.4249 206.073 25.101C206.157 25.0029 206.199 24.9535 206.241 24.9349C206.281 24.9176 206.318 24.9136 206.36 24.9222C206.406 24.9314 206.453 24.9671 206.546 25.0385L208.004 26.1576C208.092 26.2251 208.137 26.259 208.157 26.3041C208.175 26.3423 208.179 26.39 208.17 26.431C208.159 26.4795 208.125 26.5198 208.057 26.6C207.552 27.1914 206.929 27.6763 206.187 28.0541C205.359 28.4833 204.415 28.6976 203.357 28.6976C202.054 28.6976 200.927 28.4143 199.977 27.847C199.026 27.2644 198.29 26.4969 197.769 25.5463C197.263 24.5957 197.01 23.5609 197.01 22.4418C197.01 21.5984 197.155 20.8005 197.446 20.0492C197.738 19.298 198.16 18.6308 198.712 18.0482C199.264 17.4657 199.931 17.0137 200.713 16.6918C201.495 16.3545 202.376 16.1859 203.357 16.1859Z" fill="#2845C1"/>
    <path d="M250.868 16.1859C251.727 16.1859 252.517 16.3697 253.237 16.7377C253.868 17.0529 254.38 17.4358 254.774 17.8861C254.838 17.9588 254.87 17.9957 254.882 18.0424C254.892 18.0813 254.888 18.1282 254.873 18.1654C254.855 18.2101 254.815 18.2445 254.736 18.3129L253.5 19.3851C253.409 19.4642 253.363 19.5035 253.316 19.515C253.273 19.5257 253.235 19.5229 253.193 19.5062C253.149 19.4881 253.106 19.4386 253.021 19.3402C252.779 19.0612 252.506 18.8222 252.202 18.6234C251.803 18.3628 251.366 18.2328 250.891 18.2328C250.553 18.2328 250.262 18.2938 250.017 18.4164C249.787 18.539 249.611 18.7005 249.488 18.8998C249.366 19.0991 249.304 19.3214 249.304 19.5668C249.304 19.9347 249.442 20.2414 249.718 20.4867C249.994 20.7167 250.347 20.9157 250.776 21.0844C251.206 21.253 251.658 21.4378 252.133 21.6371C252.608 21.8211 253.061 22.0505 253.49 22.3265C253.92 22.5872 254.272 22.9405 254.548 23.3851C254.824 23.8144 254.962 24.3587 254.962 25.0179C254.947 25.7998 254.755 26.467 254.387 27.0189C254.019 27.5554 253.528 27.9698 252.915 28.2611C252.302 28.5524 251.627 28.6976 250.891 28.6976C249.894 28.6976 249.028 28.5138 248.292 28.1459C247.648 27.8105 247.074 27.3752 246.571 26.8402C246.499 26.7633 246.462 26.7244 246.449 26.6771C246.438 26.6369 246.44 26.5901 246.455 26.5511C246.473 26.5054 246.515 26.4688 246.598 26.3959L247.829 25.3119C247.918 25.2335 247.963 25.1939 248.01 25.182C248.052 25.1713 248.092 25.1736 248.133 25.1898C248.177 25.2076 248.219 25.2547 248.302 25.349C248.614 25.7049 248.955 26.0012 249.327 26.2367C249.787 26.5126 250.301 26.6508 250.868 26.6508C251.405 26.6507 251.819 26.5127 252.11 26.2367C252.401 25.9455 252.547 25.5928 252.547 25.1791C252.547 24.7958 252.409 24.4891 252.133 24.2592C251.857 24.0292 251.504 23.8292 251.075 23.6605C250.646 23.4919 250.186 23.3152 249.695 23.1312C249.22 22.9319 248.767 22.6943 248.338 22.4183C247.909 22.1424 247.556 21.7819 247.28 21.3373C247.02 20.8926 246.889 20.3331 246.889 19.6586C246.889 18.9995 247.057 18.4092 247.395 17.8881C247.732 17.3668 248.2 16.9525 248.798 16.6459C249.411 16.3392 250.101 16.1859 250.868 16.1859Z" fill="#2845C1"/>
    <path fill-rule="evenodd" clip-rule="evenodd" d="M166.951 16.1859C168.009 16.1859 168.907 16.3778 169.643 16.7611C170.378 17.1444 170.931 17.6734 171.299 18.348C171.667 19.0072 171.851 19.766 171.851 20.6244V27.9174C171.851 28.0291 171.851 28.0855 171.829 28.1283C171.81 28.1659 171.779 28.197 171.741 28.2162C171.698 28.2379 171.642 28.2377 171.53 28.2377H169.687C169.575 28.2377 169.518 28.2379 169.476 28.2162C169.438 28.197 169.407 28.1659 169.388 28.1283C169.366 28.0855 169.366 28.0291 169.366 27.9174V27.4154C169.366 27.2694 169.366 27.1962 169.343 27.1683C169.321 27.1427 169.294 27.1313 169.261 27.1332C169.224 27.1353 169.168 27.1884 169.056 27.2943C168.98 27.3658 168.899 27.4347 168.814 27.5013C168.4 27.8387 167.917 28.0996 167.365 28.2836C166.829 28.4829 166.276 28.5824 165.709 28.5824C164.559 28.5823 163.624 28.2757 162.903 27.6625C162.183 27.0492 161.822 26.2288 161.822 25.2015C161.822 24.3276 162.152 23.5915 162.812 22.9935C163.471 22.3803 164.421 21.966 165.663 21.7513L169.1 21.1674C169.194 21.1513 169.242 21.1432 169.277 21.1195C169.308 21.0987 169.333 21.0697 169.349 21.0355C169.366 20.9965 169.366 20.948 169.366 20.8519V20.6244C169.366 19.9345 169.129 19.3902 168.653 18.9916C168.193 18.593 167.595 18.3939 166.859 18.3939C166.261 18.3939 165.717 18.532 165.227 18.808C164.847 19.0163 164.515 19.2887 164.233 19.6244C164.152 19.7211 164.111 19.7697 164.068 19.7885C164.029 19.8057 163.992 19.8096 163.949 19.8011C163.904 19.792 163.857 19.7566 163.765 19.6859L162.417 18.6537C162.33 18.5869 162.286 18.5529 162.266 18.5082C162.248 18.4705 162.242 18.4238 162.251 18.3832C162.261 18.335 162.295 18.2949 162.361 18.2152C162.851 17.6272 163.453 17.1578 164.168 16.807C164.981 16.393 165.909 16.1859 166.951 16.1859ZM169.179 22.9369L166.308 23.431C165.618 23.5384 165.119 23.7374 164.812 24.0287C164.506 24.3199 164.353 24.6725 164.353 25.0863C164.353 25.5156 164.513 25.8689 164.835 26.1449C165.172 26.4209 165.618 26.559 166.17 26.559C166.89 26.5589 167.519 26.3975 168.056 26.0756C168.46 25.8327 168.808 25.5285 169.1 25.1635C169.174 25.0705 169.211 25.024 169.257 24.934C169.291 24.8672 169.331 24.7534 169.346 24.6801C169.366 24.5808 169.366 24.496 169.366 24.3265V23.0941C169.366 23.0291 169.366 22.9961 169.353 22.973C169.341 22.9529 169.323 22.9371 169.301 22.9291C169.276 22.9199 169.243 22.9258 169.179 22.9369Z" fill="#2845C1"/>
    <path d="M241.329 13.7474C241.441 13.7474 241.497 13.7473 241.54 13.7689C241.578 13.7881 241.609 13.8192 241.628 13.8568C241.65 13.8996 241.649 13.956 241.649 14.0677V16.3256C241.649 16.4373 241.649 16.4938 241.671 16.5365C241.69 16.5741 241.721 16.6052 241.759 16.6244C241.802 16.6461 241.858 16.6459 241.97 16.6459H245.078C245.19 16.6459 245.246 16.6457 245.289 16.6674C245.327 16.6865 245.358 16.7176 245.377 16.7552C245.399 16.798 245.398 16.8544 245.398 16.9662V18.5795C245.398 18.6912 245.399 18.7477 245.377 18.7904C245.358 18.828 245.327 18.8591 245.289 18.8783C245.246 18.9 245.19 18.8998 245.078 18.8998H241.97C241.858 18.8998 241.802 18.8996 241.759 18.9213C241.721 18.9404 241.69 18.9715 241.671 19.0092C241.649 19.0519 241.649 19.1083 241.649 19.2201V24.1439C241.649 24.6498 241.727 25.0561 241.88 25.3627C242.049 25.6539 242.286 25.8611 242.593 25.9838C242.899 26.1063 243.267 26.1673 243.696 26.1674C244.095 26.1674 244.433 26.145 244.709 26.099C244.813 26.076 244.911 26.0528 245.004 26.0297C245.153 25.9925 245.228 25.9741 245.281 25.9906C245.329 26.0055 245.367 26.0347 245.393 26.0775C245.422 26.1253 245.422 26.2 245.422 26.348V27.9095C245.422 27.9862 245.422 28.025 245.408 28.0599C245.397 28.0892 245.375 28.1197 245.352 28.14C245.323 28.1641 245.29 28.1755 245.224 28.1986C244.989 28.2806 244.741 28.3396 244.479 28.3754C244.141 28.4367 243.742 28.4681 243.282 28.4681C242.363 28.4681 241.588 28.3066 240.96 27.9847C240.347 27.6627 239.879 27.1795 239.557 26.5355C239.25 25.8916 239.097 25.0944 239.097 24.1439V19.2201C239.097 19.1083 239.097 19.0519 239.075 19.0092C239.056 18.9715 239.025 18.9404 238.987 18.9213C238.945 18.8996 238.888 18.8998 238.776 18.8998H237.255C237.143 18.8998 237.087 18.9 237.044 18.8783C237.006 18.8591 236.975 18.828 236.956 18.7904C236.934 18.7477 236.935 18.6912 236.935 18.5795V16.9662C236.935 16.8544 236.934 16.798 236.956 16.7552C236.975 16.7176 237.006 16.6865 237.044 16.6674C237.087 16.6457 237.143 16.6459 237.255 16.6459H238.776C238.888 16.6459 238.945 16.6461 238.987 16.6244C239.025 16.6052 239.056 16.5741 239.075 16.5365C239.097 16.4938 239.097 16.4373 239.097 16.3256V14.0677C239.097 13.956 239.096 13.8996 239.118 13.8568C239.137 13.8192 239.168 13.7881 239.206 13.7689C239.249 13.7473 239.305 13.7474 239.417 13.7474H241.329Z" fill="#2845C1"/>
    <path d="M153.721 12.1381C153.832 12.1381 153.889 12.1379 153.932 12.1595C153.969 12.1787 154 12.2098 154.02 12.2474C154.041 12.2902 154.041 12.3466 154.041 12.4584V14.3705C154.041 14.4823 154.041 14.5387 154.02 14.5814C154 14.6191 153.969 14.6501 153.932 14.6693C153.889 14.691 153.832 14.6908 153.721 14.6908H149.232C149.121 14.6908 149.064 14.6906 149.021 14.7123C148.984 14.7315 148.953 14.7625 148.934 14.8002C148.912 14.8429 148.912 14.8993 148.912 15.0111V27.9174C148.912 28.0291 148.912 28.0855 148.891 28.1283C148.871 28.1659 148.84 28.197 148.803 28.2162C148.76 28.2379 148.704 28.2377 148.592 28.2377H146.427C146.315 28.2377 146.259 28.2379 146.216 28.2162C146.178 28.197 146.147 28.1659 146.128 28.1283C146.106 28.0855 146.106 28.0291 146.106 27.9174V15.0111C146.106 14.8993 146.107 14.8429 146.085 14.8002C146.066 14.7625 146.035 14.7315 145.997 14.7123C145.954 14.6906 145.898 14.6908 145.786 14.6908H141.32C141.209 14.6908 141.152 14.691 141.109 14.6693C141.072 14.6501 141.041 14.6191 141.021 14.5814C141 14.5387 141 14.4823 141 14.3705V12.4584C141 12.3466 141 12.2902 141.021 12.2474C141.041 12.2098 141.072 12.1787 141.109 12.1595C141.152 12.1379 141.209 12.1381 141.32 12.1381H153.721Z" fill="#2845C1"/>
    <path d="M160.146 16.4154C160.346 16.4154 160.53 16.4307 160.698 16.4613C160.781 16.4764 160.861 16.4932 160.937 16.5121C161.009 16.5302 161.046 16.5397 161.078 16.5638C161.105 16.5839 161.13 16.616 161.143 16.6469C161.158 16.6839 161.158 16.725 161.158 16.807V18.6273C161.158 18.7677 161.158 18.8386 161.131 18.8851C161.106 18.9272 161.072 18.9565 161.026 18.973C160.976 18.9912 160.903 18.9778 160.758 18.9515C160.7 18.9411 160.642 18.9313 160.583 18.9222C160.399 18.8916 160.177 18.8763 159.916 18.8763C159.441 18.8764 159.011 18.9535 158.628 19.1068C158.245 19.2601 157.915 19.4673 157.639 19.7279C157.476 19.8814 157.33 20.0429 157.199 20.2123C157.131 20.3007 157.097 20.3454 157.053 20.434C157.021 20.4986 156.983 20.6113 156.969 20.682C156.949 20.7787 156.949 20.8599 156.949 21.0219V27.9174C156.949 28.0291 156.949 28.0855 156.928 28.1283C156.909 28.1659 156.877 28.197 156.84 28.2162C156.797 28.2379 156.741 28.2377 156.629 28.2377H154.763C154.651 28.2377 154.595 28.2379 154.552 28.2162C154.514 28.197 154.483 28.1659 154.464 28.1283C154.442 28.0855 154.442 28.0291 154.442 27.9174V16.9662C154.442 16.8544 154.442 16.798 154.464 16.7552C154.483 16.7176 154.514 16.6865 154.552 16.6674C154.595 16.6457 154.651 16.6459 154.763 16.6459H156.629C156.741 16.6459 156.797 16.6457 156.84 16.6674C156.877 16.6865 156.909 16.7176 156.928 16.7552C156.949 16.798 156.949 16.8544 156.949 16.9662V17.5082C156.949 17.637 156.949 17.7017 156.973 17.7299C156.994 17.7546 157.023 17.7671 157.056 17.765C157.092 17.7625 157.14 17.7167 157.235 17.6244C157.33 17.5326 157.426 17.4438 157.524 17.3588C157.877 17.0675 158.268 16.837 158.697 16.6683C159.127 16.4997 159.61 16.4154 160.146 16.4154Z" fill="#2845C1"/>
    <path d="M180.899 16.1859C181.758 16.1859 182.526 16.3778 183.2 16.7611C183.89 17.1444 184.426 17.7113 184.81 18.4623C185.208 19.2135 185.408 20.1568 185.408 21.2914V27.9174C185.408 28.0291 185.408 28.0855 185.387 28.1283C185.368 28.1659 185.336 28.197 185.299 28.2162C185.256 28.2379 185.2 28.2377 185.088 28.2377H183.198C183.086 28.2377 183.03 28.2379 182.987 28.2162C182.95 28.197 182.919 28.1659 182.899 28.1283C182.878 28.0855 182.878 28.0291 182.878 27.9174V21.3842C182.878 20.4948 182.647 19.8045 182.188 19.3138C181.728 18.8079 181.099 18.5551 180.302 18.5551C179.796 18.5551 179.351 18.6546 178.968 18.8539C178.585 19.0379 178.254 19.2755 177.979 19.5668C177.822 19.7418 177.676 19.9226 177.542 20.1088C177.463 20.2185 177.424 20.2737 177.384 20.3588C177.352 20.4258 177.32 20.5234 177.307 20.5961C177.289 20.6884 177.289 20.7729 177.289 20.9418V27.9174C177.289 28.0291 177.289 28.0855 177.268 28.1283C177.248 28.1659 177.217 28.197 177.18 28.2162C177.137 28.2379 177.081 28.2377 176.969 28.2377H175.103C174.991 28.2377 174.934 28.2379 174.892 28.2162C174.854 28.197 174.823 28.1659 174.804 28.1283C174.782 28.0855 174.782 28.0291 174.782 27.9174V16.9662C174.782 16.8544 174.782 16.798 174.804 16.7552C174.823 16.7176 174.854 16.6865 174.892 16.6674C174.934 16.6457 174.991 16.6459 175.103 16.6459H176.969C177.081 16.6459 177.137 16.6457 177.18 16.6674C177.217 16.6865 177.248 16.7176 177.268 16.7552C177.289 16.798 177.289 16.8544 177.289 16.9662V17.3226C177.289 17.4499 177.289 17.5144 177.312 17.5424C177.332 17.5673 177.361 17.5798 177.394 17.5785C177.429 17.5767 177.479 17.5329 177.577 17.4447C177.937 17.1209 178.347 16.8465 178.807 16.6224C179.405 16.3312 180.102 16.186 180.899 16.1859Z" fill="#2845C1"/>
    <path d="M215.679 16.4154C215.878 16.4154 216.062 16.4307 216.23 16.4613C216.314 16.4764 216.393 16.4932 216.469 16.5121C216.541 16.5303 216.578 16.5397 216.61 16.5638C216.637 16.5839 216.662 16.616 216.675 16.6469C216.69 16.6839 216.69 16.725 216.69 16.807V18.6273C216.69 18.7677 216.69 18.8386 216.663 18.8851C216.639 18.9272 216.604 18.9565 216.559 18.973C216.508 18.9912 216.435 18.9778 216.29 18.9515C216.232 18.9411 216.174 18.9313 216.115 18.9222C215.931 18.8916 215.709 18.8763 215.448 18.8763C214.973 18.8764 214.543 18.9535 214.16 19.1068C213.777 19.2601 213.448 19.4674 213.172 19.7279C213.009 19.8816 212.862 20.0437 212.731 20.2133C212.664 20.3012 212.629 20.3454 212.585 20.434C212.553 20.4987 212.515 20.6115 212.501 20.682C212.482 20.7789 212.481 20.86 212.481 21.0219V27.9174C212.481 28.0291 212.482 28.0855 212.46 28.1283C212.441 28.1659 212.41 28.197 212.372 28.2162C212.329 28.2379 212.273 28.2377 212.161 28.2377H210.295C210.183 28.2377 210.127 28.2379 210.084 28.2162C210.046 28.197 210.015 28.1659 209.996 28.1283C209.974 28.0855 209.975 28.0291 209.975 27.9174V16.9662C209.975 16.8544 209.974 16.798 209.996 16.7552C210.015 16.7176 210.046 16.6865 210.084 16.6674C210.127 16.6457 210.183 16.6459 210.295 16.6459H212.161C212.273 16.6459 212.329 16.6457 212.372 16.6674C212.41 16.6865 212.441 16.7176 212.46 16.7552C212.482 16.798 212.481 16.8544 212.481 16.9662V17.5082C212.481 17.637 212.481 17.7017 212.505 17.7299C212.526 17.7546 212.556 17.7671 212.588 17.765C212.624 17.7625 212.673 17.7167 212.768 17.6244C212.862 17.5326 212.958 17.4438 213.057 17.3588C213.409 17.0674 213.8 16.837 214.229 16.6683C214.659 16.4997 215.142 16.4154 215.679 16.4154Z" fill="#2845C1"/>
    <path d="M220.726 16.6459C220.837 16.6459 220.894 16.6457 220.937 16.6674C220.974 16.6865 221.005 16.7176 221.024 16.7552C221.046 16.798 221.046 16.8544 221.046 16.9662V27.9174C221.046 28.0291 221.046 28.0855 221.024 28.1283C221.005 28.1659 220.974 28.197 220.937 28.2162C220.894 28.2379 220.837 28.2377 220.726 28.2377H218.858C218.747 28.2377 218.69 28.2379 218.647 28.2162C218.61 28.197 218.579 28.1659 218.56 28.1283C218.538 28.0855 218.538 28.0291 218.538 27.9174V16.9662C218.538 16.8544 218.538 16.798 218.56 16.7552C218.579 16.7176 218.61 16.6865 218.647 16.6674C218.69 16.6457 218.747 16.6459 218.858 16.6459H220.726Z" fill="#2845C1"/>
    <path d="M219.804 10.85C220.11 10.85 220.387 10.9262 220.632 11.0795C220.892 11.2175 221.1 11.4175 221.253 11.6781C221.406 11.9386 221.482 12.2222 221.482 12.5287C221.482 12.8351 221.406 13.1187 221.253 13.3793C221.1 13.6245 220.892 13.8246 220.632 13.9779C220.387 14.1312 220.11 14.2074 219.804 14.2074C219.512 14.2074 219.236 14.1312 218.976 13.9779C218.715 13.8246 218.508 13.6246 218.354 13.3793C218.201 13.1187 218.124 12.8352 218.124 12.5287C218.124 12.0687 218.285 11.6778 218.607 11.3558C218.945 11.0185 219.344 10.85 219.804 10.85Z" fill="#2845C1"/>
    <defs>
        <linearGradient id="paint0_linear_4916_2872" x1="20" y1="27" x2="20" y2="36" gradientUnits="userSpaceOnUse">
            <stop stop-color="#2845C1"/>
            <stop offset="1" stop-color="#EEF1F4"/>
        </linearGradient>
    </defs>
</svg>
