<svg width="159" height="40" viewBox="0 0 159 40" fill="none" xmlns="http://www.w3.org/2000/svg">
    <path fill-rule="evenodd" clip-rule="evenodd" d="M18.96 5.90909C19.6457 5.76338 20.3543 5.76338 21.04 5.90909C21.8152 6.07386 22.5447 6.49488 24.0029 7.33682L28.9971 10.2206C30.4552 11.0625 31.1846 11.4833 31.7148 12.0722C32.184 12.5932 32.5382 13.2071 32.7549 13.8739C32.9998 14.6276 33 15.4695 33 17.1532V22.9198C33 24.6037 32.9998 25.4464 32.7549 26.2001C32.5382 26.8668 32.184 27.4809 31.7148 28.0019C31.1846 28.5908 30.4552 29.0115 28.9971 29.8534L24.0029 32.7372C22.5448 33.5791 21.8152 34.0002 21.04 34.1649C20.3544 34.3106 19.6456 34.3106 18.96 34.1649C18.1848 34.0002 17.4552 33.5791 15.9971 32.7372L11.0029 29.8534C9.54475 29.0115 8.81543 28.5908 8.28516 28.0019C7.81605 27.4809 7.46182 26.8668 7.24512 26.2001C7.00022 25.4464 7 24.6037 7 22.9198V17.1532C7 15.4695 7.00023 14.6276 7.24512 13.8739C7.46179 13.2071 7.81602 12.5932 8.28516 12.0722C8.81542 11.4833 9.54478 11.0625 11.0029 10.2206L15.9971 7.33682C17.4553 6.49488 18.1848 6.07386 18.96 5.90909ZM20 10.9999C15.0294 10.9999 11 15.0293 11 19.9999C11.0001 24.9704 15.0295 28.9999 20 28.9999C24.9705 28.9999 28.9999 24.9704 29 19.9999C29 15.0293 24.9706 10.9999 20 10.9999Z" fill="#2845C1"/>
    <path d="M20.0068 27.0136C19.0454 27.0136 18.1429 26.8277 17.2993 26.4558C16.4558 26.093 15.712 25.5896 15.068 24.9456C14.424 24.3016 13.9161 23.5578 13.5442 22.7143C13.1814 21.8707 13 20.9683 13 20.0068C13 19.0544 13.1814 18.1565 13.5442 17.3129C13.9161 16.4603 14.424 15.712 15.068 15.068C15.712 14.424 16.4512 13.9206 17.2857 13.5578C18.1293 13.1859 19.0317 13 19.9932 13C20.9456 13 21.8435 13.1859 22.6871 13.5578C23.5397 13.9206 24.288 14.424 24.932 15.068C25.576 15.712 26.0794 16.4603 26.4422 17.3129C26.8141 18.1565 27 19.0544 27 20.0068C27 20.9683 26.8141 21.8707 26.4422 22.7143C26.0794 23.5578 25.576 24.3016 24.932 24.9456C24.2971 25.5896 23.5533 26.093 22.7007 26.4558C21.8571 26.8277 20.9592 27.0136 20.0068 27.0136ZM20.0068 25.2313C20.9683 25.2313 21.8435 24.9955 22.6327 24.5238C23.4218 24.0612 24.0476 23.4354 24.5102 22.6463C24.9819 21.8571 25.2177 20.9773 25.2177 20.0068C25.2177 19.0454 24.9819 18.1701 24.5102 17.381C24.0476 16.5918 23.4218 15.9615 22.6327 15.4898C21.8435 15.0181 20.9637 14.7823 19.9932 14.7823C19.0317 14.7823 18.1565 15.0181 17.3673 15.4898C16.5873 15.9615 15.9615 16.5918 15.4898 17.381C15.0272 18.1701 14.7959 19.0454 14.7959 20.0068C14.7959 20.9773 15.0272 21.8571 15.4898 22.6463C15.9615 23.4354 16.5873 24.0612 17.3673 24.5238C18.1565 24.9955 19.0363 25.2313 20.0068 25.2313ZM19.9932 24.0068C19.2676 24.0068 18.6009 23.8254 17.9932 23.4626C17.3946 23.0998 16.9138 22.6145 16.551 22.0068C16.1882 21.4082 16.0068 20.746 16.0068 20.0204C16.0068 19.2857 16.1882 18.6145 16.551 18.0068C16.9138 17.3991 17.3946 16.9184 17.9932 16.5646C18.6009 16.2018 19.2676 16.0204 19.9932 16.0204C20.7188 16.0204 21.3855 16.2018 21.9932 16.5646C22.6009 16.9184 23.0862 17.3991 23.449 18.0068C23.8118 18.6145 23.9932 19.2857 23.9932 20.0204C23.9932 20.746 23.8118 21.4082 23.449 22.0068C23.0952 22.6145 22.6145 23.0998 22.0068 23.4626C21.3991 23.8254 20.7279 24.0068 19.9932 24.0068Z" fill="#C83F49"/>
    <path fill-rule="evenodd" clip-rule="evenodd" d="M129.463 15.6855C130.689 15.6856 131.739 15.977 132.613 16.5596C133.502 17.1268 134.185 17.8855 134.66 18.8359C135.151 19.7713 135.396 20.8067 135.396 21.9414C135.396 22.7846 135.258 23.5818 134.982 24.333C134.706 25.0843 134.307 25.7513 133.786 26.334C133.28 26.9165 132.66 27.3766 131.924 27.7139C131.203 28.0358 130.383 28.1972 129.463 28.1973C128.666 28.1973 127.96 28.0672 127.347 27.8066C126.733 27.546 126.189 27.1702 125.714 26.6797C125.689 26.653 125.645 26.6695 125.645 26.7061V33.0752C125.645 33.187 125.645 33.2434 125.623 33.2861C125.604 33.3238 125.573 33.3548 125.535 33.374C125.492 33.3957 125.436 33.3955 125.324 33.3955H123.458C123.346 33.3955 123.29 33.3957 123.247 33.374C123.209 33.3548 123.178 33.3238 123.159 33.2861C123.138 33.2434 123.138 33.187 123.138 33.0752V16.4658C123.138 16.354 123.138 16.2976 123.159 16.2549C123.178 16.2173 123.209 16.1862 123.247 16.167C123.29 16.1453 123.346 16.1455 123.458 16.1455H125.324C125.436 16.1455 125.492 16.1453 125.535 16.167C125.573 16.1862 125.604 16.2173 125.623 16.2549C125.645 16.2976 125.645 16.354 125.645 16.4658V17.1758C125.645 17.2122 125.689 17.2293 125.714 17.2031C126.189 16.7126 126.733 16.3368 127.347 16.0762C127.96 15.8156 128.666 15.6855 129.463 15.6855ZM129.141 18.0547C128.42 18.0547 127.753 18.2232 127.14 18.5605C126.68 18.8081 126.275 19.1511 125.924 19.5889C125.842 19.6912 125.8 19.7425 125.754 19.833C125.719 19.9018 125.681 20.0113 125.665 20.0869C125.645 20.1865 125.645 20.2748 125.645 20.4512V23.4307C125.645 23.6071 125.645 23.6959 125.665 23.7949C125.681 23.8706 125.718 23.9791 125.753 24.0479C125.799 24.1379 125.84 24.19 125.923 24.2939C126.274 24.7354 126.679 25.0861 127.14 25.3457C127.753 25.6676 128.42 25.8281 129.141 25.8281C129.877 25.8281 130.513 25.6596 131.05 25.3223C131.602 24.9696 132.023 24.5015 132.314 23.9189C132.621 23.3364 132.774 22.6773 132.774 21.9414C132.774 21.2054 132.621 20.5456 132.314 19.9629C132.023 19.3804 131.602 18.9203 131.05 18.583C130.513 18.2304 129.877 18.0547 129.141 18.0547Z" fill="#2845C1"/>
    <path d="M90.6904 15.6855C91.5491 15.6855 92.3389 15.8693 93.0596 16.2373C93.69 16.5525 94.2025 16.9354 94.5967 17.3857C94.6603 17.4584 94.6924 17.4953 94.7041 17.542C94.7138 17.5809 94.7103 17.6278 94.6953 17.665C94.6773 17.7097 94.6374 17.7441 94.5586 17.8125L93.3223 18.8848C93.2311 18.9638 93.1853 19.0031 93.1387 19.0146C93.0956 19.0253 93.0568 19.0226 93.0156 19.0059C92.9711 18.9878 92.928 18.9383 92.8428 18.8398C92.6012 18.5608 92.3284 18.3218 92.0244 18.123C91.6259 17.8625 91.189 17.7325 90.7139 17.7324C90.3767 17.7324 90.0851 17.7934 89.8398 17.916C89.6098 18.0387 89.4332 18.2001 89.3105 18.3994C89.1879 18.5987 89.127 18.8211 89.127 19.0664C89.127 19.4344 89.265 19.741 89.541 19.9863C89.817 20.2162 90.1695 20.4154 90.5986 20.584C91.028 20.7527 91.4807 20.9374 91.9561 21.1367C92.4311 21.3207 92.8834 21.5503 93.3125 21.8262C93.7418 22.0868 94.0951 22.4401 94.3711 22.8848C94.6469 23.314 94.7842 23.8585 94.7842 24.5176C94.7688 25.2995 94.5779 25.9666 94.21 26.5186C93.842 27.0552 93.3506 27.4694 92.7373 27.7607C92.1242 28.0519 91.4496 28.1972 90.7139 28.1973C89.7172 28.1973 88.8503 28.0135 88.1143 27.6455C87.4703 27.3101 86.8966 26.8749 86.3936 26.3398C86.3213 26.263 86.2847 26.224 86.2715 26.1768C86.2602 26.1365 86.2623 26.0898 86.2773 26.0508C86.295 26.005 86.3371 25.9684 86.4199 25.8955L87.6514 24.8115C87.7404 24.7331 87.7854 24.6935 87.832 24.6816C87.8744 24.6709 87.9144 24.6733 87.9551 24.6895C87.9997 24.7073 88.0414 24.7543 88.124 24.8486C88.4358 25.2045 88.7776 25.5008 89.1494 25.7363C89.6094 26.0123 90.1232 26.1504 90.6904 26.1504C91.2271 26.1504 91.6413 26.0123 91.9326 25.7363C92.2239 25.4451 92.37 25.0925 92.3701 24.6787C92.3701 24.2956 92.2317 23.9887 91.9561 23.7588C91.6801 23.5288 91.3268 23.3288 90.8975 23.1602C90.4682 22.9915 90.0082 22.8148 89.5176 22.6309C89.0423 22.4315 88.5894 22.1939 88.1602 21.918C87.731 21.642 87.3784 21.2814 87.1025 20.8369C86.842 20.3923 86.7119 19.8327 86.7119 19.1582C86.7119 18.499 86.8805 17.909 87.2178 17.3877C87.5551 16.8664 88.0231 16.4522 88.6211 16.1455C89.2343 15.839 89.924 15.6856 90.6904 15.6855Z" fill="#2845C1"/>
    <path d="M102.357 15.6855C103.415 15.6855 104.359 15.8999 105.187 16.3291C105.931 16.6944 106.556 17.179 107.062 17.7832C107.128 17.8632 107.161 17.9039 107.172 17.9521C107.181 17.993 107.176 18.0402 107.158 18.0781C107.137 18.1228 107.094 18.1567 107.007 18.2236L105.545 19.3438C105.452 19.415 105.406 19.4508 105.36 19.46C105.318 19.4686 105.281 19.4646 105.241 19.4473C105.199 19.4287 105.157 19.3801 105.073 19.2822C104.798 18.9584 104.46 18.6871 104.06 18.4688C103.569 18.1928 102.994 18.0547 102.335 18.0547C101.798 18.0547 101.3 18.1542 100.84 18.3535C100.395 18.5375 100.004 18.8056 99.667 19.1582C99.345 19.5108 99.0922 19.9251 98.9082 20.4004C98.7395 20.8757 98.6543 21.3894 98.6543 21.9414C98.6543 22.6774 98.8157 23.3444 99.1377 23.9424C99.4597 24.525 99.8972 24.9849 100.449 25.3223C101.001 25.6595 101.645 25.8281 102.381 25.8281C103.009 25.8281 103.569 25.69 104.06 25.4141C104.46 25.1957 104.798 24.9245 105.073 24.6006C105.157 24.5025 105.199 24.4531 105.241 24.4346C105.281 24.4172 105.318 24.4133 105.36 24.4219C105.406 24.431 105.453 24.4667 105.546 24.5381L107.004 25.6572C107.092 25.7247 107.137 25.7587 107.157 25.8037C107.175 25.8419 107.179 25.8896 107.17 25.9307C107.159 25.9791 107.125 26.0195 107.057 26.0996C106.552 26.6911 105.929 27.176 105.187 27.5537C104.359 27.9829 103.415 28.1973 102.357 28.1973C101.054 28.1972 99.9271 27.914 98.9766 27.3467C98.0259 26.764 97.2899 25.9966 96.7686 25.0459C96.2627 24.0954 96.0098 23.0605 96.0098 21.9414C96.0098 21.0981 96.155 20.3002 96.4463 19.5488C96.7376 18.7976 97.16 18.1304 97.7119 17.5479C98.2639 16.9653 98.931 16.5133 99.7129 16.1914C100.495 15.8541 101.376 15.6856 102.357 15.6855Z" fill="#2845C1"/>
    <path d="M149.868 15.6855C150.727 15.6856 151.517 15.8693 152.237 16.2373C152.868 16.5526 153.38 16.9354 153.774 17.3857C153.838 17.4584 153.87 17.4953 153.882 17.542C153.892 17.5809 153.888 17.6278 153.873 17.665C153.855 17.7097 153.815 17.7441 153.736 17.8125L152.5 18.8848C152.409 18.9638 152.363 19.0031 152.316 19.0146C152.273 19.0253 152.235 19.0226 152.193 19.0059C152.149 18.9878 152.106 18.9383 152.021 18.8398C151.779 18.5608 151.506 18.3218 151.202 18.123C150.803 17.8624 150.366 17.7324 149.891 17.7324C149.553 17.7325 149.262 17.7934 149.017 17.916C148.787 18.0387 148.611 18.2002 148.488 18.3994C148.366 18.5987 148.304 18.8211 148.304 19.0664C148.304 19.4343 148.442 19.741 148.718 19.9863C148.994 20.2163 149.347 20.4153 149.776 20.584C150.206 20.7526 150.658 20.9374 151.133 21.1367C151.608 21.3207 152.061 21.5502 152.49 21.8262C152.92 22.0868 153.272 22.4401 153.548 22.8848C153.824 23.3141 153.962 23.8584 153.962 24.5176C153.947 25.2995 153.755 25.9666 153.387 26.5186C153.019 27.0551 152.528 27.4695 151.915 27.7607C151.302 28.052 150.627 28.1973 149.891 28.1973C148.894 28.1972 148.028 28.0134 147.292 27.6455C146.648 27.3101 146.074 26.8749 145.571 26.3398C145.499 26.2629 145.462 26.224 145.449 26.1768C145.438 26.1365 145.44 26.0898 145.455 26.0508C145.473 26.005 145.515 25.9684 145.598 25.8955L146.829 24.8115C146.918 24.7331 146.963 24.6935 147.01 24.6816C147.052 24.6709 147.092 24.6733 147.133 24.6895C147.177 24.7073 147.219 24.7543 147.302 24.8486C147.614 25.2045 147.955 25.5008 148.327 25.7363C148.787 26.0123 149.301 26.1504 149.868 26.1504C150.405 26.1504 150.819 26.0123 151.11 25.7363C151.401 25.4451 151.547 25.0925 151.547 24.6787C151.547 24.2954 151.409 23.9888 151.133 23.7588C150.857 23.5288 150.504 23.3288 150.075 23.1602C149.646 22.9915 149.186 22.8148 148.695 22.6309C148.22 22.4315 147.767 22.194 147.338 21.918C146.909 21.642 146.556 21.2815 146.28 20.8369C146.02 20.3923 145.889 19.8328 145.889 19.1582C145.889 18.4991 146.057 17.9089 146.395 17.3877C146.732 16.8664 147.2 16.4522 147.798 16.1455C148.411 15.8388 149.101 15.6855 149.868 15.6855Z" fill="#2845C1"/>
    <path fill-rule="evenodd" clip-rule="evenodd" d="M65.9512 15.6855C67.0092 15.6855 67.9066 15.8774 68.6426 16.2607C69.3784 16.6441 69.9309 17.1731 70.2988 17.8477C70.6666 18.5068 70.8505 19.2657 70.8506 20.124V27.417C70.8506 27.5288 70.8508 27.5852 70.8291 27.6279C70.8099 27.6656 70.7788 27.6966 70.7412 27.7158C70.6985 27.7375 70.6421 27.7373 70.5303 27.7373H68.6865C68.5747 27.7373 68.5183 27.7375 68.4756 27.7158C68.438 27.6966 68.4069 27.6656 68.3877 27.6279C68.366 27.5852 68.3662 27.5288 68.3662 27.417V26.915C68.3662 26.769 68.3662 26.6958 68.3428 26.668C68.3212 26.6424 68.2941 26.631 68.2607 26.6328C68.2244 26.6349 68.168 26.688 68.0557 26.7939C67.9798 26.8654 67.8993 26.9343 67.8145 27.001C67.4005 27.3383 66.9172 27.5992 66.3652 27.7832C65.8286 27.9825 65.2763 28.082 64.709 28.082C63.5592 28.082 62.6239 27.7754 61.9033 27.1621C61.1828 26.5488 60.8223 25.7284 60.8223 24.7012C60.8223 23.8272 61.1522 23.0911 61.8115 22.4932C62.4708 21.8799 63.4213 21.4656 64.6631 21.251L68.0996 20.667C68.1943 20.6509 68.2418 20.6429 68.2773 20.6191C68.3085 20.5983 68.3333 20.5693 68.3486 20.5352C68.3661 20.4962 68.3662 20.4476 68.3662 20.3516V20.124C68.3661 19.4342 68.1286 18.8898 67.6533 18.4912C67.1933 18.0926 66.5953 17.8936 65.8594 17.8936C65.2614 17.8936 64.7172 18.0316 64.2266 18.3076C63.8467 18.516 63.5154 18.7883 63.2334 19.124C63.1522 19.2207 63.111 19.2693 63.0684 19.2881C63.0288 19.3054 62.9916 19.3092 62.9492 19.3008C62.9036 19.2917 62.8569 19.2562 62.7646 19.1855L61.417 18.1533C61.3298 18.0866 61.2864 18.0526 61.2656 18.0078C61.2482 17.9701 61.2424 17.9235 61.251 17.8828C61.2613 17.8346 61.295 17.7946 61.3613 17.7148C61.8508 17.1269 62.4532 16.6574 63.168 16.3066C63.9806 15.8927 64.9086 15.6856 65.9512 15.6855ZM68.1787 22.4365L65.3076 22.9307C64.6176 23.038 64.1192 23.237 63.8125 23.5283C63.5059 23.8196 63.3526 24.1721 63.3525 24.5859C63.3525 25.0152 63.5131 25.3686 63.835 25.6445C64.1723 25.9205 64.6179 26.0586 65.1699 26.0586C65.8904 26.0585 66.5191 25.8971 67.0557 25.5752C67.4604 25.3323 67.8083 25.0282 68.0996 24.6631C68.1738 24.5702 68.2109 24.5236 68.2568 24.4336C68.2908 24.3669 68.3307 24.2531 68.3457 24.1797C68.366 24.0804 68.3662 23.9956 68.3662 23.8262V22.5938C68.3662 22.5287 68.3658 22.4958 68.3525 22.4727C68.3408 22.4526 68.3226 22.4367 68.3008 22.4287C68.2757 22.4195 68.243 22.4255 68.1787 22.4365Z" fill="#2845C1"/>
    <path d="M140.329 13.2471C140.441 13.2471 140.497 13.2469 140.54 13.2686C140.578 13.2877 140.609 13.3188 140.628 13.3564C140.65 13.3992 140.649 13.4556 140.649 13.5674V15.8252C140.649 15.937 140.649 15.9934 140.671 16.0361C140.69 16.0738 140.721 16.1048 140.759 16.124C140.802 16.1457 140.858 16.1455 140.97 16.1455H144.078C144.19 16.1455 144.246 16.1453 144.289 16.167C144.327 16.1862 144.358 16.2173 144.377 16.2549C144.399 16.2976 144.398 16.354 144.398 16.4658V18.0791C144.398 18.1909 144.399 18.2473 144.377 18.29C144.358 18.3277 144.327 18.3588 144.289 18.3779C144.246 18.3996 144.19 18.3994 144.078 18.3994H140.97C140.858 18.3994 140.802 18.3992 140.759 18.4209C140.721 18.4401 140.69 18.4712 140.671 18.5088C140.649 18.5515 140.649 18.6079 140.649 18.7197V23.6436C140.649 24.1494 140.727 24.5557 140.88 24.8623C141.049 25.1536 141.286 25.3608 141.593 25.4834C141.899 25.606 142.267 25.667 142.696 25.667C143.095 25.667 143.433 25.6446 143.709 25.5986C143.813 25.5756 143.911 25.5525 144.004 25.5293C144.153 25.4922 144.228 25.4737 144.281 25.4902C144.329 25.5051 144.367 25.5343 144.393 25.5771C144.422 25.6249 144.422 25.6996 144.422 25.8477V27.4092C144.422 27.4858 144.422 27.5247 144.408 27.5596C144.397 27.5888 144.375 27.6193 144.352 27.6396C144.323 27.6638 144.29 27.6751 144.224 27.6982C143.989 27.7803 143.741 27.8393 143.479 27.875C143.141 27.9363 142.742 27.9678 142.282 27.9678C141.363 27.9677 140.588 27.8062 139.96 27.4844C139.347 27.1624 138.879 26.6792 138.557 26.0352C138.25 25.3912 138.097 24.5941 138.097 23.6436V18.7197C138.097 18.6079 138.097 18.5515 138.075 18.5088C138.056 18.4712 138.025 18.4401 137.987 18.4209C137.945 18.3992 137.888 18.3994 137.776 18.3994H136.255C136.143 18.3994 136.087 18.3996 136.044 18.3779C136.006 18.3588 135.975 18.3277 135.956 18.29C135.934 18.2473 135.935 18.1909 135.935 18.0791V16.4658C135.935 16.354 135.934 16.2976 135.956 16.2549C135.975 16.2173 136.006 16.1862 136.044 16.167C136.087 16.1453 136.143 16.1455 136.255 16.1455H137.776C137.888 16.1455 137.945 16.1457 137.987 16.124C138.025 16.1048 138.056 16.0738 138.075 16.0361C138.097 15.9934 138.097 15.937 138.097 15.8252V13.5674C138.097 13.4556 138.096 13.3992 138.118 13.3564C138.137 13.3188 138.168 13.2877 138.206 13.2686C138.249 13.2469 138.305 13.2471 138.417 13.2471H140.329Z" fill="#2845C1"/>
    <path d="M52.7207 11.6377C52.8325 11.6377 52.8889 11.6375 52.9316 11.6592C52.9693 11.6784 53.0004 11.7094 53.0195 11.7471C53.0412 11.7898 53.041 11.8462 53.041 11.958V13.8701C53.041 13.9819 53.0412 14.0383 53.0195 14.0811C53.0004 14.1187 52.9693 14.1498 52.9316 14.1689C52.8889 14.1906 52.8325 14.1904 52.7207 14.1904H48.2324C48.1206 14.1904 48.0642 14.1902 48.0215 14.2119C47.9839 14.2311 47.9528 14.2622 47.9336 14.2998C47.9119 14.3426 47.9121 14.399 47.9121 14.5107V27.417C47.9121 27.5288 47.9123 27.5852 47.8906 27.6279C47.8715 27.6656 47.8404 27.6966 47.8027 27.7158C47.76 27.7375 47.7036 27.7373 47.5918 27.7373H45.4268C45.315 27.7373 45.2586 27.7375 45.2158 27.7158C45.1782 27.6966 45.1471 27.6656 45.1279 27.6279C45.1063 27.5852 45.1064 27.5288 45.1064 27.417V14.5107C45.1064 14.399 45.1066 14.3426 45.085 14.2998C45.0658 14.2622 45.0347 14.2311 44.9971 14.2119C44.9543 14.1902 44.8979 14.1904 44.7861 14.1904H40.3203C40.2085 14.1904 40.1521 14.1906 40.1094 14.1689C40.0717 14.1498 40.0407 14.1187 40.0215 14.0811C39.9998 14.0383 40 13.9819 40 13.8701V11.958C40 11.8462 39.9998 11.7898 40.0215 11.7471C40.0407 11.7094 40.0717 11.6784 40.1094 11.6592C40.1521 11.6375 40.2085 11.6377 40.3203 11.6377H52.7207Z" fill="#2845C1"/>
    <path d="M59.1465 15.915C59.3457 15.9151 59.5297 15.9303 59.6982 15.9609C59.7814 15.9761 59.8608 15.9928 59.9365 16.0117C60.0092 16.0299 60.0459 16.0393 60.0781 16.0635C60.1049 16.0835 60.1296 16.1156 60.1426 16.1465C60.158 16.1835 60.1582 16.2246 60.1582 16.3066V18.127C60.1582 18.2674 60.1578 18.3383 60.1309 18.3848C60.1064 18.4268 60.0722 18.4561 60.0264 18.4727C59.9758 18.4909 59.9029 18.4774 59.7578 18.4512C59.7003 18.4408 59.6418 18.4309 59.583 18.4219C59.399 18.3912 59.1766 18.376 58.916 18.376C58.4407 18.376 58.0112 18.4531 57.6279 18.6064C57.2447 18.7598 56.9146 18.9669 56.6387 19.2275C56.4762 19.381 56.3298 19.5425 56.1992 19.7119C56.1311 19.8004 56.0965 19.8451 56.0527 19.9336C56.0208 19.9983 55.9828 20.111 55.9688 20.1816C55.9495 20.2784 55.9492 20.3595 55.9492 20.5215V27.417C55.9492 27.5288 55.9494 27.5852 55.9277 27.6279C55.9086 27.6656 55.8775 27.6966 55.8398 27.7158C55.7971 27.7375 55.7407 27.7373 55.6289 27.7373H53.7627C53.6509 27.7373 53.5945 27.7375 53.5518 27.7158C53.5141 27.6966 53.483 27.6656 53.4639 27.6279C53.4422 27.5852 53.4424 27.5288 53.4424 27.417V16.4658C53.4424 16.354 53.4422 16.2976 53.4639 16.2549C53.483 16.2173 53.5141 16.1862 53.5518 16.167C53.5945 16.1453 53.6509 16.1455 53.7627 16.1455H55.6289C55.7407 16.1455 55.7971 16.1453 55.8398 16.167C55.8775 16.1862 55.9086 16.2173 55.9277 16.2549C55.9494 16.2976 55.9492 16.354 55.9492 16.4658V17.0078C55.9492 17.1366 55.9492 17.2014 55.9727 17.2295C55.9936 17.2543 56.0233 17.2668 56.0557 17.2646C56.0922 17.2621 56.1405 17.2163 56.2354 17.124C56.3298 17.0322 56.4259 16.9435 56.5244 16.8584C56.877 16.5671 57.268 16.3366 57.6973 16.168C58.1265 15.9994 58.6099 15.915 59.1465 15.915Z" fill="#2845C1"/>
    <path d="M79.8994 15.6855C80.7581 15.6855 81.5255 15.8774 82.2002 16.2607C82.8899 16.644 83.4263 17.211 83.8096 17.9619C84.2082 18.7132 84.4082 19.6565 84.4082 20.791V27.417C84.4082 27.5288 84.4084 27.5852 84.3867 27.6279C84.3675 27.6656 84.3365 27.6966 84.2988 27.7158C84.2561 27.7375 84.1997 27.7373 84.0879 27.7373H82.1982C82.0865 27.7373 82.0301 27.7375 81.9873 27.7158C81.9497 27.6966 81.9186 27.6656 81.8994 27.6279C81.8778 27.5852 81.8779 27.5288 81.8779 27.417V20.8838C81.8779 19.9945 81.6475 19.3041 81.1875 18.8135C80.7275 18.3075 80.099 18.0547 79.3018 18.0547C78.7958 18.0547 78.3511 18.1542 77.9678 18.3535C77.5845 18.5375 77.2545 18.7751 76.9785 19.0664C76.8219 19.2414 76.6763 19.4223 76.542 19.6084C76.4628 19.7181 76.4236 19.7733 76.3838 19.8584C76.3524 19.9254 76.3204 20.023 76.3066 20.0957C76.2891 20.1881 76.2891 20.2725 76.2891 20.4414V27.417C76.2891 27.5288 76.2892 27.5852 76.2676 27.6279C76.2484 27.6656 76.2173 27.6966 76.1797 27.7158C76.1369 27.7375 76.0805 27.7373 75.9688 27.7373H74.1025C73.9908 27.7373 73.9343 27.7375 73.8916 27.7158C73.854 27.6966 73.8229 27.6656 73.8037 27.6279C73.782 27.5852 73.7822 27.5288 73.7822 27.417V16.4658C73.7822 16.354 73.782 16.2976 73.8037 16.2549C73.8229 16.2173 73.854 16.1862 73.8916 16.167C73.9343 16.1453 73.9908 16.1455 74.1025 16.1455H75.9688C76.0805 16.1455 76.1369 16.1453 76.1797 16.167C76.2173 16.1862 76.2484 16.2173 76.2676 16.2549C76.2892 16.2976 76.2891 16.354 76.2891 16.4658V16.8223C76.2891 16.9496 76.2888 17.0141 76.3115 17.042C76.3322 17.067 76.3612 17.0795 76.3936 17.0781C76.4295 17.0764 76.4791 17.0325 76.5771 16.9443C76.9372 16.6205 77.3468 16.3461 77.8066 16.1221C78.4045 15.8308 79.1023 15.6856 79.8994 15.6855Z" fill="#2845C1"/>
    <path d="M114.679 15.915C114.878 15.915 115.062 15.9303 115.23 15.9609C115.314 15.976 115.393 15.9928 115.469 16.0117C115.541 16.0299 115.578 16.0393 115.61 16.0635C115.637 16.0835 115.662 16.1156 115.675 16.1465C115.69 16.1835 115.69 16.2246 115.69 16.3066V18.127C115.69 18.2674 115.69 18.3383 115.663 18.3848C115.639 18.4268 115.604 18.4561 115.559 18.4727C115.508 18.4909 115.435 18.4774 115.29 18.4512C115.232 18.4408 115.174 18.4309 115.115 18.4219C114.931 18.3913 114.709 18.376 114.448 18.376C113.973 18.376 113.543 18.4531 113.16 18.6064C112.777 18.7598 112.448 18.967 112.172 19.2275C112.009 19.3812 111.862 19.5433 111.731 19.7129C111.664 19.8008 111.629 19.845 111.585 19.9336C111.553 19.9983 111.515 20.1111 111.501 20.1816C111.482 20.2785 111.481 20.3596 111.481 20.5215V27.417C111.481 27.5288 111.482 27.5852 111.46 27.6279C111.441 27.6656 111.41 27.6966 111.372 27.7158C111.329 27.7375 111.273 27.7373 111.161 27.7373H109.295C109.183 27.7373 109.127 27.7375 109.084 27.7158C109.046 27.6966 109.015 27.6656 108.996 27.6279C108.974 27.5852 108.975 27.5288 108.975 27.417V16.4658C108.975 16.354 108.974 16.2976 108.996 16.2549C109.015 16.2173 109.046 16.1862 109.084 16.167C109.127 16.1453 109.183 16.1455 109.295 16.1455H111.161C111.273 16.1455 111.329 16.1453 111.372 16.167C111.41 16.1862 111.441 16.2173 111.46 16.2549C111.482 16.2976 111.481 16.354 111.481 16.4658V17.0078C111.481 17.1366 111.481 17.2014 111.505 17.2295C111.526 17.2543 111.556 17.2668 111.588 17.2646C111.624 17.2621 111.673 17.2163 111.768 17.124C111.862 17.0322 111.958 16.9435 112.057 16.8584C112.409 16.5671 112.8 16.3366 113.229 16.168C113.659 15.9993 114.142 15.915 114.679 15.915Z" fill="#2845C1"/>
    <path d="M119.726 16.1455C119.837 16.1455 119.894 16.1453 119.937 16.167C119.974 16.1862 120.005 16.2173 120.024 16.2549C120.046 16.2976 120.046 16.354 120.046 16.4658V27.417C120.046 27.5288 120.046 27.5852 120.024 27.6279C120.005 27.6656 119.974 27.6966 119.937 27.7158C119.894 27.7375 119.837 27.7373 119.726 27.7373H117.858C117.747 27.7373 117.69 27.7375 117.647 27.7158C117.61 27.6966 117.579 27.6656 117.56 27.6279C117.538 27.5852 117.538 27.5288 117.538 27.417V16.4658C117.538 16.354 117.538 16.2976 117.56 16.2549C117.579 16.2173 117.61 16.1862 117.647 16.167C117.69 16.1453 117.747 16.1455 117.858 16.1455H119.726Z" fill="#2845C1"/>
    <path d="M118.804 10.3496C119.11 10.3497 119.387 10.4258 119.632 10.5791C119.892 10.7171 120.1 10.9171 120.253 11.1777C120.406 11.4383 120.482 11.7219 120.482 12.0283C120.482 12.3348 120.406 12.6184 120.253 12.8789C120.1 13.1242 119.892 13.3242 119.632 13.4775C119.387 13.6308 119.11 13.707 118.804 13.707C118.512 13.707 118.236 13.6308 117.976 13.4775C117.715 13.3242 117.508 13.1242 117.354 12.8789C117.201 12.6183 117.124 12.3349 117.124 12.0283C117.124 11.5684 117.285 11.1774 117.607 10.8555C117.945 10.5181 118.344 10.3496 118.804 10.3496Z" fill="#2845C1"/>
</svg>
