<svg width="32" height="32" viewBox="0 0 32 32" fill="none" xmlns="http://www.w3.org/2000/svg">
    <path d="M21.9806 6.05391C21.9806 5.37231 21.9806 5.03151 21.9098 4.72032C21.7791 4.14516 21.4727 3.62489 21.0331 3.23159C20.7953 3.01879 20.4973 2.8535 19.9012 2.52291L18.378 1.6781C17.8149 1.36579 17.5334 1.20963 17.2428 1.12176C16.7061 0.959413 16.1333 0.959413 15.5965 1.12176C15.3059 1.20963 15.0244 1.36579 14.4613 1.6781L13.8331 2.02651C13.0707 2.44937 12.6894 2.66081 12.5148 2.90692C12.1881 3.36724 12.1884 3.98382 12.5155 4.44382C12.6904 4.68977 13.0718 4.90084 13.8347 5.32298L14.3432 5.60438C14.9402 5.93474 15.2387 6.09992 15.4769 6.31273C15.9172 6.70606 16.2241 7.22668 16.3551 7.80234C16.4259 8.11379 16.4259 8.45494 16.4259 9.13725V9.71953C16.4259 10.5463 16.4259 10.9597 16.5502 11.2263C16.7823 11.7243 17.2975 12.0278 17.8457 11.9894C18.139 11.9688 18.5006 11.7684 19.2237 11.3675L19.9004 10.9925C20.4967 10.6619 20.7948 10.4967 21.0327 10.2839C21.4725 9.89055 21.779 9.37019 21.9098 8.79491C21.9806 8.48366 21.9806 8.14277 21.9806 7.46099V6.05391Z" fill="#2845C1"/>
    <path d="M5.02562 16.1571C4.43534 16.4979 4.1402 16.6683 3.90608 16.8852C3.47335 17.286 3.17597 17.8115 3.05514 18.3888C2.98977 18.7012 2.99563 19.0419 3.00736 19.7234L3.03734 21.4649C3.04843 22.1088 3.05397 22.4307 3.12313 22.7262C3.25092 23.2723 3.53733 23.7683 3.94632 24.152C4.16767 24.3597 4.44369 24.5254 4.99572 24.857L5.61153 25.2268C6.35896 25.6756 6.73268 25.9001 7.03315 25.9282C7.59512 25.981 8.12895 25.6724 8.36377 25.1592C8.48933 24.8847 8.48141 24.4489 8.46557 23.5772L8.45501 22.9961C8.44261 22.3139 8.43642 21.9728 8.50161 21.6601C8.62212 21.0821 8.91952 20.556 9.35257 20.1548C9.58686 19.9377 9.88231 19.7671 10.4732 19.4259L10.9775 19.1348C11.6935 18.7214 12.0515 18.5147 12.2202 18.2739C12.5355 17.8238 12.5407 17.2259 12.2333 16.7703C12.0689 16.5266 11.7145 16.3137 11.0058 15.8878L10.3426 15.4894C9.75823 15.1382 9.46603 14.9627 9.16279 14.863C8.6023 14.6788 7.9984 14.6736 7.43479 14.8479C7.12985 14.9423 6.83463 15.1127 6.24419 15.4536L5.02562 16.1571Z" fill="#2845C1"/>
    <path d="M10.8587 25.9461C10.8587 26.6277 10.8587 26.9685 10.9295 27.2797C11.0602 27.8548 11.3666 28.3751 11.8062 28.7684C12.044 28.9812 12.342 29.1465 12.9381 29.4771L14.4613 30.3219C15.0244 30.6342 15.306 30.7904 15.5965 30.8782C16.1333 31.0406 16.7061 31.0406 17.2428 30.8782C17.5334 30.7904 17.8149 30.6342 18.378 30.3219L19.0062 29.9735C19.7686 29.5506 20.1499 29.3392 20.3245 29.0931C20.6512 28.6328 20.6509 28.0162 20.3238 27.5562C20.1489 27.3102 19.7675 27.0992 19.0046 26.677L18.4961 26.3956C17.8991 26.0653 17.6006 25.9001 17.3624 25.6873C16.9222 25.2939 16.6152 24.7733 16.4842 24.1977C16.4134 23.8862 16.4134 23.5451 16.4134 22.8627V22.2805C16.4134 21.4537 16.4134 21.0403 16.2892 20.7737C16.057 20.2757 15.5418 19.9722 14.9936 20.0106C14.7003 20.0312 14.3387 20.2316 13.6156 20.6325L12.9389 21.0075C12.3426 21.3381 12.0445 21.5033 11.8066 21.7161C11.3668 22.1095 11.0603 22.6298 10.9295 23.2051C10.8587 23.5163 10.8587 23.8572 10.8587 24.539V25.9461Z" fill="#2845C1"/>
    <path d="M22.2528 25.7889C22.843 26.1297 23.1382 26.3001 23.4431 26.3945C24.0065 26.5688 24.6103 26.5636 25.1707 26.3796C25.4739 26.28 25.766 26.1046 26.3504 25.7537L27.8436 24.8569C28.3956 24.5254 28.6716 24.3597 28.893 24.152C29.302 23.7683 29.5884 23.2723 29.7162 22.7262C29.7853 22.4307 29.7909 22.1088 29.802 21.4649L29.8143 20.7467C29.8293 19.875 29.8368 19.4391 29.711 19.1648C29.4757 18.6518 28.9416 18.3437 28.3797 18.397C28.0792 18.4255 27.7057 18.6503 26.9587 19.0999L26.4608 19.3995C25.8762 19.7514 25.5839 19.9273 25.2805 20.0272C24.7197 20.2118 24.1154 20.2173 23.5513 20.0429C23.2462 19.9485 22.9507 19.778 22.3598 19.4368L21.8556 19.1457C21.1395 18.7323 20.7815 18.5256 20.4886 18.4999C19.9411 18.4519 19.4208 18.7463 19.18 19.2403C19.0511 19.5046 19.0439 19.9179 19.0294 20.7446L19.0159 21.5182C19.004 22.1998 18.9981 22.5407 19.0634 22.8531C19.1842 23.4306 19.4816 23.9562 19.9144 24.3572C20.1485 24.5741 20.4438 24.7445 21.0342 25.0854L22.2528 25.7889Z" fill="#2845C1"/>
    <path d="M27.8137 15.8429C28.404 15.5021 28.6991 15.3317 28.9332 15.1148C29.366 14.714 29.6633 14.1885 29.7842 13.6112C29.8495 13.2988 29.8437 12.9581 29.8319 12.2766L29.802 10.5351C29.7909 9.89123 29.7853 9.56931 29.7162 9.27378C29.5884 8.72774 29.302 8.23168 28.893 7.84799C28.6716 7.64032 28.3956 7.47456 27.8436 7.14305L27.2278 6.77324C26.4804 6.32438 26.1066 6.09995 25.8062 6.07175C25.2442 6.01902 24.7104 6.32757 24.4755 6.84084C24.35 7.11527 24.3579 7.55112 24.3737 8.42284L24.3843 9.00393C24.3967 9.68613 24.4029 10.0272 24.3377 10.3399C24.2172 10.9179 23.9198 11.444 23.4867 11.8452C23.2524 12.0623 22.957 12.2329 22.3661 12.5741L21.8618 12.8652C21.1458 13.2786 20.7878 13.4853 20.6191 13.7261C20.3038 14.1762 20.2986 14.7741 20.606 15.2297C20.7704 15.4734 21.1248 15.6863 21.8335 16.1122L22.4967 16.5106C23.0811 16.8618 23.3733 17.0373 23.6765 17.137C24.237 17.3212 24.8409 17.3264 25.4045 17.1521C25.7095 17.0577 26.0047 16.8873 26.5951 16.5464L27.8137 15.8429Z" fill="#2845C1"/>
    <path d="M10.5865 6.21111C9.99623 5.87031 9.70109 5.69991 9.39622 5.60558C8.83274 5.43123 8.22899 5.43642 7.66859 5.62044C7.3654 5.72001 7.07323 5.89546 6.4889 6.24637L4.99568 7.1431C4.44365 7.47462 4.16763 7.64037 3.94627 7.84804C3.53729 8.23173 3.25088 8.72779 3.12309 9.27383C3.05393 9.56937 3.04839 9.89128 3.0373 10.5351L3.02494 11.2533C3.00993 12.1251 3.00243 12.5609 3.12825 12.8352C3.36357 13.3483 3.89769 13.6563 4.45961 13.603C4.76005 13.5746 5.13355 13.3498 5.88056 12.9002L6.37852 12.6005C6.96312 12.2487 7.25542 12.0728 7.55881 11.9729C8.11958 11.7883 8.72391 11.7828 9.28794 11.9572C9.5931 12.0515 9.88854 12.2221 10.4794 12.5632L10.9837 12.8544C11.6997 13.2678 12.0577 13.4745 12.3507 13.5002C12.8981 13.5482 13.4185 13.2537 13.6593 12.7598C13.7882 12.4955 13.7954 12.0821 13.8098 11.2554L13.8233 10.4819C13.8352 9.8002 13.8412 9.45937 13.7758 9.14693C13.6551 8.56945 13.3577 8.04382 12.9249 7.6429C12.6907 7.42598 12.3955 7.25554 11.8051 6.91465L10.5865 6.21111Z" fill="#C83F49"/>
    <rect x="4" y="23" width="24" height="9" rx="4.5" fill="#EEF1F4"/>
    <rect x="4" y="23" width="24" height="9" rx="4.5" fill="url(#paint0_linear_4958_2826)" fill-opacity="0.1"/>
    <path d="M8.34245 29.7359C8.29257 29.7359 8.26763 29.7359 8.24858 29.7262C8.23182 29.7176 8.2182 29.704 8.20966 29.6872C8.19995 29.6682 8.19995 29.6433 8.19995 29.5934V25.2421C8.19995 25.1922 8.19995 25.1673 8.20966 25.1482C8.2182 25.1315 8.23182 25.1179 8.24858 25.1093C8.26763 25.0996 8.29257 25.0996 8.34245 25.0996H9.56434C10.5313 25.0996 11.1208 25.5765 11.1208 26.358C11.1208 26.6476 11.0195 26.9061 10.8257 27.1064C10.7572 27.1773 10.7229 27.2128 10.7171 27.236C10.7109 27.2611 10.7123 27.2736 10.7237 27.2968C10.7343 27.3183 10.7739 27.3447 10.8532 27.3975C11.1981 27.6271 11.3857 27.9696 11.3857 28.3715C11.3857 29.2193 10.73 29.7359 9.66369 29.7359H8.34245ZM9.58421 25.8812H9.28295C9.23307 25.8812 9.20813 25.8812 9.18908 25.8909C9.17232 25.8994 9.1587 25.913 9.15016 25.9298C9.14045 25.9488 9.14045 25.9738 9.14045 26.0237V26.7851C9.14045 26.835 9.14045 26.8599 9.15016 26.879C9.1587 26.8958 9.17232 26.9094 9.18908 26.9179C9.20813 26.9276 9.23307 26.9276 9.28295 26.9276H9.58421C9.94186 26.9276 10.1538 26.7355 10.1538 26.3978C10.1538 26.0732 9.94186 25.8812 9.58421 25.8812ZM9.71667 27.7092H9.28295C9.23307 27.7092 9.20813 27.7092 9.18908 27.7189C9.17232 27.7274 9.1587 27.741 9.15016 27.7578C9.14045 27.7768 9.14045 27.8018 9.14045 27.8517V28.8118C9.14045 28.8617 9.14045 28.8867 9.15016 28.9057C9.1587 28.9225 9.17232 28.9361 9.18908 28.9446C9.20813 28.9543 9.23307 28.9543 9.28295 28.9543H9.71667C10.1538 28.9543 10.4187 28.7225 10.4187 28.3318C10.4187 27.9344 10.1538 27.7092 9.71667 27.7092Z" fill="#2845C1"/>
    <path d="M12.4271 29.7359C12.3772 29.7359 12.3523 29.7359 12.3333 29.7262C12.3165 29.7176 12.3029 29.704 12.2943 29.6872C12.2846 29.6682 12.2846 29.6433 12.2846 29.5934V25.2421C12.2846 25.1922 12.2846 25.1673 12.2943 25.1482C12.3029 25.1315 12.3165 25.1179 12.3333 25.1093C12.3523 25.0996 12.3772 25.0996 12.4271 25.0996H14.8444C14.8943 25.0996 14.9192 25.0996 14.9383 25.1093C14.955 25.1179 14.9687 25.1315 14.9772 25.1482C14.9869 25.1673 14.9869 25.1922 14.9869 25.2421V25.7387C14.9869 25.7885 14.9869 25.8135 14.9772 25.8325C14.9687 25.8493 14.955 25.8629 14.9383 25.8714C14.9192 25.8812 14.8943 25.8812 14.8444 25.8812H13.3676C13.3177 25.8812 13.2928 25.8812 13.2738 25.8909C13.257 25.8994 13.2434 25.913 13.2348 25.9298C13.2251 25.9488 13.2251 25.9738 13.2251 26.0237V26.8381C13.2251 26.888 13.2251 26.9129 13.2348 26.932C13.2434 26.9487 13.257 26.9624 13.2738 26.9709C13.2928 26.9806 13.3177 26.9806 13.3676 26.9806H14.5795C14.6294 26.9806 14.6543 26.9806 14.6733 26.9903C14.6901 26.9989 14.7037 27.0125 14.7123 27.0292C14.722 27.0483 14.722 27.0732 14.722 27.1231V27.6197C14.722 27.6695 14.722 27.6945 14.7123 27.7135C14.7037 27.7303 14.6901 27.7439 14.6733 27.7524C14.6543 27.7622 14.6294 27.7622 14.5795 27.7622H13.3676C13.3177 27.7622 13.2928 27.7622 13.2738 27.7719C13.257 27.7804 13.2434 27.794 13.2348 27.8108C13.2251 27.8298 13.2251 27.8548 13.2251 27.9047V28.8118C13.2251 28.8617 13.2251 28.8867 13.2348 28.9057C13.2434 28.9225 13.257 28.9361 13.2738 28.9446C13.2928 28.9543 13.3177 28.9543 13.3676 28.9543H14.8444C14.8943 28.9543 14.9192 28.9543 14.9383 28.964C14.955 28.9726 14.9687 28.9862 14.9772 29.003C14.9869 29.022 14.9869 29.047 14.9869 29.0968V29.5934C14.9869 29.6433 14.9869 29.6682 14.9772 29.6872C14.9687 29.704 14.955 29.7176 14.9383 29.7262C14.9192 29.7359 14.8943 29.7359 14.8444 29.7359H12.4271Z" fill="#2845C1"/>
    <path d="M15.7762 25.954C15.7263 25.954 15.7014 25.954 15.6823 25.9443C15.6656 25.9358 15.652 25.9221 15.6434 25.9054C15.6337 25.8863 15.6337 25.8614 15.6337 25.8115V25.2421C15.6337 25.1922 15.6337 25.1673 15.6434 25.1482C15.652 25.1315 15.6656 25.1179 15.6823 25.1093C15.7014 25.0996 15.7263 25.0996 15.7762 25.0996H19.2929C19.3428 25.0996 19.3678 25.0996 19.3868 25.1093C19.4036 25.1179 19.4172 25.1315 19.4257 25.1482C19.4354 25.1673 19.4354 25.1922 19.4354 25.2421V25.8115C19.4354 25.8614 19.4354 25.8863 19.4257 25.9054C19.4172 25.9221 19.4036 25.9358 19.3868 25.9443C19.3678 25.954 19.3428 25.954 19.2929 25.954H18.1473C18.0974 25.954 18.0725 25.954 18.0535 25.9637C18.0367 25.9723 18.0231 25.9859 18.0145 26.0026C18.0048 26.0217 18.0048 26.0466 18.0048 26.0965V29.5934C18.0048 29.6433 18.0048 29.6682 17.9951 29.6872C17.9866 29.704 17.973 29.7176 17.9562 29.7262C17.9371 29.7359 17.9122 29.7359 17.8623 29.7359H17.2068C17.1569 29.7359 17.132 29.7359 17.113 29.7262C17.0962 29.7176 17.0826 29.704 17.074 29.6872C17.0643 29.6682 17.0643 29.6433 17.0643 29.5934V26.0965C17.0643 26.0466 17.0643 26.0217 17.0546 26.0026C17.0461 25.9859 17.0325 25.9723 17.0157 25.9637C16.9966 25.954 16.9717 25.954 16.9218 25.954H15.7762Z" fill="#2845C1"/>
    <path d="M19.3724 29.7359C19.3031 29.7359 19.2685 29.7359 19.2463 29.7213C19.2268 29.7086 19.2131 29.6888 19.2081 29.6661C19.2024 29.6401 19.2146 29.6077 19.2392 29.5429L20.8864 25.1917C20.899 25.1585 20.9053 25.1419 20.9161 25.1296C20.9257 25.1188 20.9377 25.1105 20.9512 25.1054C20.9665 25.0996 20.9842 25.0996 21.0197 25.0996H22.0548C22.0903 25.0996 22.108 25.0996 22.1233 25.1054C22.1368 25.1105 22.1488 25.1188 22.1584 25.1296C22.1692 25.1419 22.1755 25.1585 22.188 25.1917L23.8353 29.5429C23.8598 29.6077 23.8721 29.6401 23.8664 29.6661C23.8613 29.6888 23.8476 29.7086 23.8282 29.7213C23.806 29.7359 23.7713 29.7359 23.702 29.7359H23.0076C22.9718 29.7359 22.9539 29.7359 22.9385 29.73C22.925 29.7248 22.9129 29.7164 22.9033 29.7054C22.8925 29.693 22.8863 29.6762 22.8739 29.6426L22.4988 28.6237C22.4865 28.5901 22.4803 28.5733 22.4694 28.5609C22.4599 28.55 22.4478 28.5415 22.4342 28.5363C22.4188 28.5304 22.4009 28.5304 22.3651 28.5304H20.7094C20.6736 28.5304 20.6556 28.5304 20.6403 28.5363C20.6267 28.5415 20.6146 28.55 20.605 28.5609C20.5942 28.5733 20.588 28.5901 20.5757 28.6237L20.2006 29.6426C20.1882 29.6762 20.182 29.693 20.1712 29.7054C20.1616 29.7164 20.1495 29.7248 20.1359 29.73C20.1206 29.7359 20.1027 29.7359 20.0668 29.7359H19.3724ZM20.9713 27.5377C20.9478 27.602 20.936 27.6342 20.9419 27.66C20.9471 27.6825 20.9608 27.7021 20.9802 27.7147C21.0023 27.729 21.0366 27.729 21.1051 27.729H21.9694C22.0379 27.729 22.0721 27.729 22.0943 27.7147C22.1136 27.7021 22.1274 27.6825 22.1325 27.66C22.1385 27.6342 22.1267 27.602 22.1032 27.5377L21.6711 26.3538C21.6298 26.2408 21.6092 26.1842 21.579 26.1682C21.5529 26.1543 21.5216 26.1543 21.4955 26.1682C21.4653 26.1842 21.4447 26.2408 21.4034 26.3538L20.9713 27.5377Z" fill="#2845C1"/>
    <defs>
        <linearGradient id="paint0_linear_4958_2826" x1="16" y1="23" x2="16" y2="32" gradientUnits="userSpaceOnUse">
            <stop stop-color="#2845C1"/>
            <stop offset="1" stop-color="#EEF1F4"/>
        </linearGradient>
    </defs>
</svg>
