<svg width="109" height="60" viewBox="0 0 109 60" fill="none" xmlns="http://www.w3.org/2000/svg">
    <g clip-path="url(#clip0_4916_14287)">
        <rect x="16" width="17" height="12" fill="#CE2C24"/>
        <rect width="17" height="12" fill="#00008A"/>
        <g clip-path="url(#clip1_4916_14287)">
            <path d="M8.475 6.90039C7.8 7.35039 7.2 7.87539 6.75 8.47539V8.40039C7.05 8.02539 7.275 7.65039 7.5 7.27539C7.8 7.12539 8.025 6.90039 8.25 6.67539C8.625 6.30039 9 5.92539 9.525 5.70039C9.75 5.62539 9.9 5.62539 10.125 5.70039C10.05 5.77539 9.975 5.77539 9.825 5.85039H9.75V5.77539C9.525 6.00039 9.225 6.15039 9 6.45039C8.925 6.60039 8.85 6.90039 8.475 6.90039C8.55 6.90039 8.475 6.97539 8.475 6.90039ZM9.675 10.3504C9.675 10.2754 9.6 10.3504 9.525 10.3504L9.45 10.4254L9.375 10.5004L9.225 10.6504C9.225 10.6504 9.3 10.7254 9.375 10.6504L9.45 10.5754C9.525 10.5754 9.6 10.5004 9.6 10.4254C9.675 10.4254 9.675 10.4254 9.675 10.3504ZM8.475 7.12539C8.55 7.12539 8.625 7.12539 8.625 7.05039C8.625 6.97539 8.7 6.97539 8.7 6.97539V6.90039C8.55 6.97539 8.475 7.05039 8.475 7.12539ZM10.275 8.55039C10.35 8.47539 10.425 8.47539 10.5 8.47539C11.025 8.40039 11.55 8.25039 12.075 8.02539C11.475 7.65039 10.8 7.35039 10.125 7.27539H10.2C10.125 7.20039 9.975 7.20039 9.825 7.12539H9.9C9.75 7.05039 9.525 7.05039 9.375 6.97539C9.45 6.97539 9.525 6.82539 9.525 6.75039H9.45C9.15 6.90039 9 7.12539 8.85 7.42539C9 7.50039 9.225 7.42539 9.375 7.50039H9.15C9.075 7.50039 9 7.57539 9 7.65039H9.075C9 7.65039 9 7.72539 8.925 7.72539C9 7.80039 9.075 7.72539 9.225 7.72539C9.225 7.80039 9.3 7.80039 9.3 7.80039C9.225 7.80039 9.15 7.87539 9.075 8.02539C9 8.17539 8.925 8.17539 8.85 8.25039V8.32539C8.625 8.47539 8.4 8.70039 8.175 8.92539V9.00039C8.1 9.07539 8.025 9.07539 8.025 9.15039V9.22539C8.325 9.15039 8.475 8.92539 8.775 8.85039L9.225 8.62539C9.375 8.62539 9.45 8.55039 9.6 8.55039V8.62539H9.75C9.75 8.70039 9.6 8.62539 9.675 8.70039C9.75 8.77539 9.9 8.77539 9.975 8.70039C10.125 8.55039 10.2 8.55039 10.275 8.55039ZM9.3 9.75039C9 9.90039 8.625 9.90039 8.4 10.0504C8.4 10.0504 8.4 10.1254 8.325 10.1254C8.325 10.1254 8.25 10.1254 8.25 10.2004C8.175 10.2004 8.175 10.2754 8.1 10.3504L8.025 10.4254C8.025 10.4254 8.025 10.5004 8.1 10.4254L8.175 10.3504C8.175 10.3504 8.1 10.4254 8.1 10.5004V10.7254L8.025 10.8004C8.025 10.8004 8.025 10.8754 7.95 10.8754L7.875 10.9504L8.025 10.8004L8.1 10.7254H8.25C8.25 10.7254 8.25 10.6504 8.325 10.6504C8.4 10.5754 8.475 10.5004 8.55 10.5004H8.625C8.7 10.4254 8.85 10.4254 8.925 10.3504C9 10.2754 9.075 10.2004 9.15 10.2004C9.3 10.0504 9.525 9.97539 9.75 9.82539C9.675 9.82539 9.6 9.75039 9.525 9.75039C9.525 9.82539 9.375 9.75039 9.3 9.75039ZM22.5 6.52539C22.425 6.67539 22.2 6.67539 22.05 6.75039C21.9 6.90039 22.05 7.05039 22.125 7.12539C22.2 7.35039 21.975 7.50039 21.825 7.50039C21.9 7.57539 21.975 7.57539 21.975 7.57539C21.975 7.72539 22.125 7.72539 22.05 7.87539C21.975 8.02539 21.675 8.10039 21.825 8.25039C21.9 8.40039 21.9 8.62539 21.825 8.77539C21.75 8.92539 21.6 9.07539 21.45 9.15039C21.3 9.22539 21.15 9.22539 21 9.15039C20.925 9.15039 20.925 9.07539 20.85 9.07539C20.475 9.00039 20.1 8.92539 19.725 8.92539C19.65 8.92539 19.5 9.00039 19.425 9.00039C19.35 9.07539 19.2 9.15039 19.125 9.22539L19.05 9.30039C18.975 9.37539 18.9 9.45039 18.9 9.52539C18.825 9.67539 18.75 9.82539 18.75 9.97539C18.6 10.3504 18.6 10.7254 18.75 11.0254C18.75 11.0254 19.5 11.2504 20.025 11.4754C20.175 11.5504 20.4 11.6254 20.55 11.7754L21.825 12.5254H9.9L11.1 11.7754C11.55 11.4754 12.075 11.2504 12.6 11.0254C12.975 10.8754 13.425 10.6504 13.725 10.3504C13.875 10.2004 13.95 10.0504 14.1 9.97539C14.325 9.67539 14.55 9.45039 14.85 9.22539L15.075 9.00039C15.075 9.00039 15.075 8.92539 15.15 8.92539C15 9.00039 15 9.07539 14.85 9.07539C14.85 9.07539 14.775 9.07539 14.85 9.00039C14.925 8.92539 15 8.85039 15.075 8.85039V8.77539C14.775 8.77539 14.55 8.92539 14.325 9.15039H14.175C13.8 9.30039 13.575 9.52539 13.275 9.67539V9.60039C13.125 9.67539 12.975 9.75039 12.9 9.75039C12.75 9.75039 12.525 9.82539 12.3 9.75039C12 9.75039 11.775 9.82539 11.475 9.90039C11.325 9.97539 11.175 9.97539 11.025 10.0504V10.1254L10.875 10.2754C10.725 10.3504 10.65 10.4254 10.5 10.5754L10.125 10.9504H10.05L10.125 10.8754L10.2 10.8004C10.2 10.7254 10.275 10.7254 10.275 10.6504C10.425 10.5754 10.5 10.4254 10.65 10.3504C10.65 10.3504 10.65 10.2754 10.725 10.2754L10.65 10.3504C10.575 10.4254 10.575 10.5004 10.5 10.5004V10.4254V10.3504L10.65 10.2004C10.725 10.1254 10.8 10.1254 10.875 10.0504H10.95C10.8 10.1254 10.725 10.1254 10.575 10.2004H10.5H10.425C10.425 10.1254 10.5 10.1254 10.575 10.0504H10.65C11.4 9.45039 12.375 9.60039 13.2 9.30039C13.275 9.22539 13.35 9.22539 13.425 9.15039C13.5 9.07539 13.65 9.00039 13.8 8.92539C13.95 8.77539 14.1 8.62539 14.175 8.40039V8.32539C13.875 8.62539 13.575 8.85039 13.2 9.07539C12.75 9.22539 12.225 9.37539 11.7 9.37539C11.7 9.30039 11.775 9.30039 11.775 9.30039C11.775 9.22539 11.85 9.22539 11.85 9.15039H11.925C11.925 9.15039 11.925 9.07539 12 9.07539H12.075C12 9.00039 11.85 9.15039 11.775 9.07539C11.85 9.00039 11.775 8.92539 11.85 8.92539H11.925C11.925 8.92539 11.925 8.85039 12 8.85039C12.375 8.62539 12.675 8.47539 12.975 8.32539C12.9 8.32539 12.9 8.40039 12.825 8.32539C12.9 8.32539 12.825 8.25039 12.9 8.25039C13.125 8.17539 13.35 8.02539 13.575 7.95039C13.5 7.95039 13.425 8.02539 13.35 7.95039C13.425 7.95039 13.425 7.87539 13.5 7.87539V7.80039C13.5 7.72539 13.575 7.80039 13.65 7.72539H13.575C13.65 7.65039 13.725 7.57539 13.875 7.57539C13.875 7.50039 13.8 7.57539 13.8 7.50039H13.875H13.5C13.425 7.50039 13.5 7.42539 13.5 7.42539C13.575 7.27539 13.65 7.05039 13.725 6.90039H13.65C13.425 7.12539 13.05 7.27539 12.75 7.35039H12.6C12.45 7.42539 12.3 7.42539 12.225 7.35039C12.15 7.27539 12.075 7.20039 12 7.20039C11.85 7.12539 11.625 6.97539 11.4 6.90039C10.875 6.75039 10.275 6.60039 9.675 6.67539C9.9 6.60039 10.2 6.52539 10.5 6.45039C10.875 6.30039 11.25 6.22539 11.625 6.22539H11.4C11.1 6.22539 10.725 6.30039 10.425 6.37539C10.2 6.45039 9.975 6.52539 9.75 6.52539C9.6 6.60039 9.525 6.67539 9.375 6.67539V6.60039C9.6 6.30039 9.9 6.07539 10.2 6.00039C10.575 5.92539 11.025 6.00039 11.4 6.07539C11.7 6.07539 12 6.15039 12.225 6.22539C12.3 6.22539 12.375 6.37539 12.45 6.45039C12.6 6.52539 12.75 6.45039 12.825 6.52539V6.37539C12.9 6.30039 13.05 6.37539 13.125 6.37539C13.275 6.22539 12.975 6.07539 12.9 5.92539V5.85039C13.05 6.00039 13.275 6.15039 13.425 6.30039C13.5 6.37539 13.8 6.45039 13.8 6.30039C13.65 6.07539 13.5 5.85039 13.275 5.62539V5.47539C13.2 5.47539 13.2 5.47539 13.2 5.40039C13.125 5.32539 13.125 5.25039 13.125 5.17539C13.05 5.02539 13.125 4.87539 13.05 4.80039C12.975 4.65039 12.975 4.57539 12.975 4.42539C12.9 4.05039 12.825 3.67539 12.75 3.37539C12.675 2.92539 12.975 2.62539 13.2 2.25039C13.35 1.95039 13.575 1.72539 13.8 1.50039C13.875 1.20039 14.025 0.975391 14.25 0.750391C14.475 0.525391 14.7 0.375391 14.925 0.300391C15.15 0.225391 15.3 0.150391 15.525 0.0753906L17.4 -0.224609H18.75L20.1 0.000390634C20.175 0.000390634 20.25 0.000390649 20.25 0.0753906C20.325 0.150391 20.475 0.225391 20.55 0.225391C20.7 0.300391 20.85 0.450391 21 0.600391C21.075 0.675391 21.15 0.825391 21.075 0.900391C21 0.975391 21 1.20039 20.925 1.20039C20.775 1.27539 20.625 1.27539 20.475 1.27539C20.4 1.27539 20.325 1.27539 20.175 1.20039C20.55 1.35039 20.85 1.50039 21.075 1.80039C21.075 1.87539 21.225 1.87539 21.3 1.87539V1.95039C21.225 2.02539 21.225 2.02539 21.225 2.10039H21.3C21.375 2.02539 21.375 1.80039 21.525 1.87539C21.675 1.95039 21.675 2.10039 21.6 2.17539C21.525 2.25039 21.45 2.32539 21.3 2.40039V2.55039C21.375 2.62539 21.375 2.70039 21.45 2.85039C21.525 3.00039 21.525 3.22539 21.6 3.37539C21.675 3.75039 21.75 4.05039 21.75 4.42539C21.75 4.57539 21.675 4.80039 21.75 4.95039L21.975 5.40039C22.05 5.55039 22.125 5.62539 22.2 5.77539C22.35 6.00039 22.65 6.22539 22.5 6.52539ZM10.8 10.4254C10.725 10.4254 10.725 10.5004 10.725 10.5004C10.725 10.5004 10.8 10.5004 10.8 10.4254ZM10.125 8.92539C10.125 9.00039 10.2 8.92539 10.2 8.92539C10.35 8.85039 10.575 8.92539 10.65 8.77539C10.575 8.70039 10.5 8.77539 10.5 8.70039C10.425 8.70039 10.35 8.70039 10.35 8.77539C10.275 8.85039 10.125 8.85039 10.125 8.92539Z" fill="white"/>
            <path d="M20.925 4.34961C21 4.34961 21.15 4.34961 21.15 4.42461C21.075 4.57461 20.85 4.64961 20.7 4.79961H20.625C20.55 4.87461 20.55 4.94961 20.55 4.94961H20.325C20.4 5.02461 20.55 5.09961 20.7 5.09961L20.775 5.17461H20.925V5.24961C20.85 5.32461 20.775 5.32461 20.625 5.32461C20.775 5.39961 21 5.39961 21.15 5.32461C21.3 5.24961 21.15 5.02461 21.225 4.94961C21.15 4.94961 21.225 4.87461 21.15 4.87461C21.225 4.79961 21.225 4.72461 21.3 4.72461C21.375 4.72461 21.375 4.72461 21.45 4.64961C21.45 4.57461 21.375 4.57461 21.375 4.49961C21.525 4.42461 21.6 4.27461 21.6 4.12461C21.6 4.04961 21.375 4.04961 21.3 3.97461H20.925C20.775 3.97461 20.7 4.04961 20.55 4.04961L20.1 4.27461C20.25 4.19961 20.4 4.19961 20.625 4.12461C20.625 4.34961 20.775 4.34961 20.925 4.34961Z" fill="#7C7C7C"/>
        </g>
    </g>
    <path d="M5.355 25.5762C6.1866 25.5762 6.9048 25.2864 7.4088 24.8076V23.2704H5.166V21.7458H9.198V25.4502C8.379 26.5464 7.0056 27.252 5.355 27.252C2.4948 27.252 0.5418 25.11 0.5418 22.59C0.5418 20.07 2.4444 17.928 5.229 17.928C6.8292 17.928 8.1396 18.6462 8.946 19.7172L7.5348 20.8134C7.0308 20.0952 6.237 19.6038 5.229 19.6038C3.5658 19.6038 2.3814 20.9016 2.3814 22.59C2.3814 24.2784 3.6288 25.5762 5.355 25.5762ZM15.2175 17.928C17.9895 17.928 19.8921 20.07 19.8921 22.59C19.8921 25.11 17.9895 27.252 15.2175 27.252C12.4329 27.252 10.5303 25.11 10.5303 22.59C10.5303 20.07 12.4329 17.928 15.2175 17.928ZM15.2175 25.5762C16.8681 25.5762 18.0525 24.2784 18.0525 22.59C18.0525 20.9016 16.8681 19.6038 15.2175 19.6038C13.5543 19.6038 12.3699 20.9016 12.3699 22.59C12.3699 24.2784 13.5543 25.5762 15.2175 25.5762ZM26.8084 23.6988V18.18H28.5976V23.5476C28.5976 25.866 27.2368 27.252 25.0192 27.252C22.8142 27.252 21.4534 25.866 21.4534 23.5476V18.18H23.2426V23.6988C23.2426 24.8832 23.9104 25.5762 25.0318 25.5762C26.128 25.5762 26.8084 24.8832 26.8084 23.6988ZM29.7114 18.18H31.614L34.2222 25.0722L36.8304 18.18H38.733L35.394 27H33.0504L29.7114 18.18ZM40.095 27V18.18H45.2358V19.6668H41.8842V21.7584H44.7318V23.2452H41.8842V25.5132H45.2358V27H40.095ZM47.3149 27V18.18H50.0113C51.9517 18.18 53.1487 19.1754 53.1487 20.8134C53.1487 21.8844 52.6321 22.6782 51.7249 23.094L54.4843 27H52.3801L50.0239 23.4342H49.1041V27H47.3149ZM50.1121 19.6668H49.1041V21.9474H50.1121C50.8681 21.9474 51.3091 21.5064 51.3091 20.7882C51.3091 20.1204 50.8681 19.6668 50.1121 19.6668ZM55.6176 27V18.18H57.9108L61.8546 24.5556V18.18H63.6438V27H61.3506L57.4068 20.6244V27H55.6176ZM66.1105 27V18.18H71.2513V19.6668H67.8997V21.7584H70.7473V23.2452H67.8997V25.5132H71.2513V27H66.1105ZM73.3304 27V18.18H75.5606L77.7152 21.8844L79.8698 18.18H82.1V27H80.3108V20.6748L78.3452 23.976H77.0852L75.1196 20.6748V27H73.3304ZM84.5617 27V18.18H89.7025V19.6668H86.3509V21.7584H89.1985V23.2452H86.3509V25.5132H89.7025V27H84.5617ZM91.7816 27V18.18H94.0748L98.0186 24.5556V18.18H99.8078V27H97.5146L93.5708 20.6244V27H91.7816ZM101.367 19.8054V18.18H108.6V19.8054H105.878V27H104.089V19.8054H101.367Z" fill="#222631"/>
    <g clip-path="url(#clip2_4916_14287)">
        <g clip-path="url(#clip3_4916_14287)">
            <g clip-path="url(#clip4_4916_14287)">
                <g clip-path="url(#clip5_4916_14287)">
                    <g clip-path="url(#clip6_4916_14287)">
                        <path d="M30.775 56.45C31.15 55.5 30.7 55.125 30.15 55.125C29.225 55.125 28.175 56.75 28.175 58.05C28.175 58.675 28.475 59 28.925 59C29.45 59 30 58.5 30.475 57.625H30.225C29.925 58 29.575 58.275 29.25 58.275C28.925 58.275 28.75 58.075 28.75 57.625C28.7559 57.4396 28.781 57.2552 28.825 57.075L30.775 56.45ZM29.775 55.675C30.05 55.675 30.275 55.875 30.15 56.325L28.95 56.65C29.15 56.1 29.5 55.65 29.8 55.65L29.775 55.675Z" fill="#222631"/>
                    </g>
                    <path d="M30.1501 54.7004L31.2751 53.6754V53.5254H30.5251L29.8501 54.7004H30.1751H30.1501Z" fill="#222631"/>
                </g>
                <g clip-path="url(#clip7_4916_14287)">
                    <path d="M25.975 55.675H26.625L25.575 58.525C25.5422 58.576 25.5242 58.6352 25.5232 58.6959C25.5223 58.7565 25.5383 58.8163 25.5695 58.8683C25.6007 58.9204 25.6459 58.9626 25.6999 58.9903C25.7539 59.018 25.8146 59.03 25.875 59.025C26.625 59.025 27.475 58.375 27.825 57.475H27.65C27.3359 57.9021 26.8866 58.2105 26.375 58.35L27.3 55.675H28.3L28.425 55.275H27.475L27.8 54.25H27.45L26.775 55.275L25.975 55.375V55.675Z" fill="#222631"/>
                </g>
                <g clip-path="url(#clip8_4916_14287)">
                    <path d="M25.3 55.5254C25.375 55.2754 25.2 55.1254 25.05 55.1254C24.5 55.1254 23.8 55.6504 23.55 56.3754H23.725C23.9026 56.0885 24.1778 55.8755 24.5 55.7754L23.425 58.6004C23.4034 58.6427 23.3931 58.6899 23.3952 58.7373C23.3972 58.7848 23.4115 58.8309 23.4367 58.8712C23.4619 58.9115 23.4971 58.9445 23.5388 58.9672C23.5806 58.9898 23.6275 59.0013 23.675 59.0004C24.225 59.0004 24.85 58.5004 25.125 57.7504H24.9C24.7377 58.0514 24.471 58.2826 24.15 58.4004L25.3 55.5254ZM25.4 54.4504C25.4591 54.4504 25.5176 54.4388 25.5722 54.4161C25.6268 54.3935 25.6764 54.3604 25.7182 54.3186C25.76 54.2768 25.7931 54.2272 25.8157 54.1726C25.8383 54.118 25.85 54.0595 25.85 54.0004C25.8534 53.9392 25.8443 53.878 25.8232 53.8205C25.8021 53.763 25.7695 53.7104 25.7273 53.6659C25.6852 53.6214 25.6344 53.586 25.5782 53.5619C25.5219 53.5377 25.4612 53.5253 25.4 53.5254C25.2806 53.5254 25.1662 53.5728 25.0818 53.6572C24.9974 53.7416 24.95 53.856 24.95 53.9754C24.95 54.0947 24.9974 54.2092 25.0818 54.2936C25.1662 54.378 25.2806 54.4254 25.4 54.4254" fill="#222631"/>
                </g>
                <g clip-path="url(#clip9_4916_14287)">
                    <path d="M20.1251 55.8999C20.3001 55.8999 20.3751 56.1499 20.1251 56.7499L19.3751 58.4499C19.2001 58.7749 19.3751 58.9999 19.6751 58.9999C19.7578 59.0148 19.843 58.997 19.9129 58.9504C19.9829 58.9038 20.032 58.8319 20.0501 58.7499L20.8001 56.7499C21.1501 56.3249 21.8001 55.8749 22.0501 55.8749C22.3001 55.8749 22.2501 56.0249 22.1251 56.2749L20.9751 58.5249C20.9498 58.5734 20.9371 58.6276 20.9383 58.6823C20.9395 58.737 20.9545 58.7906 20.982 58.838C21.0094 58.8854 21.0484 58.925 21.0952 58.9533C21.1421 58.9816 21.1954 58.9976 21.2501 58.9999C21.8251 58.9999 22.5001 58.4999 22.7501 57.7499H22.6001C22.421 58.051 22.1355 58.274 21.8001 58.3749L22.8001 56.3749C22.9223 56.1611 22.9909 55.9209 23.0001 55.6749C23.0079 55.6007 22.9991 55.5257 22.9743 55.4554C22.9494 55.3851 22.9091 55.3212 22.8564 55.2685C22.8037 55.2158 22.7398 55.1755 22.6695 55.1507C22.5992 55.1258 22.5242 55.117 22.4501 55.1249C21.9501 55.1249 21.5501 55.6749 20.9501 56.3749V55.8249C20.9501 55.4749 20.8251 55.1249 20.5001 55.1249C20.1001 55.1249 19.7501 55.7499 19.4751 56.3499H19.6501C19.8251 56.0749 19.9751 55.8999 20.1501 55.8999" fill="#222631"/>
                </g>
                <g clip-path="url(#clip10_4916_14287)">
                    <path d="M19.3751 56C19.5001 55.525 19.4251 55.125 19.0751 55.125C18.6251 55.125 18.5001 55.425 18.0751 56.375V55.825C18.0501 55.45 17.9251 55.125 17.5751 55.125C17.2001 55.125 16.8501 55.75 16.5501 56.375H16.7501C16.9251 56.05 17.1251 55.875 17.2501 55.875C17.4251 55.875 17.5001 56.125 17.2501 56.725L16.5001 58.425C16.3251 58.75 16.5001 58.95 16.8001 58.95C16.8828 58.9649 16.968 58.9472 17.0379 58.9006C17.1079 58.8539 17.157 58.7821 17.1751 58.7L17.9251 56.7C18.1318 56.4415 18.3486 56.1913 18.5751 55.95H19.3751V56Z" fill="#222631"/>
                </g>
                <g clip-path="url(#clip11_4916_14287)">
                    <path d="M16.175 56.45C16.55 55.5 16.1 55.125 15.55 55.125C14.625 55.125 13.575 56.75 13.575 58.05C13.575 58.675 13.875 59 14.325 59C14.85 59 15.4 58.5 15.875 57.625H15.625C15.325 58 14.975 58.275 14.65 58.275C14.325 58.275 14.15 58.075 14.15 57.625C14.1558 57.4396 14.1809 57.2552 14.225 57.075L16.175 56.45ZM15.175 55.675C15.45 55.675 15.675 55.875 15.55 56.325L14.35 56.65C14.55 56.1 14.9 55.65 15.2 55.65L15.175 55.675Z" fill="#222631"/>
                </g>
                <g clip-path="url(#clip12_4916_14287)">
                    <path d="M11.35 55.675H12L10.95 58.525C10.9172 58.576 10.8992 58.6352 10.8982 58.6959C10.8973 58.7565 10.9133 58.8163 10.9445 58.8683C10.9757 58.9204 11.0209 58.9626 11.0749 58.9903C11.1289 59.018 11.1896 59.03 11.25 59.025C12 59.025 12.85 58.375 13.2 57.475H13.025C12.7109 57.9021 12.2616 58.2105 11.75 58.35L12.675 55.675H13.675L13.8 55.275H12.85L13.175 54.25H12.825L12.15 55.275L11.35 55.375V55.675Z" fill="#222631"/>
                </g>
                <g clip-path="url(#clip13_4916_14287)">
                    <path d="M9.85002 58.2252C9.70002 58.2252 9.60002 57.9752 9.85002 57.3752L10.875 54.9752L10.575 54.9502L10.25 55.2752H10.175C8.75002 55.2752 7.22502 57.1002 7.22502 58.5002C7.22143 58.5701 7.23255 58.64 7.25767 58.7053C7.28278 58.7706 7.32133 58.8299 7.37081 58.8794C7.4203 58.9289 7.47962 58.9674 7.54494 58.9926C7.61027 59.0177 7.68013 59.0288 7.75002 59.0252C8.17502 59.0252 8.57502 58.4252 9.05002 57.7752L9.02502 58.0252C8.95002 58.6752 9.17502 59.0252 9.52502 59.0252C9.90002 59.0252 10.275 58.4252 10.525 57.8002H10.35C10.175 58.0752 9.97502 58.2502 9.85002 58.2502V58.2252ZM9.20002 57.4002C8.87502 57.8002 8.35002 58.2752 8.12502 58.2752C8.00002 58.2752 7.90002 58.1502 7.90002 57.8752C7.90002 57.0002 8.90002 55.8252 9.40002 55.8252C9.51868 55.822 9.63702 55.8389 9.75002 55.8752L9.20002 57.4002Z" fill="#222631"/>
                </g>
                <g clip-path="url(#clip14_4916_14287)">
                    <path d="M7.85004 56C7.97504 55.525 7.90004 55.125 7.55004 55.125C7.10004 55.125 6.97504 55.425 6.55004 56.375V55.825C6.52504 55.45 6.40004 55.125 6.05004 55.125C5.67504 55.125 5.32504 55.75 5.02504 56.375H5.22504C5.40004 56.05 5.60004 55.875 5.72504 55.875C5.90004 55.875 5.97504 56.125 5.72504 56.725L4.97504 58.425C4.80004 58.75 4.97504 58.95 5.27504 58.95C5.35775 58.9649 5.443 58.9472 5.51292 58.9006C5.58284 58.8539 5.63198 58.7821 5.65004 58.7L6.40004 56.7C6.60676 56.4415 6.82359 56.1913 7.05004 55.95H7.85004V56Z" fill="#222631"/>
                </g>
                <g clip-path="url(#clip15_4916_14287)">
                    <path d="M2.79998 58.8504L2.87498 58.6254C1.92498 58.4504 1.79998 58.4504 2.19998 57.4254L2.54998 56.4504H3.29998C3.77498 56.4504 3.77498 56.6754 3.69998 57.2004H3.94998L4.59998 55.4754H4.34998C4.09998 55.8754 3.89998 56.2004 3.39998 56.2004H2.64998L3.14998 54.8004C3.34998 54.3004 3.42498 54.2004 4.07498 54.2004H4.24998C4.89998 54.2004 4.99998 54.3754 4.99998 55.0754H5.24998L5.47498 53.9004H1.82498L1.74998 54.1254C2.49998 54.2754 2.57498 54.3504 2.24998 55.3254L1.42498 57.4004C1.04998 58.3754 0.924976 58.4504 0.0499756 58.6004L-0.0250244 58.8254L2.79998 58.8504Z" fill="#222631"/>
                </g>
                <g clip-path="url(#clip16_4916_14287)">
                    <g clip-path="url(#clip17_4916_14287)">
                        <path d="M21.925 48.2C22.3 47.25 21.85 46.875 21.3 46.875C20.375 46.875 19.325 48.5 19.325 49.8C19.325 50.425 19.625 50.75 20.075 50.75C20.6 50.75 21.15 50.25 21.625 49.375H21.375C21.075 49.75 20.725 50.025 20.4 50.025C20.075 50.025 19.9 49.825 19.9 49.375C19.9058 49.1896 19.9309 49.0052 19.975 48.825L21.925 48.2ZM20.925 47.425C21.2 47.425 21.425 47.625 21.3 48.075L20.1 48.4C20.3 47.85 20.65 47.4 20.95 47.4L20.925 47.425Z" fill="#222631"/>
                    </g>
                    <path d="M21.3 46.4504L22.425 45.4254V45.2754H21.675L21 46.4504H21.325H21.3Z" fill="#222631"/>
                </g>
                <g clip-path="url(#clip18_4916_14287)">
                    <path d="M17.1249 47.425H17.7749L16.7249 50.275C16.6921 50.326 16.6741 50.3852 16.6731 50.4459C16.6722 50.5065 16.6882 50.5663 16.7194 50.6183C16.7506 50.6704 16.7958 50.7126 16.8498 50.7403C16.9038 50.768 16.9645 50.78 17.0249 50.775C17.7749 50.775 18.6249 50.125 18.9749 49.225H18.7999C18.4858 49.6521 18.0365 49.9605 17.5249 50.1L18.4499 47.425H19.4499L19.5749 47.025H18.6249L18.9499 46H18.5999L17.9249 47.025L17.1249 47.125V47.425Z" fill="#222631"/>
                </g>
                <g clip-path="url(#clip19_4916_14287)">
                    <path d="M16.45 47.25C16.525 47 16.35 46.85 16.2 46.85C15.65 46.85 14.95 47.375 14.7 48.1H14.875C15.0526 47.8132 15.3278 47.6001 15.65 47.5L14.575 50.325C14.5534 50.3673 14.5431 50.4145 14.5452 50.4619C14.5472 50.5094 14.5615 50.5555 14.5867 50.5958C14.6119 50.6361 14.6471 50.6692 14.6888 50.6918C14.7306 50.7144 14.7775 50.7259 14.825 50.725C15.375 50.725 16 50.225 16.275 49.475H16.05C15.8878 49.776 15.621 50.0072 15.3 50.125L16.45 47.25ZM16.55 46.175C16.6091 46.175 16.6676 46.1634 16.7222 46.1407C16.7768 46.1181 16.8264 46.085 16.8682 46.0432C16.91 46.0014 16.9431 45.9518 16.9657 45.8972C16.9884 45.8426 17 45.7841 17 45.725C17.0034 45.6638 16.9943 45.6026 16.9732 45.5451C16.9521 45.4876 16.9195 45.435 16.8774 45.3905C16.8352 45.346 16.7845 45.3106 16.7282 45.2865C16.6719 45.2623 16.6113 45.2499 16.55 45.25C16.4306 45.25 16.3162 45.2974 16.2318 45.3818C16.1474 45.4662 16.1 45.5807 16.1 45.7C16.1 45.8193 16.1474 45.9338 16.2318 46.0182C16.3162 46.1026 16.4306 46.15 16.55 46.15" fill="#222631"/>
                </g>
                <g clip-path="url(#clip20_4916_14287)">
                    <path d="M13.075 50.1254L14.875 45.3504L14.8 45.2754L13.55 45.4254V45.5754L13.8 45.7504C14.025 45.9254 13.95 46.0754 13.75 46.6004L12.4 50.2504C12.3686 50.2996 12.351 50.3564 12.3491 50.4147C12.3471 50.4731 12.361 50.5309 12.3891 50.582C12.4172 50.6332 12.4586 50.6758 12.509 50.7054C12.5593 50.7351 12.6166 50.7506 12.675 50.7504C13.25 50.7504 13.85 50.2254 14.125 49.5004H13.95C13.7377 49.802 13.4292 50.0224 13.075 50.1254Z" fill="#222631"/>
                </g>
                <g clip-path="url(#clip21_4916_14287)">
                    <path d="M11.35 49.9752C11.2 49.9752 11.1 49.7252 11.35 49.1252L12.375 46.7252L12.075 46.7002L11.75 47.0252H11.675C10.25 47.0252 8.72502 48.8502 8.72502 50.2502C8.72143 50.3201 8.73255 50.39 8.75767 50.4553C8.78278 50.5206 8.82133 50.5799 8.87081 50.6294C8.9203 50.6789 8.97962 50.7174 9.04494 50.7426C9.11027 50.7677 9.18013 50.7788 9.25002 50.7752C9.67502 50.7752 10.075 50.1752 10.55 49.5252L10.525 49.7752C10.45 50.4252 10.675 50.7752 11.025 50.7752C11.4 50.7752 11.775 50.1752 12.025 49.5502H11.85C11.675 49.8252 11.475 50.0002 11.35 50.0002V49.9752ZM10.7 49.1502C10.375 49.5502 9.85002 50.0252 9.62502 50.0252C9.50002 50.0252 9.40002 49.9002 9.40002 49.6252C9.40002 48.7502 10.4 47.5752 10.9 47.5752C11.0187 47.572 11.137 47.5889 11.25 47.6252L10.7 49.1502Z" fill="#222631"/>
                </g>
                <g clip-path="url(#clip22_4916_14287)">
                    <path d="M9.15 46.9997H8.075C7.91845 46.8994 7.73591 46.8472 7.55 46.8497C7.11669 46.8496 6.70075 47.02 6.39202 47.3241C6.0833 47.6281 5.90657 48.0414 5.9 48.4747C5.88969 48.5831 5.90095 48.6925 5.93314 48.7966C5.96532 48.9006 6.01779 48.9973 6.08751 49.0809C6.15724 49.1646 6.24284 49.2336 6.33938 49.2841C6.43592 49.3345 6.54149 49.3653 6.65 49.3747C6.175 49.5747 5.9 49.8247 5.9 50.0997C5.9 50.1767 5.92093 50.2523 5.96057 50.3184C6.0002 50.3844 6.05703 50.4384 6.125 50.4747C5.05 50.7997 4.625 51.1747 4.625 51.6497C4.625 52.1497 5.275 52.3497 6.025 52.3497C7.35 52.3497 8.425 51.6747 8.425 51.0747C8.425 50.6247 8.025 50.4497 7.35 50.2497C6.8 50.0747 6.55 50.0497 6.55 49.8497C6.56644 49.7515 6.60704 49.659 6.66814 49.5805C6.72924 49.5019 6.80892 49.4398 6.9 49.3997C7.31131 49.3685 7.69601 49.1843 7.97828 48.8835C8.26056 48.5828 8.41993 48.1872 8.425 47.7747C8.42962 47.6478 8.41272 47.521 8.375 47.3997H9L9.15 46.9997ZM7.1 50.8997C7.625 51.0747 7.85 51.1497 7.85 51.2997C7.85 51.6497 7.35 51.9247 6.45 51.9247C5.775 51.9247 5.45 51.7747 5.45 51.4247C5.45 51.0497 5.8 50.7997 6.325 50.5997C6.56712 50.7184 6.81783 50.8186 7.075 50.8997H7.1ZM6.9 49.0997C6.65 49.0997 6.575 48.8997 6.575 48.6747C6.575 47.9747 6.925 47.1247 7.45 47.1247C7.7 47.1247 7.775 47.3247 7.775 47.5247C7.775 48.2497 7.425 49.0997 6.9 49.0997Z" fill="#222631"/>
                </g>
                <g clip-path="url(#clip23_4916_14287)">
                    <path d="M3.575 48.2252C4.05 48.2252 4.075 48.4252 3.975 48.9252H4.25L4.875 47.2252H4.625C4.375 47.6252 4.2 47.9502 3.675 47.9502H2.65L3.15 46.5502C3.325 46.0502 3.4 45.9502 4.075 45.9502H4.5C5.15 45.9502 5.25 46.1252 5.25 46.8252H5.5L5.725 45.6502H1.825L1.75 45.8752C2.5 46.0252 2.575 46.1002 2.25 47.0752L1.45 49.1752C1.075 50.1502 0.95 50.2252 0.05 50.3752L0 50.6252H4.35L5.15 49.3752H4.85C4.35 49.8752 3.85 50.3252 2.85 50.3252C1.675 50.3252 1.775 50.2502 2.175 49.1752L2.525 48.2252H3.575ZM4.15 45.2752L5.25 44.4752V44.3252H4.5L3.85 45.3002H4.15V45.2752Z" fill="#222631"/>
                </g>
                <g clip-path="url(#clip24_4916_14287)">
                    <g clip-path="url(#clip25_4916_14287)">
                        <path d="M21.8 39.95C22.175 39 21.725 38.625 21.175 38.625C20.25 38.625 19.2 40.25 19.2 41.55C19.2 42.175 19.5 42.5 19.95 42.5C20.475 42.5 21.025 42 21.5 41.125H21.25C20.95 41.5 20.6 41.775 20.275 41.775C19.95 41.775 19.775 41.575 19.775 41.125C19.7808 40.9396 19.8059 40.7552 19.85 40.575L21.8 39.95ZM20.8 39.175C21.075 39.175 21.3 39.375 21.175 39.825L19.975 40.15C20.175 39.6 20.525 39.15 20.825 39.15L20.8 39.175Z" fill="#222631"/>
                    </g>
                    <path d="M21.175 38.2004L22.3 37.1754V37.0254H21.55L20.875 38.2004H21.2H21.175Z" fill="#222631"/>
                </g>
                <g clip-path="url(#clip26_4916_14287)">
                    <path d="M16.975 39.1496H17.625L16.575 41.9996C16.5422 42.0506 16.5242 42.1098 16.5232 42.1705C16.5223 42.2312 16.5383 42.2909 16.5695 42.3429C16.6007 42.395 16.6459 42.4372 16.6999 42.4649C16.7539 42.4926 16.8146 42.5046 16.875 42.4996C17.625 42.4996 18.475 41.8496 18.825 40.9496H18.65C18.3359 41.3768 17.8866 41.6851 17.375 41.8246L18.3 39.1496H19.3L19.425 38.7496H18.475L18.8 37.7246H18.45L17.775 38.7496L16.975 38.8496V39.1496Z" fill="#222631"/>
                </g>
                <g clip-path="url(#clip27_4916_14287)">
                    <path d="M16.65 39.5C16.775 39.025 16.7 38.625 16.35 38.625C15.9 38.625 15.775 38.925 15.35 39.875V39.325C15.325 38.95 15.2 38.625 14.85 38.625C14.475 38.625 14.125 39.25 13.825 39.875H14.025C14.2 39.55 14.4 39.375 14.525 39.375C14.7 39.375 14.775 39.625 14.525 40.225L13.775 41.925C13.6 42.25 13.775 42.45 14.075 42.45C14.1577 42.4649 14.2429 42.4472 14.3128 42.4006C14.3828 42.3539 14.4319 42.2821 14.45 42.2L15.2 40.2C15.4067 39.9415 15.6235 39.6913 15.85 39.45H16.65V39.5Z" fill="#222631"/>
                </g>
                <g clip-path="url(#clip28_4916_14287)">
                    <path d="M13.45 39.9246C13.825 38.9746 13.375 38.5996 12.825 38.5996C11.9 38.5996 10.85 40.2246 10.85 41.5246C10.85 42.1496 11.15 42.4746 11.6 42.4746C12.125 42.4746 12.675 41.9746 13.15 41.0996H12.9C12.6 41.4746 12.25 41.7496 11.925 41.7496C11.6 41.7496 11.425 41.5496 11.425 41.0996C11.4308 40.9142 11.456 40.7298 11.5 40.5496L13.45 39.9246ZM12.45 39.1496C12.725 39.1496 12.95 39.3496 12.825 39.7996L11.625 40.1246C11.825 39.5746 12.175 39.1246 12.475 39.1246L12.45 39.1496Z" fill="#222631"/>
                </g>
                <g clip-path="url(#clip29_4916_14287)">
                    <path d="M10.2 38.6254C9.69998 38.6254 9.19998 39.1754 8.74998 39.8254L9.74998 37.1004L9.69998 37.0254L8.44998 37.1754V37.2754L8.69998 37.4754C8.92498 37.6504 8.84998 37.8004 8.64998 38.3254L7.54998 41.2254C7.46796 41.4028 7.40106 41.5868 7.34998 41.7754C7.34998 42.1254 7.79998 42.4504 8.22498 42.4504C9.17498 42.4504 10.725 40.7254 10.725 39.4004C10.725 38.8254 10.6 38.6004 10.2 38.6004V38.6254ZM8.54998 41.9004C8.34998 41.9004 8.07498 41.7254 8.07498 41.5754C8.12768 41.3873 8.19454 41.2034 8.27498 41.0254L8.59998 40.2004C8.92498 39.7754 9.44998 39.3504 9.74998 39.3504C9.92498 39.3504 10.05 39.4504 10.05 39.7254C10.05 40.5004 9.32498 41.9004 8.54998 41.9004Z" fill="#222631"/>
                </g>
                <g clip-path="url(#clip30_4916_14287)">
                    <path d="M7.04997 39C7.12497 38.75 6.94997 38.6 6.79997 38.6C6.24997 38.6 5.54997 39.125 5.29997 39.85H5.47497C5.65257 39.5632 5.92778 39.3501 6.24997 39.25L5.17497 42.075C5.15337 42.1173 5.1431 42.1645 5.14515 42.2119C5.14721 42.2594 5.16152 42.3055 5.1867 42.3458C5.21187 42.3861 5.24705 42.4192 5.28881 42.4418C5.33057 42.4644 5.37748 42.4759 5.42497 42.475C5.97497 42.475 6.59997 41.975 6.87497 41.225H6.64997C6.48774 41.526 6.22096 41.7572 5.89997 41.875L7.04997 39ZM7.14997 37.925C7.20907 37.925 7.26758 37.9134 7.32218 37.8907C7.37678 37.8681 7.42638 37.835 7.46817 37.7932C7.50996 37.7514 7.5431 37.7018 7.56572 37.6472C7.58833 37.5926 7.59997 37.5341 7.59997 37.475C7.60338 37.4138 7.59425 37.3526 7.57317 37.2951C7.55208 37.2376 7.51948 37.185 7.47735 37.1405C7.43522 37.096 7.38445 37.0606 7.32816 37.0365C7.27186 37.0123 7.21123 36.9999 7.14997 37C7.03062 37 6.91617 37.0474 6.83177 37.1318C6.74738 37.2162 6.69997 37.3307 6.69997 37.45C6.69997 37.5693 6.74738 37.6838 6.83177 37.7682C6.91617 37.8526 7.03062 37.9 7.14997 37.9" fill="#222631"/>
                </g>
                <g clip-path="url(#clip31_4916_14287)">
                    <path d="M4.4 37.3496H1.825L1.75 37.5746C2.5 37.7246 2.575 37.7996 2.25 38.7746L1.45 40.8996C1.075 41.8746 0.95 41.9496 0.075 42.0996L0 42.3496H3.925L4.8 40.8496H4.5C4 41.3496 3.45 42.0496 2.575 42.0496C1.9 42.0496 1.825 41.9246 2.175 40.9246L2.95 38.7996C3.3 37.8246 3.45 37.7496 4.325 37.5996L4.4 37.3496Z" fill="#222631"/>
                </g>
            </g>
        </g>
    </g>
    <defs>
        <clipPath id="clip0_4916_14287">
            <rect width="33" height="12" fill="white"/>
        </clipPath>
        <clipPath id="clip1_4916_14287">
            <rect width="33" height="13.5" fill="white" transform="translate(0 -0.75)"/>
        </clipPath>
        <clipPath id="clip2_4916_14287">
            <rect width="108.88" height="26.5" fill="white" transform="translate(0 33)"/>
        </clipPath>
        <clipPath id="clip3_4916_14287">
            <rect width="63" height="45" fill="white" transform="translate(0 37)"/>
        </clipPath>
        <clipPath id="clip4_4916_14287">
            <rect width="31.5" height="22.5" fill="white" transform="translate(0 37)"/>
        </clipPath>
        <clipPath id="clip5_4916_14287">
            <rect width="3.1" height="5.45" fill="white" transform="translate(28.175 53.5254)"/>
        </clipPath>
        <clipPath id="clip6_4916_14287">
            <rect width="2.75" height="3.875" fill="white" transform="translate(28.175 55.125)"/>
        </clipPath>
        <clipPath id="clip7_4916_14287">
            <rect width="2.875" height="4.75" fill="white" transform="translate(25.55 54.25)"/>
        </clipPath>
        <clipPath id="clip8_4916_14287">
            <rect width="2.45" height="5.475" fill="white" transform="translate(23.4 53.5254)"/>
        </clipPath>
        <clipPath id="clip9_4916_14287">
            <rect width="3.7" height="3.875" fill="white" transform="translate(19.3 55.125)"/>
        </clipPath>
        <clipPath id="clip10_4916_14287">
            <rect width="3" height="3.875" fill="white" transform="translate(16.425 55.125)"/>
        </clipPath>
        <clipPath id="clip11_4916_14287">
            <rect width="2.75" height="3.875" fill="white" transform="translate(13.575 55.125)"/>
        </clipPath>
        <clipPath id="clip12_4916_14287">
            <rect width="2.875" height="4.75" fill="white" transform="translate(10.925 54.25)"/>
        </clipPath>
        <clipPath id="clip13_4916_14287">
            <rect width="3.675" height="4.05" fill="white" transform="translate(7.22498 54.9502)"/>
        </clipPath>
        <clipPath id="clip14_4916_14287">
            <rect width="3" height="3.875" fill="white" transform="translate(4.90002 55.125)"/>
        </clipPath>
        <clipPath id="clip15_4916_14287">
            <rect width="5.475" height="4.95" fill="white" transform="translate(0 53.9004)"/>
        </clipPath>
        <clipPath id="clip16_4916_14287">
            <rect width="3.1" height="5.45" fill="white" transform="translate(19.325 45.2754)"/>
        </clipPath>
        <clipPath id="clip17_4916_14287">
            <rect width="2.75" height="3.875" fill="white" transform="translate(19.325 46.875)"/>
        </clipPath>
        <clipPath id="clip18_4916_14287">
            <rect width="2.875" height="4.75" fill="white" transform="translate(16.7 46)"/>
        </clipPath>
        <clipPath id="clip19_4916_14287">
            <rect width="2.45" height="5.475" fill="white" transform="translate(14.55 45.25)"/>
        </clipPath>
        <clipPath id="clip20_4916_14287">
            <rect width="2.525" height="5.475" fill="white" transform="translate(12.35 45.2754)"/>
        </clipPath>
        <clipPath id="clip21_4916_14287">
            <rect width="3.675" height="4.05" fill="white" transform="translate(8.72498 46.7002)"/>
        </clipPath>
        <clipPath id="clip22_4916_14287">
            <rect width="4.5" height="5.5" fill="white" transform="translate(4.65002 46.8496)"/>
        </clipPath>
        <clipPath id="clip23_4916_14287">
            <rect width="5.75" height="6.275" fill="white" transform="translate(0 44.3252)"/>
        </clipPath>
        <clipPath id="clip24_4916_14287">
            <rect width="3.1" height="5.45" fill="white" transform="translate(19.2 37.0254)"/>
        </clipPath>
        <clipPath id="clip25_4916_14287">
            <rect width="2.75" height="3.875" fill="white" transform="translate(19.2 38.625)"/>
        </clipPath>
        <clipPath id="clip26_4916_14287">
            <rect width="2.875" height="4.75" fill="white" transform="translate(16.55 37.7246)"/>
        </clipPath>
        <clipPath id="clip27_4916_14287">
            <rect width="3" height="3.875" fill="white" transform="translate(13.7 38.625)"/>
        </clipPath>
        <clipPath id="clip28_4916_14287">
            <rect width="2.75" height="3.875" fill="white" transform="translate(10.85 38.5996)"/>
        </clipPath>
        <clipPath id="clip29_4916_14287">
            <rect width="3.4" height="5.45" fill="white" transform="translate(7.34998 37.0254)"/>
        </clipPath>
        <clipPath id="clip30_4916_14287">
            <rect width="2.45" height="5.475" fill="white" transform="translate(5.15002 37)"/>
        </clipPath>
        <clipPath id="clip31_4916_14287">
            <rect width="4.8" height="4.975" fill="white" transform="translate(0 37.3496)"/>
        </clipPath>
    </defs>
</svg>
