<svg width="300" height="300" viewBox="0 0 300 300" fill="none" xmlns="http://www.w3.org/2000/svg">
    <rect width="300" height="300" fill="white"/>
    <path fill-rule="evenodd" clip-rule="evenodd" d="M226.609 294.14C226.609 294.949 192.407 295.605 150.218 295.605C108.029 295.605 73.8281 294.949 73.8281 294.14C73.8281 293.331 108.029 292.676 150.218 292.676C192.407 292.676 226.609 293.331 226.609 294.14Z" fill="#DFE2EA"/>
    <path fill-rule="evenodd" clip-rule="evenodd" d="M115.57 113.042L111.781 121.129L111.063 145.606L113.256 151.215C113.256 151.215 113.589 152.659 113.776 154.365C113.961 156.072 114.032 157.11 115.162 159.671C115.949 161.455 113.402 160.922 112.679 159.925C111.934 158.897 111.557 154.683 110.33 155.517C109.104 156.35 108.734 160.592 109.008 164.597C109.051 165.226 108.614 165.739 108.302 165.92C107.799 166.21 107.068 163.773 107.057 163.735C107.051 163.753 106.782 164.602 105.984 164.242C105.698 164.112 104.848 162.427 104.848 162.427C104.836 162.412 104.186 161.587 103.843 160.668C103.231 159.03 102.731 155.99 102.849 155.097C103.127 152.991 103.753 149.437 104.575 147.469C104.09 142.41 102.228 122.101 103.255 118.242C104.43 113.828 106.734 107.845 106.734 107.845L115.57 113.042ZM180.774 93.0615C180.774 93.0615 182.206 93.4857 183.592 94.2109C184.829 94.858 186.002 95.791 186.515 96.1553C187.248 96.6802 185.114 104.71 183.592 106.155C182.547 107.147 179.465 107.916 177.637 108.301C174.145 113.941 164.837 128.033 159.695 126.87C154.353 125.661 149.397 106.989 149.397 106.989L158.407 102.601L162.33 114.691L172.289 104.684C172.096 102.789 172.02 100.522 172.622 99.71C173.725 98.2231 179.166 93.7351 179.19 93.7158L179.481 97.4746L180.774 93.0615ZM141.602 82.5527C141.602 82.5527 143.961 84.2204 145.724 87.2021C148.136 91.2814 146.875 94.8008 143.164 94.8066C139.191 94.8134 134.631 93.4609 132.709 87.4434C131.737 84.3995 130.819 82.0322 130.819 82.0322L141.602 82.5527Z" fill="#EAC7B2"/>
    <path fill-rule="evenodd" clip-rule="evenodd" d="M183.761 94.3255C182.948 93.859 182.173 93.5099 181.794 93.5984C181.13 93.7533 182.345 95.4947 183.231 96.6414L183.221 96.6851C181.791 97.2608 179.916 98.1144 179.614 98.7393C179.404 99.1757 180.226 99.3183 181.244 99.3375C180.307 99.7871 179.489 100.273 179.299 100.668C179.055 101.173 180.196 101.284 181.424 101.266C180.34 101.761 179.324 102.323 179.109 102.769C178.835 103.337 180.313 103.407 181.695 103.355L181.34 104.908C181.231 105.384 180.798 105.714 180.31 105.693L175.006 105.461C174.375 105.434 173.924 104.841 174.064 104.225L177.822 87.8018C177.931 87.3257 178.364 86.9952 178.852 87.0166L184.156 87.2483C184.787 87.2762 185.238 87.8689 185.098 88.4847L183.761 94.3255Z" fill="#1B1C1E"/>
    <path d="M184.842 94.9911C183.717 94.2572 182.343 93.4699 181.794 93.5979C181.124 93.7542 182.367 95.5252 183.255 96.6712C181.82 97.2469 179.918 98.109 179.614 98.7388C179.404 99.1752 180.226 99.3178 181.245 99.337C180.307 99.7866 179.489 100.273 179.299 100.667C179.055 101.172 180.196 101.284 181.424 101.266C180.34 101.761 179.324 102.323 179.109 102.768C178.746 103.521 181.456 103.4 182.946 103.279L182.561 104.961C182.453 105.437 182.019 105.767 181.531 105.746L176.228 105.514C175.597 105.487 175.145 104.894 175.286 104.278L179.043 87.8545C179.152 87.3784 179.586 87.0482 180.074 87.0693L185.377 87.3011C186.008 87.3289 186.46 87.9219 186.319 88.5374L184.842 94.9911Z" fill="#C6C6C6"/>
    <path fill-rule="evenodd" clip-rule="evenodd" d="M180.411 89.2462C180.287 89.7844 179.97 90.1667 179.702 90.0996C179.434 90.0325 179.317 89.5418 179.44 89.0036C179.564 88.4652 179.882 88.0831 180.149 88.1502C180.417 88.2173 180.535 88.708 180.411 89.2462Z" fill="#1B1C1E"/>
    <path fill-rule="evenodd" clip-rule="evenodd" d="M179.791 92.0314C179.667 92.5696 179.35 92.9519 179.082 92.8848C178.814 92.8177 178.697 92.327 178.82 91.7888C178.944 91.2503 179.261 90.8683 179.529 90.9354C179.797 91.0025 179.914 91.4932 179.791 92.0314Z" fill="#1B1C1E"/>
    <path d="M134.373 82.204L130.819 82.0325C130.819 82.0325 131.737 84.3997 132.709 87.4437C134.632 93.4612 139.191 94.8136 143.164 94.8068C146.875 94.801 148.136 91.2816 145.724 87.2023C144.172 84.5759 142.156 82.9691 141.698 82.6233C146.384 82.9401 149.302 83.5285 152.004 86.0629C157.149 90.8884 161.315 99.7841 163.028 108.573L153.626 112.768L150.277 125.708L125.672 125.333C125.672 125.333 125.888 122.963 125.357 119.538C124.666 115.058 122.171 111.716 122.171 111.716L119.696 115.477L104.305 106.404C109.344 97.2156 116.372 87.7416 121.058 84.727C124.369 82.5964 127.4 82.0616 130.362 82.0325C131.708 82.0193 133.061 82.1109 134.373 82.204Z" fill="#C7404A"/>
    <path opacity="0.202962" d="M150.387 125.933C151.327 113.996 157.539 111.18 152.852 97.793" stroke="#1B1C1E" stroke-width="0.878906"/>
    <path opacity="0.202055" d="M141.602 82.5525C141.602 82.5525 143.962 84.2201 145.724 87.202C148.136 91.2812 146.875 94.8007 143.164 94.8065C139.191 94.8133 134.632 93.4609 132.709 87.4434C131.737 84.3994 130.819 82.0322 130.819 82.0322" stroke="#1B1C1E" stroke-width="0.878906"/>
    <path opacity="0.202962" d="M128.49 103.359L122.781 112.009" stroke="#1B1C1E" stroke-width="0.878906"/>
    <path d="M166.559 285.203C166.61 285.217 179.987 288.731 185.022 293.952L160.874 293.996L161.53 285.049L166.559 285.203ZM133.671 293.868H116.673C120.384 286.569 125.753 285.232 125.779 285.226L132.909 284.868L133.671 293.868Z" fill="#404859"/>
    <path d="M132.677 286.412L131.004 286.105C129.545 287.635 126.732 289.848 122.624 289.93C118.886 290.004 125.718 285.314 126.907 284.516L119.807 205.387L138.463 196.744L132.677 286.412ZM160.243 207.601C160.249 207.665 161.929 225.225 163.857 244.407C166.011 265.827 168.346 281.771 168.898 285.436L178.516 289.61C172.622 290.256 166.703 287.791 163.65 286.234H161.744L144.197 208.35L160.243 207.601Z" fill="#EAC7B2"/>
    <path d="M126.65 125.098C126.65 125.098 121.678 127.475 117.351 140.381C111.56 157.654 109.863 209.972 109.863 209.972H165.625L151.255 125.473L126.65 125.098Z" fill="#404859"/>
    <path d="M138.891 75.5351C138.95 75.8853 138.981 76.2453 138.981 76.6126C138.981 76.6219 138.981 76.6313 138.981 76.6407C142.157 80.0525 143.833 84.813 143.135 89.7601C141.908 98.4595 133.786 104.573 125.087 103.346L109.836 101.194C101.137 99.9671 95.0231 91.8455 96.2506 83.1461C97.1152 77.0171 101.402 72.1716 106.902 70.2724C105.405 68.0193 104.693 65.2347 105.098 62.3622C105.841 57.0959 110.113 53.153 115.18 52.5911C114.766 51.2257 114.634 49.7535 114.846 48.2542H114.846C115.626 42.7233 120.79 38.8362 126.321 39.6166C127.727 39.815 129.027 40.2968 130.171 40.9959C133.371 39.153 137.167 38.0859 141.236 38.0859C152.662 38.0859 161.923 46.4959 161.923 56.8702C161.923 67.2445 152.662 75.6545 141.236 75.6545C140.443 75.6545 139.66 75.614 138.891 75.5351Z" fill="#3B4252"/>
    <path d="M135.181 70.7765C133.204 69.05 129.955 68.2038 129.951 65.2207C129.949 64.1727 130.562 62.3581 132.824 62.3548C135.691 62.3504 135.465 65.594 135.431 65.9551L135.427 65.9734L135.429 65.9737C135.428 65.9829 135.427 65.9877 135.427 65.9877C135.753 66.1144 136.08 66.1251 136.406 66.0384C138.73 66.0647 144.636 65.3598 147.928 58.0117C148.622 58.7415 149.404 59.3822 150.252 59.9224C152.701 61.4765 155.72 62.1976 158.808 61.8388C158.618 65.5499 157.53 74.9701 152.832 78.0946C150.901 79.379 147.385 79.5372 144.389 79.3643L143.702 87.873C143.702 87.873 134.552 83.8848 134.175 82.7969C136.937 82.0965 138.981 79.5934 138.981 76.613C138.981 74.0077 137.419 71.767 135.181 70.7765Z" fill="#EAC7B2"/>
    <path opacity="0.401762" fill-rule="evenodd" clip-rule="evenodd" d="M144.382 79.364C144.382 79.364 140.594 79.4759 138.979 78.5938L144.181 81.8595L144.382 79.364Z" fill="#3B4252"/>
    <path d="M191.739 64.4097C191.832 64.8293 192.076 65.0391 192.472 65.0391C192.868 65.0391 193.101 64.8293 193.171 64.4097C193.45 62.9413 193.695 61.7991 193.904 60.9833C194.137 60.1442 194.452 59.5149 194.847 59.0953C195.267 58.6524 195.895 58.3144 196.734 58.0814C197.595 57.8483 198.783 57.5802 200.296 57.2772C200.739 57.184 200.96 56.9392 200.96 56.543C200.96 56.1467 200.739 55.902 200.296 55.8087C198.783 55.5057 197.607 55.226 196.768 54.9696C195.953 54.7132 195.336 54.3752 194.917 53.9557C194.521 53.5361 194.207 52.9184 193.974 52.1026C193.765 51.2635 193.497 50.1214 193.171 48.6762C193.101 48.2567 192.868 48.0469 192.472 48.0469C192.076 48.0469 191.832 48.2567 191.739 48.6762C191.436 50.1214 191.168 51.2635 190.935 52.1026C190.726 52.9184 190.411 53.5361 189.992 53.9557C189.596 54.3752 188.979 54.7132 188.141 54.9696C187.326 55.226 186.162 55.5057 184.648 55.8087C184.206 55.902 183.984 56.1467 183.984 56.543C183.984 56.9392 184.206 57.184 184.648 57.2772C186.162 57.5802 187.338 57.8599 188.176 58.1163C189.014 58.3494 189.643 58.6874 190.062 59.1303C190.481 59.5498 190.796 60.1675 191.005 60.9833C191.215 61.7991 191.459 62.9413 191.739 64.4097Z" fill="#3E5DE7"/>
    <path d="M191.739 64.4097C191.832 64.8293 192.076 65.0391 192.472 65.0391C192.868 65.0391 193.101 64.8293 193.171 64.4097C193.45 62.9413 193.695 61.7991 193.904 60.9833C194.137 60.1442 194.452 59.5149 194.847 59.0953C195.267 58.6524 195.895 58.3144 196.734 58.0814C197.595 57.8483 198.783 57.5802 200.296 57.2772C200.739 57.184 200.96 56.9392 200.96 56.543C200.96 56.1467 200.739 55.902 200.296 55.8087C198.783 55.5057 197.607 55.226 196.768 54.9696C195.953 54.7132 195.336 54.3752 194.917 53.9557C194.521 53.5361 194.207 52.9184 193.974 52.1026C193.765 51.2635 193.497 50.1214 193.171 48.6762C193.101 48.2567 192.868 48.0469 192.472 48.0469C192.076 48.0469 191.832 48.2567 191.739 48.6762C191.436 50.1214 191.168 51.2635 190.935 52.1026C190.726 52.9184 190.411 53.5361 189.992 53.9557C189.596 54.3752 188.979 54.7132 188.141 54.9696C187.326 55.226 186.162 55.5057 184.648 55.8087C184.206 55.902 183.984 56.1467 183.984 56.543C183.984 56.9392 184.206 57.184 184.648 57.2772C186.162 57.5802 187.338 57.8599 188.176 58.1163C189.014 58.3494 189.643 58.6874 190.062 59.1303C190.481 59.5498 190.796 60.1675 191.005 60.9833C191.215 61.7991 191.459 62.9413 191.739 64.4097Z" fill="#F6F8F9" fill-opacity="0.8"/>
    <path d="M179.957 72.5152C180.021 72.8045 180.19 72.9492 180.463 72.9492C180.736 72.9492 180.897 72.8045 180.945 72.5152C181.138 71.5025 181.306 70.7148 181.451 70.1522C181.611 69.5734 181.828 69.1394 182.101 68.8501C182.39 68.5446 182.824 68.3116 183.402 68.1508C183.996 67.99 184.815 67.8052 185.859 67.5962C186.164 67.5319 186.317 67.3631 186.317 67.0898C186.317 66.8166 186.164 66.6478 185.859 66.5835C184.815 66.3745 184.004 66.1816 183.426 66.0048C182.864 65.8279 182.438 65.5949 182.149 65.3055C181.876 65.0162 181.659 64.5902 181.499 64.0275C181.354 63.4488 181.17 62.6612 180.945 61.6645C180.897 61.3751 180.736 61.2305 180.463 61.2305C180.19 61.2305 180.021 61.3751 179.957 61.6645C179.748 62.6612 179.564 63.4488 179.403 64.0275C179.259 64.5902 179.042 65.0162 178.753 65.3055C178.48 65.5949 178.054 65.8279 177.476 66.0048C176.914 66.1816 176.111 66.3745 175.067 66.5835C174.762 66.6478 174.609 66.8166 174.609 67.0898C174.609 67.3631 174.762 67.5319 175.067 67.5962C176.111 67.8052 176.922 67.9981 177.5 68.1749C178.078 68.3357 178.512 68.5688 178.801 68.8742C179.09 69.1635 179.307 69.5895 179.451 70.1522C179.596 70.7148 179.764 71.5025 179.957 72.5152Z" fill="#3E5DE7"/>
    <path d="M179.957 72.5152C180.021 72.8045 180.19 72.9492 180.463 72.9492C180.736 72.9492 180.897 72.8045 180.945 72.5152C181.138 71.5025 181.306 70.7148 181.451 70.1522C181.611 69.5734 181.828 69.1394 182.101 68.8501C182.39 68.5446 182.824 68.3116 183.402 68.1508C183.996 67.99 184.815 67.8052 185.859 67.5962C186.164 67.5319 186.317 67.3631 186.317 67.0898C186.317 66.8166 186.164 66.6478 185.859 66.5835C184.815 66.3745 184.004 66.1816 183.426 66.0048C182.864 65.8279 182.438 65.5949 182.149 65.3055C181.876 65.0162 181.659 64.5902 181.499 64.0275C181.354 63.4488 181.17 62.6612 180.945 61.6645C180.897 61.3751 180.736 61.2305 180.463 61.2305C180.19 61.2305 180.021 61.3751 179.957 61.6645C179.748 62.6612 179.564 63.4488 179.403 64.0275C179.259 64.5902 179.042 65.0162 178.753 65.3055C178.48 65.5949 178.054 65.8279 177.476 66.0048C176.914 66.1816 176.111 66.3745 175.067 66.5835C174.762 66.6478 174.609 66.8166 174.609 67.0898C174.609 67.3631 174.762 67.5319 175.067 67.5962C176.111 67.8052 176.922 67.9981 177.5 68.1749C178.078 68.3357 178.512 68.5688 178.801 68.8742C179.09 69.1635 179.307 69.5895 179.451 70.1522C179.596 70.7148 179.764 71.5025 179.957 72.5152Z" fill="#F6F8F9" fill-opacity="0.8"/>
    <path d="M189.976 78.8628C190.013 79.022 190.11 79.1016 190.267 79.1016C190.424 79.1016 190.517 79.022 190.544 78.8628C190.655 78.3058 190.752 77.8726 190.835 77.5632C190.927 77.2449 191.052 77.0062 191.209 76.847C191.375 76.679 191.625 76.5508 191.957 76.4624C192.299 76.374 192.77 76.2723 193.37 76.1574C193.545 76.122 193.633 76.0292 193.633 75.8789C193.633 75.7286 193.545 75.6358 193.37 75.6004C192.77 75.4855 192.303 75.3794 191.971 75.2821C191.648 75.1849 191.403 75.0567 191.237 74.8975C191.08 74.7384 190.955 74.5041 190.863 74.1946C190.78 73.8764 190.674 73.4431 190.544 72.895C190.517 72.7358 190.424 72.6562 190.267 72.6562C190.11 72.6562 190.013 72.7358 189.976 72.895C189.856 73.4431 189.75 73.8764 189.658 74.1946C189.575 74.5041 189.45 74.7384 189.284 74.8975C189.127 75.0567 188.882 75.1849 188.55 75.2821C188.226 75.3794 187.765 75.4855 187.165 75.6004C186.989 75.6358 186.901 75.7286 186.901 75.8789C186.901 76.0292 186.989 76.122 187.165 76.1574C187.765 76.2723 188.231 76.3784 188.564 76.4757C188.896 76.5641 189.145 76.6923 189.311 76.8603C189.478 77.0194 189.602 77.2537 189.685 77.5632C189.769 77.8726 189.866 78.3058 189.976 78.8628Z" fill="#3E5DE7"/>
    <path d="M189.976 78.8628C190.013 79.022 190.11 79.1016 190.267 79.1016C190.424 79.1016 190.517 79.022 190.544 78.8628C190.655 78.3058 190.752 77.8726 190.835 77.5632C190.927 77.2449 191.052 77.0062 191.209 76.847C191.375 76.679 191.625 76.5508 191.957 76.4624C192.299 76.374 192.77 76.2723 193.37 76.1574C193.545 76.122 193.633 76.0292 193.633 75.8789C193.633 75.7286 193.545 75.6358 193.37 75.6004C192.77 75.4855 192.303 75.3794 191.971 75.2821C191.648 75.1849 191.403 75.0567 191.237 74.8975C191.08 74.7384 190.955 74.5041 190.863 74.1946C190.78 73.8764 190.674 73.4431 190.544 72.895C190.517 72.7358 190.424 72.6562 190.267 72.6562C190.11 72.6562 190.013 72.7358 189.976 72.895C189.856 73.4431 189.75 73.8764 189.658 74.1946C189.575 74.5041 189.45 74.7384 189.284 74.8975C189.127 75.0567 188.882 75.1849 188.55 75.2821C188.226 75.3794 187.765 75.4855 187.165 75.6004C186.989 75.6358 186.901 75.7286 186.901 75.8789C186.901 76.0292 186.989 76.122 187.165 76.1574C187.765 76.2723 188.231 76.3784 188.564 76.4757C188.896 76.5641 189.145 76.6923 189.311 76.8603C189.478 77.0194 189.602 77.2537 189.685 77.5632C189.769 77.8726 189.866 78.3058 189.976 78.8628Z" fill="#F6F8F9" fill-opacity="0.8"/>
    <g filter="url(#filter0_d_4930_19050)">
        <rect x="198.03" y="64.2789" width="21.2125" height="28.5578" rx="3.77101" fill="white"/>
        <rect x="198.03" y="64.2789" width="21.2125" height="28.5578" rx="3.77101" fill="#F6F8F9" fill-opacity="0.5"/>
        <rect x="198.03" y="64.2789" width="21.2125" height="28.5578" rx="3.77101" stroke="#4C6CEF" stroke-width="0.823479"/>
        <rect x="198.03" y="64.2789" width="21.2125" height="28.5578" rx="3.77101" stroke="#F6F8F9" stroke-opacity="0.8" stroke-width="0.823479"/>
        <path fill-rule="evenodd" clip-rule="evenodd" d="M200.883 69.1726C200.883 68.7218 201.249 68.3564 201.699 68.3564H215.522C215.973 68.3564 216.338 68.7218 216.338 69.1726C216.338 69.6233 215.973 69.9887 215.522 69.9887H201.699C201.249 69.9887 200.883 69.6233 200.883 69.1726ZM200.883 71.621C200.883 71.1703 201.249 70.8049 201.699 70.8049H215.522C215.973 70.8049 216.338 71.1703 216.338 71.621C216.338 72.0718 215.973 72.4372 215.522 72.4372H201.699C201.249 72.4372 200.883 72.0718 200.883 71.621ZM200.883 74.0695C200.883 73.6187 201.249 73.2533 201.699 73.2533H215.522C215.973 73.2533 216.338 73.6187 216.338 74.0695C216.338 74.5202 215.973 74.8856 215.522 74.8856H201.699C201.249 74.8856 200.883 74.5202 200.883 74.0695ZM200.883 76.5179C200.883 76.0672 201.249 75.7018 201.699 75.7018H208.177C208.628 75.7018 208.993 76.0672 208.993 76.5179C208.993 76.9687 208.628 77.3341 208.177 77.3341H201.699C201.249 77.3341 200.883 76.9687 200.883 76.5179Z" fill="#6A6AF4"/>
        <path fill-rule="evenodd" clip-rule="evenodd" d="M200.883 69.1726C200.883 68.7218 201.249 68.3564 201.699 68.3564H215.522C215.973 68.3564 216.338 68.7218 216.338 69.1726C216.338 69.6233 215.973 69.9887 215.522 69.9887H201.699C201.249 69.9887 200.883 69.6233 200.883 69.1726ZM200.883 71.621C200.883 71.1703 201.249 70.8049 201.699 70.8049H215.522C215.973 70.8049 216.338 71.1703 216.338 71.621C216.338 72.0718 215.973 72.4372 215.522 72.4372H201.699C201.249 72.4372 200.883 72.0718 200.883 71.621ZM200.883 74.0695C200.883 73.6187 201.249 73.2533 201.699 73.2533H215.522C215.973 73.2533 216.338 73.6187 216.338 74.0695C216.338 74.5202 215.973 74.8856 215.522 74.8856H201.699C201.249 74.8856 200.883 74.5202 200.883 74.0695ZM200.883 76.5179C200.883 76.0672 201.249 75.7018 201.699 75.7018H208.177C208.628 75.7018 208.993 76.0672 208.993 76.5179C208.993 76.9687 208.628 77.3341 208.177 77.3341H201.699C201.249 77.3341 200.883 76.9687 200.883 76.5179Z" fill="white" fill-opacity="0.65"/>
        <path fill-rule="evenodd" clip-rule="evenodd" d="M200.883 69.1726C200.883 68.7218 201.249 68.3564 201.699 68.3564H215.522C215.973 68.3564 216.338 68.7218 216.338 69.1726C216.338 69.6233 215.973 69.9887 215.522 69.9887H201.699C201.249 69.9887 200.883 69.6233 200.883 69.1726ZM200.883 71.621C200.883 71.1703 201.249 70.8049 201.699 70.8049H215.522C215.973 70.8049 216.338 71.1703 216.338 71.621C216.338 72.0718 215.973 72.4372 215.522 72.4372H201.699C201.249 72.4372 200.883 72.0718 200.883 71.621ZM200.883 74.0695C200.883 73.6187 201.249 73.2533 201.699 73.2533H215.522C215.973 73.2533 216.338 73.6187 216.338 74.0695C216.338 74.5202 215.973 74.8856 215.522 74.8856H201.699C201.249 74.8856 200.883 74.5202 200.883 74.0695ZM200.883 76.5179C200.883 76.0672 201.249 75.7018 201.699 75.7018H208.177C208.628 75.7018 208.993 76.0672 208.993 76.5179C208.993 76.9687 208.628 77.3341 208.177 77.3341H201.699C201.249 77.3341 200.883 76.9687 200.883 76.5179Z" fill="#4C6CEF"/>
        <path fill-rule="evenodd" clip-rule="evenodd" d="M200.883 69.1726C200.883 68.7218 201.249 68.3564 201.699 68.3564H215.522C215.973 68.3564 216.338 68.7218 216.338 69.1726C216.338 69.6233 215.973 69.9887 215.522 69.9887H201.699C201.249 69.9887 200.883 69.6233 200.883 69.1726ZM200.883 71.621C200.883 71.1703 201.249 70.8049 201.699 70.8049H215.522C215.973 70.8049 216.338 71.1703 216.338 71.621C216.338 72.0718 215.973 72.4372 215.522 72.4372H201.699C201.249 72.4372 200.883 72.0718 200.883 71.621ZM200.883 74.0695C200.883 73.6187 201.249 73.2533 201.699 73.2533H215.522C215.973 73.2533 216.338 73.6187 216.338 74.0695C216.338 74.5202 215.973 74.8856 215.522 74.8856H201.699C201.249 74.8856 200.883 74.5202 200.883 74.0695ZM200.883 76.5179C200.883 76.0672 201.249 75.7018 201.699 75.7018H208.177C208.628 75.7018 208.993 76.0672 208.993 76.5179C208.993 76.9687 208.628 77.3341 208.177 77.3341H201.699C201.249 77.3341 200.883 76.9687 200.883 76.5179Z" fill="#F6F8F9" fill-opacity="0.8"/>
        <circle cx="219.141" cy="64.1602" r="7.03125" fill="#FBFBFC"/>
        <path d="M219.147 70.4102C218.288 70.4102 217.482 70.2443 216.729 69.9126C215.976 69.589 215.312 69.1399 214.737 68.5655C214.162 67.9911 213.709 67.3276 213.377 66.5752C213.053 65.8228 212.891 65.0178 212.891 64.1602C212.891 63.3106 213.053 62.5097 213.377 61.7572C213.709 60.9967 214.162 60.3293 214.737 59.7548C215.312 59.1804 215.972 58.7314 216.717 58.4077C217.47 58.076 218.276 57.9102 219.135 57.9102C219.985 57.9102 220.787 58.076 221.54 58.4077C222.301 58.7314 222.969 59.1804 223.544 59.7548C224.119 60.3293 224.569 60.9967 224.893 61.7572C225.225 62.5097 225.391 63.3106 225.391 64.1602C225.391 65.0178 225.225 65.8228 224.893 66.5752C224.569 67.3276 224.119 67.9911 223.544 68.5655C222.977 69.1399 222.313 69.589 221.552 69.9126C220.799 70.2443 219.997 70.4102 219.147 70.4102ZM219.147 68.8204C220.005 68.8204 220.787 68.61 221.491 68.1893C222.196 67.7767 222.755 67.2184 223.168 66.5145C223.589 65.8106 223.799 65.0259 223.799 64.1602C223.799 63.3026 223.589 62.5218 223.168 61.8179C222.755 61.114 222.196 60.5517 221.491 60.131C220.787 59.7103 220.001 59.5 219.135 59.5C218.276 59.5 217.495 59.7103 216.79 60.131C216.094 60.5517 215.535 61.114 215.114 61.8179C214.701 62.5218 214.494 63.3026 214.494 64.1602C214.494 65.0259 214.701 65.8106 215.114 66.5145C215.535 67.2184 216.094 67.7767 216.79 68.1893C217.495 68.61 218.28 68.8204 219.147 68.8204ZM219.135 67.7281C218.487 67.7281 217.891 67.5663 217.349 67.2427C216.814 66.9191 216.385 66.4862 216.061 65.9441C215.737 65.4102 215.575 64.8195 215.575 64.1723C215.575 63.517 215.737 62.9182 216.061 62.3762C216.385 61.8341 216.814 61.4053 217.349 61.0898C217.891 60.7661 218.487 60.6043 219.135 60.6043C219.782 60.6043 220.378 60.7661 220.92 61.0898C221.463 61.4053 221.896 61.8341 222.22 62.3762C222.544 62.9182 222.706 63.517 222.706 64.1723C222.706 64.8195 222.544 65.4102 222.22 65.9441C221.904 66.4862 221.475 66.9191 220.932 67.2427C220.39 67.5663 219.791 67.7281 219.135 67.7281Z" fill="#C83F49"/>
    </g>
    <defs>
        <filter id="filter0_d_4930_19050" x="189.24" y="54.7761" width="41.6378" height="45.5303" filterUnits="userSpaceOnUse" color-interpolation-filters="sRGB">
            <feFlood flood-opacity="0" result="BackgroundImageFix"/>
            <feColorMatrix in="SourceAlpha" type="matrix" values="0 0 0 0 0 0 0 0 0 0 0 0 0 0 0 0 0 0 127 0" result="hardAlpha"/>
            <feOffset dy="2.3528"/>
            <feGaussianBlur stdDeviation="2.3528"/>
            <feComposite in2="hardAlpha" operator="out"/>
            <feColorMatrix type="matrix" values="0 0 0 0 0.0941176 0 0 0 0 0.105882 0 0 0 0 0.141176 0 0 0 0.05 0"/>
            <feBlend mode="normal" in2="BackgroundImageFix" result="effect1_dropShadow_4930_19050"/>
            <feBlend mode="normal" in="SourceGraphic" in2="effect1_dropShadow_4930_19050" result="shape"/>
        </filter>
    </defs>
</svg>
