<svg width="116" height="109" viewBox="0 0 116 109" fill="none" xmlns="http://www.w3.org/2000/svg">
    <path fill-rule="evenodd" clip-rule="evenodd"
          d="M90.4629 89.5859C91.6894 89.586 92.7394 89.8774 93.6133 90.46C94.5025 91.0272 95.1848 91.7859 95.6602 92.7363C96.1508 93.6717 96.3965 94.7071 96.3965 95.8418C96.3965 96.685 96.2584 97.4822 95.9824 98.2334C95.7064 98.9847 95.3075 99.6517 94.7861 100.234C94.2802 100.817 93.6596 101.277 92.9238 101.614C92.2033 101.936 91.3827 102.098 90.4629 102.098C89.6657 102.098 88.96 101.968 88.3467 101.707C87.7335 101.446 87.1891 101.071 86.7139 100.58C86.6888 100.553 86.6447 100.57 86.6445 100.606V106.976C86.6445 107.087 86.6447 107.144 86.623 107.187C86.6039 107.224 86.5728 107.255 86.5352 107.274C86.4924 107.296 86.436 107.296 86.3242 107.296H84.458C84.3462 107.296 84.2898 107.296 84.2471 107.274C84.2094 107.255 84.1784 107.224 84.1592 107.187C84.1375 107.144 84.1377 107.087 84.1377 106.976V90.3662C84.1377 90.2544 84.1375 90.198 84.1592 90.1553C84.1784 90.1176 84.2094 90.0866 84.2471 90.0674C84.2898 90.0457 84.3462 90.0459 84.458 90.0459H86.3242C86.436 90.0459 86.4924 90.0457 86.5352 90.0674C86.5728 90.0866 86.6039 90.1176 86.623 90.1553C86.6447 90.198 86.6445 90.2544 86.6445 90.3662V91.0762C86.6445 91.1126 86.6886 91.1297 86.7139 91.1035C87.1891 90.613 87.7335 90.2372 88.3467 89.9766C88.96 89.7159 89.6656 89.5859 90.4629 89.5859ZM90.1406 91.9551C89.42 91.9551 88.753 92.1236 88.1396 92.4609C87.68 92.7085 87.2747 93.0515 86.9238 93.4893C86.8418 93.5916 86.8002 93.6429 86.7539 93.7334C86.7188 93.8022 86.6806 93.9117 86.665 93.9873C86.6446 94.0869 86.6445 94.1752 86.6445 94.3516V97.3311C86.6445 97.5075 86.6448 97.5962 86.665 97.6953C86.6806 97.771 86.718 97.8795 86.7529 97.9482C86.7987 98.0383 86.8402 98.0904 86.9229 98.1943C87.2739 98.6358 87.6795 98.9865 88.1396 99.2461C88.7529 99.568 89.4201 99.7285 90.1406 99.7285C90.8766 99.7285 91.5132 99.56 92.0498 99.2227C92.6017 98.87 93.0232 98.4019 93.3145 97.8193C93.621 97.2368 93.7744 96.5776 93.7744 95.8418C93.7744 95.1058 93.6211 94.4459 93.3145 93.8633C93.0231 93.2808 92.6017 92.8207 92.0498 92.4834C91.5132 92.1307 90.8766 91.9551 90.1406 91.9551Z"
          fill="#2845C1"/>
    <path d="M51.6904 89.5859C52.5491 89.5859 53.3389 89.7697 54.0596 90.1377C54.69 90.4529 55.2025 90.8358 55.5967 91.2861C55.6603 91.3588 55.6924 91.3957 55.7041 91.4424C55.7138 91.4813 55.7103 91.5282 55.6953 91.5654C55.6773 91.6101 55.6374 91.6445 55.5586 91.7129L54.3223 92.7852C54.2311 92.8642 54.1853 92.9035 54.1387 92.915C54.0956 92.9257 54.0568 92.9229 54.0156 92.9062C53.9711 92.8882 53.928 92.8387 53.8428 92.7402C53.6012 92.4612 53.3284 92.2222 53.0244 92.0234C52.6259 91.7629 52.189 91.6329 51.7139 91.6328C51.3767 91.6328 51.0851 91.6938 50.8398 91.8164C50.6098 91.9391 50.4332 92.1005 50.3105 92.2998C50.1879 92.4991 50.127 92.7215 50.127 92.9668C50.127 93.3348 50.265 93.6414 50.541 93.8867C50.817 94.1166 51.1695 94.3158 51.5986 94.4844C52.028 94.653 52.4807 94.8378 52.9561 95.0371C53.4311 95.2211 53.8834 95.4507 54.3125 95.7266C54.7418 95.9872 55.0951 96.3405 55.3711 96.7852C55.6469 97.2144 55.7842 97.7589 55.7842 98.418C55.7688 99.1998 55.5779 99.867 55.21 100.419C54.842 100.956 54.3506 101.37 53.7373 101.661C53.1242 101.952 52.4496 102.098 51.7139 102.098C50.7172 102.098 49.8503 101.914 49.1143 101.546C48.4703 101.21 47.8966 100.775 47.3936 100.24C47.3213 100.163 47.2847 100.124 47.2715 100.077C47.2602 100.037 47.2623 99.9902 47.2773 99.9512C47.295 99.9054 47.3371 99.8688 47.4199 99.7959L48.6514 98.7119C48.7404 98.6335 48.7854 98.5939 48.832 98.582C48.8744 98.5713 48.9144 98.5737 48.9551 98.5898C48.9997 98.6076 49.0414 98.6547 49.124 98.749C49.4358 99.1049 49.7776 99.4012 50.1494 99.6367C50.6094 99.9127 51.1232 100.051 51.6904 100.051C52.2271 100.051 52.6413 99.9127 52.9326 99.6367C53.2239 99.3455 53.37 98.9929 53.3701 98.5791C53.3701 98.196 53.2317 97.8891 52.9561 97.6592C52.6801 97.4292 52.3268 97.2292 51.8975 97.0605C51.4682 96.8919 51.0082 96.7152 50.5176 96.5312C50.0423 96.3319 49.5894 96.0943 49.1602 95.8184C48.731 95.5424 48.3784 95.1818 48.1025 94.7373C47.842 94.2927 47.7119 93.7331 47.7119 93.0586C47.7119 92.3994 47.8805 91.8093 48.2178 91.2881C48.5551 90.7668 49.0231 90.3526 49.6211 90.0459C50.2343 89.7394 50.924 89.586 51.6904 89.5859Z"
          fill="#2845C1"/>
    <path d="M63.3574 89.5859C64.4153 89.5859 65.3586 89.8002 66.1865 90.2295C66.9307 90.5948 67.5561 91.0794 68.0615 91.6836C68.1284 91.7636 68.1615 91.8043 68.1719 91.8525C68.1806 91.8934 68.1757 91.9406 68.1582 91.9785C68.1375 92.0232 68.0941 92.0571 68.0068 92.124L66.5449 93.2441C66.452 93.3154 66.4058 93.3512 66.3604 93.3604C66.3176 93.3689 66.2812 93.365 66.2412 93.3477C66.1987 93.3291 66.1566 93.2805 66.0732 93.1826C65.7976 92.8588 65.4599 92.5875 65.0596 92.3691C64.569 92.0932 63.9942 91.9551 63.335 91.9551C62.7983 91.9551 62.2998 92.0546 61.8398 92.2539C61.3953 92.4379 61.0043 92.706 60.667 93.0586C60.345 93.4112 60.0922 93.8255 59.9082 94.3008C59.7395 94.7761 59.6543 95.2898 59.6543 95.8418C59.6543 96.5778 59.8157 97.2448 60.1377 97.8428C60.4597 98.4254 60.8972 98.8853 61.4492 99.2227C62.0011 99.5599 62.645 99.7285 63.3809 99.7285C64.0095 99.7285 64.5689 99.5904 65.0596 99.3145C65.4599 99.0961 65.7977 98.8249 66.0732 98.501C66.1566 98.4029 66.1987 98.3535 66.2412 98.335C66.2812 98.3176 66.3176 98.3137 66.3604 98.3223C66.4059 98.3314 66.4529 98.3671 66.5459 98.4385L68.0039 99.5576C68.0919 99.6251 68.1365 99.6591 68.1572 99.7041C68.1747 99.7423 68.179 99.79 68.1699 99.8311C68.1591 99.8795 68.125 99.9199 68.0566 100C67.552 100.591 66.9285 101.076 66.1865 101.454C65.3586 101.883 64.4153 102.098 63.3574 102.098C62.0542 102.098 60.9271 101.814 59.9766 101.247C59.0259 100.664 58.2899 99.897 57.7686 98.9463C57.2627 97.9958 57.0098 96.9609 57.0098 95.8418C57.0098 94.9985 57.155 94.2006 57.4463 93.4492C57.7376 92.698 58.16 92.0308 58.7119 91.4482C59.2639 90.8657 59.931 90.4137 60.7129 90.0918C61.4948 89.7545 62.3763 89.586 63.3574 89.5859Z"
          fill="#2845C1"/>
    <path d="M110.868 89.5859C111.727 89.586 112.517 89.7697 113.237 90.1377C113.868 90.453 114.38 90.8358 114.774 91.2861C114.838 91.3588 114.87 91.3957 114.882 91.4424C114.892 91.4813 114.888 91.5282 114.873 91.5654C114.855 91.6101 114.815 91.6445 114.736 91.7129L113.5 92.7852C113.409 92.8642 113.363 92.9035 113.316 92.915C113.273 92.9257 113.235 92.9229 113.193 92.9062C113.149 92.8882 113.106 92.8387 113.021 92.7402C112.779 92.4612 112.506 92.2222 112.202 92.0234C111.803 91.7628 111.366 91.6328 110.891 91.6328C110.553 91.6329 110.262 91.6938 110.017 91.8164C109.787 91.9391 109.611 92.1005 109.488 92.2998C109.366 92.4991 109.304 92.7215 109.304 92.9668C109.304 93.3347 109.442 93.6414 109.718 93.8867C109.994 94.1167 110.347 94.3157 110.776 94.4844C111.206 94.653 111.658 94.8378 112.133 95.0371C112.608 95.2211 113.061 95.4506 113.49 95.7266C113.92 95.9872 114.272 96.3405 114.548 96.7852C114.824 97.2145 114.962 97.7588 114.962 98.418C114.947 99.1999 114.755 99.867 114.387 100.419C114.019 100.955 113.528 101.37 112.915 101.661C112.302 101.952 111.627 102.098 110.891 102.098C109.894 102.098 109.028 101.914 108.292 101.546C107.648 101.21 107.074 100.775 106.571 100.24C106.499 100.163 106.462 100.124 106.449 100.077C106.438 100.037 106.44 99.9902 106.455 99.9512C106.473 99.9054 106.515 99.8688 106.598 99.7959L107.829 98.7119C107.918 98.6335 107.963 98.5939 108.01 98.582C108.052 98.5713 108.092 98.5737 108.133 98.5898C108.177 98.6076 108.219 98.6547 108.302 98.749C108.614 99.1049 108.955 99.4012 109.327 99.6367C109.787 99.9127 110.301 100.051 110.868 100.051C111.405 100.051 111.819 99.9127 112.11 99.6367C112.401 99.3455 112.547 98.9929 112.547 98.5791C112.547 98.1958 112.409 97.8892 112.133 97.6592C111.857 97.4292 111.504 97.2292 111.075 97.0605C110.646 96.8919 110.186 96.7152 109.695 96.5312C109.22 96.3319 108.767 96.0944 108.338 95.8184C107.909 95.5424 107.556 95.1819 107.28 94.7373C107.02 94.2927 106.889 93.7332 106.889 93.0586C106.889 92.3995 107.057 91.8093 107.395 91.2881C107.732 90.7668 108.2 90.3526 108.798 90.0459C109.411 89.7392 110.101 89.5859 110.868 89.5859Z"
          fill="#2845C1"/>
    <path fill-rule="evenodd" clip-rule="evenodd"
          d="M26.9512 89.5859C28.0092 89.5859 28.9066 89.7778 29.6426 90.1611C30.3784 90.5445 30.9309 91.0735 31.2988 91.748C31.6666 92.4072 31.8505 93.1661 31.8506 94.0244V101.317C31.8506 101.429 31.8508 101.486 31.8291 101.528C31.8099 101.566 31.7788 101.597 31.7412 101.616C31.6985 101.638 31.6421 101.638 31.5303 101.638H29.6865C29.5747 101.638 29.5183 101.638 29.4756 101.616C29.438 101.597 29.4069 101.566 29.3877 101.528C29.366 101.486 29.3662 101.429 29.3662 101.317V100.815C29.3662 100.669 29.3662 100.596 29.3428 100.568C29.3212 100.543 29.2941 100.531 29.2607 100.533C29.2244 100.535 29.168 100.588 29.0557 100.694C28.9798 100.766 28.8993 100.835 28.8145 100.901C28.4005 101.239 27.9172 101.5 27.3652 101.684C26.8286 101.883 26.2763 101.982 25.709 101.982C24.5592 101.982 23.6239 101.676 22.9033 101.062C22.1828 100.449 21.8223 99.6288 21.8223 98.6016C21.8223 97.7276 22.1522 96.9915 22.8115 96.3936C23.4708 95.7803 24.4213 95.366 25.6631 95.1514L29.0996 94.5674C29.1943 94.5513 29.2418 94.5433 29.2773 94.5195C29.3085 94.4987 29.3333 94.4697 29.3486 94.4355C29.3661 94.3966 29.3662 94.348 29.3662 94.252V94.0244C29.3661 93.3345 29.1286 92.7902 28.6533 92.3916C28.1933 91.993 27.5953 91.7939 26.8594 91.7939C26.2614 91.794 25.7172 91.932 25.2266 92.208C24.8467 92.4164 24.5154 92.6887 24.2334 93.0244C24.1522 93.1211 24.111 93.1697 24.0684 93.1885C24.0288 93.2058 23.9916 93.2096 23.9492 93.2012C23.9036 93.1921 23.8569 93.1566 23.7646 93.0859L22.417 92.0537C22.3298 91.9869 22.2864 91.9529 22.2656 91.9082C22.2482 91.8705 22.2424 91.8239 22.251 91.7832C22.2613 91.735 22.295 91.6949 22.3613 91.6152C22.8508 91.0273 23.4532 90.5578 24.168 90.207C24.9806 89.7931 25.9086 89.586 26.9512 89.5859ZM29.1787 96.3369L26.3076 96.8311C25.6176 96.9384 25.1192 97.1374 24.8125 97.4287C24.5059 97.72 24.3526 98.0725 24.3525 98.4863C24.3525 98.9156 24.5131 99.2689 24.835 99.5449C25.1723 99.8209 25.6179 99.959 26.1699 99.959C26.8904 99.9589 27.5191 99.7975 28.0557 99.4756C28.4604 99.2327 28.8083 98.9286 29.0996 98.5635C29.1738 98.4705 29.2109 98.424 29.2568 98.334C29.2908 98.2673 29.3307 98.1535 29.3457 98.0801C29.366 97.9808 29.3662 97.896 29.3662 97.7266V96.4941C29.3662 96.4291 29.3658 96.3962 29.3525 96.373C29.3408 96.3529 29.3226 96.3371 29.3008 96.3291C29.2757 96.3199 29.243 96.3258 29.1787 96.3369Z"
          fill="#2845C1"/>
    <path d="M101.329 87.1475C101.441 87.1475 101.497 87.1473 101.54 87.1689C101.578 87.1881 101.609 87.2192 101.628 87.2568C101.65 87.2996 101.649 87.356 101.649 87.4678V89.7256C101.649 89.8374 101.649 89.8938 101.671 89.9365C101.69 89.9742 101.721 90.0052 101.759 90.0244C101.802 90.0461 101.858 90.0459 101.97 90.0459H105.078C105.19 90.0459 105.246 90.0457 105.289 90.0674C105.327 90.0866 105.358 90.1176 105.377 90.1553C105.399 90.198 105.398 90.2544 105.398 90.3662V91.9795C105.398 92.0913 105.399 92.1477 105.377 92.1904C105.358 92.2281 105.327 92.2591 105.289 92.2783C105.246 92.3 105.19 92.2998 105.078 92.2998H101.97C101.858 92.2998 101.802 92.2996 101.759 92.3213C101.721 92.3405 101.69 92.3715 101.671 92.4092C101.649 92.4519 101.649 92.5083 101.649 92.6201V97.5439C101.649 98.0498 101.727 98.4561 101.88 98.7627C102.049 99.0539 102.286 99.2611 102.593 99.3838C102.899 99.5064 103.267 99.5674 103.696 99.5674C104.095 99.5674 104.433 99.545 104.709 99.499C104.813 99.476 104.911 99.4528 105.004 99.4297C105.153 99.3926 105.228 99.3741 105.281 99.3906C105.329 99.4055 105.367 99.4347 105.393 99.4775C105.422 99.5253 105.422 99.6 105.422 99.748V101.31C105.422 101.386 105.422 101.425 105.408 101.46C105.397 101.489 105.375 101.52 105.352 101.54C105.323 101.564 105.29 101.575 105.224 101.599C104.989 101.681 104.741 101.74 104.479 101.775C104.141 101.837 103.742 101.868 103.282 101.868C102.363 101.868 101.588 101.707 100.96 101.385C100.347 101.063 99.8786 100.58 99.5566 99.9355C99.25 99.2916 99.0967 98.4945 99.0967 97.5439V92.6201C99.0967 92.5083 99.0969 92.4519 99.0752 92.4092C99.056 92.3715 99.0249 92.3405 98.9873 92.3213C98.9446 92.2996 98.8881 92.2998 98.7764 92.2998H97.2549C97.1431 92.2998 97.0867 92.3 97.0439 92.2783C97.0063 92.2591 96.9752 92.2281 96.9561 92.1904C96.9344 92.1477 96.9346 92.0913 96.9346 91.9795V90.3662C96.9346 90.2544 96.9344 90.198 96.9561 90.1553C96.9752 90.1176 97.0063 90.0866 97.0439 90.0674C97.0867 90.0457 97.1431 90.0459 97.2549 90.0459H98.7764C98.8881 90.0459 98.9446 90.0461 98.9873 90.0244C99.0249 90.0052 99.056 89.9742 99.0752 89.9365C99.0969 89.8938 99.0967 89.8374 99.0967 89.7256V87.4678C99.0967 87.356 99.0965 87.2996 99.1182 87.2568C99.1373 87.2192 99.1684 87.1881 99.2061 87.1689C99.2488 87.1473 99.3052 87.1475 99.417 87.1475H101.329Z"
          fill="#2845C1"/>
    <path d="M13.7207 85.5381C13.8325 85.5381 13.8889 85.5379 13.9316 85.5596C13.9693 85.5787 14.0004 85.6098 14.0195 85.6475C14.0412 85.6902 14.041 85.7466 14.041 85.8584V87.7705C14.041 87.8823 14.0412 87.9387 14.0195 87.9814C14.0004 88.0191 13.9693 88.0502 13.9316 88.0693C13.8889 88.091 13.8325 88.0908 13.7207 88.0908H9.23242C9.12064 88.0908 9.06423 88.0906 9.02148 88.1123C8.98385 88.1315 8.95277 88.1626 8.93359 88.2002C8.91193 88.2429 8.91211 88.2994 8.91211 88.4111V101.317C8.91211 101.429 8.91229 101.486 8.89062 101.528C8.87145 101.566 8.84037 101.597 8.80273 101.616C8.75999 101.638 8.70358 101.638 8.5918 101.638H6.42676C6.31498 101.638 6.25857 101.638 6.21582 101.616C6.17819 101.597 6.1471 101.566 6.12793 101.528C6.10627 101.486 6.10645 101.429 6.10645 101.317V88.4111C6.10645 88.2994 6.10663 88.2429 6.08496 88.2002C6.06579 88.1626 6.0347 88.1315 5.99707 88.1123C5.95432 88.0906 5.89791 88.0908 5.78613 88.0908H1.32031C1.20853 88.0908 1.15212 88.091 1.10938 88.0693C1.07174 88.0502 1.04066 88.0191 1.02148 87.9814C0.99982 87.9387 1 87.8823 1 87.7705V85.8584C1 85.7466 0.99982 85.6902 1.02148 85.6475C1.04066 85.6098 1.07174 85.5787 1.10938 85.5596C1.15212 85.5379 1.20853 85.5381 1.32031 85.5381H13.7207Z"
          fill="#2845C1"/>
    <path d="M20.1465 89.8154C20.3457 89.8154 20.5297 89.8307 20.6982 89.8613C20.7814 89.8764 20.8608 89.8932 20.9365 89.9121C21.0092 89.9303 21.0459 89.9397 21.0781 89.9639C21.1049 89.9839 21.1296 90.016 21.1426 90.0469C21.158 90.0839 21.1582 90.125 21.1582 90.207V92.0273C21.1582 92.1678 21.1578 92.2387 21.1309 92.2852C21.1064 92.3272 21.0722 92.3565 21.0264 92.373C20.9758 92.3913 20.9029 92.3778 20.7578 92.3516C20.7003 92.3411 20.6418 92.3313 20.583 92.3223C20.399 92.2916 20.1766 92.2764 19.916 92.2764C19.4407 92.2764 19.0112 92.3535 18.6279 92.5068C18.2447 92.6602 17.9146 92.8673 17.6387 93.1279C17.4762 93.2814 17.3298 93.4429 17.1992 93.6123C17.1311 93.7007 17.0965 93.7455 17.0527 93.834C17.0208 93.8987 16.9828 94.0114 16.9688 94.082C16.9495 94.1788 16.9492 94.2599 16.9492 94.4219V101.317C16.9492 101.429 16.9494 101.486 16.9277 101.528C16.9086 101.566 16.8775 101.597 16.8398 101.616C16.7971 101.638 16.7407 101.638 16.6289 101.638H14.7627C14.6509 101.638 14.5945 101.638 14.5518 101.616C14.5141 101.597 14.483 101.566 14.4639 101.528C14.4422 101.486 14.4424 101.429 14.4424 101.317V90.3662C14.4424 90.2544 14.4422 90.198 14.4639 90.1553C14.483 90.1176 14.5141 90.0866 14.5518 90.0674C14.5945 90.0457 14.6509 90.0459 14.7627 90.0459H16.6289C16.7407 90.0459 16.7971 90.0457 16.8398 90.0674C16.8775 90.0866 16.9086 90.1176 16.9277 90.1553C16.9494 90.198 16.9492 90.2544 16.9492 90.3662V90.9082C16.9492 91.037 16.9492 91.1018 16.9727 91.1299C16.9936 91.1547 17.0233 91.1671 17.0557 91.165C17.0922 91.1625 17.1405 91.1167 17.2354 91.0244C17.3298 90.9326 17.4259 90.8439 17.5244 90.7588C17.877 90.4675 18.268 90.237 18.6973 90.0684C19.1265 89.8998 19.6099 89.8154 20.1465 89.8154Z"
          fill="#2845C1"/>
    <path d="M40.8994 89.5859C41.7581 89.5859 42.5255 89.7778 43.2002 90.1611C43.8899 90.5444 44.4263 91.1113 44.8096 91.8623C45.2082 92.6136 45.4082 93.5569 45.4082 94.6914V101.317C45.4082 101.429 45.4084 101.486 45.3867 101.528C45.3675 101.566 45.3365 101.597 45.2988 101.616C45.2561 101.638 45.1997 101.638 45.0879 101.638H43.1982C43.0865 101.638 43.0301 101.638 42.9873 101.616C42.9497 101.597 42.9186 101.566 42.8994 101.528C42.8778 101.486 42.8779 101.429 42.8779 101.317V94.7842C42.8779 93.8948 42.6475 93.2045 42.1875 92.7139C41.7275 92.2079 41.099 91.9551 40.3018 91.9551C39.7958 91.9551 39.3511 92.0546 38.9678 92.2539C38.5845 92.4379 38.2545 92.6755 37.9785 92.9668C37.8219 93.1418 37.6763 93.3227 37.542 93.5088C37.4628 93.6185 37.4236 93.6737 37.3838 93.7588C37.3524 93.8258 37.3204 93.9234 37.3066 93.9961C37.2891 94.0884 37.2891 94.1729 37.2891 94.3418V101.317C37.2891 101.429 37.2892 101.486 37.2676 101.528C37.2484 101.566 37.2173 101.597 37.1797 101.616C37.1369 101.638 37.0805 101.638 36.9688 101.638H35.1025C34.9908 101.638 34.9343 101.638 34.8916 101.616C34.854 101.597 34.8229 101.566 34.8037 101.528C34.782 101.486 34.7822 101.429 34.7822 101.317V90.3662C34.7822 90.2544 34.782 90.198 34.8037 90.1553C34.8229 90.1176 34.854 90.0866 34.8916 90.0674C34.9343 90.0457 34.9908 90.0459 35.1025 90.0459H36.9688C37.0805 90.0459 37.1369 90.0457 37.1797 90.0674C37.2173 90.0866 37.2484 90.1176 37.2676 90.1553C37.2892 90.198 37.2891 90.2544 37.2891 90.3662V90.7227C37.2891 90.85 37.2888 90.9145 37.3115 90.9424C37.3322 90.9674 37.3612 90.9799 37.3936 90.9785C37.4295 90.9767 37.4791 90.9329 37.5771 90.8447C37.9372 90.5209 38.3468 90.2465 38.8066 90.0225C39.4045 89.7312 40.1023 89.586 40.8994 89.5859Z"
          fill="#2845C1"/>
    <path d="M75.6787 89.8154C75.8779 89.8154 76.0619 89.8307 76.2305 89.8613C76.3136 89.8764 76.3931 89.8932 76.4688 89.9121C76.5415 89.9303 76.5781 89.9397 76.6104 89.9639C76.6371 89.9839 76.6618 90.016 76.6748 90.0469C76.6903 90.0839 76.6904 90.125 76.6904 90.207V92.0273C76.6904 92.1678 76.69 92.2387 76.6631 92.2852C76.6386 92.3272 76.6044 92.3565 76.5586 92.373C76.5081 92.3913 76.4351 92.3778 76.29 92.3516C76.2325 92.3411 76.1741 92.3313 76.1152 92.3223C75.9313 92.2916 75.7087 92.2764 75.4482 92.2764C74.973 92.2764 74.5434 92.3535 74.1602 92.5068C73.777 92.6601 73.4478 92.8674 73.1719 93.1279C73.0091 93.2816 72.8623 93.4437 72.7314 93.6133C72.6636 93.7012 72.6288 93.7454 72.585 93.834C72.553 93.8987 72.5151 94.0115 72.501 94.082C72.4817 94.1789 72.4814 94.26 72.4814 94.4219V101.317C72.4814 101.429 72.4816 101.486 72.46 101.528C72.4408 101.566 72.4097 101.597 72.3721 101.616C72.3293 101.638 72.2729 101.638 72.1611 101.638H70.2949C70.1831 101.638 70.1267 101.638 70.084 101.616C70.0463 101.597 70.0153 101.566 69.9961 101.528C69.9744 101.486 69.9746 101.429 69.9746 101.317V90.3662C69.9746 90.2544 69.9744 90.198 69.9961 90.1553C70.0153 90.1176 70.0463 90.0866 70.084 90.0674C70.1267 90.0457 70.1831 90.0459 70.2949 90.0459H72.1611C72.2729 90.0459 72.3293 90.0457 72.3721 90.0674C72.4097 90.0866 72.4408 90.1176 72.46 90.1553C72.4816 90.198 72.4814 90.2544 72.4814 90.3662V90.9082C72.4814 91.037 72.4814 91.1018 72.5049 91.1299C72.5259 91.1547 72.5555 91.1671 72.5879 91.165C72.6245 91.1625 72.6727 91.1167 72.7676 91.0244C72.862 90.9326 72.9581 90.8439 73.0566 90.7588C73.4093 90.4675 73.8002 90.237 74.2295 90.0684C74.6588 89.8997 75.1421 89.8154 75.6787 89.8154Z"
          fill="#2845C1"/>
    <path d="M80.7256 90.0459C80.8374 90.0459 80.8938 90.0457 80.9365 90.0674C80.9742 90.0866 81.0052 90.1176 81.0244 90.1553C81.0461 90.198 81.0459 90.2544 81.0459 90.3662V101.317C81.0459 101.429 81.0461 101.486 81.0244 101.528C81.0052 101.566 80.9742 101.597 80.9365 101.616C80.8938 101.638 80.8374 101.638 80.7256 101.638H78.8584C78.7466 101.638 78.6902 101.638 78.6475 101.616C78.6098 101.597 78.5787 101.566 78.5596 101.528C78.5379 101.486 78.5381 101.429 78.5381 101.317V90.3662C78.5381 90.2544 78.5379 90.198 78.5596 90.1553C78.5787 90.1176 78.6098 90.0866 78.6475 90.0674C78.6902 90.0457 78.7466 90.0459 78.8584 90.0459H80.7256Z"
          fill="#2845C1"/>
    <path d="M79.8037 84.25C80.1103 84.25 80.3866 84.3262 80.6318 84.4795C80.8924 84.6175 81.0996 84.8175 81.2529 85.0781C81.4061 85.3386 81.4824 85.6223 81.4824 85.9287C81.4824 86.2352 81.4061 86.5188 81.2529 86.7793C81.0996 87.0246 80.8924 87.2246 80.6318 87.3779C80.3866 87.5312 80.1103 87.6074 79.8037 87.6074C79.5125 87.6074 79.2362 87.5312 78.9756 87.3779C78.7149 87.2246 78.5078 87.0246 78.3545 86.7793C78.2013 86.5187 78.124 86.2353 78.124 85.9287C78.124 85.4688 78.2855 85.0778 78.6074 84.7559C78.9448 84.4185 79.3437 84.25 79.8037 84.25Z"
          fill="#2845C1"/>
    <g clip-path="url(#clip0_5067_11759)">
        <path d="M42.8844 73.5341C43.3768 73.5341 43.8336 73.6416 44.2545 73.8564C44.6461 74.0523 44.9598 74.2964 45.1954 74.5889C45.234 74.6369 45.2256 74.7065 45.1787 74.7465L44.3512 75.4526C44.299 75.4971 44.2201 75.4876 44.1769 75.4344C44.024 75.2463 43.8483 75.0873 43.65 74.9577C43.4172 74.8055 43.1619 74.7291 42.8844 74.7291C42.6876 74.7292 42.5176 74.7652 42.3744 74.8368C42.24 74.9084 42.1369 75.0024 42.0652 75.1189C42.0026 75.2353 41.9714 75.3653 41.9714 75.5086C41.9714 75.7233 42.0473 75.9025 42.1994 76.0457C42.3605 76.18 42.5669 76.2966 42.8176 76.3951C43.0683 76.4936 43.3322 76.6011 43.6097 76.7175C43.8963 76.8249 44.1649 76.9592 44.4156 77.1204C44.6664 77.2726 44.8679 77.4784 45.0201 77.7381C45.1812 77.9888 45.2618 78.3065 45.2619 78.6914C45.2619 79.148 45.15 79.5376 44.9263 79.86C44.7114 80.1733 44.4249 80.4152 44.0668 80.5853C43.7086 80.7554 43.3142 80.8409 42.8844 80.8409C42.3025 80.8409 41.7967 80.7334 41.367 80.5185C40.9709 80.3123 40.6205 80.041 40.3157 79.7055C40.2723 79.6577 40.2776 79.5839 40.326 79.5413L41.1533 78.8133C41.2038 78.7689 41.2811 78.7758 41.325 78.8267C41.5197 79.0526 41.7352 79.2406 41.9714 79.3902C42.24 79.5603 42.5399 79.6452 42.8712 79.6453C43.1846 79.6453 43.4221 79.5647 43.5832 79.4035C43.7533 79.2334 43.8382 79.0275 43.8383 78.7858C43.8383 78.562 43.7576 78.383 43.5965 78.2487C43.4443 78.1144 43.2428 77.9978 42.992 77.8993C42.7413 77.8008 42.4727 77.6976 42.1861 77.5902C41.9087 77.4738 41.6446 77.335 41.394 77.174C41.1433 77.0128 40.9369 76.8069 40.7758 76.5563C40.6235 76.2966 40.5478 75.9651 40.5478 75.5621C40.5478 75.1861 40.6461 74.8459 40.8431 74.5415C41.0401 74.2281 41.3131 73.9814 41.6623 73.8023C42.0204 73.6233 42.4278 73.5341 42.8844 73.5341Z"
              fill="#2845C1"/>
        <path d="M48.4631 73.5341C48.9555 73.5341 49.4124 73.6416 49.8332 73.8564C50.2248 74.0523 50.5386 74.2964 50.7741 74.5889C50.8127 74.6369 50.8043 74.7065 50.7574 74.7465L49.9299 75.4526C49.8777 75.4971 49.7988 75.4876 49.7556 75.4344C49.6027 75.2462 49.427 75.0874 49.2287 74.9577C48.996 74.8055 48.7406 74.7292 48.4631 74.7291C48.2661 74.7291 48.0958 74.7651 47.9525 74.8368C47.8182 74.9084 47.715 75.0025 47.6434 75.1189C47.5807 75.2352 47.5495 75.3653 47.5495 75.5086C47.5496 75.7234 47.6259 75.9024 47.7781 76.0457C47.9392 76.1799 48.1451 76.2966 48.3957 76.3951C48.6465 76.4936 48.9109 76.6011 49.1884 76.7175C49.4749 76.8249 49.7437 76.9593 49.9943 77.1204C50.2449 77.2726 50.4466 77.4785 50.5988 77.7381C50.7599 77.9887 50.8405 78.3066 50.8406 78.6914C50.8406 79.148 50.7282 79.5376 50.5044 79.86C50.2895 80.1733 50.0031 80.4152 49.6449 80.5853C49.2868 80.7554 48.8928 80.8409 48.4631 80.8409C47.8811 80.8409 47.3749 80.7334 46.9451 80.5185C46.5491 80.3123 46.1986 80.041 45.8938 79.7055C45.8504 79.6577 45.8557 79.5839 45.9042 79.5413L46.7314 78.8133C46.7819 78.7689 46.8592 78.7758 46.9031 78.8267C47.0978 79.0526 47.3133 79.2406 47.5495 79.3902C47.8181 79.5603 48.1181 79.6452 48.4493 79.6453C48.7627 79.6453 49.0002 79.5647 49.1614 79.4035C49.3315 79.2334 49.4164 79.0275 49.4164 78.7858C49.4164 78.5619 49.3358 78.383 49.1746 78.2487C49.0224 78.1144 48.8209 77.9978 48.5702 77.8993C48.3195 77.8008 48.0507 77.6976 47.7642 77.5902C47.4868 77.4738 47.2228 77.3351 46.9721 77.174C46.7215 77.0128 46.5156 76.8069 46.3545 76.5563C46.2022 76.2966 46.1259 75.9651 46.1259 75.5621C46.1259 75.1861 46.2243 74.8459 46.4212 74.5415C46.6182 74.2281 46.8912 73.9814 47.2404 73.8023C47.5986 73.6232 48.0064 73.5341 48.4631 73.5341Z"
              fill="#2845C1"/>
        <path d="M57.311 73.5341C57.8034 73.5341 58.2602 73.6415 58.681 73.8564C59.0727 74.0523 59.3864 74.2964 59.6219 74.5889C59.6606 74.6369 59.6522 74.7065 59.6053 74.7465L58.7777 75.4526C58.7255 75.4971 58.6467 75.4876 58.6034 75.4344C58.4506 75.2462 58.2749 75.0873 58.0766 74.9577C57.8438 74.8054 57.5885 74.7291 57.311 74.7291C57.114 74.7291 56.9436 74.7651 56.8004 74.8368C56.6661 74.9084 56.5634 75.0025 56.4918 75.1189C56.4291 75.2353 56.3974 75.3653 56.3974 75.5086C56.3974 75.7234 56.4738 75.9024 56.6259 76.0457C56.7871 76.18 56.9929 76.2966 57.2436 76.3951C57.4943 76.4936 57.7587 76.601 58.0363 76.7175C58.3228 76.8249 58.5915 76.9592 58.8422 77.1204C59.0929 77.2726 59.2944 77.4785 59.4466 77.7381C59.6078 77.9887 59.6884 78.3065 59.6884 78.6914C59.6884 79.1479 59.5766 79.5377 59.3528 79.86C59.1379 80.1734 58.851 80.4152 58.4928 80.5853C58.1346 80.7554 57.7407 80.8409 57.311 80.8409C56.7289 80.8409 56.2228 80.7334 55.7929 80.5185C55.397 80.3123 55.0469 80.041 54.7422 79.7054C54.6988 79.6577 54.7041 79.5839 54.7525 79.5413L55.5793 78.8134C55.6298 78.7689 55.7071 78.7758 55.751 78.8268C55.9457 79.0526 56.1612 79.2406 56.3974 79.3902C56.666 79.5604 56.9664 79.6453 57.2977 79.6453C57.611 79.6452 57.8481 79.5646 58.0092 79.4035C58.1793 79.2334 58.2648 79.0275 58.2648 78.7858C58.2648 78.562 58.1841 78.383 58.023 78.2487C57.8709 78.1144 57.6693 77.9978 57.4186 77.8993C57.1679 77.8008 56.8992 77.6976 56.6127 77.5902C56.3351 77.4737 56.0707 77.3351 55.82 77.174C55.5694 77.0128 55.3635 76.8069 55.2023 76.5563C55.0501 76.2966 54.9738 75.9651 54.9738 75.5621C54.9738 75.186 55.0727 74.8459 55.2697 74.5415C55.4667 74.2281 55.7396 73.9814 56.0888 73.8023C56.447 73.6233 56.8544 73.5341 57.311 73.5341Z"
              fill="#2845C1"/>
        <path fill-rule="evenodd" clip-rule="evenodd"
              d="M69.0177 73.6688C69.6355 73.6688 70.1594 73.7805 70.5892 74.0044C71.019 74.2282 71.3414 74.5372 71.5563 74.9312C71.7802 75.3252 71.8919 75.7685 71.8919 76.261V80.5889C71.8919 80.654 71.8392 80.7068 71.7741 80.7068H70.5321C70.467 80.7068 70.4142 80.654 70.4142 80.5889V80.1412C70.4142 80.0856 70.3422 80.0592 70.3034 80.0992C70.2434 80.161 70.1776 80.2202 70.1057 80.2767C69.8639 80.4737 69.5818 80.6264 69.2595 80.7338C68.9372 80.8502 68.6104 80.9082 68.2791 80.9082C67.6165 80.9082 67.0743 80.7293 66.6535 80.3712C66.2326 80.013 66.0225 79.5337 66.0225 78.9337C66.0226 78.4234 66.2149 77.9892 66.5999 77.631C66.9849 77.2729 67.5401 77.0353 68.2653 76.9189L70.3161 76.5706C70.3728 76.561 70.4142 76.5119 70.4142 76.4544V76.261C70.4142 75.8581 70.2803 75.5448 70.0119 75.3209C69.7433 75.0881 69.3938 74.9715 68.9642 74.9715C68.6149 74.9715 68.2968 75.0478 68.0103 75.2C67.7678 75.333 67.5594 75.5103 67.3853 75.7322C67.3438 75.7849 67.2676 75.797 67.2143 75.7562L66.3148 75.068C66.2642 75.0293 66.2533 74.9572 66.2924 74.9069C66.578 74.5386 66.9401 74.2467 67.3788 74.0314C67.8623 73.7897 68.4088 73.6688 69.0177 73.6688ZM68.6418 77.8999C68.2389 77.9625 67.9476 78.0786 67.7685 78.2487C67.5895 78.4098 67.4997 78.6158 67.4997 78.8664C67.4997 79.1171 67.5937 79.3235 67.7818 79.4846C67.9787 79.6458 68.2431 79.7264 68.5744 79.7264C68.9863 79.7264 69.349 79.6324 69.6624 79.4443C69.9196 79.29 70.1371 79.0931 70.3157 78.8543C70.3833 78.7638 70.4142 78.6521 70.4142 78.5391V77.7448C70.4142 77.6719 70.3489 77.6165 70.277 77.6285L68.6418 77.8999Z"
              fill="#2845C1"/>
        <path d="M63.0026 73.8191C63.0026 73.8842 63.0554 73.937 63.1205 73.937H65.0745C65.1397 73.937 65.1924 73.9898 65.1924 74.0549V75.1489C65.1924 75.214 65.1397 75.2668 65.0745 75.2668H63.1205C63.0554 75.2668 63.0026 75.3196 63.0026 75.3847V78.3161C63.0026 78.6115 63.0521 78.8442 63.1506 79.0143C63.249 79.1844 63.3878 79.3096 63.5668 79.3902C63.7459 79.4619 63.9565 79.4979 64.1983 79.4979C64.4311 79.4979 64.6283 79.4844 64.7895 79.4576C64.8813 79.4372 64.9659 79.4153 65.0432 79.392C65.1224 79.368 65.2057 79.4256 65.2057 79.5084V80.5628C65.2057 80.6094 65.1784 80.652 65.135 80.6689C64.9914 80.7248 64.8312 80.7643 64.6548 80.7874C64.4578 80.8231 64.225 80.8409 63.9565 80.8409C63.4193 80.8409 62.9668 80.7469 62.5997 80.5588C62.2417 80.3618 61.9685 80.0796 61.7805 79.7126C61.6015 79.3366 61.5123 78.8711 61.5123 78.3161V75.3847C61.5123 75.3196 61.4595 75.2668 61.3944 75.2668H60.4218C60.3567 75.2668 60.304 75.214 60.304 75.1489V74.0549C60.304 73.9898 60.3567 73.937 60.4218 73.937H61.3944C61.4595 73.937 61.5123 73.8842 61.5123 73.8191V72.3631C61.5123 72.298 61.565 72.2452 61.6302 72.2452H62.8847C62.9499 72.2452 63.0026 72.298 63.0026 72.3631V73.8191Z"
              fill="#2845C1"/>
        <path d="M83.3844 73.8191C83.3844 73.8842 83.4372 73.937 83.5023 73.937H85.4557C85.5208 73.937 85.5736 73.9898 85.5736 74.0549V75.1489C85.5736 75.214 85.5208 75.2668 85.4557 75.2668H83.5023C83.4372 75.2668 83.3844 75.3196 83.3844 75.3847V78.3161C83.3844 78.6114 83.4333 78.8442 83.5317 79.0143C83.6302 79.1845 83.7694 79.3096 83.9485 79.3902C84.1276 79.4618 84.3378 79.4979 84.5794 79.4979C84.8123 79.4979 85.0095 79.4844 85.1707 79.4576C85.2625 79.4372 85.3471 79.4153 85.4244 79.3919C85.5036 79.368 85.5868 79.4256 85.5868 79.5083V80.5628C85.5868 80.6094 85.5595 80.6519 85.5161 80.6689C85.3727 80.7247 85.2128 80.7643 85.0365 80.7874C84.8395 80.8232 84.6063 80.8409 84.3377 80.8409C83.8005 80.8409 83.3485 80.7468 82.9814 80.5588C82.6233 80.3618 82.3503 80.0797 82.1623 79.7126C81.9832 79.3366 81.8934 78.8711 81.8934 78.3161V75.3847C81.8934 75.3196 81.8406 75.2668 81.7755 75.2668H80.7489C80.6838 75.2668 80.631 75.214 80.631 75.1489V74.0549C80.631 73.9898 80.6838 73.937 80.7489 73.937H81.7755C81.8406 73.937 81.8934 73.8842 81.8934 73.8191V72.3631C81.8934 72.298 81.9462 72.2452 82.0113 72.2452H83.2665C83.3316 72.2452 83.3844 72.298 83.3844 72.3631V73.8191Z"
              fill="#2845C1"/>
        <path fill-rule="evenodd" clip-rule="evenodd"
              d="M39.9154 80.5463C39.9453 80.6236 39.8883 80.7068 39.8054 80.7068H38.2997C38.2507 80.7068 38.2068 80.6764 38.1894 80.6306L37.2713 78.204C37.254 78.1581 37.2101 78.1278 37.1611 78.1278H33.3426C33.2936 78.1278 33.2498 78.1581 33.2324 78.2038L32.3104 80.6307C32.293 80.6765 32.2491 80.7068 32.2002 80.7068H30.7074C30.6246 80.7068 30.5676 80.6237 30.5974 80.5464L34.1325 71.38C34.15 71.3345 34.1938 71.3045 34.2425 71.3045H36.2568C36.3055 71.3045 36.3492 71.3345 36.3668 71.3799L39.9154 80.5463ZM33.8527 76.5715C33.8234 76.6486 33.8804 76.7313 33.963 76.7313H36.5434C36.6259 76.7313 36.6828 76.6488 36.6536 76.5716L35.366 73.1697C35.3276 73.0682 35.184 73.0681 35.1455 73.1696L33.8527 76.5715Z"
              fill="#2845C1"/>
        <path d="M53.6597 80.5889C53.6597 80.654 53.6069 80.7068 53.5418 80.7068H52.3005C52.2354 80.7068 52.1826 80.654 52.1826 80.5889V74.0549C52.1826 73.9898 52.2354 73.937 52.3005 73.937H53.5418C53.6069 73.937 53.6597 73.9898 53.6597 74.0549V80.5889Z"
              fill="#2845C1"/>
        <path d="M77.1632 73.6688C77.6646 73.6688 78.1123 73.7806 78.5063 74.0044C78.9092 74.2282 79.2273 74.5598 79.4601 74.9985C79.6929 75.4373 79.8095 75.9881 79.8095 76.6507V80.5889C79.8095 80.654 79.7568 80.7068 79.6917 80.7068H78.4365C78.3714 80.7068 78.3186 80.654 78.3186 80.5889V76.7042C78.3186 76.1849 78.1842 75.7819 77.9156 75.4953C77.647 75.1998 77.2794 75.0521 76.8138 75.0521C76.5184 75.0521 76.2588 75.1101 76.035 75.2265C75.8111 75.334 75.6188 75.4731 75.4576 75.6433C75.3419 75.7726 75.239 75.907 75.1491 76.0466C75.0936 76.1328 75.0679 76.2343 75.0679 76.3369V80.5889C75.0679 80.654 75.0151 80.7068 74.95 80.7068H73.7086C73.6435 80.7068 73.5907 80.654 73.5907 80.5889V74.0549C73.5907 73.9898 73.6435 73.937 73.7086 73.937H74.95C75.0151 73.937 75.0679 73.9898 75.0679 74.0549V74.4074C75.0679 74.4606 75.1333 74.4873 75.172 74.4508C75.3943 74.2411 75.6506 74.0653 75.9411 73.9238C76.2903 73.7537 76.6977 73.6688 77.1632 73.6688Z"
              fill="#2845C1"/>
        <path d="M52.9344 70.5527C53.1135 70.5527 53.2747 70.5973 53.4179 70.6869C53.5702 70.7764 53.6868 70.8973 53.7674 71.0495C53.8569 71.1928 53.9015 71.354 53.9015 71.5331C53.9015 71.7121 53.8568 71.8777 53.7674 72.0299C53.6868 72.1821 53.5702 72.303 53.4179 72.3925C53.2747 72.4731 53.1135 72.5134 52.9344 72.5134C52.7553 72.5134 52.5898 72.4731 52.4376 72.3925C52.2854 72.303 52.1645 72.1821 52.0749 72.0299C51.9854 71.8777 51.9408 71.7121 51.9408 71.5331C51.9408 71.2644 52.0348 71.0361 52.2229 70.848C52.4198 70.6512 52.6569 70.5528 52.9344 70.5527Z"
              fill="#2845C1"/>
    </g>
    <g filter="url(#filter0_d_5067_11759)">
        <rect x="31" y="6.8999" width="54" height="54" rx="27" fill="white"/>
        <path fill-rule="evenodd" clip-rule="evenodd"
              d="M56.5599 14.3857C57.5094 14.1839 58.4906 14.1839 59.4401 14.3857C60.5134 14.6138 61.5234 15.1968 63.5425 16.3626L70.4575 20.3555C72.4765 21.5211 73.4863 22.1038 74.2206 22.9192C74.8701 23.6407 75.3606 24.4906 75.6606 25.4139C75.9997 26.4575 76 27.6232 76 29.9545V37.939C76 40.2706 75.9997 41.4373 75.6606 42.4809C75.3606 43.4041 74.8701 44.2543 74.2206 44.9757C73.4863 45.7911 72.4765 46.3737 70.4575 47.5394L63.5425 51.5323C61.5235 52.698 60.5133 53.2811 59.4401 53.5092C58.4907 53.7109 57.5093 53.7109 56.5599 53.5092C55.4867 53.2811 54.4765 52.698 52.4575 51.5323L45.5425 47.5394C43.5235 46.3737 42.5137 45.7911 41.7794 44.9757C41.1299 44.2543 40.6394 43.4041 40.3394 42.4809C40.0003 41.4373 40 40.2706 40 37.939V29.9545C40 27.6232 40.0003 26.4575 40.3394 25.4139C40.6394 24.4906 41.1299 23.6407 41.7794 22.9192C42.5137 22.1038 43.5235 21.5211 45.5425 20.3555L52.4575 16.3626C54.4766 15.1968 55.4866 14.6138 56.5599 14.3857ZM58 21.4345C51.1177 21.4345 45.5385 27.0137 45.5385 33.8961C45.5385 40.7783 51.1177 46.3576 58 46.3576C64.8823 46.3576 70.4615 40.7783 70.4615 33.8961C70.4615 27.0137 64.8823 21.4345 58 21.4345Z"
              fill="#2845C1"/>
        <path d="M58.0093 43.6075C56.6781 43.6075 55.4285 43.3501 54.2605 42.8352C53.0925 42.3328 52.0627 41.6358 51.171 40.7441C50.2794 39.8524 49.5761 38.8226 49.0612 37.6546C48.5588 36.4867 48.3076 35.2371 48.3076 33.9058C48.3076 32.5871 48.5588 31.3438 49.0612 30.1758C49.5761 28.9953 50.2794 27.9592 51.171 27.0675C52.0627 26.1758 53.0863 25.4788 54.2417 24.9765C55.4097 24.4616 56.6593 24.2041 57.9905 24.2041C59.3092 24.2041 60.5525 24.4616 61.7205 24.9765C62.901 25.4788 63.9371 26.1758 64.8288 27.0675C65.7205 27.9592 66.4175 28.9953 66.9199 30.1758C67.4348 31.3438 67.6922 32.5871 67.6922 33.9058C67.6922 35.2371 67.4348 36.4867 66.9199 37.6546C66.4175 38.8226 65.7205 39.8524 64.8288 40.7441C63.9497 41.6358 62.9199 42.3328 61.7393 42.8352C60.5714 43.3501 59.328 43.6075 58.0093 43.6075ZM58.0093 41.1397C59.3406 41.1397 60.5525 40.8132 61.6451 40.1601C62.7378 39.5196 63.6043 38.6531 64.2448 37.5605C64.8979 36.4678 65.2244 35.2496 65.2244 33.9058C65.2244 32.5746 64.8979 31.3627 64.2448 30.27C63.6043 29.1774 62.7378 28.3046 61.6451 27.6515C60.5525 26.9984 59.3343 26.6719 57.9905 26.6719C56.6593 26.6719 55.4473 26.9984 54.3547 27.6515C53.2747 28.3046 52.4081 29.1774 51.755 30.27C51.1145 31.3627 50.7943 32.5746 50.7943 33.9058C50.7943 35.2496 51.1145 36.4678 51.755 37.5605C52.4081 38.6531 53.2747 39.5196 54.3547 40.1601C55.4473 40.8132 56.6655 41.1397 58.0093 41.1397ZM57.9905 39.4443C56.9858 39.4443 56.0627 39.1931 55.2213 38.6908C54.3924 38.1884 53.7268 37.5165 53.2244 36.6751C52.7221 35.8462 52.4709 34.9294 52.4709 33.9247C52.4709 32.9074 52.7221 31.978 53.2244 31.1366C53.7268 30.2951 54.3924 29.6295 55.2213 29.1397C56.0627 28.6374 56.9858 28.3862 57.9905 28.3862C58.9952 28.3862 59.9183 28.6374 60.7597 29.1397C61.6012 29.6295 62.2731 30.2951 62.7754 31.1366C63.2778 31.978 63.529 32.9074 63.529 33.9247C63.529 34.9294 63.2778 35.8462 62.7754 36.6751C62.2856 37.5165 61.62 38.1884 60.7786 38.6908C59.9371 39.1931 59.0078 39.4443 57.9905 39.4443Z"
              fill="#C83F49"/>
    </g>
    <defs>
        <filter id="filter0_d_5067_11759" x="20.1" y="-9.72748e-05" width="75.8" height="75.8"
                filterUnits="userSpaceOnUse" color-interpolation-filters="sRGB">
            <feFlood flood-opacity="0" result="BackgroundImageFix"/>
            <feColorMatrix in="SourceAlpha" type="matrix" values="0 0 0 0 0 0 0 0 0 0 0 0 0 0 0 0 0 0 127 0"
                           result="hardAlpha"/>
            <feOffset dy="4"/>
            <feGaussianBlur stdDeviation="5.45"/>
            <feComposite in2="hardAlpha" operator="out"/>
            <feColorMatrix type="matrix" values="0 0 0 0 0 0 0 0 0 0 0 0 0 0 0 0 0 0 0.1 0"/>
            <feBlend mode="normal" in2="BackgroundImageFix" result="effect1_dropShadow_5067_11759"/>
            <feBlend mode="normal" in="SourceGraphic" in2="effect1_dropShadow_5067_11759" result="shape"/>
        </filter>
        <clipPath id="clip0_5067_11759">
            <rect width="56" height="16.5053" fill="white" transform="translate(30 67.8999)"/>
        </clipPath>
    </defs>
</svg>
