<?xml version="1.0" encoding="UTF-8" standalone="no"?>
<!-- Created with Inkscape (http://www.inkscape.org/) -->

<svg
   width="500"
   height="500"
   viewBox="0 0 132.29166 132.29167"
   version="1.1"
   id="svg1"
   xml:space="preserve"
   xmlns="http://www.w3.org/2000/svg"
   xmlns:svg="http://www.w3.org/2000/svg"><defs
     id="defs1"><clipPath
       clipPathUnits="userSpaceOnUse"
       id="clipPath14"><rect
         style="fill:#c83f49;fill-opacity:1;stroke:#2845c1;stroke-width:0;stroke-linecap:square;stroke-linejoin:round;stroke-miterlimit:57.5;stroke-dasharray:none;stroke-opacity:1;paint-order:stroke markers fill"
         id="rect14"
         width="55.071304"
         height="23.939577"
         x="37.707401"
         y="77.161469"
         ry="0" /></clipPath><clipPath
       clipPathUnits="userSpaceOnUse"
       id="clipPath15"><rect
         style="fill:#2845c1;fill-opacity:1;stroke:#2845c1;stroke-width:0;stroke-linecap:round;stroke-linejoin:round;stroke-miterlimit:57.5;stroke-dasharray:none;stroke-opacity:1;paint-order:stroke markers fill"
         id="rect16"
         width="69.783882"
         height="46.877838"
         x="-3.1966729"
         y="49.548431" /></clipPath></defs><g
     id="layer1"><g
       id="g17"
       transform="matrix(1.3798082,0,0,1.3798082,-25.122727,-39.554378)"><rect
         style="fill:none;fill-opacity:1;stroke:#2845c1;stroke-width:6.52265;stroke-linecap:square;stroke-linejoin:round;stroke-miterlimit:57.5;stroke-dasharray:none;stroke-opacity:1;paint-order:stroke markers fill"
         id="rect11"
         width="23.705032"
         height="45.846573"
         x="54.293316"
         y="40.004425"
         ry="12.648787"
         rx="9.1617002" /><rect
         style="fill:none;fill-opacity:1;stroke:#2845c1;stroke-width:7;stroke-linecap:square;stroke-linejoin:round;stroke-miterlimit:57.5;stroke-dasharray:none;stroke-opacity:1;paint-order:stroke markers fill"
         id="rect12"
         width="39.013947"
         height="32.402653"
         x="44.898727"
         y="61.826565"
         ry="16.201326"
         clip-path="url(#clipPath14)"
         transform="translate(1.7401326,1.5875)" /><path
         style="fill:none;fill-opacity:1;stroke:#2845c1;stroke-width:7;stroke-linecap:square;stroke-linejoin:round;stroke-miterlimit:57.5;stroke-dasharray:none;stroke-opacity:1;paint-order:stroke markers fill"
         d="m 66.134758,98.793321 0.02215,15.624319"
         id="path12" /></g><path
       style="baseline-shift:baseline;display:none;overflow:visible;opacity:1;fill:#2845c1;stroke-width:4.6;stroke-linecap:square;stroke-linejoin:round;stroke-miterlimit:57.5;stroke-dasharray:none;paint-order:stroke markers fill;enable-background:accumulate;stop-color:#000000;stop-opacity:1"
       d="m 123.04297,27.925781 -44.925783,25.9375 c -1.546915,0.893231 -2.499879,2.543795 -2.5,4.330078 v 51.875001 c 1.2e-4,1.78628 0.953085,3.43685 2.5,4.33008 l 44.925783,25.93554 c 1.54703,0.89306 3.45297,0.89306 5,0 l 44.92383,-25.93554 c 1.54692,-0.89323 2.49988,-2.5438 2.5,-4.33008 V 58.193359 c -1.2e-4,-1.786283 -0.95309,-3.436847 -2.5,-4.330078 l -44.92383,-25.9375 c -1.54703,-0.893061 -3.45297,-0.893061 -5,0 z m 6.25346,12.270645 32.41691,18.716523 a 7.5070954,7.5070954 60.000402 0 1 3.75346,6.501282 v 37.433259 a 7.5067777,7.5067777 120.00065 0 1 -3.75354,6.50114 l -32.41675,18.71485 a 7.5075495,7.5075495 179.99939 0 1 -7.50712,8e-5 L 89.370769,109.34855 a 7.5065941,7.5065941 59.998745 0 1 -3.753582,-6.50106 V 65.414231 a 7.5069118,7.5069118 120.0002 0 1 3.753502,-6.501203 L 121.78947,40.196347 a 7.5069141,7.5069141 6.0681237e-4 0 1 7.50696,7.9e-5 z"
       id="path14"
       transform="translate(-59.39616,-17.984047)" /><g
       id="g18"
       transform="translate(2.4658792)"><path
         style="fill:none;fill-opacity:1;stroke:#ffffff;stroke-width:15.1;stroke-linecap:round;stroke-linejoin:round;stroke-miterlimit:57.5;stroke-dasharray:none;stroke-opacity:1;paint-order:stroke markers fill"
         d="m 6.2321864,47.395674 c 0,0 11.7129256,0.616471 13.4595906,0.308237 1.746664,-0.308237 3.597232,-4.663728 6.070324,-4.744966 2.938115,-0.09651 3.603616,13.56565 6.604701,13.2614 4.352829,-0.441289 6.927304,-18.137716 7.976713,-17.455247 2.146679,1.396064 5.650975,7.705873 6.370188,8.219596 1.586332,1.133092 11.507435,-2.979602 13.973315,-0.513722 1.395592,1.395592 4.793757,15.133602 6.745911,15.133602 1.952154,0 6.496295,-19.379906 8.254855,-18.729679 2.445364,0.904173 4.865195,7.981825 6.963865,8.358669 1.986449,0.356692 5.081064,-19.340119 6.803959,-20.277084 1.204507,-0.655049 4.551781,20.779951 9.314532,28.809897 1.15431,1.946147 4.55604,-32.200478 6.61094,-32.61146 1.30735,-0.261471 3.27261,8.282087 7.55996,12.325556 2.68139,2.528873 8.98198,1.955995 8.98198,1.955995"
         id="path16" /><path
         style="fill:none;fill-opacity:1;stroke:#c83f49;stroke-width:8;stroke-linecap:round;stroke-linejoin:round;stroke-miterlimit:57.5;stroke-dasharray:none;stroke-opacity:1;paint-order:stroke markers fill"
         d="m 6.2321864,47.395674 c 0,0 11.7129256,0.616471 13.4595906,0.308237 1.746664,-0.308237 3.597232,-4.663728 6.070324,-4.744966 2.938115,-0.09651 3.603616,13.56565 6.604701,13.2614 4.352829,-0.441289 6.927304,-18.137716 7.976713,-17.455247 2.146679,1.396064 5.650975,7.705873 6.370188,8.219596 1.586332,1.133092 11.507435,-2.979602 13.973315,-0.513722 1.395592,1.395592 4.793757,15.133602 6.745911,15.133602 1.952154,0 6.496295,-19.379906 8.254855,-18.729679 2.445364,0.904173 4.865195,7.981825 6.963865,8.358669 1.986449,0.356692 5.081064,-19.340119 6.803959,-20.277084 1.204507,-0.655049 4.551781,20.779951 9.314532,28.809897 1.15431,1.946147 4.55604,-32.200478 6.61094,-32.61146 1.30735,-0.261471 3.27261,8.282087 7.55996,12.325556 2.68139,2.528873 8.98198,1.955995 8.98198,1.955995"
         id="path17" /></g></g></svg>
