<svg width="159" height="40" viewBox="0 0 159 40" fill="none" xmlns="http://www.w3.org/2000/svg">
    <g clip-path="url(#clip0_5074_12447)">
        <path fill-rule="evenodd" clip-rule="evenodd"
              d="M129.463 21.6855C130.689 21.6856 131.739 21.977 132.613 22.5596C133.502 23.1268 134.185 23.8855 134.66 24.8359C135.151 25.7713 135.396 26.8067 135.396 27.9414C135.396 28.7846 135.258 29.5818 134.982 30.333C134.706 31.0843 134.307 31.7513 133.786 32.334C133.28 32.9165 132.66 33.3766 131.924 33.7139C131.203 34.0358 130.383 34.1972 129.463 34.1973C128.666 34.1973 127.96 34.0672 127.347 33.8066C126.733 33.546 126.189 33.1702 125.714 32.6797C125.689 32.653 125.645 32.6695 125.645 32.7061V39.0752C125.645 39.187 125.645 39.2434 125.623 39.2861C125.604 39.3238 125.573 39.3548 125.535 39.374C125.492 39.3957 125.436 39.3955 125.324 39.3955H123.458C123.346 39.3955 123.29 39.3957 123.247 39.374C123.209 39.3548 123.178 39.3238 123.159 39.2861C123.138 39.2434 123.138 39.187 123.138 39.0752V22.4658C123.138 22.354 123.138 22.2976 123.159 22.2549C123.178 22.2173 123.209 22.1862 123.247 22.167C123.29 22.1453 123.346 22.1455 123.458 22.1455H125.324C125.436 22.1455 125.492 22.1453 125.535 22.167C125.573 22.1862 125.604 22.2173 125.623 22.2549C125.645 22.2976 125.645 22.354 125.645 22.4658V23.1758C125.645 23.2122 125.689 23.2293 125.714 23.2031C126.189 22.7126 126.733 22.3368 127.347 22.0762C127.96 21.8156 128.666 21.6855 129.463 21.6855ZM129.141 24.0547C128.42 24.0547 127.753 24.2232 127.14 24.5605C126.68 24.8081 126.275 25.1511 125.924 25.5889C125.842 25.6912 125.8 25.7425 125.754 25.833C125.719 25.9018 125.681 26.0113 125.665 26.0869C125.645 26.1865 125.645 26.2748 125.645 26.4512V29.4307C125.645 29.6071 125.645 29.6959 125.665 29.7949C125.681 29.8706 125.718 29.9791 125.753 30.0479C125.799 30.1379 125.84 30.19 125.923 30.2939C126.274 30.7354 126.679 31.0861 127.14 31.3457C127.753 31.6676 128.42 31.8281 129.141 31.8281C129.877 31.8281 130.513 31.6596 131.05 31.3223C131.602 30.9696 132.023 30.5015 132.314 29.9189C132.621 29.3364 132.774 28.6773 132.774 27.9414C132.774 27.2054 132.621 26.5456 132.314 25.9629C132.023 25.3804 131.602 24.9203 131.05 24.583C130.513 24.2304 129.877 24.0547 129.141 24.0547Z"
              fill="#2845C1"/>
        <path d="M90.6904 21.6855C91.5491 21.6855 92.3389 21.8693 93.0596 22.2373C93.69 22.5525 94.2025 22.9354 94.5967 23.3857C94.6603 23.4584 94.6924 23.4953 94.7041 23.542C94.7138 23.5809 94.7103 23.6278 94.6953 23.665C94.6773 23.7097 94.6374 23.7441 94.5586 23.8125L93.3223 24.8848C93.2311 24.9638 93.1853 25.0031 93.1387 25.0146C93.0956 25.0253 93.0568 25.0226 93.0156 25.0059C92.9711 24.9878 92.928 24.9383 92.8428 24.8398C92.6012 24.5608 92.3284 24.3218 92.0244 24.123C91.6259 23.8625 91.189 23.7325 90.7139 23.7324C90.3767 23.7324 90.0851 23.7934 89.8398 23.916C89.6098 24.0387 89.4332 24.2001 89.3105 24.3994C89.1879 24.5987 89.127 24.8211 89.127 25.0664C89.127 25.4344 89.265 25.741 89.541 25.9863C89.817 26.2162 90.1695 26.4154 90.5986 26.584C91.028 26.7527 91.4807 26.9374 91.9561 27.1367C92.4311 27.3207 92.8834 27.5503 93.3125 27.8262C93.7418 28.0868 94.0951 28.4401 94.3711 28.8848C94.6469 29.314 94.7842 29.8585 94.7842 30.5176C94.7688 31.2995 94.5779 31.9666 94.21 32.5186C93.842 33.0552 93.3506 33.4694 92.7373 33.7607C92.1242 34.0519 91.4496 34.1972 90.7139 34.1973C89.7172 34.1973 88.8503 34.0135 88.1143 33.6455C87.4703 33.3101 86.8966 32.8749 86.3936 32.3398C86.3213 32.263 86.2847 32.224 86.2715 32.1768C86.2602 32.1365 86.2623 32.0898 86.2773 32.0508C86.295 32.005 86.3371 31.9684 86.4199 31.8955L87.6514 30.8115C87.7404 30.7331 87.7854 30.6935 87.832 30.6816C87.8744 30.6709 87.9144 30.6733 87.9551 30.6895C87.9997 30.7073 88.0414 30.7543 88.124 30.8486C88.4358 31.2045 88.7776 31.5008 89.1494 31.7363C89.6094 32.0123 90.1232 32.1504 90.6904 32.1504C91.2271 32.1504 91.6413 32.0123 91.9326 31.7363C92.2239 31.4451 92.37 31.0925 92.3701 30.6787C92.3701 30.2956 92.2317 29.9887 91.9561 29.7588C91.6801 29.5288 91.3268 29.3288 90.8975 29.1602C90.4682 28.9915 90.0082 28.8148 89.5176 28.6309C89.0423 28.4315 88.5894 28.1939 88.1602 27.918C87.731 27.642 87.3784 27.2814 87.1025 26.8369C86.842 26.3923 86.7119 25.8327 86.7119 25.1582C86.7119 24.499 86.8805 23.909 87.2178 23.3877C87.5551 22.8664 88.0231 22.4522 88.6211 22.1455C89.2343 21.839 89.924 21.6856 90.6904 21.6855Z"
              fill="#2845C1"/>
        <path d="M102.357 21.6855C103.415 21.6855 104.359 21.8999 105.187 22.3291C105.931 22.6944 106.556 23.179 107.062 23.7832C107.128 23.8632 107.161 23.9039 107.172 23.9521C107.181 23.993 107.176 24.0402 107.158 24.0781C107.137 24.1228 107.094 24.1567 107.007 24.2236L105.545 25.3438C105.452 25.415 105.406 25.4508 105.36 25.46C105.318 25.4686 105.281 25.4646 105.241 25.4473C105.199 25.4287 105.157 25.3801 105.073 25.2822C104.798 24.9584 104.46 24.6871 104.06 24.4688C103.569 24.1928 102.994 24.0547 102.335 24.0547C101.798 24.0547 101.3 24.1542 100.84 24.3535C100.395 24.5375 100.004 24.8056 99.667 25.1582C99.345 25.5108 99.0922 25.9251 98.9082 26.4004C98.7395 26.8757 98.6543 27.3894 98.6543 27.9414C98.6543 28.6774 98.8157 29.3444 99.1377 29.9424C99.4597 30.525 99.8972 30.9849 100.449 31.3223C101.001 31.6595 101.645 31.8281 102.381 31.8281C103.009 31.8281 103.569 31.69 104.06 31.4141C104.46 31.1957 104.798 30.9245 105.073 30.6006C105.157 30.5025 105.199 30.4531 105.241 30.4346C105.281 30.4172 105.318 30.4133 105.36 30.4219C105.406 30.431 105.453 30.4667 105.546 30.5381L107.004 31.6572C107.092 31.7247 107.137 31.7587 107.157 31.8037C107.175 31.8419 107.179 31.8896 107.17 31.9307C107.159 31.9791 107.125 32.0195 107.057 32.0996C106.552 32.6911 105.929 33.176 105.187 33.5537C104.359 33.9829 103.415 34.1973 102.357 34.1973C101.054 34.1972 99.9271 33.914 98.9766 33.3467C98.0259 32.764 97.2899 31.9966 96.7686 31.0459C96.2627 30.0954 96.0098 29.0605 96.0098 27.9414C96.0098 27.0981 96.155 26.3002 96.4463 25.5488C96.7376 24.7976 97.16 24.1304 97.7119 23.5479C98.2639 22.9653 98.931 22.5133 99.7129 22.1914C100.495 21.8541 101.376 21.6856 102.357 21.6855Z"
              fill="#2845C1"/>
        <path d="M149.868 21.6855C150.727 21.6856 151.517 21.8693 152.237 22.2373C152.868 22.5526 153.38 22.9354 153.774 23.3857C153.838 23.4584 153.87 23.4953 153.882 23.542C153.892 23.5809 153.888 23.6278 153.873 23.665C153.855 23.7097 153.815 23.7441 153.736 23.8125L152.5 24.8848C152.409 24.9638 152.363 25.0031 152.316 25.0146C152.273 25.0253 152.235 25.0226 152.193 25.0059C152.149 24.9878 152.106 24.9383 152.021 24.8398C151.779 24.5608 151.506 24.3218 151.202 24.123C150.803 23.8624 150.366 23.7324 149.891 23.7324C149.553 23.7325 149.262 23.7934 149.017 23.916C148.787 24.0387 148.611 24.2002 148.488 24.3994C148.366 24.5987 148.304 24.8211 148.304 25.0664C148.304 25.4343 148.442 25.741 148.718 25.9863C148.994 26.2163 149.347 26.4153 149.776 26.584C150.206 26.7526 150.658 26.9374 151.133 27.1367C151.608 27.3207 152.061 27.5502 152.49 27.8262C152.92 28.0868 153.272 28.4401 153.548 28.8848C153.824 29.3141 153.962 29.8584 153.962 30.5176C153.947 31.2995 153.755 31.9666 153.387 32.5186C153.019 33.0551 152.528 33.4695 151.915 33.7607C151.302 34.052 150.627 34.1973 149.891 34.1973C148.894 34.1972 148.028 34.0134 147.292 33.6455C146.648 33.3101 146.074 32.8749 145.571 32.3398C145.499 32.2629 145.462 32.224 145.449 32.1768C145.438 32.1365 145.44 32.0898 145.455 32.0508C145.473 32.005 145.515 31.9684 145.598 31.8955L146.829 30.8115C146.918 30.7331 146.963 30.6935 147.01 30.6816C147.052 30.6709 147.092 30.6733 147.133 30.6895C147.177 30.7073 147.219 30.7543 147.302 30.8486C147.614 31.2045 147.955 31.5008 148.327 31.7363C148.787 32.0123 149.301 32.1504 149.868 32.1504C150.405 32.1504 150.819 32.0123 151.11 31.7363C151.401 31.4451 151.547 31.0925 151.547 30.6787C151.547 30.2954 151.409 29.9888 151.133 29.7588C150.857 29.5288 150.504 29.3288 150.075 29.1602C149.646 28.9915 149.186 28.8148 148.695 28.6309C148.22 28.4315 147.767 28.194 147.338 27.918C146.909 27.642 146.556 27.2815 146.28 26.8369C146.02 26.3923 145.889 25.8328 145.889 25.1582C145.889 24.4991 146.057 23.9089 146.395 23.3877C146.732 22.8664 147.2 22.4522 147.798 22.1455C148.411 21.8388 149.101 21.6855 149.868 21.6855Z"
              fill="#2845C1"/>
        <path fill-rule="evenodd" clip-rule="evenodd"
              d="M65.9512 21.6855C67.0092 21.6855 67.9066 21.8774 68.6426 22.2607C69.3784 22.6441 69.9309 23.1731 70.2988 23.8477C70.6666 24.5068 70.8505 25.2657 70.8506 26.124V33.417C70.8506 33.5288 70.8508 33.5852 70.8291 33.6279C70.8099 33.6656 70.7788 33.6966 70.7412 33.7158C70.6985 33.7375 70.6421 33.7373 70.5303 33.7373H68.6865C68.5747 33.7373 68.5183 33.7375 68.4756 33.7158C68.438 33.6966 68.4069 33.6656 68.3877 33.6279C68.366 33.5852 68.3662 33.5288 68.3662 33.417V32.915C68.3662 32.769 68.3662 32.6958 68.3428 32.668C68.3212 32.6424 68.2941 32.631 68.2607 32.6328C68.2244 32.6349 68.168 32.688 68.0557 32.7939C67.9798 32.8654 67.8993 32.9343 67.8145 33.001C67.4005 33.3383 66.9172 33.5992 66.3652 33.7832C65.8286 33.9825 65.2763 34.082 64.709 34.082C63.5592 34.082 62.6239 33.7754 61.9033 33.1621C61.1828 32.5488 60.8223 31.7284 60.8223 30.7012C60.8223 29.8272 61.1522 29.0911 61.8115 28.4932C62.4708 27.8799 63.4213 27.4656 64.6631 27.251L68.0996 26.667C68.1943 26.6509 68.2418 26.6429 68.2773 26.6191C68.3085 26.5983 68.3333 26.5693 68.3486 26.5352C68.3661 26.4962 68.3662 26.4476 68.3662 26.3516V26.124C68.3661 25.4342 68.1286 24.8898 67.6533 24.4912C67.1933 24.0926 66.5953 23.8936 65.8594 23.8936C65.2614 23.8936 64.7172 24.0316 64.2266 24.3076C63.8467 24.516 63.5154 24.7883 63.2334 25.124C63.1522 25.2207 63.111 25.2693 63.0684 25.2881C63.0288 25.3054 62.9916 25.3092 62.9492 25.3008C62.9036 25.2917 62.8569 25.2562 62.7646 25.1855L61.417 24.1533C61.3298 24.0866 61.2864 24.0526 61.2656 24.0078C61.2482 23.9701 61.2424 23.9235 61.251 23.8828C61.2613 23.8346 61.295 23.7946 61.3613 23.7148C61.8508 23.1269 62.4532 22.6574 63.168 22.3066C63.9806 21.8927 64.9086 21.6856 65.9512 21.6855ZM68.1787 28.4365L65.3076 28.9307C64.6176 29.038 64.1192 29.237 63.8125 29.5283C63.5059 29.8196 63.3526 30.1721 63.3525 30.5859C63.3525 31.0152 63.5131 31.3686 63.835 31.6445C64.1723 31.9205 64.6179 32.0586 65.1699 32.0586C65.8904 32.0585 66.5191 31.8971 67.0557 31.5752C67.4604 31.3323 67.8083 31.0282 68.0996 30.6631C68.1738 30.5702 68.2109 30.5236 68.2568 30.4336C68.2908 30.3669 68.3307 30.2531 68.3457 30.1797C68.366 30.0804 68.3662 29.9956 68.3662 29.8262V28.5938C68.3662 28.5287 68.3658 28.4958 68.3525 28.4727C68.3408 28.4526 68.3226 28.4367 68.3008 28.4287C68.2757 28.4195 68.243 28.4255 68.1787 28.4365Z"
              fill="#2845C1"/>
        <path d="M140.329 19.2471C140.441 19.2471 140.497 19.2469 140.54 19.2686C140.578 19.2877 140.609 19.3188 140.628 19.3564C140.65 19.3992 140.649 19.4556 140.649 19.5674V21.8252C140.649 21.937 140.649 21.9934 140.671 22.0361C140.69 22.0738 140.721 22.1048 140.759 22.124C140.802 22.1457 140.858 22.1455 140.97 22.1455H144.078C144.19 22.1455 144.246 22.1453 144.289 22.167C144.327 22.1862 144.358 22.2173 144.377 22.2549C144.399 22.2976 144.398 22.354 144.398 22.4658V24.0791C144.398 24.1909 144.399 24.2473 144.377 24.29C144.358 24.3277 144.327 24.3588 144.289 24.3779C144.246 24.3996 144.19 24.3994 144.078 24.3994H140.97C140.858 24.3994 140.802 24.3992 140.759 24.4209C140.721 24.4401 140.69 24.4712 140.671 24.5088C140.649 24.5515 140.649 24.6079 140.649 24.7197V29.6436C140.649 30.1494 140.727 30.5557 140.88 30.8623C141.049 31.1536 141.286 31.3608 141.593 31.4834C141.899 31.606 142.267 31.667 142.696 31.667C143.095 31.667 143.433 31.6446 143.709 31.5986C143.813 31.5756 143.911 31.5525 144.004 31.5293C144.153 31.4922 144.228 31.4737 144.281 31.4902C144.329 31.5051 144.367 31.5343 144.393 31.5771C144.422 31.6249 144.422 31.6996 144.422 31.8477V33.4092C144.422 33.4858 144.422 33.5247 144.408 33.5596C144.397 33.5888 144.375 33.6193 144.352 33.6396C144.323 33.6638 144.29 33.6751 144.224 33.6982C143.989 33.7803 143.741 33.8393 143.479 33.875C143.141 33.9363 142.742 33.9678 142.282 33.9678C141.363 33.9677 140.588 33.8062 139.96 33.4844C139.347 33.1624 138.879 32.6792 138.557 32.0352C138.25 31.3912 138.097 30.5941 138.097 29.6436V24.7197C138.097 24.6079 138.097 24.5515 138.075 24.5088C138.056 24.4712 138.025 24.4401 137.987 24.4209C137.945 24.3992 137.888 24.3994 137.776 24.3994H136.255C136.143 24.3994 136.087 24.3996 136.044 24.3779C136.006 24.3588 135.975 24.3277 135.956 24.29C135.934 24.2473 135.935 24.1909 135.935 24.0791V22.4658C135.935 22.354 135.934 22.2976 135.956 22.2549C135.975 22.2173 136.006 22.1862 136.044 22.167C136.087 22.1453 136.143 22.1455 136.255 22.1455H137.776C137.888 22.1455 137.945 22.1457 137.987 22.124C138.025 22.1048 138.056 22.0738 138.075 22.0361C138.097 21.9934 138.097 21.937 138.097 21.8252V19.5674C138.097 19.4556 138.096 19.3992 138.118 19.3564C138.137 19.3188 138.168 19.2877 138.206 19.2686C138.249 19.2469 138.305 19.2471 138.417 19.2471H140.329Z"
              fill="#2845C1"/>
        <path d="M52.7207 17.6377C52.8325 17.6377 52.8889 17.6375 52.9316 17.6592C52.9693 17.6784 53.0004 17.7094 53.0195 17.7471C53.0412 17.7898 53.041 17.8462 53.041 17.958V19.8701C53.041 19.9819 53.0412 20.0383 53.0195 20.0811C53.0004 20.1187 52.9693 20.1498 52.9316 20.1689C52.8889 20.1906 52.8325 20.1904 52.7207 20.1904H48.2324C48.1206 20.1904 48.0642 20.1902 48.0215 20.2119C47.9839 20.2311 47.9528 20.2622 47.9336 20.2998C47.9119 20.3426 47.9121 20.399 47.9121 20.5107V33.417C47.9121 33.5288 47.9123 33.5852 47.8906 33.6279C47.8715 33.6656 47.8404 33.6966 47.8027 33.7158C47.76 33.7375 47.7036 33.7373 47.5918 33.7373H45.4268C45.315 33.7373 45.2586 33.7375 45.2158 33.7158C45.1782 33.6966 45.1471 33.6656 45.1279 33.6279C45.1063 33.5852 45.1064 33.5288 45.1064 33.417V20.5107C45.1064 20.399 45.1066 20.3426 45.085 20.2998C45.0658 20.2622 45.0347 20.2311 44.9971 20.2119C44.9543 20.1902 44.8979 20.1904 44.7861 20.1904H40.3203C40.2085 20.1904 40.1521 20.1906 40.1094 20.1689C40.0717 20.1498 40.0407 20.1187 40.0215 20.0811C39.9998 20.0383 40 19.9819 40 19.8701V17.958C40 17.8462 39.9998 17.7898 40.0215 17.7471C40.0407 17.7094 40.0717 17.6784 40.1094 17.6592C40.1521 17.6375 40.2085 17.6377 40.3203 17.6377H52.7207Z"
              fill="#2845C1"/>
        <path d="M59.1465 21.915C59.3457 21.9151 59.5297 21.9303 59.6982 21.9609C59.7814 21.9761 59.8608 21.9928 59.9365 22.0117C60.0092 22.0299 60.0459 22.0393 60.0781 22.0635C60.1049 22.0835 60.1296 22.1156 60.1426 22.1465C60.158 22.1835 60.1582 22.2246 60.1582 22.3066V24.127C60.1582 24.2674 60.1578 24.3383 60.1309 24.3848C60.1064 24.4268 60.0722 24.4561 60.0264 24.4727C59.9758 24.4909 59.9029 24.4774 59.7578 24.4512C59.7003 24.4408 59.6418 24.4309 59.583 24.4219C59.399 24.3912 59.1766 24.376 58.916 24.376C58.4407 24.376 58.0112 24.4531 57.6279 24.6064C57.2447 24.7598 56.9146 24.9669 56.6387 25.2275C56.4762 25.381 56.3298 25.5425 56.1992 25.7119C56.1311 25.8004 56.0965 25.8451 56.0527 25.9336C56.0208 25.9983 55.9828 26.111 55.9688 26.1816C55.9495 26.2784 55.9492 26.3595 55.9492 26.5215V33.417C55.9492 33.5288 55.9494 33.5852 55.9277 33.6279C55.9086 33.6656 55.8775 33.6966 55.8398 33.7158C55.7971 33.7375 55.7407 33.7373 55.6289 33.7373H53.7627C53.6509 33.7373 53.5945 33.7375 53.5518 33.7158C53.5141 33.6966 53.483 33.6656 53.4639 33.6279C53.4422 33.5852 53.4424 33.5288 53.4424 33.417V22.4658C53.4424 22.354 53.4422 22.2976 53.4639 22.2549C53.483 22.2173 53.5141 22.1862 53.5518 22.167C53.5945 22.1453 53.6509 22.1455 53.7627 22.1455H55.6289C55.7407 22.1455 55.7971 22.1453 55.8398 22.167C55.8775 22.1862 55.9086 22.2173 55.9277 22.2549C55.9494 22.2976 55.9492 22.354 55.9492 22.4658V23.0078C55.9492 23.1366 55.9492 23.2014 55.9727 23.2295C55.9936 23.2543 56.0233 23.2668 56.0557 23.2646C56.0922 23.2621 56.1405 23.2163 56.2354 23.124C56.3298 23.0322 56.4259 22.9435 56.5244 22.8584C56.877 22.5671 57.268 22.3366 57.6973 22.168C58.1265 21.9994 58.6099 21.915 59.1465 21.915Z"
              fill="#2845C1"/>
        <path d="M79.8994 21.6855C80.7581 21.6855 81.5255 21.8774 82.2002 22.2607C82.8899 22.644 83.4263 23.211 83.8096 23.9619C84.2082 24.7132 84.4082 25.6565 84.4082 26.791V33.417C84.4082 33.5288 84.4084 33.5852 84.3867 33.6279C84.3675 33.6656 84.3365 33.6966 84.2988 33.7158C84.2561 33.7375 84.1997 33.7373 84.0879 33.7373H82.1982C82.0865 33.7373 82.0301 33.7375 81.9873 33.7158C81.9497 33.6966 81.9186 33.6656 81.8994 33.6279C81.8778 33.5852 81.8779 33.5288 81.8779 33.417V26.8838C81.8779 25.9945 81.6475 25.3041 81.1875 24.8135C80.7275 24.3075 80.099 24.0547 79.3018 24.0547C78.7958 24.0547 78.3511 24.1542 77.9678 24.3535C77.5845 24.5375 77.2545 24.7751 76.9785 25.0664C76.8219 25.2414 76.6763 25.4223 76.542 25.6084C76.4628 25.7181 76.4236 25.7733 76.3838 25.8584C76.3524 25.9254 76.3204 26.023 76.3066 26.0957C76.2891 26.1881 76.2891 26.2725 76.2891 26.4414V33.417C76.2891 33.5288 76.2892 33.5852 76.2676 33.6279C76.2484 33.6656 76.2173 33.6966 76.1797 33.7158C76.1369 33.7375 76.0805 33.7373 75.9688 33.7373H74.1025C73.9908 33.7373 73.9343 33.7375 73.8916 33.7158C73.854 33.6966 73.8229 33.6656 73.8037 33.6279C73.782 33.5852 73.7822 33.5288 73.7822 33.417V22.4658C73.7822 22.354 73.782 22.2976 73.8037 22.2549C73.8229 22.2173 73.854 22.1862 73.8916 22.167C73.9343 22.1453 73.9908 22.1455 74.1025 22.1455H75.9688C76.0805 22.1455 76.1369 22.1453 76.1797 22.167C76.2173 22.1862 76.2484 22.2173 76.2676 22.2549C76.2892 22.2976 76.2891 22.354 76.2891 22.4658V22.8223C76.2891 22.9496 76.2888 23.0141 76.3115 23.042C76.3322 23.067 76.3612 23.0795 76.3936 23.0781C76.4295 23.0764 76.4791 23.0325 76.5771 22.9443C76.9372 22.6205 77.3468 22.3461 77.8066 22.1221C78.4045 21.8308 79.1023 21.6856 79.8994 21.6855Z"
              fill="#2845C1"/>
        <path d="M114.679 21.915C114.878 21.915 115.062 21.9303 115.23 21.9609C115.314 21.976 115.393 21.9928 115.469 22.0117C115.541 22.0299 115.578 22.0393 115.61 22.0635C115.637 22.0835 115.662 22.1156 115.675 22.1465C115.69 22.1835 115.69 22.2246 115.69 22.3066V24.127C115.69 24.2674 115.69 24.3383 115.663 24.3848C115.639 24.4268 115.604 24.4561 115.559 24.4727C115.508 24.4909 115.435 24.4774 115.29 24.4512C115.232 24.4408 115.174 24.4309 115.115 24.4219C114.931 24.3913 114.709 24.376 114.448 24.376C113.973 24.376 113.543 24.4531 113.16 24.6064C112.777 24.7598 112.448 24.967 112.172 25.2275C112.009 25.3812 111.862 25.5433 111.731 25.7129C111.664 25.8008 111.629 25.845 111.585 25.9336C111.553 25.9983 111.515 26.1111 111.501 26.1816C111.482 26.2785 111.481 26.3596 111.481 26.5215V33.417C111.481 33.5288 111.482 33.5852 111.46 33.6279C111.441 33.6656 111.41 33.6966 111.372 33.7158C111.329 33.7375 111.273 33.7373 111.161 33.7373H109.295C109.183 33.7373 109.127 33.7375 109.084 33.7158C109.046 33.6966 109.015 33.6656 108.996 33.6279C108.974 33.5852 108.975 33.5288 108.975 33.417V22.4658C108.975 22.354 108.974 22.2976 108.996 22.2549C109.015 22.2173 109.046 22.1862 109.084 22.167C109.127 22.1453 109.183 22.1455 109.295 22.1455H111.161C111.273 22.1455 111.329 22.1453 111.372 22.167C111.41 22.1862 111.441 22.2173 111.46 22.2549C111.482 22.2976 111.481 22.354 111.481 22.4658V23.0078C111.481 23.1366 111.481 23.2014 111.505 23.2295C111.526 23.2543 111.556 23.2668 111.588 23.2646C111.624 23.2621 111.673 23.2163 111.768 23.124C111.862 23.0322 111.958 22.9435 112.057 22.8584C112.409 22.5671 112.8 22.3366 113.229 22.168C113.659 21.9993 114.142 21.915 114.679 21.915Z"
              fill="#2845C1"/>
        <path d="M119.726 22.1455C119.837 22.1455 119.894 22.1453 119.937 22.167C119.974 22.1862 120.005 22.2173 120.024 22.2549C120.046 22.2976 120.046 22.354 120.046 22.4658V33.417C120.046 33.5288 120.046 33.5852 120.024 33.6279C120.005 33.6656 119.974 33.6966 119.937 33.7158C119.894 33.7375 119.837 33.7373 119.726 33.7373H117.858C117.747 33.7373 117.69 33.7375 117.647 33.7158C117.61 33.6966 117.579 33.6656 117.56 33.6279C117.538 33.5852 117.538 33.5288 117.538 33.417V22.4658C117.538 22.354 117.538 22.2976 117.56 22.2549C117.579 22.2173 117.61 22.1862 117.647 22.167C117.69 22.1453 117.747 22.1455 117.858 22.1455H119.726Z"
              fill="#2845C1"/>
        <path d="M118.804 16.3496C119.11 16.3497 119.387 16.4258 119.632 16.5791C119.892 16.7171 120.1 16.9171 120.253 17.1777C120.406 17.4383 120.482 17.7219 120.482 18.0283C120.482 18.3348 120.406 18.6184 120.253 18.8789C120.1 19.1242 119.892 19.3242 119.632 19.4775C119.387 19.6308 119.11 19.707 118.804 19.707C118.512 19.707 118.236 19.6308 117.976 19.4775C117.715 19.3242 117.508 19.1242 117.354 18.8789C117.201 18.6183 117.124 18.3349 117.124 18.0283C117.124 17.5684 117.285 17.1774 117.607 16.8555C117.945 16.5181 118.344 16.3496 118.804 16.3496Z"
              fill="#2845C1"/>
        <path d="M52.8844 6.63368C53.3768 6.63368 53.8336 6.74117 54.2545 6.95604C54.6461 7.15189 54.9598 7.39601 55.1954 7.68851C55.234 7.73652 55.2256 7.80612 55.1787 7.84613L54.3512 8.55217C54.299 8.59669 54.2201 8.58723 54.1769 8.53399C54.024 8.34586 53.8483 8.18694 53.65 8.05728C53.4172 7.90512 53.1619 7.82874 52.8844 7.82874C52.6876 7.82877 52.5176 7.86482 52.3744 7.93639C52.24 8.00802 52.1369 8.10206 52.0652 8.21846C52.0026 8.33486 51.9714 8.46492 51.9714 8.60818C51.9714 8.82294 52.0473 9.00206 52.1994 9.14527C52.3605 9.27959 52.5669 9.3962 52.8176 9.4947C53.0683 9.59316 53.3322 9.7007 53.6097 9.81706C53.8963 9.92451 54.1649 10.0589 54.4156 10.22C54.6664 10.3722 54.8679 10.578 55.0201 10.8377C55.1812 11.0884 55.2618 11.4061 55.2619 11.791C55.2619 12.2476 55.15 12.6373 54.9263 12.9596C54.7114 13.2729 54.4249 13.5148 54.0668 13.6849C53.7086 13.855 53.3142 13.9405 52.8844 13.9405C52.3025 13.9405 51.7967 13.833 51.367 13.6181C50.9709 13.4119 50.6205 13.1406 50.3157 12.8051C50.2723 12.7573 50.2776 12.6835 50.326 12.6409L51.1533 11.9129C51.2038 11.8685 51.2811 11.8754 51.325 11.9264C51.5197 12.1522 51.7352 12.3402 51.9714 12.4898C52.24 12.6599 52.5399 12.7449 52.8712 12.7449C53.1846 12.7449 53.4221 12.6643 53.5832 12.5031C53.7533 12.333 53.8382 12.1271 53.8383 11.8854C53.8383 11.6616 53.7576 11.4826 53.5965 11.3483C53.4443 11.214 53.2428 11.0974 52.992 10.9989C52.7413 10.9004 52.4727 10.7972 52.1861 10.6898C51.9087 10.5734 51.6446 10.4347 51.394 10.2736C51.1433 10.1124 50.9369 9.90655 50.7758 9.65588C50.6235 9.3962 50.5478 9.06467 50.5478 8.66172C50.5478 8.28567 50.6461 7.94551 50.8431 7.64108C51.0401 7.32767 51.3131 7.08102 51.6623 6.90193C52.0204 6.72289 52.4278 6.63371 52.8844 6.63368Z"
              fill="#2845C1"/>
        <path d="M58.4631 6.63368C58.9555 6.6337 59.4124 6.74116 59.8332 6.95604C60.2248 7.15189 60.5386 7.39602 60.7741 7.68851C60.8127 7.73652 60.8043 7.80612 60.7574 7.84612L59.9299 8.55216C59.8777 8.59669 59.7988 8.58722 59.7556 8.53398C59.6027 8.34583 59.427 8.18696 59.2287 8.05728C58.996 7.90508 58.7406 7.82877 58.4631 7.82874C58.2661 7.82874 58.0958 7.86475 57.9525 7.93639C57.8182 8.00802 57.715 8.10206 57.6434 8.21846C57.5807 8.33485 57.5495 8.46495 57.5495 8.60818C57.5496 8.823 57.6259 9.00204 57.7781 9.14527C57.9392 9.27956 58.1451 9.39622 58.3957 9.4947C58.6465 9.59319 58.9109 9.70066 59.1884 9.81706C59.4749 9.9245 59.7437 10.0589 59.9943 10.22C60.2449 10.3722 60.4466 10.5781 60.5988 10.8377C60.7599 11.0883 60.8405 11.4062 60.8406 11.791C60.8406 12.2476 60.7282 12.6372 60.5044 12.9596C60.2895 13.273 60.0031 13.5148 59.6449 13.6849C59.2868 13.855 58.8928 13.9405 58.4631 13.9405C57.8811 13.9405 57.3749 13.833 56.9451 13.6181C56.5491 13.4119 56.1986 13.1406 55.8938 12.8051C55.8504 12.7573 55.8557 12.6835 55.9042 12.6409L56.7314 11.9129C56.7819 11.8685 56.8592 11.8754 56.9031 11.9264C57.0978 12.1522 57.3133 12.3402 57.5495 12.4898C57.8181 12.6599 58.1181 12.7448 58.4493 12.7449C58.7627 12.7449 59.0002 12.6643 59.1614 12.5031C59.3315 12.333 59.4164 12.1271 59.4164 11.8854C59.4164 11.6616 59.3358 11.4826 59.1746 11.3483C59.0224 11.214 58.8209 11.0974 58.5702 10.9989C58.3195 10.9004 58.0507 10.7972 57.7642 10.6898C57.4868 10.5734 57.2228 10.4347 56.9721 10.2736C56.7215 10.1124 56.5156 9.90647 56.3545 9.65588C56.2022 9.3962 56.1259 9.06467 56.1259 8.66172C56.1259 8.2857 56.2243 7.94549 56.4212 7.64108C56.6182 7.32771 56.8912 7.08102 57.2404 6.90193C57.5986 6.72284 58.0064 6.63368 58.4631 6.63368Z"
              fill="#2845C1"/>
        <path d="M67.311 6.63368C67.8034 6.63368 68.2602 6.74114 68.681 6.95604C69.0727 7.1519 69.3864 7.39599 69.6219 7.68851C69.6606 7.73652 69.6522 7.80612 69.6053 7.84612L68.7777 8.55217C68.7255 8.59669 68.6467 8.58723 68.6034 8.53399C68.4506 8.34584 68.2749 8.18695 68.0766 8.05728C67.8438 7.90506 67.5885 7.82874 67.311 7.82874C67.114 7.82875 66.9436 7.86476 66.8004 7.93639C66.6661 8.008 66.5634 8.10214 66.4918 8.21846C66.4291 8.33487 66.3974 8.46491 66.3974 8.60818C66.3974 8.82299 66.4738 9.00205 66.6259 9.14527C66.7871 9.27957 66.9929 9.39621 67.2436 9.4947C67.4943 9.59319 67.7587 9.70066 68.0363 9.81706C68.3228 9.92451 68.5915 10.0589 68.8422 10.22C69.0929 10.3722 69.2944 10.5781 69.4466 10.8377C69.6078 11.0884 69.6884 11.4061 69.6884 11.791C69.6884 12.2475 69.5766 12.6373 69.3528 12.9596C69.1379 13.273 68.851 13.5148 68.4928 13.6849C68.1346 13.855 67.7407 13.9405 67.311 13.9405C66.7289 13.9405 66.2228 13.833 65.7929 13.6181C65.397 13.4119 65.0469 13.1406 64.7422 12.8051C64.6988 12.7573 64.7041 12.6835 64.7525 12.6409L65.5793 11.913C65.6298 11.8685 65.7071 11.8754 65.751 11.9264C65.9457 12.1522 66.1612 12.3402 66.3974 12.4898C66.666 12.66 66.9664 12.7449 67.2977 12.7449C67.611 12.7448 67.8481 12.6642 68.0092 12.5031C68.1793 12.333 68.2648 12.1271 68.2648 11.8854C68.2648 11.6617 68.1841 11.4826 68.023 11.3483C67.8709 11.214 67.6693 11.0974 67.4186 10.9989C67.1679 10.9004 66.8992 10.7972 66.6127 10.6898C66.3351 10.5734 66.0707 10.4347 65.82 10.2736C65.5694 10.1124 65.3635 9.9065 65.2023 9.65588C65.0501 9.3962 64.9738 9.06467 64.9738 8.66172C64.9738 8.28563 65.0727 7.94553 65.2697 7.64108C65.4667 7.32768 65.7396 7.08102 66.0888 6.90193C66.447 6.72291 66.8544 6.63368 67.311 6.63368Z"
              fill="#2845C1"/>
        <path fill-rule="evenodd" clip-rule="evenodd"
              d="M79.0177 6.76838C79.6355 6.76839 80.1594 6.88014 80.5892 7.10399C81.019 7.32785 81.3414 7.63682 81.5563 8.0308C81.7802 8.42478 81.8919 8.86809 81.8919 9.36057V13.6885C81.8919 13.7536 81.8392 13.8064 81.7741 13.8064H80.5321C80.467 13.8064 80.4142 13.7536 80.4142 13.6885V13.2408C80.4142 13.1852 80.3422 13.1588 80.3034 13.1988C80.2434 13.2606 80.1776 13.3198 80.1057 13.3764C79.8639 13.5734 79.5818 13.726 79.2595 13.8334C78.9372 13.9498 78.6104 14.0078 78.2791 14.0079C77.6165 14.0079 77.0743 13.8289 76.6535 13.4708C76.2326 13.1126 76.0225 12.6333 76.0225 12.0333C76.0226 11.523 76.2149 11.0888 76.5999 10.7306C76.9849 10.3725 77.5401 10.135 78.2653 10.0185L80.3161 9.67025C80.3728 9.66062 80.4142 9.61151 80.4142 9.55402V9.36057C80.4142 8.95775 80.2803 8.64436 80.0119 8.42052C79.7433 8.18775 79.3938 8.07114 78.9642 8.07109C78.6149 8.07109 78.2968 8.14741 78.0103 8.29963C77.7678 8.43262 77.5594 8.60995 77.3853 8.83177C77.3438 8.88452 77.2676 8.89657 77.2143 8.85582L76.3148 8.16761C76.2642 8.12891 76.2533 8.05685 76.2924 8.00651C76.578 7.63819 76.9401 7.3463 77.3788 7.13104C77.8623 6.88928 78.4088 6.76838 79.0177 6.76838ZM78.6418 10.9995C78.2389 11.0621 77.9476 11.1782 77.7685 11.3483C77.5895 11.5094 77.4997 11.7154 77.4997 11.966C77.4997 12.2167 77.5937 12.4231 77.7818 12.5843C77.9787 12.7454 78.2431 12.826 78.5744 12.826C78.9863 12.826 79.349 12.732 79.6624 12.544C79.9196 12.3896 80.1371 12.1927 80.3157 11.9539C80.3833 11.8634 80.4142 11.7517 80.4142 11.6387V10.8444C80.4142 10.7716 80.3489 10.7162 80.277 10.7281L78.6418 10.9995Z"
              fill="#2845C1"/>
        <path d="M73.0026 6.91874C73.0026 6.98385 73.0554 7.03664 73.1205 7.03664H75.0745C75.1397 7.03664 75.1924 7.08942 75.1924 7.15453V8.24851C75.1924 8.31362 75.1397 8.36641 75.0745 8.36641H73.1205C73.0554 8.36641 73.0026 8.41919 73.0026 8.4843V11.4157C73.0026 11.7111 73.0521 11.9438 73.1506 12.1139C73.249 12.284 73.3878 12.4092 73.5668 12.4898C73.7459 12.5615 73.9565 12.5975 74.1983 12.5975C74.4311 12.5975 74.6283 12.5841 74.7895 12.5572C74.8813 12.5368 74.9659 12.5149 75.0432 12.4916C75.1224 12.4677 75.2057 12.5252 75.2057 12.608V13.6624C75.2057 13.709 75.1784 13.7516 75.135 13.7685C74.9914 13.8244 74.8312 13.864 74.6548 13.887C74.4578 13.9228 74.225 13.9405 73.9565 13.9405C73.4193 13.9405 72.9668 13.8465 72.5997 13.6584C72.2417 13.4614 71.9685 13.1792 71.7805 12.8122C71.6015 12.4362 71.5123 11.9707 71.5123 11.4157V8.4843C71.5123 8.41919 71.4595 8.36641 71.3944 8.36641H70.4218C70.3567 8.36641 70.304 8.31362 70.304 8.24851V7.15453C70.304 7.08942 70.3567 7.03664 70.4218 7.03664H71.3944C71.4595 7.03664 71.5123 6.98385 71.5123 6.91874V5.46267C71.5123 5.39756 71.565 5.34478 71.6302 5.34478H72.8847C72.9499 5.34478 73.0026 5.39756 73.0026 5.46267V6.91874Z"
              fill="#2845C1"/>
        <path d="M93.3844 6.91874C93.3844 6.98385 93.4372 7.03664 93.5023 7.03664H95.4557C95.5208 7.03664 95.5736 7.08942 95.5736 7.15453V8.24851C95.5736 8.31362 95.5208 8.36641 95.4557 8.36641H93.5023C93.4372 8.36641 93.3844 8.41919 93.3844 8.4843V11.4157C93.3844 11.711 93.4333 11.9438 93.5317 12.1139C93.6302 12.2841 93.7694 12.4093 93.9485 12.4898C94.1276 12.5615 94.3378 12.5975 94.5794 12.5975C94.8123 12.5975 95.0095 12.5841 95.1707 12.5572C95.2625 12.5368 95.3471 12.5149 95.4244 12.4916C95.5036 12.4676 95.5868 12.5252 95.5868 12.6079V13.6624C95.5868 13.709 95.5595 13.7516 95.5161 13.7685C95.3727 13.8244 95.2128 13.864 95.0365 13.887C94.8395 13.9228 94.6063 13.9405 94.3377 13.9405C93.8005 13.9405 93.3485 13.8464 92.9814 13.6584C92.6233 13.4614 92.3503 13.1793 92.1623 12.8122C91.9832 12.4362 91.8934 11.9707 91.8934 11.4157V8.4843C91.8934 8.41919 91.8406 8.36641 91.7755 8.36641H90.7489C90.6838 8.36641 90.631 8.31362 90.631 8.24851V7.15453C90.631 7.08942 90.6838 7.03664 90.7489 7.03664H91.7755C91.8406 7.03664 91.8934 6.98385 91.8934 6.91874V5.46267C91.8934 5.39756 91.9462 5.34478 92.0113 5.34478H93.2665C93.3316 5.34478 93.3844 5.39756 93.3844 5.46267V6.91874Z"
              fill="#2845C1"/>
        <path fill-rule="evenodd" clip-rule="evenodd"
              d="M49.9154 13.6459C49.9453 13.7232 49.8883 13.8064 49.8054 13.8064H48.2997C48.2507 13.8064 48.2068 13.776 48.1894 13.7302L47.2713 11.3036C47.254 11.2578 47.2101 11.2274 47.1611 11.2274H43.3426C43.2936 11.2274 43.2498 11.2577 43.2324 11.3035L42.3104 13.7303C42.293 13.7761 42.2491 13.8064 42.2002 13.8064H40.7074C40.6246 13.8064 40.5676 13.7233 40.5974 13.6461L44.1325 4.47963C44.15 4.43415 44.1938 4.40415 44.2425 4.40415H46.2568C46.3055 4.40415 46.3492 4.43408 46.3668 4.47949L49.9154 13.6459ZM43.8527 9.67111C43.8234 9.74826 43.8804 9.83088 43.963 9.83088H46.5434C46.6259 9.83088 46.6828 9.74838 46.6536 9.67125L45.366 6.2693C45.3276 6.16783 45.184 6.16773 45.1455 6.26916L43.8527 9.67111Z"
              fill="#2845C1"/>
        <path d="M63.6597 13.6885C63.6597 13.7536 63.6069 13.8064 63.5418 13.8064H62.3005C62.2354 13.8064 62.1826 13.7536 62.1826 13.6885V7.15453C62.1826 7.08942 62.2354 7.03664 62.3005 7.03664H63.5418C63.6069 7.03664 63.6597 7.08942 63.6597 7.15453V13.6885Z"
              fill="#2845C1"/>
        <path d="M87.1632 6.76838C87.6646 6.76838 88.1123 6.88018 88.5063 7.10399C88.9092 7.32785 89.2273 7.65938 89.4601 8.09815C89.6929 8.53689 89.8095 9.08774 89.8095 9.75029V13.6885C89.8095 13.7536 89.7568 13.8064 89.6917 13.8064H88.4365C88.3714 13.8064 88.3186 13.7536 88.3186 13.6885V9.80382C88.3186 9.28453 88.1842 8.88148 87.9156 8.59494C87.647 8.29945 87.2794 8.15169 86.8138 8.15169C86.5184 8.15171 86.2588 8.20975 86.035 8.32611C85.8111 8.43356 85.6188 8.57275 85.4576 8.74289C85.3419 8.87219 85.239 9.00658 85.1491 9.14619C85.0936 9.23244 85.0679 9.33393 85.0679 9.43652V13.6885C85.0679 13.7536 85.0151 13.8064 84.95 13.8064H83.7086C83.6435 13.8064 83.5907 13.7536 83.5907 13.6885V7.15453C83.5907 7.08942 83.6435 7.03664 83.7086 7.03664H84.95C85.0151 7.03664 85.0679 7.08942 85.0679 7.15453V7.50706C85.0679 7.56018 85.1333 7.5869 85.172 7.55044C85.3943 7.34072 85.6506 7.16491 85.9411 7.0234C86.2903 6.85331 86.6977 6.76838 87.1632 6.76838Z"
              fill="#2845C1"/>
        <path d="M62.9344 3.65234C63.1135 3.65234 63.2747 3.69694 63.4179 3.78647C63.5702 3.87602 63.6868 3.99691 63.7674 4.14914C63.8569 4.29238 63.9015 4.45364 63.9015 4.63269C63.9015 4.8117 63.8568 4.97731 63.7674 5.12948C63.6868 5.28171 63.5702 5.4026 63.4179 5.49215C63.2747 5.57273 63.1135 5.61303 62.9344 5.61303C62.7553 5.61302 62.5898 5.57271 62.4376 5.49215C62.2854 5.4026 62.1645 5.28171 62.0749 5.12948C61.9854 4.97729 61.9408 4.81173 61.9408 4.63269C61.9408 4.36406 62.0348 4.1357 62.2229 3.94766C62.4198 3.75076 62.6569 3.65236 62.9344 3.65234Z"
              fill="#2845C1"/>
        <path fill-rule="evenodd" clip-rule="evenodd"
              d="M18.88 4.82277C19.6184 4.66585 20.3816 4.66585 21.12 4.82277C21.9549 5.00021 22.7404 5.45363 24.3108 6.36033L29.6892 9.46594C31.2595 10.3726 32.0449 10.8257 32.616 11.4599C33.1212 12.0211 33.5027 12.6822 33.736 13.4003C33.9998 14.2119 34 15.1186 34 16.9318V23.142C34 24.9555 33.9998 25.8629 33.736 26.6746C33.5027 27.3927 33.1212 28.0539 32.616 28.615C32.0449 29.2492 31.2595 29.7023 29.6892 30.609L24.3108 33.7146C22.7405 34.6212 21.9548 35.0747 21.12 35.2522C20.3816 35.409 19.6184 35.409 18.88 35.2522C18.0452 35.0747 17.2595 34.6212 15.6892 33.7146L10.3108 30.609C8.7405 29.7023 7.95508 29.2492 7.38401 28.615C6.87882 28.0539 6.49734 27.3927 6.26397 26.6746C6.00024 25.8629 6 24.9555 6 23.142V16.9318C6 15.1186 6.00025 14.2119 6.26397 13.4003C6.49731 12.6822 6.87879 12.0211 7.38401 11.4599C7.95507 10.8257 8.74053 10.3726 10.3108 9.46594L15.6892 6.36033C17.2596 5.45363 18.0451 5.00021 18.88 4.82277ZM20 10.3052C14.6471 10.3052 10.3077 14.6446 10.3077 19.9975C10.3077 25.3504 14.6471 29.6898 20 29.6898C25.3529 29.6898 29.6923 25.3504 29.6923 19.9975C29.6923 14.6446 25.3529 10.3052 20 10.3052Z"
              fill="#2845C1"/>
        <path d="M20.0072 27.5506C18.9718 27.5506 17.9999 27.3503 17.0915 26.9498C16.183 26.5591 15.3821 26.017 14.6885 25.3235C13.995 24.6299 13.448 23.8289 13.0475 22.9205C12.6568 22.0121 12.4614 21.0402 12.4614 20.0048C12.4614 18.9791 12.6568 18.0121 13.0475 17.1037C13.448 16.1855 13.995 15.3796 14.6885 14.6861C15.3821 13.9926 16.1782 13.4504 17.0768 13.0597C17.9852 12.6592 18.9572 12.459 19.9926 12.459C21.0182 12.459 21.9852 12.6592 22.8937 13.0597C23.8119 13.4504 24.6177 13.9926 25.3112 14.6861C26.0048 15.3796 26.5469 16.1855 26.9376 17.1037C27.3381 18.0121 27.5383 18.9791 27.5383 20.0048C27.5383 21.0402 27.3381 22.0121 26.9376 22.9205C26.5469 23.8289 26.0048 24.6299 25.3112 25.3235C24.6275 26.017 23.8265 26.5591 22.9083 26.9498C21.9999 27.3503 21.0329 27.5506 20.0072 27.5506ZM20.0072 25.6311C21.0426 25.6311 21.9852 25.3772 22.8351 24.8692C23.6849 24.3711 24.3589 23.6971 24.857 22.8473C25.365 21.9974 25.6189 21.0499 25.6189 20.0048C25.6189 18.9694 25.365 18.0267 24.857 17.1769C24.3589 16.3271 23.6849 15.6482 22.8351 15.1403C21.9852 14.6324 21.0377 14.3784 19.9926 14.3784C18.9572 14.3784 18.0145 14.6324 17.1647 15.1403C16.3247 15.6482 15.6507 16.3271 15.1427 17.1769C14.6446 18.0267 14.3955 18.9694 14.3955 20.0048C14.3955 21.0499 14.6446 21.9974 15.1427 22.8473C15.6507 23.6971 16.3247 24.3711 17.1647 24.8692C18.0145 25.3772 18.962 25.6311 20.0072 25.6311ZM19.9926 24.3125C19.2111 24.3125 18.4932 24.1171 17.8387 23.7264C17.194 23.3357 16.6763 22.8131 16.2856 22.1586C15.8949 21.5139 15.6995 20.8009 15.6995 20.0194C15.6995 19.2282 15.8949 18.5054 16.2856 17.8509C16.6763 17.1965 17.194 16.6788 17.8387 16.2978C18.4932 15.9071 19.2111 15.7117 19.9926 15.7117C20.774 15.7117 21.492 15.9071 22.1464 16.2978C22.8009 16.6788 23.3235 17.1965 23.7142 17.8509C24.1049 18.5054 24.3003 19.2282 24.3003 20.0194C24.3003 20.8009 24.1049 21.5139 23.7142 22.1586C23.3332 22.8131 22.8155 23.3357 22.1611 23.7264C21.5066 24.1171 20.7838 24.3125 19.9926 24.3125Z"
              fill="#C83F49"/>
        <rect x="8" y="27" width="24" height="9" rx="4.5" fill="#EEF1F4"/>
        <rect x="8" y="27" width="24" height="9" rx="4.5" fill="url(#paint0_linear_5074_12447)" fill-opacity="0.1"/>
        <path d="M12.3425 33.7359C12.2926 33.7359 12.2676 33.7359 12.2486 33.7262C12.2318 33.7176 12.2182 33.704 12.2097 33.6872C12.2 33.6682 12.2 33.6433 12.2 33.5934V29.2421C12.2 29.1922 12.2 29.1673 12.2097 29.1482C12.2182 29.1315 12.2318 29.1179 12.2486 29.1093C12.2676 29.0996 12.2926 29.0996 12.3425 29.0996H13.5643C14.5313 29.0996 15.1208 29.5765 15.1208 30.358C15.1208 30.6476 15.0195 30.9061 14.8257 31.1064C14.7572 31.1773 14.7229 31.2128 14.7171 31.236C14.7109 31.2611 14.7123 31.2736 14.7237 31.2968C14.7343 31.3183 14.7739 31.3447 14.8532 31.3975C15.1981 31.6271 15.3857 31.9696 15.3857 32.3715C15.3857 33.2193 14.73 33.7359 13.6637 33.7359H12.3425ZM13.5842 29.8812H13.283C13.2331 29.8812 13.2081 29.8812 13.1891 29.8909C13.1723 29.8994 13.1587 29.913 13.1502 29.9298C13.1405 29.9488 13.1405 29.9738 13.1405 30.0237V30.7851C13.1405 30.835 13.1405 30.8599 13.1502 30.879C13.1587 30.8958 13.1723 30.9094 13.1891 30.9179C13.2081 30.9276 13.2331 30.9276 13.283 30.9276H13.5842C13.9419 30.9276 14.1538 30.7355 14.1538 30.3978C14.1538 30.0732 13.9419 29.8812 13.5842 29.8812ZM13.7167 31.7092H13.283C13.2331 31.7092 13.2081 31.7092 13.1891 31.7189C13.1723 31.7274 13.1587 31.741 13.1502 31.7578C13.1405 31.7768 13.1405 31.8018 13.1405 31.8517V32.8118C13.1405 32.8617 13.1405 32.8867 13.1502 32.9057C13.1587 32.9225 13.1723 32.9361 13.1891 32.9446C13.2081 32.9543 13.2331 32.9543 13.283 32.9543H13.7167C14.1538 32.9543 14.4187 32.7225 14.4187 32.3318C14.4187 31.9344 14.1538 31.7092 13.7167 31.7092Z"
              fill="#2845C1"/>
        <path d="M16.4271 33.7359C16.3772 33.7359 16.3523 33.7359 16.3333 33.7262C16.3165 33.7176 16.3029 33.704 16.2943 33.6872C16.2846 33.6682 16.2846 33.6433 16.2846 33.5934V29.2421C16.2846 29.1922 16.2846 29.1673 16.2943 29.1482C16.3029 29.1315 16.3165 29.1179 16.3333 29.1093C16.3523 29.0996 16.3772 29.0996 16.4271 29.0996H18.8444C18.8943 29.0996 18.9192 29.0996 18.9383 29.1093C18.955 29.1179 18.9687 29.1315 18.9772 29.1482C18.9869 29.1673 18.9869 29.1922 18.9869 29.2421V29.7387C18.9869 29.7885 18.9869 29.8135 18.9772 29.8325C18.9687 29.8493 18.955 29.8629 18.9383 29.8714C18.9192 29.8812 18.8943 29.8812 18.8444 29.8812H17.3676C17.3177 29.8812 17.2928 29.8812 17.2738 29.8909C17.257 29.8994 17.2434 29.913 17.2348 29.9298C17.2251 29.9488 17.2251 29.9738 17.2251 30.0237V30.8381C17.2251 30.888 17.2251 30.9129 17.2348 30.932C17.2434 30.9487 17.257 30.9624 17.2738 30.9709C17.2928 30.9806 17.3177 30.9806 17.3676 30.9806H18.5795C18.6294 30.9806 18.6543 30.9806 18.6733 30.9903C18.6901 30.9989 18.7037 31.0125 18.7123 31.0292C18.722 31.0483 18.722 31.0732 18.722 31.1231V31.6197C18.722 31.6695 18.722 31.6945 18.7123 31.7135C18.7037 31.7303 18.6901 31.7439 18.6733 31.7524C18.6543 31.7622 18.6294 31.7622 18.5795 31.7622H17.3676C17.3177 31.7622 17.2928 31.7622 17.2738 31.7719C17.257 31.7804 17.2434 31.794 17.2348 31.8108C17.2251 31.8298 17.2251 31.8548 17.2251 31.9047V32.8118C17.2251 32.8617 17.2251 32.8867 17.2348 32.9057C17.2434 32.9225 17.257 32.9361 17.2738 32.9446C17.2928 32.9543 17.3177 32.9543 17.3676 32.9543H18.8444C18.8943 32.9543 18.9192 32.9543 18.9383 32.964C18.955 32.9726 18.9687 32.9862 18.9772 33.003C18.9869 33.022 18.9869 33.047 18.9869 33.0968V33.5934C18.9869 33.6433 18.9869 33.6682 18.9772 33.6872C18.9687 33.704 18.955 33.7176 18.9383 33.7262C18.9192 33.7359 18.8943 33.7359 18.8444 33.7359H16.4271Z"
              fill="#2845C1"/>
        <path d="M19.7762 29.954C19.7263 29.954 19.7014 29.954 19.6823 29.9443C19.6656 29.9358 19.652 29.9221 19.6434 29.9054C19.6337 29.8863 19.6337 29.8614 19.6337 29.8115V29.2421C19.6337 29.1922 19.6337 29.1673 19.6434 29.1482C19.652 29.1315 19.6656 29.1179 19.6823 29.1093C19.7014 29.0996 19.7263 29.0996 19.7762 29.0996H23.2929C23.3428 29.0996 23.3678 29.0996 23.3868 29.1093C23.4036 29.1179 23.4172 29.1315 23.4257 29.1482C23.4354 29.1673 23.4354 29.1922 23.4354 29.2421V29.8115C23.4354 29.8614 23.4354 29.8863 23.4257 29.9054C23.4172 29.9221 23.4036 29.9358 23.3868 29.9443C23.3678 29.954 23.3428 29.954 23.2929 29.954H22.1473C22.0974 29.954 22.0725 29.954 22.0535 29.9637C22.0367 29.9723 22.0231 29.9859 22.0145 30.0026C22.0048 30.0217 22.0048 30.0466 22.0048 30.0965V33.5934C22.0048 33.6433 22.0048 33.6682 21.9951 33.6872C21.9866 33.704 21.973 33.7176 21.9562 33.7262C21.9371 33.7359 21.9122 33.7359 21.8623 33.7359H21.2068C21.1569 33.7359 21.132 33.7359 21.113 33.7262C21.0962 33.7176 21.0826 33.704 21.074 33.6872C21.0643 33.6682 21.0643 33.6433 21.0643 33.5934V30.0965C21.0643 30.0466 21.0643 30.0217 21.0546 30.0026C21.0461 29.9859 21.0325 29.9723 21.0157 29.9637C20.9966 29.954 20.9717 29.954 20.9218 29.954H19.7762Z"
              fill="#2845C1"/>
        <path d="M23.3724 33.7359C23.3031 33.7359 23.2685 33.7359 23.2463 33.7213C23.2268 33.7086 23.2131 33.6888 23.2081 33.6661C23.2024 33.6401 23.2146 33.6077 23.2392 33.5429L24.8864 29.1917C24.899 29.1585 24.9053 29.1419 24.9161 29.1296C24.9257 29.1188 24.9377 29.1105 24.9512 29.1054C24.9665 29.0996 24.9842 29.0996 25.0197 29.0996H26.0548C26.0903 29.0996 26.108 29.0996 26.1233 29.1054C26.1368 29.1105 26.1488 29.1188 26.1584 29.1296C26.1692 29.1419 26.1755 29.1585 26.188 29.1917L27.8353 33.5429C27.8598 33.6077 27.8721 33.6401 27.8664 33.6661C27.8613 33.6888 27.8476 33.7086 27.8282 33.7213C27.806 33.7359 27.7713 33.7359 27.702 33.7359H27.0076C26.9718 33.7359 26.9539 33.7359 26.9385 33.73C26.925 33.7248 26.9129 33.7164 26.9033 33.7054C26.8925 33.693 26.8863 33.6762 26.8739 33.6426L26.4988 32.6237C26.4865 32.5901 26.4803 32.5733 26.4694 32.5609C26.4599 32.55 26.4478 32.5415 26.4342 32.5363C26.4188 32.5304 26.4009 32.5304 26.3651 32.5304H24.7094C24.6736 32.5304 24.6556 32.5304 24.6403 32.5363C24.6267 32.5415 24.6146 32.55 24.605 32.5609C24.5942 32.5733 24.588 32.5901 24.5757 32.6237L24.2006 33.6426C24.1882 33.6762 24.182 33.693 24.1712 33.7054C24.1616 33.7164 24.1495 33.7248 24.1359 33.73C24.1206 33.7359 24.1027 33.7359 24.0668 33.7359H23.3724ZM24.9713 31.5377C24.9478 31.602 24.936 31.6342 24.9419 31.66C24.9471 31.6825 24.9608 31.7021 24.9802 31.7147C25.0023 31.729 25.0366 31.729 25.1051 31.729H25.9694C26.0379 31.729 26.0721 31.729 26.0943 31.7147C26.1136 31.7021 26.1274 31.6825 26.1325 31.66C26.1385 31.6342 26.1267 31.602 26.1032 31.5377L25.6711 30.3538C25.6298 30.2408 25.6092 30.1842 25.579 30.1682C25.5529 30.1543 25.5216 30.1543 25.4955 30.1682C25.4653 30.1842 25.4447 30.2408 25.4034 30.3538L24.9713 31.5377Z"
              fill="#2845C1"/>
    </g>
    <defs>
        <linearGradient id="paint0_linear_5074_12447" x1="20" y1="27" x2="20" y2="36" gradientUnits="userSpaceOnUse">
            <stop stop-color="#2845C1"/>
            <stop offset="1" stop-color="#EEF1F4"/>
        </linearGradient>
        <clipPath id="clip0_5074_12447">
            <rect width="159" height="40" fill="white"/>
        </clipPath>
    </defs>
</svg>
