<svg width="533" height="96" viewBox="0 0 533 96" fill="none" xmlns="http://www.w3.org/2000/svg">
    <path d="M62.3533 24.1294C62.3533 22.4935 62.3533 21.6756 62.1835 20.9288C61.8697 19.5484 61.1344 18.2997 60.0795 17.3558C59.5087 16.8451 58.7934 16.4484 57.3629 15.655L53.7072 13.6275C52.3557 12.8779 51.68 12.5031 50.9827 12.2922C49.6945 11.9026 48.3197 11.9026 47.0315 12.2922C46.3342 12.5031 45.6585 12.8779 44.307 13.6275L42.7994 14.4636C40.9695 15.4785 40.0546 15.9859 39.6354 16.5766C38.8515 17.6814 38.8522 19.1612 39.6372 20.2652C40.0569 20.8554 40.9723 21.362 42.8032 22.3751L44.0236 23.0505C45.4564 23.8434 46.1728 24.2398 46.7445 24.7506C47.8011 25.6945 48.5377 26.944 48.8521 28.3256C49.0222 29.0731 49.0222 29.8919 49.0222 31.5294V32.9269C49.0222 34.9112 49.0222 35.9033 49.3203 36.543C49.8775 37.7384 51.1139 38.4667 52.4295 38.3745C53.1336 38.3251 54.0013 37.8441 55.7368 36.8821L57.3609 35.9819C58.792 35.1886 59.5075 34.792 60.0785 34.2813C61.1339 33.3373 61.8695 32.0885 62.1835 30.7078C62.3533 29.9608 62.3533 29.1426 62.3533 27.5064V24.1294Z"
          fill="#2845C1"/>
    <path d="M21.6614 48.3771C20.2447 49.1951 19.5364 49.604 18.9745 50.1245C17.936 51.0864 17.2223 52.3475 16.9323 53.7331C16.7754 54.4828 16.7894 55.3006 16.8176 56.9362L16.8896 61.1159C16.9162 62.6611 16.9295 63.4337 17.0954 64.1429C17.4021 65.4534 18.0895 66.644 19.0711 67.5648C19.6023 68.0632 20.2648 68.4611 21.5897 69.2567L23.0676 70.1442C24.8614 71.2215 25.7584 71.7601 26.4795 71.8278C27.8282 71.9543 29.1094 71.2138 29.673 69.982C29.9743 69.3234 29.9553 68.2773 29.9173 66.1852L29.892 64.7906C29.8622 63.1533 29.8473 62.3347 30.0038 61.5842C30.293 60.1971 31.0068 58.9345 32.0461 57.9715C32.6084 57.4504 33.3175 57.041 34.7356 56.2223L35.9459 55.5235C37.6643 54.5314 38.5236 54.0353 38.9285 53.4573C39.6851 52.377 39.6977 50.9421 38.9599 49.8488C38.5652 49.2638 37.7148 48.7528 36.0139 47.7308L34.4222 46.7745C33.0197 45.9317 32.3184 45.5104 31.5906 45.2712C30.2454 44.8292 28.7961 44.8166 27.4434 45.235C26.7116 45.4615 26.003 45.8705 24.586 46.6886L21.6614 48.3771Z"
          fill="#2845C1"/>
    <path d="M35.6609 71.8706C35.6609 73.5065 35.6609 74.3244 35.8307 75.0712C36.1445 76.4516 36.8798 77.7003 37.9347 78.6442C38.5055 79.1549 39.2208 79.5516 40.6513 80.345L44.307 82.3726C45.6585 83.1221 46.3342 83.4969 47.0315 83.7078C48.3197 84.0974 49.6945 84.0974 50.9827 83.7078C51.68 83.4969 52.3557 83.1221 53.7072 82.3726L55.2148 81.5364C57.0447 80.5215 57.9596 80.0141 58.3788 79.4234C59.1627 78.3186 59.162 76.8388 58.377 75.7348C57.9573 75.1446 57.0419 74.638 55.211 73.6249L53.9906 72.9495C52.5578 72.1566 51.8414 71.7602 51.2697 71.2495C50.2131 70.3055 49.4765 69.056 49.1621 67.6744C48.992 66.9269 48.992 66.1081 48.992 64.4706V63.0731C48.992 61.0888 48.992 60.0967 48.6939 59.457C48.1367 58.2616 46.9003 57.5333 45.5847 57.6255C44.8806 57.6749 44.0129 58.1559 42.2774 59.1179L40.6533 60.0181C39.2222 60.8114 38.5067 61.208 37.9357 61.7187C36.8803 62.6627 36.1447 63.9115 35.8307 65.2922C35.6609 66.0392 35.6609 66.8574 35.6609 68.4936V71.8706Z"
          fill="#2845C1"/>
    <path d="M63.0066 71.4935C64.4232 72.3114 65.1316 72.7204 65.8633 72.9467C67.2156 73.3652 68.6646 73.3527 70.0096 72.9111C70.7372 72.6721 71.4384 72.251 72.8408 71.4088L76.4246 69.2567C77.7494 68.461 78.4119 68.0632 78.9431 67.5648C79.9247 66.644 80.6121 65.4534 80.9188 64.1429C81.0848 63.4336 81.0981 62.661 81.1246 61.1159L81.1543 59.3921C81.1903 57.3 81.2084 56.2539 80.9064 55.5956C80.3416 54.3643 79.0597 53.625 77.7111 53.7528C76.9901 53.8212 76.0937 54.3607 74.3008 55.4397L73.1057 56.1589C71.7027 57.0033 71.0012 57.4255 70.273 57.6652C68.9272 58.1083 67.4768 58.1215 66.1231 57.7029C65.3908 57.4765 64.6817 57.0671 63.2635 56.2483L62.0533 55.5496C60.3348 54.5574 59.4756 54.0614 58.7725 53.9997C57.4587 53.8846 56.2098 54.5912 55.6318 55.7767C55.3225 56.411 55.3052 57.4031 55.2706 59.3871L55.2382 61.2436C55.2096 62.8796 55.1954 63.6976 55.3522 64.4475C55.642 65.8335 56.3557 67.095 57.3944 68.0572C57.9564 68.5778 58.6649 68.9868 60.082 69.805L63.0066 71.4935Z"
          fill="#2845C1"/>
    <path d="M76.3528 47.6229C77.7695 46.8049 78.4778 46.396 79.0397 45.8755C80.0782 44.9136 80.792 43.6525 81.0819 42.2669C81.2388 41.5172 81.2248 40.6994 81.1966 39.0638L81.1246 34.8841C81.098 33.3389 81.0848 32.5664 80.9188 31.8571C80.6121 30.5466 79.9247 29.356 78.9431 28.4352C78.4119 27.9368 77.7494 27.539 76.4246 26.7433L74.9466 25.8558C73.1528 24.7785 72.2558 24.2399 71.5347 24.1722C70.186 24.0457 68.9048 24.7862 68.3412 26.018C68.0399 26.6766 68.0589 27.7227 68.0969 29.8148L68.1222 31.2094C68.152 32.8467 68.1669 33.6653 68.0104 34.4158C67.7212 35.8029 67.0074 37.0655 65.9681 38.0286C65.4058 38.5496 64.6967 38.959 63.2786 39.7777L62.0683 40.4765C60.3499 41.4686 59.4906 41.9647 59.0857 42.5427C58.3291 43.623 58.3165 45.0579 59.0543 46.1512C59.449 46.7362 60.2994 47.2472 62.0003 48.2692L63.592 49.2255C64.9945 50.0683 65.6958 50.4896 66.4236 50.7288C67.7688 51.1708 69.2181 51.1834 70.5708 50.765C71.3026 50.5386 72.0112 50.1295 73.4282 49.3114L76.3528 47.6229Z"
          fill="#2845C1"/>
    <path d="M35.0077 24.5063C33.591 23.6883 32.8826 23.2794 32.151 23.053C30.7986 22.6346 29.3496 22.647 28.0047 23.0887C27.277 23.3276 26.5758 23.7487 25.1734 24.5909L21.5897 26.7431C20.2648 27.5387 19.6023 27.9365 19.0711 28.4349C18.0895 29.3558 17.4021 30.5463 17.0954 31.8568C16.9295 32.5661 16.9162 33.3387 16.8896 34.8839L16.8599 36.6076C16.8239 38.6997 16.8059 39.7458 17.1078 40.4041C17.6726 41.6355 18.9545 42.3747 20.3031 42.2469C21.0241 42.1785 21.9205 41.6391 23.7134 40.5601L24.9085 39.8408C26.3115 38.9964 27.013 38.5742 27.7412 38.3345C29.087 37.8914 30.5374 37.8783 31.8911 38.2968C32.6235 38.5232 33.3325 38.9326 34.7507 39.7514L35.9609 40.4501C37.6794 41.4423 38.5386 41.9384 39.2417 42C40.5555 42.1152 41.8044 41.4086 42.3824 40.2231C42.6917 39.5887 42.709 38.5967 42.7436 36.6127L42.776 34.7561C42.8046 33.1201 42.8188 32.3021 42.662 31.5522C42.3722 30.1663 41.6585 28.9048 40.6198 27.9426C40.0578 27.422 39.3493 27.0129 37.9322 26.1948L35.0077 24.5063Z"
          fill="#C83F49"/>
    <rect x="19.2" y="64.7998" width="57.6" height="21.6" rx="10.8" fill="#EEF1F4"/>
    <rect x="19.2" y="64.7998" width="57.6" height="21.6" rx="10.8" fill="url(#paint0_linear_4916_14686)"
          fill-opacity="0.1"/>
    <path d="M29.6218 80.9669C29.5021 80.9669 29.4422 80.9669 29.3965 80.9436C29.3563 80.9231 29.3236 80.8904 29.3031 80.8502C29.2798 80.8045 29.2798 80.7446 29.2798 80.6249V70.1818C29.2798 70.0621 29.2798 70.0023 29.3031 69.9566C29.3236 69.9163 29.3563 69.8836 29.3965 69.8631C29.4422 69.8398 29.5021 69.8398 29.6218 69.8398H32.5543C34.8751 69.8398 36.2898 70.9843 36.2898 72.86C36.2898 73.5551 36.0466 74.1754 35.5817 74.6562C35.4171 74.8263 35.3349 74.9114 35.3211 74.9672C35.3061 75.0274 35.3094 75.0574 35.3368 75.1131C35.3622 75.1647 35.4573 75.228 35.6476 75.3547C36.4753 75.9059 36.9257 76.7277 36.9257 77.6924C36.9257 79.727 35.352 80.9669 32.7928 80.9669H29.6218ZM32.602 71.7155H31.879C31.7593 71.7155 31.6994 71.7155 31.6537 71.7388C31.6135 71.7593 31.5808 71.792 31.5603 71.8323C31.537 71.878 31.537 71.9378 31.537 72.0575V73.8851C31.537 74.0048 31.537 74.0646 31.5603 74.1104C31.5808 74.1506 31.6135 74.1833 31.6537 74.2038C31.6994 74.2271 31.7593 74.2271 31.879 74.2271H32.602C33.4604 74.2271 33.969 73.7661 33.969 72.9554C33.969 72.1765 33.4604 71.7155 32.602 71.7155ZM32.9199 76.1028H31.879C31.7593 76.1028 31.6994 76.1028 31.6537 76.1261C31.6135 76.1466 31.5808 76.1793 31.5603 76.2195C31.537 76.2652 31.537 76.3251 31.537 76.4448V78.7492C31.537 78.8689 31.537 78.9288 31.5603 78.9745C31.5808 79.0147 31.6135 79.0474 31.6537 79.0679C31.6994 79.0912 31.7593 79.0912 31.879 79.0912H32.9199C33.969 79.0912 34.6049 78.5348 34.6049 77.597C34.6049 76.6432 33.969 76.1028 32.9199 76.1028Z"
          fill="#2845C1"/>
    <path d="M39.425 80.9669C39.3053 80.9669 39.2454 80.9669 39.1997 80.9436C39.1595 80.9231 39.1268 80.8904 39.1063 80.8502C39.083 80.8045 39.083 80.7446 39.083 80.6249V70.1818C39.083 70.0621 39.083 70.0023 39.1063 69.9566C39.1268 69.9163 39.1595 69.8836 39.1997 69.8631C39.2454 69.8398 39.3053 69.8398 39.425 69.8398H45.2265C45.3462 69.8398 45.406 69.8398 45.4518 69.8631C45.492 69.8836 45.5247 69.9163 45.5452 69.9566C45.5685 70.0023 45.5685 70.0621 45.5685 70.1818V71.3735C45.5685 71.4933 45.5685 71.5531 45.5452 71.5988C45.5247 71.6391 45.492 71.6718 45.4518 71.6922C45.406 71.7155 45.3462 71.7155 45.2265 71.7155H41.6822C41.5625 71.7155 41.5026 71.7155 41.4569 71.7388C41.4167 71.7593 41.384 71.792 41.3635 71.8323C41.3402 71.878 41.3402 71.9378 41.3402 72.0575V74.0122C41.3402 74.132 41.3402 74.1918 41.3635 74.2375C41.384 74.2778 41.4167 74.3105 41.4569 74.3309C41.5026 74.3542 41.5625 74.3542 41.6822 74.3542H44.5906C44.7104 74.3542 44.7702 74.3542 44.8159 74.3775C44.8562 74.398 44.8889 74.4307 44.9094 74.471C44.9327 74.5167 44.9327 74.5765 44.9327 74.6962V75.8879C44.9327 76.0077 44.9327 76.0675 44.9094 76.1132C44.8889 76.1535 44.8562 76.1862 44.8159 76.2066C44.7702 76.2299 44.7104 76.2299 44.5907 76.2299H41.6822C41.5625 76.2299 41.5026 76.2299 41.4569 76.2532C41.4167 76.2737 41.384 76.3064 41.3635 76.3467C41.3402 76.3924 41.3402 76.4522 41.3402 76.5719V78.7492C41.3402 78.8689 41.3402 78.9288 41.3635 78.9745C41.384 79.0147 41.4167 79.0474 41.4569 79.0679C41.5026 79.0912 41.5625 79.0912 41.6822 79.0912H45.2265C45.3462 79.0912 45.406 79.0912 45.4518 79.1145C45.492 79.135 45.5247 79.1677 45.5452 79.2079C45.5685 79.2536 45.5685 79.3135 45.5685 79.4332V80.6249C45.5685 80.7446 45.5685 80.8045 45.5452 80.8502C45.5247 80.8904 45.492 80.9231 45.4518 80.9436C45.406 80.9669 45.3462 80.9669 45.2265 80.9669H39.425Z"
          fill="#2845C1"/>
    <path d="M47.4628 71.8904C47.3431 71.8904 47.2832 71.8904 47.2375 71.8671C47.1973 71.8466 47.1646 71.8139 47.1441 71.7737C47.1208 71.728 47.1208 71.6681 47.1208 71.5484V70.1818C47.1208 70.0621 47.1208 70.0023 47.1441 69.9566C47.1646 69.9163 47.1973 69.8836 47.2375 69.8631C47.2832 69.8398 47.3431 69.8398 47.4628 69.8398H55.903C56.0227 69.8398 56.0825 69.8398 56.1283 69.8631C56.1685 69.8836 56.2012 69.9163 56.2217 69.9566C56.245 70.0023 56.245 70.0621 56.245 70.1818V71.5484C56.245 71.6681 56.245 71.728 56.2217 71.7737C56.2012 71.8139 56.1685 71.8466 56.1283 71.8671C56.0825 71.8904 56.0227 71.8904 55.903 71.8904H53.1535C53.0338 71.8904 52.9739 71.8904 52.9282 71.9137C52.888 71.9342 52.8553 71.9669 52.8348 72.0071C52.8115 72.0528 52.8115 72.1127 52.8115 72.2324V80.6249C52.8115 80.7446 52.8115 80.8045 52.7882 80.8502C52.7677 80.8904 52.735 80.9231 52.6948 80.9436C52.6491 80.9669 52.5892 80.9669 52.4695 80.9669H50.8963C50.7766 80.9669 50.7167 80.9669 50.671 80.9436C50.6308 80.9231 50.5981 80.8904 50.5776 80.8502C50.5543 80.8045 50.5543 80.7446 50.5543 80.6249V72.2324C50.5543 72.1127 50.5543 72.0528 50.531 72.0071C50.5105 71.9669 50.4778 71.9342 50.4376 71.9137C50.3919 71.8904 50.332 71.8904 50.2123 71.8904H47.4628Z"
          fill="#2845C1"/>
    <path d="M56.0937 80.9669C55.9274 80.9669 55.8443 80.9669 55.791 80.932C55.7443 80.9014 55.7114 80.8538 55.6994 80.7993C55.6856 80.7371 55.715 80.6593 55.7739 80.5038L59.7273 70.0608C59.7575 69.9811 59.7726 69.9413 59.7986 69.9119C59.8215 69.886 59.8504 69.866 59.8828 69.8537C59.9194 69.8398 59.962 69.8398 60.0472 69.8398H62.5314C62.6166 69.8398 62.6591 69.8398 62.6958 69.8537C62.7282 69.866 62.7571 69.886 62.78 69.9119C62.806 69.9413 62.8211 69.9811 62.8512 70.0608L66.8047 80.5038C66.8635 80.6593 66.893 80.7371 66.8792 80.7993C66.8671 80.8538 66.8343 80.9014 66.7876 80.932C66.7343 80.9669 66.6511 80.9669 66.4848 80.9669H64.8182C64.7323 80.9669 64.6893 80.9669 64.6524 80.9528C64.6198 80.9403 64.5908 80.9201 64.5678 80.8938C64.5418 80.864 64.527 80.8237 64.4973 80.743L63.5971 78.2977C63.5674 78.217 63.5525 78.1767 63.5266 78.147C63.5036 78.1207 63.4746 78.1004 63.442 78.088C63.4051 78.0739 63.3621 78.0739 63.2761 78.0739H59.3024C59.2164 78.0739 59.1735 78.0739 59.1366 78.088C59.104 78.1004 59.075 78.1207 59.052 78.147C59.026 78.1767 59.0112 78.217 58.9815 78.2977L58.0813 80.743C58.0516 80.8237 58.0367 80.864 58.0107 80.8938C57.9878 80.9201 57.9587 80.9403 57.9261 80.9528C57.8893 80.9669 57.8463 80.9669 57.7603 80.9669H56.0937ZM59.9309 75.6912C59.8745 75.8457 59.8463 75.9229 59.8605 75.9847C59.873 76.0387 59.9059 76.0858 59.9524 76.116C60.0055 76.1505 60.0877 76.1505 60.2522 76.1505H62.3264C62.4908 76.1505 62.5731 76.1505 62.6262 76.116C62.6726 76.0858 62.7056 76.0387 62.718 75.9847C62.7322 75.9229 62.704 75.8457 62.6476 75.6912L61.6105 72.85C61.5115 72.5786 61.462 72.4429 61.3896 72.4045C61.3269 72.3712 61.2517 72.3712 61.189 72.4045C61.1166 72.4429 61.0671 72.5786 60.968 72.85L59.9309 75.6912Z"
          fill="#2845C1"/>
    <path d="M342.858 37.9381C344.863 37.9381 346.723 38.3758 348.436 39.2506C350.031 40.0479 351.308 41.0419 352.267 42.2328C352.425 42.4282 352.39 42.7116 352.2 42.8745L348.83 45.7491C348.618 45.9304 348.297 45.8919 348.121 45.6751C347.498 44.9091 346.783 44.2621 345.975 43.7342C345.028 43.1147 343.988 42.8037 342.858 42.8037C342.057 42.8038 341.365 42.9506 340.782 43.242C340.235 43.5336 339.815 43.9165 339.523 44.3904C339.268 44.8644 339.141 45.3939 339.141 45.9771C339.141 46.8515 339.45 47.5808 340.069 48.1639C340.725 48.7107 341.566 49.1855 342.586 49.5865C343.607 49.9874 344.682 50.4253 345.811 50.899C346.978 51.3365 348.072 51.8834 349.093 52.5396C350.113 53.1594 350.934 53.9973 351.554 55.0545C352.21 56.075 352.538 57.3686 352.538 58.9357C352.538 60.7947 352.083 62.3812 351.172 63.6936C350.297 64.9693 349.13 65.954 347.672 66.6467C346.214 67.3394 344.608 67.6873 342.858 67.6873C340.489 67.6872 338.43 67.2495 336.68 66.3748C335.068 65.535 333.641 64.4307 332.4 63.0645C332.223 62.8701 332.245 62.5697 332.442 62.3962L335.81 59.4321C336.016 59.2512 336.331 59.2794 336.509 59.4869C337.302 60.4064 338.179 61.1719 339.141 61.7811C340.235 62.4735 341.456 62.8193 342.804 62.8193C344.08 62.8193 345.047 62.4912 345.704 61.835C346.396 61.1425 346.742 60.3041 346.742 59.3201C346.742 58.4089 346.413 57.6802 345.758 57.1334C345.138 56.5865 344.317 56.1118 343.297 55.7107C342.276 55.3097 341.182 54.8896 340.015 54.4522C338.886 53.9784 337.811 53.4135 336.79 52.7576C335.77 52.1015 334.929 51.2634 334.273 50.2428C333.653 49.1855 333.345 47.8357 333.345 46.1951C333.345 44.664 333.745 43.2791 334.547 42.0396C335.349 40.7636 336.461 39.7594 337.883 39.0303C339.341 38.3013 340.999 37.9382 342.858 37.9381Z"
          fill="#2845C1"/>
    <path d="M365.572 37.9381C367.576 37.9382 369.436 38.3757 371.15 39.2506C372.744 40.048 374.022 41.0419 374.981 42.2328C375.138 42.4282 375.104 42.7116 374.913 42.8745L371.543 45.7491C371.331 45.9303 371.01 45.8918 370.834 45.675C370.211 44.909 369.496 44.2622 368.689 43.7342C367.741 43.1145 366.702 42.8038 365.572 42.8037C364.77 42.8037 364.076 42.9503 363.493 43.242C362.946 43.5336 362.526 43.9165 362.234 44.3904C361.979 44.8643 361.852 45.394 361.852 45.9771C361.852 46.8518 362.163 47.5807 362.783 48.1639C363.439 48.7106 364.277 49.1856 365.297 49.5865C366.318 49.9875 367.395 50.4251 368.525 50.899C369.691 51.3365 370.785 51.8836 371.806 52.5396C372.826 53.1594 373.647 53.9976 374.267 55.0545C374.923 56.0749 375.251 57.3689 375.251 58.9357C375.251 60.7949 374.794 62.3812 373.883 63.6936C373.008 64.9694 371.841 65.954 370.383 66.6467C368.925 67.3393 367.321 67.6872 365.572 67.6873C363.202 67.6873 361.141 67.2498 359.391 66.3748C357.779 65.535 356.352 64.4307 355.111 63.0645C354.934 62.8701 354.956 62.5697 355.153 62.3962L358.521 59.4321C358.727 59.2512 359.041 59.2794 359.22 59.4869C360.013 60.4064 360.89 61.1719 361.852 61.7811C362.946 62.4736 364.167 62.8192 365.515 62.8193C366.791 62.8193 367.758 62.4912 368.415 61.835C369.107 61.1424 369.453 60.3042 369.453 59.3201C369.453 58.4087 369.125 57.6802 368.468 57.1334C367.849 56.5865 367.028 56.1118 366.008 55.7107C364.987 55.3098 363.893 54.8895 362.726 54.4522C361.597 53.9784 360.522 53.4135 359.501 52.7576C358.481 52.1016 357.643 51.263 356.986 50.2428C356.367 49.1855 356.056 47.8357 356.056 46.1951C356.056 44.6642 356.457 43.279 357.258 42.0396C358.06 40.7638 359.172 39.7594 360.593 39.0303C362.052 38.3011 363.712 37.9381 365.572 37.9381Z"
          fill="#2845C1"/>
    <path d="M401.595 37.9381C403.6 37.9381 405.46 38.3756 407.173 39.2506C408.768 40.048 410.045 41.0418 411.004 42.2328C411.161 42.4282 411.127 42.7116 410.936 42.8745L407.567 45.7491C407.354 45.9304 407.033 45.8918 406.857 45.6751C406.235 44.909 405.52 44.2622 404.712 43.7342C403.764 43.1144 402.725 42.8037 401.595 42.8037C400.793 42.8037 400.099 42.9503 399.516 43.242C398.97 43.5335 398.551 43.9168 398.26 44.3904C398.005 44.8644 397.875 45.3938 397.875 45.9771C397.876 46.8517 398.186 47.5807 398.806 48.1639C399.462 48.7106 400.3 49.1855 401.321 49.5865C402.342 49.9876 403.418 50.4251 404.548 50.899C405.715 51.3365 406.809 51.8835 407.829 52.5396C408.85 53.1594 409.671 53.9974 410.29 55.0545C410.946 56.075 411.275 57.3687 411.275 58.9357C411.275 60.7945 410.819 62.3813 409.908 63.6936C409.033 64.9696 407.865 65.954 406.407 66.6467C404.949 67.3393 403.345 67.6873 401.595 67.6873C399.225 67.6873 397.164 67.2498 395.415 66.3748C393.802 65.535 392.377 64.4305 391.137 63.0644C390.96 62.87 390.982 62.5697 391.179 62.3962L394.545 59.4323C394.75 59.2513 395.065 59.2794 395.244 59.487C396.036 60.4064 396.914 61.172 397.875 61.7811C398.969 62.4737 400.192 62.8193 401.541 62.8193C402.817 62.8192 403.782 62.4909 404.438 61.835C405.131 61.1424 405.479 60.3043 405.479 59.3201C405.479 58.4092 405.15 57.6802 404.494 57.1334C403.875 56.5867 403.054 56.1117 402.033 55.7107C401.013 55.3098 399.919 54.8896 398.752 54.4522C397.622 53.9782 396.546 53.4138 395.525 52.7576C394.504 52.1016 393.666 51.2632 393.01 50.2428C392.39 49.1855 392.079 47.8357 392.079 46.1951C392.079 44.6639 392.482 43.2792 393.284 42.0396C394.086 40.7637 395.197 39.7594 396.619 39.0303C398.077 38.3014 399.736 37.9381 401.595 37.9381Z"
          fill="#2845C1"/>
    <path fill-rule="evenodd" clip-rule="evenodd"
          d="M449.258 38.4865C451.774 38.4866 453.907 38.9415 455.657 39.8529C457.406 40.7643 458.719 42.0223 459.594 43.6264C460.505 45.2304 460.96 47.0354 460.96 49.0404V66.6612C460.96 66.9263 460.746 67.1412 460.48 67.1412H455.424C455.159 67.1412 454.944 66.9263 454.944 66.6612V64.8386C454.944 64.6121 454.651 64.5048 454.493 64.6674C454.249 64.919 453.981 65.1603 453.688 65.3904C452.704 66.1925 451.555 66.8139 450.243 67.2514C448.93 67.7252 447.6 67.9614 446.251 67.9615C443.553 67.9615 441.346 67.2331 439.632 65.7748C437.919 64.3165 437.064 62.365 437.064 59.9225C437.064 57.8446 437.847 56.0767 439.414 54.6186C440.982 53.1604 443.242 52.1933 446.195 51.7193L454.544 50.3013C454.775 50.2621 454.944 50.0621 454.944 49.828V49.0404C454.944 47.4004 454.399 46.1245 453.306 45.2131C452.212 44.2654 450.79 43.7906 449.04 43.7904C447.618 43.7904 446.323 44.1011 445.157 44.7209C444.169 45.2624 443.321 45.9844 442.612 46.8875C442.443 47.1022 442.133 47.1513 441.916 46.9854L438.254 44.1834C438.048 44.0258 438.003 43.7324 438.162 43.5275C439.325 42.0279 440.799 40.8395 442.585 39.9631C444.554 38.9787 446.779 38.4865 449.258 38.4865ZM447.728 55.7131C446.087 55.9683 444.901 56.4408 444.172 57.1334C443.443 57.7894 443.078 58.628 443.078 59.6482C443.078 60.669 443.461 61.5092 444.226 62.1654C445.028 62.8217 446.105 63.1498 447.453 63.1498C449.13 63.1498 450.607 62.7669 451.883 62.0014C452.93 61.3731 453.816 60.5714 454.543 59.5989C454.818 59.2306 454.944 58.7756 454.944 58.3157V55.0817C454.944 54.7852 454.678 54.5596 454.386 54.6081L447.728 55.7131Z"
          fill="#2845C1"/>
    <path d="M424.768 39.0987C424.768 39.3638 424.983 39.5787 425.248 39.5787H433.204C433.469 39.5787 433.684 39.7936 433.684 40.0587V44.5128C433.684 44.7779 433.469 44.9928 433.204 44.9928H425.248C424.983 44.9928 424.768 45.2077 424.768 45.4728V57.4076C424.768 58.6103 424.97 59.558 425.371 60.2506C425.771 60.9429 426.337 61.4529 427.065 61.7811C427.794 62.0727 428.652 62.2193 429.636 62.2193C430.584 62.2193 431.387 62.1646 432.043 62.0553C432.417 61.9722 432.762 61.8831 433.076 61.7881C433.399 61.6907 433.738 61.9251 433.738 62.262V66.5551C433.738 66.7447 433.627 66.918 433.45 66.9869C432.865 67.2145 432.213 67.3756 431.495 67.4693C430.693 67.6151 429.745 67.6873 428.652 67.6873C426.465 67.6873 424.622 67.3044 423.128 66.5389C421.67 65.7368 420.558 64.5879 419.793 63.0936C419.064 61.5626 418.7 59.6673 418.7 57.4076V45.4728C418.7 45.2077 418.485 44.9928 418.22 44.9928H414.261C413.996 44.9928 413.781 44.7779 413.781 44.5128V40.0587C413.781 39.7936 413.996 39.5787 414.261 39.5787H418.22C418.485 39.5787 418.7 39.3638 418.7 39.0987V33.1704C418.7 32.9053 418.915 32.6904 419.18 32.6904H424.288C424.553 32.6904 424.768 32.9053 424.768 33.1704V39.0987Z"
          fill="#2845C1"/>
    <path d="M507.751 39.0987C507.751 39.3638 507.966 39.5787 508.231 39.5787H516.184C516.449 39.5787 516.664 39.7936 516.664 40.0587V44.5128C516.664 44.7779 516.449 44.9928 516.184 44.9928H508.231C507.966 44.9928 507.751 45.2077 507.751 45.4728V57.4076C507.751 58.6101 507.95 59.558 508.351 60.2506C508.752 60.9433 509.319 61.4529 510.048 61.7811C510.777 62.0726 511.633 62.2192 512.617 62.2193C513.565 62.2193 514.368 62.1646 515.024 62.0553C515.398 61.9722 515.742 61.883 516.057 61.788C516.379 61.6907 516.718 61.9251 516.718 62.2619V66.555C516.718 66.7447 516.607 66.918 516.43 66.9869C515.846 67.2144 515.196 67.3757 514.478 67.4693C513.676 67.6152 512.726 67.6873 511.632 67.6873C509.445 67.6872 507.605 67.3044 506.111 66.5389C504.652 65.7368 503.541 64.5883 502.775 63.0936C502.046 61.5625 501.681 59.6676 501.681 57.4076V45.4728C501.681 45.2077 501.466 44.9928 501.201 44.9928H497.021C496.756 44.9928 496.541 44.7779 496.541 44.5128V40.0587C496.541 39.7936 496.756 39.5787 497.021 39.5787H501.201C501.466 39.5787 501.681 39.3638 501.681 39.0987V33.1704C501.681 32.9053 501.896 32.6904 502.161 32.6904H507.271C507.536 32.6904 507.751 32.9053 507.751 33.1704V39.0987Z"
          fill="#2845C1"/>
    <path fill-rule="evenodd" clip-rule="evenodd"
          d="M330.77 66.4879C330.892 66.8025 330.66 67.1412 330.322 67.1412H324.192C323.993 67.1412 323.814 67.0177 323.743 66.8311L320.005 56.9514C319.935 56.7647 319.756 56.6412 319.556 56.6412H304.01C303.81 56.6412 303.632 56.7644 303.561 56.9507L299.807 66.8317C299.736 67.018 299.558 67.1412 299.358 67.1412H293.28C292.943 67.1412 292.711 66.803 292.833 66.4885L307.226 29.168C307.297 28.9829 307.475 28.8607 307.673 28.8607H315.875C316.073 28.8607 316.251 28.9826 316.322 29.1675L330.77 66.4879ZM306.087 50.3048C305.967 50.6189 306.199 50.9553 306.535 50.9553H317.041C317.377 50.9553 317.609 50.6194 317.49 50.3054L312.248 36.4546C312.091 36.0414 311.507 36.041 311.35 36.454L306.087 50.3048Z"
          fill="#2845C1"/>
    <path d="M386.729 66.6612C386.729 66.9263 386.514 67.1412 386.249 67.1412H381.195C380.93 67.1412 380.715 66.9263 380.715 66.6612V40.0587C380.715 39.7936 380.93 39.5787 381.195 39.5787H386.249C386.514 39.5787 386.729 39.7936 386.729 40.0587V66.6612Z"
          fill="#2845C1"/>
    <path d="M482.422 38.4865C484.464 38.4865 486.286 38.9417 487.89 39.8529C489.531 40.7644 490.826 42.1142 491.774 43.9006C492.721 45.6869 493.196 47.9297 493.196 50.6271V66.6612C493.196 66.9263 492.982 67.1412 492.716 67.1412H487.606C487.341 67.1412 487.126 66.9263 487.126 66.6612V50.8451C487.126 48.7309 486.579 47.0898 485.486 45.9232C484.392 44.7202 482.895 44.1186 481 44.1186C479.797 44.1187 478.74 44.355 477.828 44.8287C476.917 45.2662 476.134 45.8329 475.478 46.5256C475.007 47.052 474.588 47.5992 474.222 48.1676C473.996 48.5188 473.891 48.932 473.891 49.3497V66.6612C473.891 66.9263 473.676 67.1412 473.411 67.1412H468.357C468.092 67.1412 467.877 66.9263 467.877 66.6612V40.0587C467.877 39.7936 468.092 39.5787 468.357 39.5787H473.411C473.676 39.5787 473.891 39.7936 473.891 40.0587V41.494C473.891 41.7103 474.158 41.8191 474.315 41.6706C475.22 40.8168 476.264 40.101 477.446 39.5248C478.868 38.8323 480.527 38.4865 482.422 38.4865Z"
          fill="#2845C1"/>
    <path d="M383.776 25.7998C384.505 25.7998 385.162 25.9814 385.745 26.3459C386.365 26.7105 386.839 27.2027 387.168 27.8225C387.532 28.4057 387.714 29.0622 387.714 29.7912C387.714 30.52 387.532 31.1943 387.168 31.8139C386.839 32.4336 386.365 32.9259 385.745 33.2904C385.162 33.6185 384.505 33.7826 383.776 33.7826C383.047 33.7826 382.373 33.6185 381.753 33.2904C381.134 32.9259 380.641 32.4336 380.277 31.8139C379.912 31.1942 379.731 30.5202 379.731 29.7912C379.731 28.6975 380.114 27.7677 380.879 27.0021C381.681 26.2005 382.646 25.7999 383.776 25.7998Z"
          fill="#2845C1"/>
    <path fill-rule="evenodd" clip-rule="evenodd"
          d="M266.25 37.3609C273.521 37.3609 278.313 42.0059 278.899 48.6058C279.028 50.0645 279.103 51.6606 278.847 53.1005C278.763 53.5713 278.345 53.9007 277.867 53.9007H259.675C259.365 53.9009 259.124 54.1751 259.177 54.481C260.002 59.2754 262.642 61.2803 266.86 61.2803C268.093 61.2802 269.354 60.8411 270.26 60.4333C270.762 60.2073 271.015 60.0939 271.182 60.0566C271.536 59.9776 271.764 59.9919 272.106 60.1128C272.267 60.1696 272.455 60.2836 272.832 60.5106L274.39 61.4511C275.403 62.0617 275.91 62.3663 276.119 62.6772C276.511 63.2643 276.498 64.0156 276.086 64.5888C275.867 64.8926 275.365 65.1734 274.359 65.7329C273.604 66.153 272.832 66.5349 272.027 66.8233C269.242 67.8194 266.271 67.8516 263.278 67.2187C255.833 65.6439 251.874 59.4838 251.874 52.4571C251.874 44.1871 257.092 37.3612 266.25 37.3609ZM266.084 43.1331C262.684 43.1332 260.368 44.9063 259.462 48.1753C259.375 48.4909 259.621 48.7953 259.949 48.7953H271.655C271.947 48.7949 272.182 48.5494 272.146 48.2595C271.813 45.6177 269.776 43.1331 266.084 43.1331Z"
          fill="#2845C1"/>
    <path d="M170.34 26.5863C175.62 26.5864 179.76 28.7321 182.966 32.0683C183.211 32.3237 183.334 32.4513 183.408 32.6112C183.539 32.8968 183.526 33.2666 183.375 33.5424C183.291 33.6971 183.148 33.827 182.863 34.0852L179.339 37.2696C179.011 37.566 178.846 37.7162 178.686 37.7844C178.376 37.9168 178.066 37.8995 177.771 37.7353C177.62 37.6508 177.459 37.4712 177.137 37.1129C175.127 34.8732 172.901 33.4605 170.394 33.4605C167.623 33.461 165.795 35.2346 165.794 37.5621C165.794 40.5267 168.921 41.8905 172.54 43.4677C177.515 45.6358 183.422 48.2097 183.422 55.9106C183.311 63.2276 177.657 67.6069 170.506 67.6071C164.545 67.6071 160.379 65.6278 157.086 62.1718C156.844 61.9182 156.723 61.7903 156.65 61.6313C156.522 61.3484 156.534 60.9833 156.681 60.7094C156.763 60.5554 156.904 60.4249 157.184 60.1666L160.679 56.9448C161.009 56.6407 161.174 56.4878 161.33 56.4183C161.639 56.2806 161.93 56.2884 162.231 56.444C162.382 56.5226 162.558 56.7048 162.909 57.0688C165.081 59.3216 167.745 60.6227 170.45 60.6229C173.554 60.6229 175.438 58.9602 175.439 56.189C175.439 53.1534 172.263 51.7557 168.607 50.1477C163.65 47.968 157.813 45.4002 157.813 37.8405C157.813 31.6875 162.912 26.5863 170.34 26.5863Z"
          fill="#2845C1"/>
    <path d="M193.417 38.5612C193.823 38.5612 194.026 38.5615 194.19 38.6173C194.493 38.7214 194.734 38.9592 194.838 39.2631C194.894 39.4268 194.894 39.6312 194.894 40.0376V54.4155C194.894 58.4611 197 60.9548 200.879 60.9551C204.703 60.9551 206.81 58.4614 206.81 54.4155V40.0376C206.81 39.6312 206.81 39.4268 206.866 39.2631C206.97 38.9592 207.211 38.7214 207.515 38.6173C207.678 38.5615 207.881 38.5612 208.287 38.5612H212.43C212.837 38.5612 213.041 38.5613 213.205 38.6173C213.508 38.7216 213.747 38.9597 213.851 39.2631C213.907 39.4268 213.907 39.6312 213.907 40.0376V54.0809C213.907 62.4509 209.029 67.6067 200.825 67.6071C192.621 67.6071 187.797 62.4512 187.797 54.0809V40.0376C187.797 39.6312 187.797 39.4268 187.853 39.2631C187.957 38.9597 188.196 38.7216 188.499 38.6173C188.663 38.5613 188.867 38.5612 189.274 38.5612H193.417Z"
          fill="#2845C1"/>
    <path fill-rule="evenodd" clip-rule="evenodd"
          d="M138.356 37.4287C146.449 37.4288 150.606 42.2518 150.607 48.4046V65.0006C150.607 65.4061 150.606 65.6092 150.551 65.7727C150.446 66.0766 150.206 66.3168 149.902 66.4208C149.739 66.4765 149.536 66.477 149.13 66.477H145.043C144.636 66.477 144.432 66.4769 144.268 66.4208C143.965 66.3167 143.726 66.0765 143.622 65.7727C143.567 65.6092 143.566 65.4062 143.566 65.0006V64.7104C143.566 64.4621 143.566 64.3376 143.538 64.2846C143.483 64.1798 143.377 64.1339 143.262 64.1653C143.204 64.1819 143.107 64.2725 142.916 64.4531C141.05 66.2128 138.102 67.3073 135.197 67.3076C129.599 67.3076 125.773 64.0929 125.772 58.9382C125.772 54.7256 129.042 51.5645 135.029 50.5665L142.855 49.2446C143.265 49.1753 143.566 48.8206 143.566 48.4046C143.566 45.4669 141.348 43.5823 138.133 43.5823C135.966 43.5824 134.187 44.395 132.796 45.7653C132.429 46.1275 132.243 46.3084 132.104 46.3807C131.815 46.5301 131.574 46.5443 131.269 46.4322C131.121 46.3779 130.952 46.2492 130.616 45.9923L127.803 43.8467C127.503 43.6172 127.352 43.5015 127.253 43.3484C127.083 43.0823 127.046 42.6813 127.167 42.3891C127.237 42.2203 127.348 42.0982 127.569 41.8556C130.097 39.0851 133.834 37.4287 138.356 37.4287ZM142.708 54.2025L136.914 55.1689C133.977 55.6677 132.757 56.8858 132.757 58.6036C132.757 60.4884 134.255 61.7085 136.638 61.7085C139.451 61.7082 141.585 60.5626 143.002 58.7908C143.099 58.6704 143.148 58.6097 143.234 58.4633C143.366 58.2398 143.506 57.84 143.543 57.5835C143.567 57.4157 143.566 57.2834 143.566 57.0196V54.9302C143.566 54.6949 143.565 54.5774 143.531 54.488C143.468 54.3216 143.324 54.1981 143.15 54.1628C143.056 54.1438 142.94 54.1639 142.708 54.2025Z"
          fill="#2845C1"/>
    <path d="M240.14 31.577C240.547 31.577 240.751 31.5771 240.915 31.6331C241.218 31.7374 241.457 31.9755 241.561 32.2789C241.616 32.4424 241.617 32.6455 241.617 33.051V38.0511C241.617 38.1911 241.616 38.2614 241.635 38.3179C241.671 38.4229 241.755 38.5042 241.86 38.5401C241.917 38.5594 241.986 38.5612 242.127 38.5612H248.678C249.084 38.5612 249.287 38.5614 249.45 38.6173C249.754 38.7214 249.992 38.9595 250.096 39.2631C250.152 39.4268 250.152 39.6312 250.152 40.0376V43.4045C250.152 43.8103 250.152 44.0131 250.096 44.1766C249.992 44.4805 249.754 44.7207 249.45 44.8248C249.287 44.8807 249.084 44.8809 248.678 44.8809H242.127C241.987 44.8809 241.916 44.8804 241.86 44.8996C241.755 44.9355 241.672 45.0172 241.635 45.1219C241.616 45.1785 241.617 45.2505 241.617 45.391V56.299C241.617 59.4031 243.279 60.6228 246.051 60.6229C247.137 60.6229 248.016 60.5534 248.744 60.424C249.244 60.3349 249.495 60.2911 249.626 60.3164C249.901 60.3695 250.061 60.5017 250.161 60.7633C250.209 60.8877 250.208 61.1051 250.208 61.5377V65.2041C250.208 65.4657 250.207 65.5965 250.171 65.7306C250.109 65.9568 249.926 66.2055 249.729 66.3319C249.611 66.4068 249.51 66.4393 249.307 66.5027C248.105 66.8785 246.677 67.0525 244.831 67.0526C237.847 67.0526 234.52 63.1172 234.52 56.299V45.391C234.52 45.2505 234.521 45.1785 234.501 45.1219C234.465 45.0173 234.382 44.9355 234.277 44.8996C234.22 44.8806 234.15 44.8809 234.01 44.8809H230.786C230.38 44.8809 230.177 44.8804 230.014 44.8248C229.71 44.7207 229.47 44.4805 229.366 44.1766C229.31 44.0132 229.309 43.8099 229.309 43.4045V40.0376C229.309 39.6312 229.31 39.4268 229.366 39.2631C229.47 38.9592 229.71 38.7214 230.014 38.6173C230.177 38.5615 230.38 38.5612 230.786 38.5612H234.01C234.15 38.5612 234.22 38.5593 234.277 38.5401C234.382 38.5042 234.465 38.4228 234.501 38.3179C234.521 38.2614 234.52 38.1911 234.52 38.0511V33.051C234.52 32.6456 234.52 32.4424 234.576 32.2789C234.68 31.975 234.921 31.7372 235.224 31.6331C235.388 31.5773 235.591 31.577 235.997 31.577H240.14Z"
          fill="#2845C1"/>
    <path d="M107.031 27.8451C107.529 27.8045 108 28.0783 108.212 28.5306C108.326 28.7726 108.327 29.152 108.327 29.9087V58.868C108.327 59.0707 108.327 59.1724 108.355 59.2541C108.407 59.4058 108.526 59.525 108.678 59.577C108.76 59.6048 108.861 59.6051 109.064 59.6051H121.2C121.606 59.6051 121.809 59.6053 121.973 59.6612C122.276 59.7651 122.514 60.0037 122.618 60.307C122.674 60.4707 122.675 60.6751 122.675 61.0815V65.0591C122.675 65.465 122.674 65.6676 122.618 65.8312C122.514 66.1351 122.277 66.3753 121.973 66.4793C121.809 66.5351 121.606 66.5355 121.2 66.5355H102.276C101.87 66.5355 101.666 66.5353 101.502 66.4793C101.198 66.3752 100.96 66.135 100.856 65.8312C100.8 65.6677 100.8 65.4647 100.8 65.0591V33.2569C100.8 32.6912 100.8 32.4068 100.859 32.1479C100.966 31.6698 101.218 31.2362 101.579 30.9055C101.775 30.7265 102.02 30.5852 102.51 30.3042L105.779 28.4323C106.436 28.056 106.764 27.8667 107.031 27.8451Z"
          fill="#2845C1"/>
    <path d="M225.046 38.5612C225.452 38.5612 225.655 38.5615 225.819 38.6173C226.122 38.7214 226.363 38.9592 226.467 39.2631C226.523 39.4268 226.523 39.6312 226.523 40.0376V65.024C226.523 65.4295 226.523 65.6326 226.467 65.7961C226.363 66.1 226.122 66.3378 225.819 66.4419C225.655 66.4977 225.452 66.498 225.046 66.498H220.959C220.552 66.498 220.348 66.4979 220.184 66.4419C219.881 66.3377 219.643 66.0997 219.539 65.7961C219.483 65.6326 219.482 65.4296 219.482 65.024V40.0376C219.482 39.6312 219.483 39.4268 219.539 39.2631C219.643 38.9596 219.881 38.7215 220.184 38.6173C220.348 38.5613 220.552 38.5612 220.959 38.5612H225.046Z"
          fill="#2845C1"/>
    <path d="M223.03 24.4805C225.524 24.4805 227.576 26.5883 227.576 29.0828C227.575 31.5768 225.524 33.6828 223.03 33.6828C220.536 33.6826 218.43 31.5767 218.43 29.0828C218.43 26.5884 220.535 24.4806 223.03 24.4805Z"
          fill="#2845C1"/>
    <defs>
        <linearGradient id="paint0_linear_4916_14686" x1="48" y1="64.7998" x2="48" y2="86.3998"
                        gradientUnits="userSpaceOnUse">
            <stop stop-color="#2845C1"/>
            <stop offset="1" stop-color="#EEF1F4"/>
        </linearGradient>
    </defs>
</svg>
