<svg width="159" height="40" viewBox="0 0 159 40" fill="none" xmlns="http://www.w3.org/2000/svg">
    <g clip-path="url(#clip0_4910_1430)">
        <path fill-rule="evenodd" clip-rule="evenodd" d="M129.463 21.686C130.689 21.6861 131.739 21.9775 132.613 22.5601C133.502 23.1273 134.185 23.886 134.66 24.8364C135.151 25.7718 135.396 26.8072 135.396 27.9419C135.396 28.7851 135.258 29.5823 134.982 30.3335C134.706 31.0848 134.307 31.7518 133.786 32.3345C133.28 32.917 132.66 33.377 131.924 33.7144C131.203 34.0363 130.383 34.1977 129.463 34.1978C128.666 34.1978 127.96 34.0677 127.347 33.8071C126.733 33.5465 126.189 33.1707 125.714 32.6802C125.689 32.6535 125.645 32.67 125.645 32.7065V39.0757C125.645 39.1875 125.645 39.2439 125.623 39.2866C125.604 39.3243 125.573 39.3553 125.535 39.3745C125.492 39.3962 125.436 39.396 125.324 39.396H123.458C123.346 39.396 123.29 39.3962 123.247 39.3745C123.209 39.3553 123.178 39.3243 123.159 39.2866C123.138 39.2439 123.138 39.1875 123.138 39.0757V22.4663C123.138 22.3545 123.138 22.2981 123.159 22.2554C123.178 22.2177 123.209 22.1867 123.247 22.1675C123.29 22.1458 123.346 22.146 123.458 22.146H125.324C125.436 22.146 125.492 22.1458 125.535 22.1675C125.573 22.1867 125.604 22.2177 125.623 22.2554C125.645 22.2981 125.645 22.3545 125.645 22.4663V23.1763C125.645 23.2127 125.689 23.2298 125.714 23.2036C126.189 22.7131 126.733 22.3373 127.347 22.0767C127.96 21.816 128.666 21.686 129.463 21.686ZM129.141 24.0552C128.42 24.0552 127.753 24.2237 127.14 24.561C126.68 24.8086 126.275 25.1516 125.924 25.5894C125.842 25.6917 125.8 25.743 125.754 25.8335C125.719 25.9023 125.681 26.0118 125.665 26.0874C125.645 26.187 125.645 26.2753 125.645 26.4517V29.4312C125.645 29.6076 125.645 29.6963 125.665 29.7954C125.681 29.8711 125.718 29.9796 125.753 30.0483C125.799 30.1384 125.84 30.1905 125.923 30.2944C126.274 30.7359 126.679 31.0866 127.14 31.3462C127.753 31.6681 128.42 31.8286 129.141 31.8286C129.877 31.8286 130.513 31.6601 131.05 31.3228C131.602 30.9701 132.023 30.502 132.314 29.9194C132.621 29.3369 132.774 28.6777 132.774 27.9419C132.774 27.2059 132.621 26.546 132.314 25.9634C132.023 25.3809 131.602 24.9208 131.05 24.5835C130.513 24.2308 129.877 24.0552 129.141 24.0552Z" fill="#2845C1"/>
        <path d="M90.6904 21.686C91.5491 21.686 92.3389 21.8698 93.0596 22.2378C93.69 22.553 94.2025 22.9359 94.5967 23.3862C94.6603 23.4589 94.6924 23.4958 94.7041 23.5425C94.7138 23.5814 94.7103 23.6283 94.6953 23.6655C94.6773 23.7102 94.6374 23.7446 94.5586 23.813L93.3223 24.8853C93.2311 24.9643 93.1853 25.0036 93.1387 25.0151C93.0956 25.0258 93.0568 25.023 93.0156 25.0063C92.9711 24.9883 92.928 24.9388 92.8428 24.8403C92.6012 24.5613 92.3284 24.3223 92.0244 24.1235C91.6259 23.863 91.189 23.733 90.7139 23.7329C90.3767 23.7329 90.0851 23.7939 89.8398 23.9165C89.6098 24.0392 89.4332 24.2006 89.3105 24.3999C89.1879 24.5992 89.127 24.8216 89.127 25.0669C89.127 25.4348 89.265 25.7415 89.541 25.9868C89.817 26.2167 90.1695 26.4159 90.5986 26.5845C91.028 26.7531 91.4807 26.9379 91.9561 27.1372C92.4311 27.3212 92.8834 27.5508 93.3125 27.8267C93.7418 28.0873 94.0951 28.4406 94.3711 28.8853C94.6469 29.3145 94.7842 29.859 94.7842 30.5181C94.7688 31.2999 94.5779 31.9671 94.21 32.519C93.842 33.0557 93.3506 33.4699 92.7373 33.7612C92.1242 34.0524 91.4496 34.1977 90.7139 34.1978C89.7172 34.1978 88.8503 34.014 88.1143 33.646C87.4703 33.3106 86.8966 32.8754 86.3936 32.3403C86.3213 32.2634 86.2847 32.2245 86.2715 32.1772C86.2602 32.137 86.2623 32.0903 86.2773 32.0513C86.295 32.0055 86.3371 31.9689 86.4199 31.896L87.6514 30.812C87.7404 30.7336 87.7854 30.694 87.832 30.6821C87.8744 30.6714 87.9144 30.6738 87.9551 30.6899C87.9997 30.7077 88.0414 30.7548 88.124 30.8491C88.4358 31.205 88.7776 31.5013 89.1494 31.7368C89.6094 32.0128 90.1232 32.1508 90.6904 32.1509C91.2271 32.1509 91.6413 32.0128 91.9326 31.7368C92.2239 31.4456 92.37 31.093 92.3701 30.6792C92.3701 30.2961 92.2317 29.9892 91.9561 29.7593C91.6801 29.5293 91.3268 29.3293 90.8975 29.1606C90.4682 28.992 90.0082 28.8153 89.5176 28.6313C89.0423 28.432 88.5894 28.1944 88.1602 27.9185C87.731 27.6425 87.3784 27.2819 87.1025 26.8374C86.842 26.3928 86.7119 25.8332 86.7119 25.1587C86.7119 24.4995 86.8805 23.9094 87.2178 23.3882C87.5551 22.8668 88.0231 22.4527 88.6211 22.146C89.2343 21.8395 89.924 21.6861 90.6904 21.686Z" fill="#2845C1"/>
        <path d="M102.357 21.686C103.415 21.686 104.359 21.9003 105.187 22.3296C105.931 22.6949 106.556 23.1795 107.062 23.7837C107.128 23.8637 107.161 23.9044 107.172 23.9526C107.181 23.9935 107.176 24.0407 107.158 24.0786C107.137 24.1233 107.094 24.1572 107.007 24.2241L105.545 25.3442C105.452 25.4155 105.406 25.4513 105.36 25.4604C105.318 25.469 105.281 25.4651 105.241 25.4478C105.199 25.4292 105.157 25.3806 105.073 25.2827C104.798 24.9589 104.46 24.6876 104.06 24.4692C103.569 24.1933 102.994 24.0552 102.335 24.0552C101.798 24.0552 101.3 24.1547 100.84 24.354C100.395 24.538 100.004 24.8061 99.667 25.1587C99.345 25.5113 99.0922 25.9256 98.9082 26.4009C98.7395 26.8762 98.6543 27.3899 98.6543 27.9419C98.6543 28.6779 98.8157 29.3449 99.1377 29.9429C99.4597 30.5255 99.8972 30.9854 100.449 31.3228C101.001 31.66 101.645 31.8286 102.381 31.8286C103.009 31.8286 103.569 31.6905 104.06 31.4146C104.46 31.1962 104.798 30.925 105.073 30.6011C105.157 30.503 105.199 30.4536 105.241 30.4351C105.281 30.4177 105.318 30.4138 105.36 30.4224C105.406 30.4315 105.453 30.4672 105.546 30.5386L107.004 31.6577C107.092 31.7252 107.137 31.7592 107.157 31.8042C107.175 31.8424 107.179 31.8901 107.17 31.9312C107.159 31.9796 107.125 32.02 107.057 32.1001C106.552 32.6915 105.929 33.1765 105.187 33.5542C104.359 33.9834 103.415 34.1978 102.357 34.1978C101.054 34.1977 99.9271 33.9144 98.9766 33.3472C98.0259 32.7645 97.2899 31.9971 96.7686 31.0464C96.2627 30.0959 96.0098 29.061 96.0098 27.9419C96.0098 27.0986 96.155 26.3006 96.4463 25.5493C96.7376 24.7981 97.16 24.1309 97.7119 23.5483C98.2639 22.9658 98.931 22.5138 99.7129 22.1919C100.495 21.8546 101.376 21.6861 102.357 21.686Z" fill="#2845C1"/>
        <path d="M149.868 21.686C150.727 21.6861 151.517 21.8698 152.237 22.2378C152.868 22.553 153.38 22.9359 153.774 23.3862C153.838 23.4589 153.87 23.4958 153.882 23.5425C153.892 23.5814 153.888 23.6283 153.873 23.6655C153.855 23.7102 153.815 23.7446 153.736 23.813L152.5 24.8853C152.409 24.9643 152.363 25.0036 152.316 25.0151C152.273 25.0258 152.235 25.023 152.193 25.0063C152.149 24.9883 152.106 24.9388 152.021 24.8403C151.779 24.5613 151.506 24.3223 151.202 24.1235C150.803 23.8629 150.366 23.7329 149.891 23.7329C149.553 23.733 149.262 23.7939 149.017 23.9165C148.787 24.0391 148.611 24.2006 148.488 24.3999C148.366 24.5992 148.304 24.8216 148.304 25.0669C148.304 25.4348 148.442 25.7415 148.718 25.9868C148.994 26.2168 149.347 26.4158 149.776 26.5845C150.206 26.7531 150.658 26.9379 151.133 27.1372C151.608 27.3212 152.061 27.5507 152.49 27.8267C152.92 28.0873 153.272 28.4406 153.548 28.8853C153.824 29.3145 153.962 29.8589 153.962 30.5181C153.947 31.2999 153.755 31.9671 153.387 32.519C153.019 33.0556 152.528 33.47 151.915 33.7612C151.302 34.0525 150.627 34.1978 149.891 34.1978C148.894 34.1977 148.028 34.0139 147.292 33.646C146.648 33.3106 146.074 32.8754 145.571 32.3403C145.499 32.2634 145.462 32.2245 145.449 32.1772C145.438 32.137 145.44 32.0903 145.455 32.0513C145.473 32.0055 145.515 31.9689 145.598 31.896L146.829 30.812C146.918 30.7336 146.963 30.694 147.01 30.6821C147.052 30.6714 147.092 30.6738 147.133 30.6899C147.177 30.7077 147.219 30.7548 147.302 30.8491C147.614 31.205 147.955 31.5013 148.327 31.7368C148.787 32.0128 149.301 32.1509 149.868 32.1509C150.405 32.1509 150.819 32.0128 151.11 31.7368C151.401 31.4456 151.547 31.0929 151.547 30.6792C151.547 30.2959 151.409 29.9893 151.133 29.7593C150.857 29.5293 150.504 29.3293 150.075 29.1606C149.646 28.992 149.186 28.8153 148.695 28.6313C148.22 28.432 147.767 28.1945 147.338 27.9185C146.909 27.6425 146.556 27.282 146.28 26.8374C146.02 26.3928 145.889 25.8333 145.889 25.1587C145.889 24.4996 146.057 23.9094 146.395 23.3882C146.732 22.8669 147.2 22.4527 147.798 22.146C148.411 21.8393 149.101 21.686 149.868 21.686Z" fill="#2845C1"/>
        <path fill-rule="evenodd" clip-rule="evenodd" d="M65.9512 21.686C67.0092 21.686 67.9066 21.8779 68.6426 22.2612C69.3784 22.6446 69.9309 23.1736 70.2988 23.8481C70.6666 24.5073 70.8505 25.2661 70.8506 26.1245V33.4175C70.8506 33.5293 70.8508 33.5857 70.8291 33.6284C70.8099 33.666 70.7788 33.6971 70.7412 33.7163C70.6985 33.738 70.6421 33.7378 70.5303 33.7378H68.6865C68.5747 33.7378 68.5183 33.738 68.4756 33.7163C68.438 33.6971 68.4069 33.666 68.3877 33.6284C68.366 33.5857 68.3662 33.5293 68.3662 33.4175V32.9155C68.3662 32.7695 68.3662 32.6963 68.3428 32.6685C68.3212 32.6429 68.2941 32.6314 68.2607 32.6333C68.2244 32.6354 68.168 32.6885 68.0557 32.7944C67.9798 32.8659 67.8993 32.9348 67.8145 33.0015C67.4005 33.3388 66.9172 33.5997 66.3652 33.7837C65.8286 33.983 65.2763 34.0825 64.709 34.0825C63.5592 34.0824 62.6239 33.7759 61.9033 33.1626C61.1828 32.5493 60.8223 31.7289 60.8223 30.7017C60.8223 29.8277 61.1522 29.0916 61.8115 28.4937C62.4708 27.8804 63.4213 27.4661 64.6631 27.2515L68.0996 26.6675C68.1943 26.6514 68.2418 26.6434 68.2773 26.6196C68.3085 26.5988 68.3333 26.5698 68.3486 26.5356C68.3661 26.4967 68.3662 26.4481 68.3662 26.3521V26.1245C68.3661 25.4346 68.1286 24.8903 67.6533 24.4917C67.1933 24.0931 66.5953 23.894 65.8594 23.894C65.2614 23.8941 64.7172 24.0321 64.2266 24.3081C63.8467 24.5164 63.5154 24.7888 63.2334 25.1245C63.1522 25.2212 63.111 25.2698 63.0684 25.2886C63.0288 25.3059 62.9916 25.3097 62.9492 25.3013C62.9036 25.2922 62.8569 25.2567 62.7646 25.186L61.417 24.1538C61.3298 24.087 61.2864 24.053 61.2656 24.0083C61.2482 23.9706 61.2424 23.9239 61.251 23.8833C61.2613 23.8351 61.295 23.795 61.3613 23.7153C61.8508 23.1274 62.4532 22.6579 63.168 22.3071C63.9806 21.8932 64.9086 21.6861 65.9512 21.686ZM68.1787 28.437L65.3076 28.9312C64.6176 29.0385 64.1192 29.2375 63.8125 29.5288C63.5059 29.8201 63.3526 30.1726 63.3525 30.5864C63.3525 31.0157 63.5131 31.369 63.835 31.645C64.1723 31.921 64.6179 32.0591 65.1699 32.0591C65.8904 32.059 66.5191 31.8976 67.0557 31.5757C67.4604 31.3328 67.8083 31.0287 68.0996 30.6636C68.1738 30.5706 68.2109 30.5241 68.2568 30.4341C68.2908 30.3674 68.3307 30.2536 68.3457 30.1802C68.366 30.0809 68.3662 29.9961 68.3662 29.8267V28.5942C68.3662 28.5292 68.3658 28.4963 68.3525 28.4731C68.3408 28.453 68.3226 28.4372 68.3008 28.4292C68.2757 28.42 68.243 28.4259 68.1787 28.437Z" fill="#2845C1"/>
        <path d="M140.329 19.2476C140.441 19.2476 140.497 19.2474 140.54 19.269C140.578 19.2882 140.609 19.3193 140.628 19.3569C140.65 19.3997 140.649 19.4561 140.649 19.5679V21.8257C140.649 21.9375 140.649 21.9939 140.671 22.0366C140.69 22.0743 140.721 22.1053 140.759 22.1245C140.802 22.1462 140.858 22.146 140.97 22.146H144.078C144.19 22.146 144.246 22.1458 144.289 22.1675C144.327 22.1867 144.358 22.2177 144.377 22.2554C144.399 22.2981 144.398 22.3545 144.398 22.4663V24.0796C144.398 24.1914 144.399 24.2478 144.377 24.2905C144.358 24.3282 144.327 24.3592 144.289 24.3784C144.246 24.4001 144.19 24.3999 144.078 24.3999H140.97C140.858 24.3999 140.802 24.3997 140.759 24.4214C140.721 24.4406 140.69 24.4716 140.671 24.5093C140.649 24.552 140.649 24.6084 140.649 24.7202V29.644C140.649 30.1499 140.727 30.5562 140.88 30.8628C141.049 31.154 141.286 31.3612 141.593 31.4839C141.899 31.6065 142.267 31.6675 142.696 31.6675C143.095 31.6675 143.433 31.6451 143.709 31.5991C143.813 31.5761 143.911 31.5529 144.004 31.5298C144.153 31.4927 144.228 31.4742 144.281 31.4907C144.329 31.5056 144.367 31.5348 144.393 31.5776C144.422 31.6254 144.422 31.7001 144.422 31.8481V33.4097C144.422 33.4863 144.422 33.5251 144.408 33.5601C144.397 33.5893 144.375 33.6198 144.352 33.6401C144.323 33.6643 144.29 33.6756 144.224 33.6987C143.989 33.7808 143.741 33.8397 143.479 33.8755C143.141 33.9368 142.742 33.9683 142.282 33.9683C141.363 33.9682 140.588 33.8067 139.96 33.4849C139.347 33.1629 138.879 32.6796 138.557 32.0356C138.25 31.3917 138.097 30.5946 138.097 29.644V24.7202C138.097 24.6084 138.097 24.552 138.075 24.5093C138.056 24.4716 138.025 24.4406 137.987 24.4214C137.945 24.3997 137.888 24.3999 137.776 24.3999H136.255C136.143 24.3999 136.087 24.4001 136.044 24.3784C136.006 24.3592 135.975 24.3282 135.956 24.2905C135.934 24.2478 135.935 24.1914 135.935 24.0796V22.4663C135.935 22.3545 135.934 22.2981 135.956 22.2554C135.975 22.2177 136.006 22.1867 136.044 22.1675C136.087 22.1458 136.143 22.146 136.255 22.146H137.776C137.888 22.146 137.945 22.1462 137.987 22.1245C138.025 22.1053 138.056 22.0743 138.075 22.0366C138.097 21.9939 138.097 21.9375 138.097 21.8257V19.5679C138.097 19.4561 138.096 19.3997 138.118 19.3569C138.137 19.3193 138.168 19.2882 138.206 19.269C138.249 19.2474 138.305 19.2476 138.417 19.2476H140.329Z" fill="#2845C1"/>
        <path d="M52.7207 17.6382C52.8325 17.6382 52.8889 17.638 52.9316 17.6597C52.9693 17.6788 53.0004 17.7099 53.0195 17.7476C53.0412 17.7903 53.041 17.8467 53.041 17.9585V19.8706C53.041 19.9824 53.0412 20.0388 53.0195 20.0815C53.0004 20.1192 52.9693 20.1503 52.9316 20.1694C52.8889 20.1911 52.8325 20.1909 52.7207 20.1909H48.2324C48.1206 20.1909 48.0642 20.1907 48.0215 20.2124C47.9839 20.2316 47.9528 20.2627 47.9336 20.3003C47.9119 20.343 47.9121 20.3995 47.9121 20.5112V33.4175C47.9121 33.5293 47.9123 33.5857 47.8906 33.6284C47.8715 33.666 47.8404 33.6971 47.8027 33.7163C47.76 33.738 47.7036 33.7378 47.5918 33.7378H45.4268C45.315 33.7378 45.2586 33.738 45.2158 33.7163C45.1782 33.6971 45.1471 33.666 45.1279 33.6284C45.1063 33.5857 45.1064 33.5293 45.1064 33.4175V20.5112C45.1064 20.3995 45.1066 20.343 45.085 20.3003C45.0658 20.2627 45.0347 20.2316 44.9971 20.2124C44.9543 20.1907 44.8979 20.1909 44.7861 20.1909H40.3203C40.2085 20.1909 40.1521 20.1911 40.1094 20.1694C40.0717 20.1503 40.0407 20.1192 40.0215 20.0815C39.9998 20.0388 40 19.9824 40 19.8706V17.9585C40 17.8467 39.9998 17.7903 40.0215 17.7476C40.0407 17.7099 40.0717 17.6788 40.1094 17.6597C40.1521 17.638 40.2085 17.6382 40.3203 17.6382H52.7207Z" fill="#2845C1"/>
        <path d="M59.1465 21.9155C59.3457 21.9155 59.5297 21.9308 59.6982 21.9614C59.7814 21.9765 59.8608 21.9933 59.9365 22.0122C60.0092 22.0304 60.0459 22.0398 60.0781 22.064C60.1049 22.084 60.1296 22.1161 60.1426 22.147C60.158 22.184 60.1582 22.2251 60.1582 22.3071V24.1274C60.1582 24.2679 60.1578 24.3388 60.1309 24.3853C60.1064 24.4273 60.0722 24.4566 60.0264 24.4731C59.9758 24.4914 59.9029 24.4779 59.7578 24.4517C59.7003 24.4412 59.6418 24.4314 59.583 24.4224C59.399 24.3917 59.1766 24.3765 58.916 24.3765C58.4407 24.3765 58.0112 24.4536 57.6279 24.6069C57.2447 24.7603 56.9146 24.9674 56.6387 25.228C56.4762 25.3815 56.3298 25.543 56.1992 25.7124C56.1311 25.8008 56.0965 25.8455 56.0527 25.9341C56.0208 25.9988 55.9828 26.1115 55.9688 26.1821C55.9495 26.2789 55.9492 26.36 55.9492 26.522V33.4175C55.9492 33.5293 55.9494 33.5857 55.9277 33.6284C55.9086 33.666 55.8775 33.6971 55.8398 33.7163C55.7971 33.738 55.7407 33.7378 55.6289 33.7378H53.7627C53.6509 33.7378 53.5945 33.738 53.5518 33.7163C53.5141 33.6971 53.483 33.666 53.4639 33.6284C53.4422 33.5857 53.4424 33.5293 53.4424 33.4175V22.4663C53.4424 22.3545 53.4422 22.2981 53.4639 22.2554C53.483 22.2177 53.5141 22.1867 53.5518 22.1675C53.5945 22.1458 53.6509 22.146 53.7627 22.146H55.6289C55.7407 22.146 55.7971 22.1458 55.8398 22.1675C55.8775 22.1867 55.9086 22.2177 55.9277 22.2554C55.9494 22.2981 55.9492 22.3545 55.9492 22.4663V23.0083C55.9492 23.1371 55.9492 23.2019 55.9727 23.23C55.9936 23.2547 56.0233 23.2672 56.0557 23.2651C56.0922 23.2626 56.1405 23.2168 56.2354 23.1245C56.3298 23.0327 56.4259 22.944 56.5244 22.8589C56.877 22.5676 57.268 22.3371 57.6973 22.1685C58.1265 21.9999 58.6099 21.9155 59.1465 21.9155Z" fill="#2845C1"/>
        <path d="M79.8994 21.686C80.7581 21.686 81.5255 21.8779 82.2002 22.2612C82.8899 22.6445 83.4263 23.2114 83.8096 23.9624C84.2082 24.7137 84.4082 25.657 84.4082 26.7915V33.4175C84.4082 33.5293 84.4084 33.5857 84.3867 33.6284C84.3675 33.666 84.3365 33.6971 84.2988 33.7163C84.2561 33.738 84.1997 33.7378 84.0879 33.7378H82.1982C82.0865 33.7378 82.0301 33.738 81.9873 33.7163C81.9497 33.6971 81.9186 33.666 81.8994 33.6284C81.8778 33.5857 81.8779 33.5293 81.8779 33.4175V26.8843C81.8779 25.9949 81.6475 25.3046 81.1875 24.814C80.7275 24.308 80.099 24.0552 79.3018 24.0552C78.7958 24.0552 78.3511 24.1547 77.9678 24.354C77.5845 24.538 77.2545 24.7756 76.9785 25.0669C76.8219 25.2419 76.6763 25.4228 76.542 25.6089C76.4628 25.7186 76.4236 25.7738 76.3838 25.8589C76.3524 25.9259 76.3204 26.0235 76.3066 26.0962C76.2891 26.1885 76.2891 26.273 76.2891 26.4419V33.4175C76.2891 33.5293 76.2892 33.5857 76.2676 33.6284C76.2484 33.666 76.2173 33.6971 76.1797 33.7163C76.1369 33.738 76.0805 33.7378 75.9688 33.7378H74.1025C73.9908 33.7378 73.9343 33.738 73.8916 33.7163C73.854 33.6971 73.8229 33.666 73.8037 33.6284C73.782 33.5857 73.7822 33.5293 73.7822 33.4175V22.4663C73.7822 22.3545 73.782 22.2981 73.8037 22.2554C73.8229 22.2177 73.854 22.1867 73.8916 22.1675C73.9343 22.1458 73.9908 22.146 74.1025 22.146H75.9688C76.0805 22.146 76.1369 22.1458 76.1797 22.1675C76.2173 22.1867 76.2484 22.2177 76.2676 22.2554C76.2892 22.2981 76.2891 22.3545 76.2891 22.4663V22.8228C76.2891 22.9501 76.2888 23.0146 76.3115 23.0425C76.3322 23.0674 76.3612 23.08 76.3936 23.0786C76.4295 23.0768 76.4791 23.033 76.5771 22.9448C76.9372 22.621 77.3468 22.3466 77.8066 22.1226C78.4045 21.8313 79.1023 21.6861 79.8994 21.686Z" fill="#2845C1"/>
        <path d="M114.679 21.9155C114.878 21.9155 115.062 21.9308 115.23 21.9614C115.314 21.9765 115.393 21.9933 115.469 22.0122C115.541 22.0304 115.578 22.0398 115.61 22.064C115.637 22.084 115.662 22.1161 115.675 22.147C115.69 22.184 115.69 22.2251 115.69 22.3071V24.1274C115.69 24.2679 115.69 24.3388 115.663 24.3853C115.639 24.4273 115.604 24.4566 115.559 24.4731C115.508 24.4914 115.435 24.4779 115.29 24.4517C115.232 24.4412 115.174 24.4314 115.115 24.4224C114.931 24.3917 114.709 24.3765 114.448 24.3765C113.973 24.3765 113.543 24.4536 113.16 24.6069C112.777 24.7602 112.448 24.9675 112.172 25.228C112.009 25.3817 111.862 25.5438 111.731 25.7134C111.664 25.8013 111.629 25.8455 111.585 25.9341C111.553 25.9988 111.515 26.1116 111.501 26.1821C111.482 26.279 111.481 26.3601 111.481 26.522V33.4175C111.481 33.5293 111.482 33.5857 111.46 33.6284C111.441 33.666 111.41 33.6971 111.372 33.7163C111.329 33.738 111.273 33.7378 111.161 33.7378H109.295C109.183 33.7378 109.127 33.738 109.084 33.7163C109.046 33.6971 109.015 33.666 108.996 33.6284C108.974 33.5857 108.975 33.5293 108.975 33.4175V22.4663C108.975 22.3545 108.974 22.2981 108.996 22.2554C109.015 22.2177 109.046 22.1867 109.084 22.1675C109.127 22.1458 109.183 22.146 109.295 22.146H111.161C111.273 22.146 111.329 22.1458 111.372 22.1675C111.41 22.1867 111.441 22.2177 111.46 22.2554C111.482 22.2981 111.481 22.3545 111.481 22.4663V23.0083C111.481 23.1371 111.481 23.2019 111.505 23.23C111.526 23.2547 111.556 23.2672 111.588 23.2651C111.624 23.2626 111.673 23.2168 111.768 23.1245C111.862 23.0327 111.958 22.944 112.057 22.8589C112.409 22.5676 112.8 22.3371 113.229 22.1685C113.659 21.9998 114.142 21.9155 114.679 21.9155Z" fill="#2845C1"/>
        <path d="M119.726 22.146C119.837 22.146 119.894 22.1458 119.937 22.1675C119.974 22.1867 120.005 22.2177 120.024 22.2554C120.046 22.2981 120.046 22.3545 120.046 22.4663V33.4175C120.046 33.5293 120.046 33.5857 120.024 33.6284C120.005 33.666 119.974 33.6971 119.937 33.7163C119.894 33.738 119.837 33.7378 119.726 33.7378H117.858C117.747 33.7378 117.69 33.738 117.647 33.7163C117.61 33.6971 117.579 33.666 117.56 33.6284C117.538 33.5857 117.538 33.5293 117.538 33.4175V22.4663C117.538 22.3545 117.538 22.2981 117.56 22.2554C117.579 22.2177 117.61 22.1867 117.647 22.1675C117.69 22.1458 117.747 22.146 117.858 22.146H119.726Z" fill="#2845C1"/>
        <path d="M118.804 16.3501C119.11 16.3501 119.387 16.4263 119.632 16.5796C119.892 16.7176 120.1 16.9176 120.253 17.1782C120.406 17.4387 120.482 17.7223 120.482 18.0288C120.482 18.3353 120.406 18.6189 120.253 18.8794C120.1 19.1247 119.892 19.3247 119.632 19.478C119.387 19.6313 119.11 19.7075 118.804 19.7075C118.512 19.7075 118.236 19.6313 117.976 19.478C117.715 19.3247 117.508 19.1247 117.354 18.8794C117.201 18.6188 117.124 18.3354 117.124 18.0288C117.124 17.5689 117.285 17.1779 117.607 16.856C117.945 16.5186 118.344 16.3501 118.804 16.3501Z" fill="#2845C1"/>
        <path d="M25.9806 10.0539C25.9806 9.37231 25.9806 9.03151 25.9098 8.72032C25.7791 8.14516 25.4727 7.62489 25.0331 7.23159C24.7953 7.01879 24.4973 6.8535 23.9012 6.52291L22.378 5.6781C21.8149 5.36579 21.5334 5.20963 21.2428 5.12176C20.7061 4.95941 20.1333 4.95941 19.5965 5.12176C19.3059 5.20963 19.0244 5.36579 18.4613 5.6781L17.8331 6.02651C17.0707 6.44937 16.6894 6.66081 16.5148 6.90692C16.1881 7.36724 16.1884 7.98382 16.5155 8.44382C16.6904 8.68977 17.0718 8.90084 17.8347 9.32298L18.3432 9.60438C18.9402 9.93474 19.2387 10.0999 19.4769 10.3127C19.9172 10.7061 20.2241 11.2267 20.3551 11.8023C20.4259 12.1138 20.4259 12.4549 20.4259 13.1372V13.7195C20.4259 14.5463 20.4259 14.9597 20.5502 15.2263C20.7823 15.7243 21.2975 16.0278 21.8457 15.9894C22.139 15.9688 22.5006 15.7684 23.2237 15.3675L23.9004 14.9925C24.4967 14.6619 24.7948 14.4967 25.0327 14.2839C25.4725 13.8905 25.779 13.3702 25.9098 12.7949C25.9806 12.4837 25.9806 12.1428 25.9806 11.461V10.0539Z" fill="#2845C1"/>
        <path d="M9.02562 20.1571C8.43534 20.4979 8.1402 20.6683 7.90608 20.8852C7.47335 21.286 7.17597 21.8115 7.05514 22.3888C6.98977 22.7012 6.99563 23.0419 7.00736 23.7234L7.03734 25.4649C7.04843 26.1088 7.05397 26.4307 7.12313 26.7262C7.25092 27.2723 7.53733 27.7683 7.94632 28.152C8.16767 28.3597 8.44369 28.5254 8.99572 28.857L9.61153 29.2268C10.359 29.6756 10.7327 29.9001 11.0331 29.9282C11.5951 29.981 12.1289 29.6724 12.3638 29.1592C12.4893 28.8847 12.4814 28.4489 12.4656 27.5772L12.455 26.9961C12.4426 26.3139 12.4364 25.9728 12.5016 25.6601C12.6221 25.0821 12.9195 24.556 13.3526 24.1548C13.5869 23.9377 13.8823 23.7671 14.4732 23.4259L14.9775 23.1348C15.6935 22.7214 16.0515 22.5147 16.2202 22.2739C16.5355 21.8238 16.5407 21.2259 16.2333 20.7703C16.0689 20.5266 15.7145 20.3137 15.0058 19.8878L14.3426 19.4894C13.7582 19.1382 13.466 18.9627 13.1628 18.863C12.6023 18.6788 11.9984 18.6736 11.4348 18.8479C11.1298 18.9423 10.8346 19.1127 10.2442 19.4536L9.02562 20.1571Z" fill="#2845C1"/>
        <path d="M14.8587 29.9461C14.8587 30.6277 14.8587 30.9685 14.9295 31.2797C15.0602 31.8548 15.3666 32.3751 15.8062 32.7684C16.044 32.9812 16.342 33.1465 16.9381 33.4771L18.4613 34.3219C19.0244 34.6342 19.306 34.7904 19.5965 34.8782C20.1333 35.0406 20.7061 35.0406 21.2428 34.8782C21.5334 34.7904 21.8149 34.6342 22.378 34.3219L23.0062 33.9735C23.7686 33.5506 24.1499 33.3392 24.3245 33.0931C24.6512 32.6328 24.6509 32.0162 24.3238 31.5562C24.1489 31.3102 23.7675 31.0992 23.0046 30.677L22.4961 30.3956C21.8991 30.0653 21.6006 29.9001 21.3624 29.6873C20.9222 29.2939 20.6152 28.7733 20.4842 28.1977C20.4134 27.8862 20.4134 27.5451 20.4134 26.8627V26.2805C20.4134 25.4537 20.4134 25.0403 20.2892 24.7737C20.057 24.2757 19.5418 23.9722 18.9936 24.0106C18.7003 24.0312 18.3387 24.2316 17.6156 24.6325L16.9389 25.0075C16.3426 25.3381 16.0445 25.5033 15.8066 25.7161C15.3668 26.1095 15.0603 26.6298 14.9295 27.2051C14.8587 27.5163 14.8587 27.8572 14.8587 28.539V29.9461Z" fill="#2845C1"/>
        <path d="M26.2528 29.7889C26.843 30.1297 27.1382 30.3001 27.4431 30.3945C28.0065 30.5688 28.6103 30.5636 29.1707 30.3796C29.4739 30.28 29.766 30.1046 30.3504 29.7537L31.8436 28.8569C32.3956 28.5254 32.6716 28.3597 32.893 28.152C33.302 27.7683 33.5884 27.2723 33.7162 26.7262C33.7853 26.4307 33.7909 26.1088 33.802 25.4649L33.8143 24.7467C33.8293 23.875 33.8368 23.4391 33.711 23.1648C33.4757 22.6518 32.9416 22.3437 32.3797 22.397C32.0792 22.4255 31.7057 22.6503 30.9587 23.0999L30.4608 23.3995C29.8762 23.7514 29.5839 23.9273 29.2805 24.0272C28.7197 24.2118 28.1154 24.2173 27.5513 24.0429C27.2462 23.9485 26.9507 23.778 26.3598 23.4368L25.8556 23.1457C25.1395 22.7323 24.7815 22.5256 24.4886 22.4999C23.9411 22.4519 23.4208 22.7463 23.18 23.2403C23.0511 23.5046 23.0439 23.9179 23.0294 24.7446L23.0159 25.5182C23.004 26.1998 22.9981 26.5407 23.0634 26.8531C23.1842 27.4306 23.4816 27.9562 23.9144 28.3572C24.1485 28.5741 24.4438 28.7445 25.0342 29.0854L26.2528 29.7889Z" fill="#2845C1"/>
        <path d="M31.8137 19.8429C32.404 19.5021 32.6991 19.3317 32.9332 19.1148C33.366 18.714 33.6633 18.1885 33.7842 17.6112C33.8495 17.2988 33.8437 16.9581 33.8319 16.2766L33.802 14.5351C33.7909 13.8912 33.7853 13.5693 33.7162 13.2738C33.5884 12.7277 33.302 12.2317 32.893 11.848C32.6716 11.6403 32.3956 11.4746 31.8436 11.1431L31.2278 10.7732C30.4804 10.3244 30.1066 10.0999 29.8062 10.0718C29.2442 10.019 28.7104 10.3276 28.4755 10.8408C28.35 11.1153 28.3579 11.5511 28.3737 12.4228L28.3843 13.0039C28.3967 13.6861 28.4029 14.0272 28.3377 14.3399C28.2172 14.9179 27.9198 15.444 27.4867 15.8452C27.2524 16.0623 26.957 16.2329 26.3661 16.5741L25.8618 16.8652C25.1458 17.2786 24.7878 17.4853 24.6191 17.7261C24.3038 18.1762 24.2986 18.7741 24.606 19.2297C24.7704 19.4734 25.1248 19.6863 25.8335 20.1122L26.4967 20.5106C27.0811 20.8618 27.3733 21.0373 27.6765 21.137C28.237 21.3212 28.8409 21.3264 29.4045 21.1521C29.7095 21.0577 30.0047 20.8873 30.5951 20.5464L31.8137 19.8429Z" fill="#2845C1"/>
        <path d="M14.5865 10.2111C13.9962 9.87031 13.7011 9.69991 13.3962 9.60558C12.8327 9.43123 12.229 9.43642 11.6686 9.62044C11.3654 9.72001 11.0732 9.89546 10.4889 10.2464L8.99568 11.1431C8.44365 11.4746 8.16763 11.6404 7.94627 11.848C7.53729 12.2317 7.25088 12.7278 7.12309 13.2738C7.05393 13.5694 7.04839 13.8913 7.0373 14.5351L7.02494 15.2533C7.00993 16.1251 7.00243 16.5609 7.12825 16.8352C7.36357 17.3483 7.89769 17.6563 8.45961 17.603C8.76005 17.5746 9.13355 17.3498 9.88056 16.9002L10.3785 16.6005C10.9631 16.2487 11.2554 16.0728 11.5588 15.9729C12.1196 15.7883 12.7239 15.7828 13.2879 15.9572C13.5931 16.0515 13.8885 16.2221 14.4794 16.5632L14.9837 16.8544C15.6997 17.2678 16.0577 17.4745 16.3507 17.5002C16.8981 17.5482 17.4185 17.2537 17.6593 16.7598C17.7882 16.4955 17.7954 16.0821 17.8098 15.2554L17.8233 14.4819C17.8352 13.8002 17.8412 13.4594 17.7758 13.1469C17.6551 12.5694 17.3577 12.0438 16.9249 11.6429C16.6907 11.426 16.3955 11.2555 15.8051 10.9146L14.5865 10.2111Z" fill="#C83F49"/>
        <rect x="8" y="27" width="24" height="9" rx="4.5" fill="#EEF1F4"/>
        <rect x="8" y="27" width="24" height="9" rx="4.5" fill="url(#paint0_linear_4910_1430)" fill-opacity="0.1"/>
        <path d="M12.3425 33.7364C12.2926 33.7364 12.2676 33.7364 12.2486 33.7267C12.2318 33.7181 12.2182 33.7045 12.2097 33.6877C12.2 33.6687 12.2 33.6437 12.2 33.5939V29.2426C12.2 29.1927 12.2 29.1678 12.2097 29.1487C12.2182 29.132 12.2318 29.1183 12.2486 29.1098C12.2676 29.1001 12.2926 29.1001 12.3425 29.1001H13.5643C14.5313 29.1001 15.1208 29.577 15.1208 30.3585C15.1208 30.6481 15.0195 30.9066 14.8257 31.1069C14.7572 31.1778 14.7229 31.2132 14.7171 31.2365C14.7109 31.2616 14.7123 31.2741 14.7237 31.2973C14.7343 31.3188 14.7739 31.3452 14.8532 31.398C15.1981 31.6276 15.3857 31.9701 15.3857 32.372C15.3857 33.2198 14.73 33.7364 13.6637 33.7364H12.3425ZM13.5842 29.8816H13.283C13.2331 29.8816 13.2081 29.8816 13.1891 29.8913C13.1723 29.8999 13.1587 29.9135 13.1502 29.9303C13.1405 29.9493 13.1405 29.9743 13.1405 30.0241V30.7856C13.1405 30.8355 13.1405 30.8604 13.1502 30.8795C13.1587 30.8962 13.1723 30.9099 13.1891 30.9184C13.2081 30.9281 13.2331 30.9281 13.283 30.9281H13.5842C13.9419 30.9281 14.1538 30.736 14.1538 30.3983C14.1538 30.0737 13.9419 29.8816 13.5842 29.8816ZM13.7167 31.7097H13.283C13.2331 31.7097 13.2081 31.7097 13.1891 31.7194C13.1723 31.7279 13.1587 31.7415 13.1502 31.7583C13.1405 31.7773 13.1405 31.8023 13.1405 31.8522V32.8123C13.1405 32.8622 13.1405 32.8871 13.1502 32.9062C13.1587 32.923 13.1723 32.9366 13.1891 32.9451C13.2081 32.9548 13.2331 32.9548 13.283 32.9548H13.7167C14.1538 32.9548 14.4187 32.723 14.4187 32.3322C14.4187 31.9348 14.1538 31.7097 13.7167 31.7097Z" fill="#2845C1"/>
        <path d="M16.4271 33.7364C16.3772 33.7364 16.3523 33.7364 16.3333 33.7267C16.3165 33.7181 16.3029 33.7045 16.2943 33.6877C16.2846 33.6687 16.2846 33.6437 16.2846 33.5939V29.2426C16.2846 29.1927 16.2846 29.1678 16.2943 29.1487C16.3029 29.132 16.3165 29.1183 16.3333 29.1098C16.3523 29.1001 16.3772 29.1001 16.4271 29.1001H18.8444C18.8943 29.1001 18.9192 29.1001 18.9383 29.1098C18.955 29.1183 18.9687 29.132 18.9772 29.1487C18.9869 29.1678 18.9869 29.1927 18.9869 29.2426V29.7391C18.9869 29.789 18.9869 29.814 18.9772 29.833C18.9687 29.8498 18.955 29.8634 18.9383 29.8719C18.9192 29.8816 18.8943 29.8816 18.8444 29.8816H17.3676C17.3177 29.8816 17.2928 29.8816 17.2738 29.8913C17.257 29.8999 17.2434 29.9135 17.2348 29.9303C17.2251 29.9493 17.2251 29.9743 17.2251 30.0241V30.8386C17.2251 30.8885 17.2251 30.9134 17.2348 30.9325C17.2434 30.9492 17.257 30.9629 17.2738 30.9714C17.2928 30.9811 17.3177 30.9811 17.3676 30.9811H18.5795C18.6294 30.9811 18.6543 30.9811 18.6733 30.9908C18.6901 30.9993 18.7037 31.013 18.7123 31.0297C18.722 31.0488 18.722 31.0737 18.722 31.1236V31.6201C18.722 31.67 18.722 31.695 18.7123 31.714C18.7037 31.7308 18.6901 31.7444 18.6733 31.7529C18.6543 31.7626 18.6294 31.7626 18.5795 31.7626H17.3676C17.3177 31.7626 17.2928 31.7626 17.2738 31.7723C17.257 31.7809 17.2434 31.7945 17.2348 31.8113C17.2251 31.8303 17.2251 31.8553 17.2251 31.9051V32.8123C17.2251 32.8622 17.2251 32.8871 17.2348 32.9062C17.2434 32.923 17.257 32.9366 17.2738 32.9451C17.2928 32.9548 17.3177 32.9548 17.3676 32.9548H18.8444C18.8943 32.9548 18.9192 32.9548 18.9383 32.9645C18.955 32.9731 18.9687 32.9867 18.9772 33.0035C18.9869 33.0225 18.9869 33.0474 18.9869 33.0973V33.5939C18.9869 33.6437 18.9869 33.6687 18.9772 33.6877C18.9687 33.7045 18.955 33.7181 18.9383 33.7267C18.9192 33.7364 18.8943 33.7364 18.8444 33.7364H16.4271Z" fill="#2845C1"/>
        <path d="M19.7762 29.9545C19.7263 29.9545 19.7014 29.9545 19.6823 29.9448C19.6656 29.9362 19.652 29.9226 19.6434 29.9059C19.6337 29.8868 19.6337 29.8619 19.6337 29.812V29.2426C19.6337 29.1927 19.6337 29.1678 19.6434 29.1487C19.652 29.132 19.6656 29.1183 19.6823 29.1098C19.7014 29.1001 19.7263 29.1001 19.7762 29.1001H23.2929C23.3428 29.1001 23.3678 29.1001 23.3868 29.1098C23.4036 29.1183 23.4172 29.132 23.4257 29.1487C23.4354 29.1678 23.4354 29.1927 23.4354 29.2426V29.812C23.4354 29.8619 23.4354 29.8868 23.4257 29.9059C23.4172 29.9226 23.4036 29.9362 23.3868 29.9448C23.3678 29.9545 23.3428 29.9545 23.2929 29.9545H22.1473C22.0974 29.9545 22.0725 29.9545 22.0535 29.9642C22.0367 29.9727 22.0231 29.9864 22.0145 30.0031C22.0048 30.0222 22.0048 30.0471 22.0048 30.097V33.5939C22.0048 33.6437 22.0048 33.6687 21.9951 33.6877C21.9866 33.7045 21.973 33.7181 21.9562 33.7267C21.9371 33.7364 21.9122 33.7364 21.8623 33.7364H21.2068C21.1569 33.7364 21.132 33.7364 21.113 33.7267C21.0962 33.7181 21.0826 33.7045 21.074 33.6877C21.0643 33.6687 21.0643 33.6437 21.0643 33.5939V30.097C21.0643 30.0471 21.0643 30.0222 21.0546 30.0031C21.0461 29.9864 21.0325 29.9727 21.0157 29.9642C20.9966 29.9545 20.9717 29.9545 20.9218 29.9545H19.7762Z" fill="#2845C1"/>
        <path d="M23.3724 33.7364C23.3031 33.7364 23.2685 33.7364 23.2463 33.7218C23.2268 33.7091 23.2131 33.6892 23.2081 33.6666C23.2024 33.6406 23.2146 33.6082 23.2392 33.5434L24.8864 29.1921C24.899 29.159 24.9053 29.1424 24.9161 29.1301C24.9257 29.1193 24.9377 29.111 24.9512 29.1059C24.9665 29.1001 24.9842 29.1001 25.0197 29.1001H26.0548C26.0903 29.1001 26.108 29.1001 26.1233 29.1059C26.1368 29.111 26.1488 29.1193 26.1584 29.1301C26.1692 29.1424 26.1755 29.159 26.188 29.1921L27.8353 33.5434C27.8598 33.6082 27.8721 33.6406 27.8664 33.6666C27.8613 33.6892 27.8476 33.7091 27.8282 33.7218C27.806 33.7364 27.7713 33.7364 27.702 33.7364H27.0076C26.9718 33.7364 26.9539 33.7364 26.9385 33.7305C26.925 33.7253 26.9129 33.7169 26.9033 33.7059C26.8925 33.6935 26.8863 33.6767 26.8739 33.6431L26.4988 32.6242C26.4865 32.5906 26.4803 32.5738 26.4694 32.5614C26.4599 32.5504 26.4478 32.542 26.4342 32.5368C26.4188 32.5309 26.4009 32.5309 26.3651 32.5309H24.7094C24.6736 32.5309 24.6556 32.5309 24.6403 32.5368C24.6267 32.542 24.6146 32.5504 24.605 32.5614C24.5942 32.5738 24.588 32.5906 24.5757 32.6242L24.2006 33.6431C24.1882 33.6767 24.182 33.6935 24.1712 33.7059C24.1616 33.7169 24.1495 33.7253 24.1359 33.7305C24.1206 33.7364 24.1027 33.7364 24.0668 33.7364H23.3724ZM24.9713 31.5382C24.9478 31.6025 24.936 31.6347 24.9419 31.6604C24.9471 31.6829 24.9608 31.7026 24.9802 31.7151C25.0023 31.7295 25.0366 31.7295 25.1051 31.7295H25.9694C26.0379 31.7295 26.0721 31.7295 26.0943 31.7151C26.1136 31.7026 26.1274 31.6829 26.1325 31.6604C26.1385 31.6347 26.1267 31.6025 26.1032 31.5382L25.6711 30.3543C25.6298 30.2413 25.6092 30.1847 25.579 30.1687C25.5529 30.1548 25.5216 30.1548 25.4955 30.1687C25.4653 30.1847 25.4447 30.2413 25.4034 30.3543L24.9713 31.5382Z" fill="#2845C1"/>
        <path d="M52.8845 6.63416C53.377 6.63416 53.8338 6.74166 54.2546 6.95653C54.6463 7.15237 54.96 7.39649 55.1955 7.689C55.2342 7.73701 55.2258 7.80661 55.1789 7.84662L54.3513 8.55266C54.2991 8.59718 54.2203 8.58772 54.177 8.53448C54.0241 8.34635 53.8484 8.18742 53.6501 8.05777C53.4174 7.90561 53.162 7.82923 52.8845 7.82923C52.6877 7.82926 52.5177 7.86531 52.3745 7.93688C52.2402 8.00851 52.137 8.10254 52.0654 8.21895C52.0027 8.33535 51.9715 8.46541 51.9715 8.60867C51.9716 8.82343 52.0474 9.00255 52.1995 9.14576C52.3607 9.28008 52.567 9.39669 52.8177 9.49518C53.0684 9.59365 53.3324 9.70119 53.6098 9.81755C53.8964 9.925 54.1651 10.0593 54.4158 10.2205C54.6665 10.3727 54.868 10.5785 55.0202 10.8382C55.1813 11.0889 55.2619 11.4066 55.262 11.7915C55.262 12.2481 55.1502 12.6377 54.9264 12.9601C54.7115 13.2734 54.425 13.5153 54.0669 13.6854C53.7087 13.8555 53.3143 13.941 52.8845 13.941C52.3026 13.941 51.7968 13.8335 51.3671 13.6186C50.9711 13.4124 50.6206 13.1411 50.3158 12.8056C50.2724 12.7578 50.2777 12.684 50.3262 12.6414L51.1534 11.9134C51.2039 11.869 51.2812 11.8759 51.3251 11.9268C51.5198 12.1527 51.7353 12.3407 51.9715 12.4903C52.2401 12.6604 52.54 12.7453 52.8713 12.7453C53.1847 12.7453 53.4222 12.6648 53.5834 12.5036C53.7534 12.3335 53.8384 12.1276 53.8384 11.8859C53.8384 11.6621 53.7577 11.4831 53.5966 11.3488C53.4444 11.2145 53.2429 11.0979 52.9922 10.9994C52.7414 10.9009 52.4728 10.7977 52.1862 10.6902C51.9088 10.5739 51.6448 10.4351 51.3941 10.274C51.1435 10.1129 50.9371 9.90704 50.7759 9.65637C50.6237 9.39669 50.5479 9.06515 50.5479 8.66221C50.5479 8.28615 50.6463 7.946 50.8432 7.64157C51.0402 7.32816 51.3132 7.08151 51.6624 6.90242C52.0205 6.72337 52.428 6.6342 52.8845 6.63416Z" fill="#2845C1"/>
        <path d="M58.4632 6.63416C58.9556 6.63419 59.4125 6.74165 59.8333 6.95653C60.2249 7.15238 60.5387 7.3965 60.7742 7.689C60.8129 7.73701 60.8045 7.8066 60.7576 7.84661L59.93 8.55265C59.8778 8.59717 59.799 8.58771 59.7557 8.53447C59.6028 8.34632 59.4272 8.18745 59.2288 8.05777C58.9961 7.90557 58.7407 7.82926 58.4632 7.82923C58.2662 7.82923 58.0959 7.86524 57.9526 7.93688C57.8183 8.00851 57.7151 8.10255 57.6435 8.21895C57.5808 8.33533 57.5497 8.46544 57.5497 8.60867C57.5497 8.82349 57.626 9.00253 57.7782 9.14576C57.9394 9.28004 58.1452 9.3967 58.3959 9.49518C58.6466 9.59368 58.911 9.70115 59.1885 9.81755C59.475 9.92499 59.7438 10.0594 59.9945 10.2205C60.2451 10.3727 60.4467 10.5786 60.5989 10.8382C60.76 11.0888 60.8406 11.4067 60.8407 11.7915C60.8407 12.2481 60.7283 12.6377 60.5045 12.9601C60.2896 13.2734 60.0032 13.5153 59.645 13.6854C59.2869 13.8555 58.893 13.941 58.4632 13.941C57.8812 13.941 57.375 13.8335 56.9452 13.6186C56.5492 13.4124 56.1987 13.1411 55.8939 12.8056C55.8505 12.7578 55.8558 12.684 55.9043 12.6414L56.7316 11.9134C56.7821 11.869 56.8593 11.8759 56.9033 11.9268C57.0979 12.1527 57.3134 12.3407 57.5497 12.4903C57.8182 12.6604 58.1182 12.7453 58.4494 12.7453C58.7628 12.7453 59.0003 12.6648 59.1615 12.5036C59.3316 12.3335 59.4165 12.1276 59.4165 11.8859C59.4165 11.662 59.3359 11.4831 59.1747 11.3488C59.0225 11.2145 58.821 11.0979 58.5703 10.9994C58.3196 10.9009 58.0508 10.7977 57.7644 10.6902C57.4869 10.5739 57.2229 10.4352 56.9723 10.274C56.7216 10.1129 56.5157 9.90696 56.3546 9.65637C56.2024 9.39669 56.126 9.06515 56.126 8.66221C56.126 8.28619 56.2244 7.94597 56.4214 7.64157C56.6183 7.32819 56.8914 7.0815 57.2405 6.90242C57.5987 6.72333 58.0065 6.63416 58.4632 6.63416Z" fill="#2845C1"/>
        <path d="M67.3111 6.63416C67.8036 6.63416 68.2603 6.74163 68.6811 6.95653C69.0728 7.15239 69.3865 7.39648 69.6221 7.689C69.6607 7.73701 69.6523 7.8066 69.6054 7.84661L68.7778 8.55265C68.7257 8.59718 68.6468 8.58772 68.6036 8.53447C68.4507 8.34632 68.275 8.18744 68.0767 8.05777C67.8439 7.90555 67.5887 7.82923 67.3111 7.82923C67.1141 7.82923 66.9437 7.86525 66.8005 7.93688C66.6663 8.00849 66.5635 8.10263 66.4919 8.21895C66.4292 8.33536 66.3975 8.4654 66.3975 8.60867C66.3976 8.82348 66.4739 9.00253 66.626 9.14576C66.7872 9.28005 66.9931 9.3967 67.2437 9.49518C67.4945 9.59368 67.7588 9.70115 68.0364 9.81755C68.3229 9.925 68.5916 10.0593 68.8423 10.2205C69.093 10.3727 69.2946 10.5786 69.4468 10.8382C69.6079 11.0888 69.6885 11.4066 69.6885 11.7915C69.6885 12.248 69.5767 12.6378 69.3529 12.9601C69.138 13.2735 68.8511 13.5153 68.4929 13.6854C68.1347 13.8555 67.7409 13.941 67.3111 13.941C66.7291 13.941 66.2229 13.8335 65.7931 13.6186C65.3971 13.4124 65.047 13.1411 64.7423 12.8055C64.699 12.7578 64.7043 12.684 64.7527 12.6414L65.5794 11.9135C65.6299 11.869 65.7072 11.8759 65.7511 11.9269C65.9458 12.1527 66.1613 12.3407 66.3975 12.4903C66.6661 12.6605 66.9665 12.7453 67.2978 12.7453C67.6111 12.7453 67.8482 12.6647 68.0094 12.5036C68.1795 12.3335 68.2649 12.1276 68.2649 11.8859C68.2649 11.6621 68.1842 11.4831 68.0232 11.3488C67.871 11.2145 67.6694 11.0979 67.4187 10.9994C67.168 10.9009 66.8993 10.7977 66.6128 10.6902C66.3352 10.5738 66.0709 10.4352 65.8201 10.274C65.5695 10.1129 65.3636 9.90699 65.2024 9.65637C65.0502 9.39669 64.9739 9.06515 64.9739 8.66221C64.9739 8.28612 65.0728 7.94601 65.2698 7.64157C65.4668 7.32817 65.7397 7.08151 66.089 6.90242C66.4471 6.7234 66.8545 6.63417 67.3111 6.63416Z" fill="#2845C1"/>
        <path fill-rule="evenodd" clip-rule="evenodd" d="M79.0178 6.76887C79.6356 6.76888 80.1596 6.88062 80.5894 7.10448C81.0191 7.32833 81.3416 7.63731 81.5565 8.03129C81.7803 8.42527 81.8921 8.86858 81.8921 9.36106V13.689C81.8921 13.7541 81.8393 13.8069 81.7742 13.8069H80.5322C80.4671 13.8069 80.4144 13.7541 80.4144 13.689V13.2413C80.4144 13.1857 80.3423 13.1593 80.3035 13.1993C80.2436 13.2611 80.1777 13.3203 80.1058 13.3768C79.864 13.5738 79.5819 13.7265 79.2596 13.8339C78.9373 13.9503 78.6105 14.0083 78.2792 14.0083C77.6166 14.0083 77.0744 13.8294 76.6536 13.4713C76.2328 13.1131 76.0227 12.6338 76.0227 12.0338C76.0227 11.5235 76.2151 11.0893 76.6 10.7311C76.9851 10.373 77.5402 10.1354 78.2654 10.019L80.3162 9.67074C80.3729 9.66111 80.4144 9.612 80.4144 9.55451V9.36106C80.4144 8.95824 80.2804 8.64485 80.012 8.42101C79.7434 8.18824 79.394 8.07163 78.9643 8.07158C78.6151 8.07158 78.297 8.14789 78.0104 8.30012C77.7679 8.43311 77.5595 8.61044 77.3854 8.83226C77.344 8.88501 77.2677 8.89706 77.2145 8.85631L76.3149 8.1681C76.2643 8.1294 76.2535 8.05734 76.2925 8.007C76.5781 7.63868 76.9402 7.34678 77.3789 7.13153C77.8624 6.88976 78.4089 6.76887 79.0178 6.76887ZM78.6419 11C78.239 11.0626 77.9477 11.1787 77.7686 11.3488C77.5896 11.5099 77.4999 11.7159 77.4998 11.9665C77.4998 12.2172 77.5939 12.4236 77.7819 12.5847C77.9789 12.7459 78.2432 12.8265 78.5746 12.8265C78.9864 12.8265 79.3492 12.7325 79.6625 12.5444C79.9197 12.3901 80.1372 12.1932 80.3158 11.9544C80.3834 11.8639 80.4144 11.7522 80.4144 11.6392V10.8449C80.4144 10.772 80.349 10.7166 80.2772 10.7286L78.6419 11Z" fill="#2845C1"/>
        <path d="M73.0028 6.91923C73.0028 6.98434 73.0555 7.03712 73.1207 7.03712H75.0747C75.1398 7.03712 75.1926 7.08991 75.1926 7.15502V8.249C75.1926 8.31411 75.1398 8.36689 75.0747 8.36689H73.1207C73.0555 8.36689 73.0028 8.41968 73.0028 8.48479V11.4162C73.0028 11.7116 73.0523 11.9443 73.1507 12.1144C73.2491 12.2845 73.388 12.4097 73.5669 12.4903C73.746 12.562 73.9566 12.598 74.1984 12.598C74.4312 12.598 74.6284 12.5845 74.7896 12.5577C74.8815 12.5373 74.966 12.5154 75.0433 12.4921C75.1225 12.4681 75.2058 12.5257 75.2058 12.6085V13.6629C75.2058 13.7095 75.1785 13.752 75.1351 13.769C74.9915 13.8249 74.8313 13.8644 74.6549 13.8875C74.4579 13.9232 74.2252 13.941 73.9566 13.941C73.4194 13.941 72.9669 13.847 72.5998 13.6589C72.2418 13.4619 71.9686 13.1797 71.7806 12.8127C71.6016 12.4367 71.5124 11.9712 71.5124 11.4162V8.48479C71.5124 8.41968 71.4596 8.36689 71.3945 8.36689H70.422C70.3569 8.36689 70.3041 8.31411 70.3041 8.249V7.15502C70.3041 7.08991 70.3569 7.03712 70.422 7.03712H71.3945C71.4596 7.03712 71.5124 6.98434 71.5124 6.91923V5.46316C71.5124 5.39805 71.5652 5.34527 71.6303 5.34527H72.8849C72.95 5.34527 73.0028 5.39805 73.0028 5.46316V6.91923Z" fill="#2845C1"/>
        <path d="M93.3845 6.91923C93.3845 6.98434 93.4373 7.03712 93.5024 7.03712H95.4558C95.5209 7.03712 95.5737 7.08991 95.5737 7.15502V8.249C95.5737 8.31411 95.5209 8.36689 95.4558 8.36689H93.5024C93.4373 8.36689 93.3845 8.41968 93.3845 8.48479V11.4162C93.3845 11.7115 93.4335 11.9443 93.5319 12.1144C93.6304 12.2846 93.7696 12.4097 93.9487 12.4903C94.1277 12.5619 94.3379 12.598 94.5796 12.598C94.8124 12.598 95.0096 12.5845 95.1708 12.5577C95.2626 12.5373 95.3472 12.5154 95.4245 12.492C95.5037 12.4681 95.587 12.5257 95.587 12.6084V13.6629C95.587 13.7095 95.5597 13.752 95.5163 13.769C95.3728 13.8248 95.213 13.8644 95.0366 13.8875C94.8396 13.9233 94.6064 13.941 94.3378 13.941C93.8006 13.941 93.3486 13.8469 92.9815 13.6589C92.6234 13.4619 92.3504 13.1798 92.1624 12.8127C91.9833 12.4367 91.8936 11.9712 91.8936 11.4162V8.48479C91.8936 8.41968 91.8408 8.36689 91.7757 8.36689H90.749C90.6839 8.36689 90.6311 8.31411 90.6311 8.249V7.15502C90.6311 7.08991 90.6839 7.03712 90.749 7.03712H91.7757C91.8408 7.03712 91.8936 6.98434 91.8936 6.91923V5.46316C91.8936 5.39805 91.9463 5.34527 92.0114 5.34527H93.2666C93.3317 5.34527 93.3845 5.39805 93.3845 5.46316V6.91923Z" fill="#2845C1"/>
        <path fill-rule="evenodd" clip-rule="evenodd" d="M49.9155 13.6464C49.9454 13.7237 49.8884 13.8069 49.8055 13.8069H48.2998C48.2508 13.8069 48.2069 13.7765 48.1896 13.7307L47.2715 11.3041C47.2541 11.2582 47.2102 11.2279 47.1612 11.2279H43.3427C43.2938 11.2279 43.2499 11.2582 43.2325 11.3039L42.3105 13.7308C42.2931 13.7766 42.2493 13.8069 42.2003 13.8069H40.7075C40.6247 13.8069 40.5677 13.7238 40.5975 13.6465L44.1326 4.48011C44.1502 4.43464 44.1939 4.40464 44.2426 4.40464H46.2569C46.3056 4.40464 46.3493 4.43457 46.3669 4.47997L49.9155 13.6464ZM43.8529 9.67159C43.8236 9.74875 43.8805 9.83137 43.9631 9.83137H46.5435C46.626 9.83137 46.683 9.74887 46.6538 9.67174L45.3661 6.26979C45.3277 6.16832 45.1842 6.16822 45.1456 6.26965L43.8529 9.67159Z" fill="#2845C1"/>
        <path d="M63.6598 13.689C63.6598 13.7541 63.6071 13.8069 63.5419 13.8069H62.3006C62.2355 13.8069 62.1827 13.7541 62.1827 13.689V7.15502C62.1827 7.08991 62.2355 7.03712 62.3006 7.03712H63.5419C63.6071 7.03712 63.6598 7.08991 63.6598 7.15502V13.689Z" fill="#2845C1"/>
        <path d="M87.1634 6.76887C87.6648 6.76887 88.1124 6.88067 88.5064 7.10448C88.9093 7.32834 89.2274 7.65987 89.4602 8.09864C89.693 8.53738 89.8097 9.08823 89.8097 9.75078V13.689C89.8097 13.7541 89.7569 13.8069 89.6918 13.8069H88.4366C88.3715 13.8069 88.3187 13.7541 88.3187 13.689V9.80431C88.3187 9.28502 88.1843 8.88196 87.9158 8.59543C87.6471 8.29994 87.2796 8.15217 86.8139 8.15217C86.5186 8.1522 86.2589 8.21024 86.0351 8.3266C85.8112 8.43405 85.6189 8.57324 85.4577 8.74337C85.342 8.87268 85.2391 9.00707 85.1492 9.14668C85.0937 9.23293 85.068 9.33442 85.068 9.43701V13.689C85.068 13.7541 85.0152 13.8069 84.9501 13.8069H83.7087C83.6436 13.8069 83.5908 13.7541 83.5908 13.689V7.15502C83.5908 7.08991 83.6436 7.03712 83.7087 7.03712H84.9501C85.0152 7.03712 85.068 7.08991 85.068 7.15502V7.50754C85.068 7.56066 85.1335 7.58738 85.1721 7.55093C85.3944 7.3412 85.6508 7.1654 85.9412 7.02388C86.2904 6.8538 86.6978 6.76887 87.1634 6.76887Z" fill="#2845C1"/>
        <path d="M62.9345 3.65283C63.1136 3.65283 63.2748 3.69743 63.4181 3.78696C63.5703 3.8765 63.6869 3.9974 63.7675 4.14962C63.857 4.29287 63.9016 4.45413 63.9016 4.63318C63.9016 4.81219 63.857 4.9778 63.7675 5.12997C63.6869 5.28219 63.5703 5.40309 63.4181 5.49263C63.2748 5.57322 63.1136 5.61352 62.9345 5.61352C62.7555 5.61351 62.5899 5.5732 62.4377 5.49263C62.2855 5.40309 62.1646 5.28219 62.075 5.12997C61.9855 4.97778 61.9409 4.81222 61.9409 4.63318C61.9409 4.36455 62.035 4.13619 62.223 3.94814C62.4199 3.75125 62.657 3.65285 62.9345 3.65283Z" fill="#2845C1"/>
    </g>
    <defs>
        <linearGradient id="paint0_linear_4910_1430" x1="20" y1="27" x2="20" y2="36" gradientUnits="userSpaceOnUse">
            <stop stop-color="#2845C1"/>
            <stop offset="1" stop-color="#EEF1F4"/>
        </linearGradient>
        <clipPath id="clip0_4910_1430">
            <rect width="159" height="40" fill="white"/>
        </clipPath>
    </defs>
</svg>
