<svg width="32" height="32" viewBox="0 0 32 32" fill="none" xmlns="http://www.w3.org/2000/svg">
    <path fill-rule="evenodd" clip-rule="evenodd"
          d="M14.88 0.822766C15.6184 0.665849 16.3816 0.665849 17.12 0.822766C17.9549 1.00021 18.7404 1.45363 20.3108 2.36033L25.6892 5.46594C27.2595 6.37257 28.0449 6.82571 28.616 7.45994C29.1212 8.02108 29.5027 8.68218 29.736 9.40029C29.9998 10.2119 30 11.1186 30 12.9318V19.142C30 20.9555 29.9998 21.8629 29.736 22.6746C29.5027 23.3927 29.1212 24.0539 28.616 24.615C28.0449 25.2492 27.2595 25.7023 25.6892 26.609L20.3108 29.7146C18.7405 30.6212 17.9548 31.0747 17.12 31.2522C16.3816 31.409 15.6184 31.409 14.88 31.2522C14.0452 31.0747 13.2595 30.6212 11.6892 29.7146L6.31085 26.609C4.7405 25.7023 3.95508 25.2492 3.38401 24.615C2.87882 24.0539 2.49734 23.3927 2.26397 22.6746C2.00024 21.8629 2 20.9555 2 19.142V12.9318C2 11.1186 2.00025 10.2119 2.26397 9.40029C2.49731 8.68218 2.87879 8.02108 3.38401 7.45994C3.95507 6.82571 4.74053 6.37257 6.31085 5.46594L11.6892 2.36033C13.2596 1.45363 14.0451 1.00021 14.88 0.822766ZM16 6.30519C10.6471 6.30519 6.30769 10.6446 6.30769 15.9975C6.30775 21.3504 10.6471 25.6898 16 25.6898C21.3529 25.6898 25.6923 21.3504 25.6923 15.9975C25.6923 10.6446 21.3529 6.30519 16 6.30519Z"
          fill="#2845C1"/>
    <path d="M16.0072 23.5506C14.9718 23.5506 13.9999 23.3503 13.0915 22.9498C12.183 22.5591 11.3821 22.017 10.6885 21.3235C9.99501 20.6299 9.448 19.8289 9.04751 18.9205C8.65679 18.0121 8.46143 17.0402 8.46143 16.0048C8.46143 14.9791 8.65679 14.0121 9.04751 13.1037C9.448 12.1855 9.99501 11.3796 10.6885 10.6861C11.3821 9.99256 12.1782 9.45044 13.0768 9.05972C13.9852 8.65923 14.9572 8.45898 15.9926 8.45898C17.0182 8.45898 17.9852 8.65923 18.8937 9.05972C19.8119 9.45044 20.6177 9.99256 21.3112 10.6861C22.0048 11.3796 22.5469 12.1855 22.9376 13.1037C23.3381 14.0121 23.5383 14.9791 23.5383 16.0048C23.5383 17.0402 23.3381 18.0121 22.9376 18.9205C22.5469 19.8289 22.0048 20.6299 21.3112 21.3235C20.6275 22.017 19.8265 22.5591 18.9083 22.9498C17.9999 23.3503 17.0329 23.5506 16.0072 23.5506ZM16.0072 21.6311C17.0426 21.6311 17.9852 21.3772 18.8351 20.8692C19.6849 20.3711 20.3589 19.6971 20.857 18.8473C21.365 17.9974 21.6189 17.0499 21.6189 16.0048C21.6189 14.9694 21.365 14.0267 20.857 13.1769C20.3589 12.3271 19.6849 11.6482 18.8351 11.1403C17.9852 10.6324 17.0377 10.3784 15.9926 10.3784C14.9572 10.3784 14.0145 10.6324 13.1647 11.1403C12.3247 11.6482 11.6507 12.3271 11.1427 13.1769C10.6446 14.0267 10.3955 14.9694 10.3955 16.0048C10.3955 17.0499 10.6446 17.9974 11.1427 18.8473C11.6507 19.6971 12.3247 20.3711 13.1647 20.8692C14.0145 21.3772 14.962 21.6311 16.0072 21.6311ZM15.9926 20.3125C15.2111 20.3125 14.4932 20.1171 13.8387 19.7264C13.194 19.3357 12.6763 18.8131 12.2856 18.1586C11.8949 17.5139 11.6995 16.8009 11.6995 16.0194C11.6995 15.2282 11.8949 14.5054 12.2856 13.8509C12.6763 13.1965 13.194 12.6788 13.8387 12.2978C14.4932 11.9071 15.2111 11.7117 15.9926 11.7117C16.774 11.7117 17.492 11.9071 18.1464 12.2978C18.8009 12.6788 19.3235 13.1965 19.7142 13.8509C20.1049 14.5054 20.3003 15.2282 20.3003 16.0194C20.3003 16.8009 20.1049 17.5139 19.7142 18.1586C19.3332 18.8131 18.8155 19.3357 18.1611 19.7264C17.5066 20.1171 16.7838 20.3125 15.9926 20.3125Z"
          fill="#C83F49"/>
    <rect x="4" y="23" width="24" height="9" rx="4.5" fill="#EEF1F4"/>
    <rect x="4" y="23" width="24" height="9" rx="4.5" fill="url(#paint0_linear_5074_12441)" fill-opacity="0.1"/>
    <path d="M8.34245 29.7359C8.29257 29.7359 8.26763 29.7359 8.24858 29.7262C8.23182 29.7176 8.2182 29.704 8.20966 29.6872C8.19995 29.6682 8.19995 29.6433 8.19995 29.5934V25.2421C8.19995 25.1922 8.19995 25.1673 8.20966 25.1482C8.2182 25.1315 8.23182 25.1179 8.24858 25.1093C8.26763 25.0996 8.29257 25.0996 8.34245 25.0996H9.56434C10.5313 25.0996 11.1208 25.5765 11.1208 26.358C11.1208 26.6476 11.0195 26.9061 10.8257 27.1064C10.7572 27.1773 10.7229 27.2128 10.7171 27.236C10.7109 27.2611 10.7123 27.2736 10.7237 27.2968C10.7343 27.3183 10.7739 27.3447 10.8532 27.3975C11.1981 27.6271 11.3857 27.9696 11.3857 28.3715C11.3857 29.2193 10.73 29.7359 9.66369 29.7359H8.34245ZM9.58421 25.8812H9.28295C9.23307 25.8812 9.20813 25.8812 9.18908 25.8909C9.17232 25.8994 9.1587 25.913 9.15016 25.9298C9.14045 25.9488 9.14045 25.9738 9.14045 26.0237V26.7851C9.14045 26.835 9.14045 26.8599 9.15016 26.879C9.1587 26.8958 9.17232 26.9094 9.18908 26.9179C9.20813 26.9276 9.23307 26.9276 9.28295 26.9276H9.58421C9.94186 26.9276 10.1538 26.7355 10.1538 26.3978C10.1538 26.0732 9.94186 25.8812 9.58421 25.8812ZM9.71667 27.7092H9.28295C9.23307 27.7092 9.20813 27.7092 9.18908 27.7189C9.17232 27.7274 9.1587 27.741 9.15016 27.7578C9.14045 27.7768 9.14045 27.8018 9.14045 27.8517V28.8118C9.14045 28.8617 9.14045 28.8867 9.15016 28.9057C9.1587 28.9225 9.17232 28.9361 9.18908 28.9446C9.20813 28.9543 9.23307 28.9543 9.28295 28.9543H9.71667C10.1538 28.9543 10.4187 28.7225 10.4187 28.3318C10.4187 27.9344 10.1538 27.7092 9.71667 27.7092Z"
          fill="#2845C1"/>
    <path d="M12.4271 29.7359C12.3772 29.7359 12.3523 29.7359 12.3333 29.7262C12.3165 29.7176 12.3029 29.704 12.2943 29.6872C12.2846 29.6682 12.2846 29.6433 12.2846 29.5934V25.2421C12.2846 25.1922 12.2846 25.1673 12.2943 25.1482C12.3029 25.1315 12.3165 25.1179 12.3333 25.1093C12.3523 25.0996 12.3772 25.0996 12.4271 25.0996H14.8444C14.8943 25.0996 14.9192 25.0996 14.9383 25.1093C14.955 25.1179 14.9687 25.1315 14.9772 25.1482C14.9869 25.1673 14.9869 25.1922 14.9869 25.2421V25.7387C14.9869 25.7885 14.9869 25.8135 14.9772 25.8325C14.9687 25.8493 14.955 25.8629 14.9383 25.8714C14.9192 25.8812 14.8943 25.8812 14.8444 25.8812H13.3676C13.3177 25.8812 13.2928 25.8812 13.2738 25.8909C13.257 25.8994 13.2434 25.913 13.2348 25.9298C13.2251 25.9488 13.2251 25.9738 13.2251 26.0237V26.8381C13.2251 26.888 13.2251 26.9129 13.2348 26.932C13.2434 26.9487 13.257 26.9624 13.2738 26.9709C13.2928 26.9806 13.3177 26.9806 13.3676 26.9806H14.5795C14.6294 26.9806 14.6543 26.9806 14.6733 26.9903C14.6901 26.9989 14.7037 27.0125 14.7123 27.0292C14.722 27.0483 14.722 27.0732 14.722 27.1231V27.6197C14.722 27.6695 14.722 27.6945 14.7123 27.7135C14.7037 27.7303 14.6901 27.7439 14.6733 27.7524C14.6543 27.7622 14.6294 27.7622 14.5795 27.7622H13.3676C13.3177 27.7622 13.2928 27.7622 13.2738 27.7719C13.257 27.7804 13.2434 27.794 13.2348 27.8108C13.2251 27.8298 13.2251 27.8548 13.2251 27.9047V28.8118C13.2251 28.8617 13.2251 28.8867 13.2348 28.9057C13.2434 28.9225 13.257 28.9361 13.2738 28.9446C13.2928 28.9543 13.3177 28.9543 13.3676 28.9543H14.8444C14.8943 28.9543 14.9192 28.9543 14.9383 28.964C14.955 28.9726 14.9687 28.9862 14.9772 29.003C14.9869 29.022 14.9869 29.047 14.9869 29.0968V29.5934C14.9869 29.6433 14.9869 29.6682 14.9772 29.6872C14.9687 29.704 14.955 29.7176 14.9383 29.7262C14.9192 29.7359 14.8943 29.7359 14.8444 29.7359H12.4271Z"
          fill="#2845C1"/>
    <path d="M15.7762 25.954C15.7263 25.954 15.7014 25.954 15.6823 25.9443C15.6656 25.9358 15.652 25.9221 15.6434 25.9054C15.6337 25.8863 15.6337 25.8614 15.6337 25.8115V25.2421C15.6337 25.1922 15.6337 25.1673 15.6434 25.1482C15.652 25.1315 15.6656 25.1179 15.6823 25.1093C15.7014 25.0996 15.7263 25.0996 15.7762 25.0996H19.2929C19.3428 25.0996 19.3678 25.0996 19.3868 25.1093C19.4036 25.1179 19.4172 25.1315 19.4257 25.1482C19.4354 25.1673 19.4354 25.1922 19.4354 25.2421V25.8115C19.4354 25.8614 19.4354 25.8863 19.4257 25.9054C19.4172 25.9221 19.4036 25.9358 19.3868 25.9443C19.3678 25.954 19.3428 25.954 19.2929 25.954H18.1473C18.0974 25.954 18.0725 25.954 18.0535 25.9637C18.0367 25.9723 18.0231 25.9859 18.0145 26.0026C18.0048 26.0217 18.0048 26.0466 18.0048 26.0965V29.5934C18.0048 29.6433 18.0048 29.6682 17.9951 29.6872C17.9866 29.704 17.973 29.7176 17.9562 29.7262C17.9371 29.7359 17.9122 29.7359 17.8623 29.7359H17.2068C17.1569 29.7359 17.132 29.7359 17.113 29.7262C17.0962 29.7176 17.0826 29.704 17.074 29.6872C17.0643 29.6682 17.0643 29.6433 17.0643 29.5934V26.0965C17.0643 26.0466 17.0643 26.0217 17.0546 26.0026C17.0461 25.9859 17.0325 25.9723 17.0157 25.9637C16.9966 25.954 16.9717 25.954 16.9218 25.954H15.7762Z"
          fill="#2845C1"/>
    <path d="M19.3724 29.7359C19.3031 29.7359 19.2685 29.7359 19.2463 29.7213C19.2268 29.7086 19.2131 29.6888 19.2081 29.6661C19.2024 29.6401 19.2146 29.6077 19.2392 29.5429L20.8864 25.1917C20.899 25.1585 20.9053 25.1419 20.9161 25.1296C20.9257 25.1188 20.9377 25.1105 20.9512 25.1054C20.9665 25.0996 20.9842 25.0996 21.0197 25.0996H22.0548C22.0903 25.0996 22.108 25.0996 22.1233 25.1054C22.1368 25.1105 22.1488 25.1188 22.1584 25.1296C22.1692 25.1419 22.1755 25.1585 22.188 25.1917L23.8353 29.5429C23.8598 29.6077 23.8721 29.6401 23.8664 29.6661C23.8613 29.6888 23.8476 29.7086 23.8282 29.7213C23.806 29.7359 23.7713 29.7359 23.702 29.7359H23.0076C22.9718 29.7359 22.9539 29.7359 22.9385 29.73C22.925 29.7248 22.9129 29.7164 22.9033 29.7054C22.8925 29.693 22.8863 29.6762 22.8739 29.6426L22.4988 28.6237C22.4865 28.5901 22.4803 28.5733 22.4694 28.5609C22.4599 28.55 22.4478 28.5415 22.4342 28.5363C22.4188 28.5304 22.4009 28.5304 22.3651 28.5304H20.7094C20.6736 28.5304 20.6556 28.5304 20.6403 28.5363C20.6267 28.5415 20.6146 28.55 20.605 28.5609C20.5942 28.5733 20.588 28.5901 20.5757 28.6237L20.2006 29.6426C20.1882 29.6762 20.182 29.693 20.1712 29.7054C20.1616 29.7164 20.1495 29.7248 20.1359 29.73C20.1206 29.7359 20.1027 29.7359 20.0668 29.7359H19.3724ZM20.9713 27.5377C20.9478 27.602 20.936 27.6342 20.9419 27.66C20.9471 27.6825 20.9608 27.7021 20.9802 27.7147C21.0023 27.729 21.0366 27.729 21.1051 27.729H21.9694C22.0379 27.729 22.0721 27.729 22.0943 27.7147C22.1136 27.7021 22.1274 27.6825 22.1325 27.66C22.1385 27.6342 22.1267 27.602 22.1032 27.5377L21.6711 26.3538C21.6298 26.2408 21.6092 26.1842 21.579 26.1682C21.5529 26.1543 21.5216 26.1543 21.4955 26.1682C21.4653 26.1842 21.4447 26.2408 21.4034 26.3538L20.9713 27.5377Z"
          fill="#2845C1"/>
    <defs>
        <linearGradient id="paint0_linear_5074_12441" x1="16" y1="23" x2="16" y2="32" gradientUnits="userSpaceOnUse">
            <stop stop-color="#2845C1"/>
            <stop offset="1" stop-color="#EEF1F4"/>
        </linearGradient>
    </defs>
</svg>
