<svg width="393" height="60" viewBox="0 0 393 60" fill="none" xmlns="http://www.w3.org/2000/svg">
    <path d="M38.9709 15.0809C38.9709 14.0585 38.9709 13.5473 38.8648 13.0805C38.6686 12.2177 38.2091 11.4373 37.5497 10.8474C37.193 10.5282 36.7459 10.2802 35.8519 9.78436L33.567 8.51716C32.7224 8.04868 32.3 7.81445 31.8643 7.68264C31.0591 7.43912 30.1999 7.43912 29.3947 7.68264C28.9589 7.81445 28.5366 8.04868 27.6919 8.51716L26.7497 9.03976C25.606 9.67406 25.0342 9.99121 24.7722 10.3604C24.2822 11.0509 24.2827 11.9757 24.7733 12.6657C25.0356 13.0347 25.6078 13.3513 26.752 13.9845L27.5148 14.4066C28.4103 14.9021 28.858 15.1499 29.2153 15.4691C29.8757 16.0591 30.3361 16.84 30.5326 17.7035C30.6389 18.1707 30.6389 18.6824 30.6389 19.7059V20.5793C30.6389 21.8195 30.6389 22.4396 30.8252 22.8394C31.1735 23.5865 31.9462 24.0417 32.7685 23.9841C33.2085 23.9532 33.7509 23.6526 34.8356 23.0513L35.8506 22.4887C36.745 21.9929 37.1922 21.745 37.5491 21.4258C38.2087 20.8358 38.6685 20.0553 38.8647 19.1924C38.9709 18.7255 38.9709 18.2142 38.9709 17.1915V15.0809Z" fill="#2845C1"/>
    <path d="M13.5384 30.2357C12.653 30.7469 12.2103 31.0025 11.8591 31.3278C11.21 31.929 10.764 32.7172 10.5827 33.5832C10.4846 34.0517 10.4934 34.5629 10.511 35.5851L10.556 38.1974C10.5726 39.1632 10.581 39.646 10.6847 40.0893C10.8764 40.9084 11.306 41.6525 11.9195 42.228C12.2515 42.5395 12.6655 42.7882 13.4936 43.2854L14.4173 43.8401C15.5384 44.5134 16.099 44.8501 16.5497 44.8924C17.3927 44.9715 18.1934 44.5087 18.5457 43.7387C18.734 43.3271 18.7221 42.6733 18.6984 41.3657L18.6825 40.4941C18.6639 39.4708 18.6546 38.9592 18.7524 38.4901C18.9332 37.6232 19.3793 36.8341 20.0289 36.2322C20.3803 35.9065 20.8235 35.6506 21.7098 35.1389L22.4662 34.7022C23.5402 34.0821 24.0773 33.7721 24.3303 33.4108C24.8033 32.7356 24.8111 31.8388 24.35 31.1555C24.1033 30.7899 23.5718 30.4705 22.5087 29.8318L21.5139 29.2341C20.6373 28.7073 20.199 28.444 19.7442 28.2945C18.9034 28.0183 17.9976 28.0104 17.1522 28.2719C16.6948 28.4134 16.2519 28.6691 15.3663 29.1804L13.5384 30.2357Z" fill="#2845C1"/>
    <path d="M22.2881 44.9191C22.2881 45.9415 22.2881 46.4527 22.3942 46.9195C22.5903 47.7823 23.0499 48.5627 23.7092 49.1526C24.066 49.4718 24.513 49.7197 25.4071 50.2156L27.6919 51.4828C28.5366 51.9513 28.9589 52.1856 29.3947 52.3174C30.1999 52.5609 31.0591 52.5609 31.8643 52.3174C32.3 52.1856 32.7224 51.9513 33.567 51.4828L34.5093 50.9602C35.653 50.3259 36.2248 50.0088 36.4868 49.6396C36.9768 48.9491 36.9763 48.0243 36.4857 47.3343C36.2233 46.9653 35.6512 46.6487 34.5069 46.0155L33.7442 45.5934C32.8487 45.0979 32.4009 44.8501 32.0436 44.5309C31.3832 43.9409 30.9228 43.16 30.7264 42.2965C30.6201 41.8293 30.6201 41.3176 30.6201 40.2941V39.4207C30.6201 38.1805 30.6201 37.5604 30.4337 37.1606C30.0855 36.4135 29.3127 35.9583 28.4905 36.0159C28.0504 36.0468 27.5081 36.3474 26.4234 36.9487L25.4084 37.5113C24.5139 38.0071 24.0667 38.255 23.7098 38.5742C23.0502 39.1642 22.5905 39.9447 22.3943 40.8076C22.2881 41.2745 22.2881 41.7859 22.2881 42.8085V44.9191Z" fill="#2845C1"/>
    <path d="M39.3791 44.6834C40.2646 45.1946 40.7073 45.4502 41.1646 45.5917C42.0098 45.8532 42.9154 45.8454 43.756 45.5694C44.2108 45.4201 44.6491 45.1569 45.5256 44.6305L47.7654 43.2854C48.5934 42.7882 49.0075 42.5395 49.3395 42.228C49.953 41.6525 50.3826 40.9084 50.5743 40.0893C50.678 39.646 50.6863 39.1632 50.7029 38.1974L50.7215 37.1201C50.744 35.8125 50.7553 35.1587 50.5665 34.7472C50.2136 33.9777 49.4124 33.5156 48.5695 33.5955C48.1188 33.6382 47.5586 33.9754 46.4381 34.6498L45.6911 35.0993C44.8142 35.6271 44.3758 35.8909 43.9207 36.0408C43.0795 36.3177 42.173 36.3259 41.327 36.0643C40.8693 35.9228 40.4261 35.6669 39.5397 35.1552L38.7833 34.7185C37.7093 34.0984 37.1723 33.7884 36.7329 33.7498C35.9117 33.6778 35.1312 34.1195 34.7699 34.8604C34.5766 35.2569 34.5658 35.8769 34.5442 37.1169L34.5239 38.2773C34.5061 39.2998 34.4972 39.811 34.5951 40.2797C34.7763 41.1459 35.2223 41.9343 35.8716 42.5357C36.2228 42.8611 36.6656 43.1168 37.5513 43.6281L39.3791 44.6834Z" fill="#2845C1"/>
    <path d="M47.7205 29.7643C48.606 29.2531 49.0487 28.9975 49.3999 28.6722C50.049 28.071 50.495 27.2828 50.6763 26.4168C50.7743 25.9483 50.7655 25.4371 50.7479 24.4149L50.7029 21.8026C50.6863 20.8368 50.678 20.354 50.5743 19.9107C50.3826 19.0916 49.953 18.3475 49.3395 17.772C49.0075 17.4605 48.5934 17.2118 47.7654 16.7146L46.8417 16.1599C45.7205 15.4866 45.16 15.1499 44.7092 15.1076C43.8663 15.0285 43.0655 15.4914 42.7133 16.2613C42.525 16.6729 42.5369 17.3267 42.5606 18.6343L42.5765 19.5059C42.595 20.5292 42.6043 21.0408 42.5065 21.5099C42.3258 22.3768 41.8797 23.1659 41.2301 23.7678C40.8787 24.0935 40.4355 24.3494 39.5492 24.8611L38.7928 25.2978C37.7187 25.9179 37.1817 26.2279 36.9286 26.5892C36.4557 27.2644 36.4479 28.1612 36.909 28.8445C37.1557 29.2101 37.6872 29.5295 38.7503 30.1682L39.745 30.7659C40.6216 31.2927 41.0599 31.556 41.5148 31.7055C42.3555 31.9817 43.2614 31.9896 44.1068 31.7281C44.5642 31.5866 45.007 31.3309 45.8927 30.8196L47.7205 29.7643Z" fill="#2845C1"/>
    <path d="M21.8798 15.3167C20.9943 14.8055 20.5516 14.5499 20.0943 14.4084C19.2491 14.1468 18.3435 14.1546 17.5029 14.4307C17.0481 14.58 16.6098 14.8432 15.7334 15.3696L13.4935 16.7147C12.6655 17.2119 12.2515 17.4606 11.9194 17.7721C11.3059 18.3476 10.8763 19.0917 10.6846 19.9107C10.5809 20.3541 10.5726 20.8369 10.556 21.8027L10.5374 22.88C10.5149 24.1876 10.5036 24.8414 10.6924 25.2528C11.0454 26.0224 11.8465 26.4845 12.6894 26.4046C13.1401 26.3618 13.7003 26.0247 14.8208 25.3503L15.5678 24.9008C16.4447 24.373 16.8831 24.1091 17.3382 23.9593C18.1794 23.6824 19.0859 23.6742 19.9319 23.9357C20.3896 24.0773 20.8328 24.3331 21.7192 24.8449L22.4756 25.2816C23.5496 25.9017 24.0866 26.2117 24.526 26.2502C25.3472 26.3222 26.1278 25.8806 26.489 25.1397C26.6823 24.7432 26.6931 24.1232 26.7147 22.8832L26.735 21.7228C26.7528 20.7003 26.7618 20.1891 26.6638 19.7204C26.4826 18.8542 26.0366 18.0657 25.3873 17.4643C25.0361 17.139 24.5933 16.8833 23.7076 16.372L21.8798 15.3167Z" fill="#C83F49"/>
    <rect x="12" y="40.5" width="36" height="13.5" rx="6.75" fill="#EEF1F4"/>
    <rect x="12" y="40.5" width="36" height="13.5" rx="6.75" fill="url(#paint0_linear_4910_1235)" fill-opacity="0.1"/>
    <path d="M18.5137 50.6043C18.4389 50.6043 18.4014 50.6043 18.3729 50.5897C18.3477 50.5769 18.3273 50.5565 18.3145 50.5314C18.2999 50.5028 18.2999 50.4654 18.2999 50.3906V43.8637C18.2999 43.7888 18.2999 43.7514 18.3145 43.7228C18.3273 43.6977 18.3477 43.6773 18.3729 43.6645C18.4014 43.6499 18.4389 43.6499 18.5137 43.6499H20.3465C21.797 43.6499 22.6812 44.3652 22.6812 45.5375C22.6812 45.972 22.5292 46.3596 22.2386 46.6601C22.1358 46.7665 22.0844 46.8196 22.0757 46.8545C22.0664 46.8921 22.0684 46.9109 22.0855 46.9457C22.1014 46.9779 22.1609 47.0175 22.2798 47.0967C22.7971 47.4412 23.0786 47.9548 23.0786 48.5577C23.0786 49.8294 22.095 50.6043 20.4955 50.6043H18.5137ZM20.3763 44.8222H19.9244C19.8496 44.8222 19.8122 44.8222 19.7836 44.8368C19.7585 44.8496 19.738 44.87 19.7252 44.8952C19.7107 44.9237 19.7107 44.9611 19.7107 45.036V46.1782C19.7107 46.253 19.7107 46.2904 19.7252 46.319C19.738 46.3441 19.7585 46.3646 19.7836 46.3774C19.8122 46.3919 19.8496 46.3919 19.9244 46.3919H20.3763C20.9128 46.3919 21.2307 46.1038 21.2307 45.5971C21.2307 45.1103 20.9128 44.8222 20.3763 44.8222ZM20.575 47.5642H19.9244C19.8496 47.5642 19.8122 47.5642 19.7836 47.5788C19.7585 47.5916 19.738 47.612 19.7252 47.6372C19.7107 47.6658 19.7107 47.7032 19.7107 47.778V49.2182C19.7107 49.2931 19.7107 49.3305 19.7252 49.359C19.738 49.3842 19.7585 49.4046 19.7836 49.4174C19.8122 49.432 19.8496 49.432 19.9244 49.432H20.575C21.2307 49.432 21.6281 49.0843 21.6281 48.4981C21.6281 47.902 21.2307 47.5642 20.575 47.5642Z" fill="#2845C1"/>
    <path d="M24.6407 50.6043C24.5659 50.6043 24.5285 50.6043 24.4999 50.5897C24.4747 50.5769 24.4543 50.5565 24.4415 50.5314C24.4269 50.5028 24.4269 50.4654 24.4269 50.3906V43.8637C24.4269 43.7888 24.4269 43.7514 24.4415 43.7228C24.4543 43.6977 24.4747 43.6773 24.4999 43.6645C24.5285 43.6499 24.5659 43.6499 24.6407 43.6499H28.2666C28.3414 43.6499 28.3788 43.6499 28.4074 43.6645C28.4326 43.6773 28.453 43.6977 28.4658 43.7228C28.4804 43.7514 28.4804 43.7888 28.4804 43.8637V44.6085C28.4804 44.6833 28.4804 44.7207 28.4658 44.7493C28.453 44.7744 28.4326 44.7948 28.4074 44.8077C28.3788 44.8222 28.3414 44.8222 28.2666 44.8222H26.0514C25.9766 44.8222 25.9392 44.8222 25.9106 44.8368C25.8855 44.8496 25.8651 44.87 25.8523 44.8952C25.8377 44.9237 25.8377 44.9611 25.8377 45.036V46.2577C25.8377 46.3325 25.8377 46.3699 25.8523 46.3985C25.8651 46.4236 25.8855 46.444 25.9106 46.4568C25.9392 46.4714 25.9766 46.4714 26.0514 46.4714H27.8692C27.944 46.4714 27.9814 46.4714 28.01 46.486C28.0352 46.4988 28.0556 46.5192 28.0684 46.5443C28.083 46.5729 28.083 46.6103 28.083 46.6852V47.43C28.083 47.5048 28.083 47.5422 28.0684 47.5708C28.0556 47.5959 28.0352 47.6163 28.01 47.6292C27.9814 47.6437 27.944 47.6437 27.8692 47.6437H26.0514C25.9766 47.6437 25.9392 47.6437 25.9106 47.6583C25.8855 47.6711 25.8651 47.6915 25.8523 47.7167C25.8377 47.7452 25.8377 47.7826 25.8377 47.8575V49.2182C25.8377 49.2931 25.8377 49.3305 25.8523 49.359C25.8651 49.3842 25.8855 49.4046 25.9106 49.4174C25.9392 49.432 25.9766 49.432 26.0514 49.432H28.2666C28.3414 49.432 28.3788 49.432 28.4074 49.4466C28.4326 49.4594 28.453 49.4798 28.4658 49.5049C28.4804 49.5335 28.4804 49.5709 28.4804 49.6457V50.3906C28.4804 50.4654 28.4804 50.5028 28.4658 50.5314C28.453 50.5565 28.4326 50.5769 28.4074 50.5897C28.3788 50.6043 28.3414 50.6043 28.2666 50.6043H24.6407Z" fill="#2845C1"/>
    <path d="M29.6643 44.9315C29.5895 44.9315 29.5521 44.9315 29.5235 44.9169C29.4984 44.9041 29.4779 44.8837 29.4651 44.8586C29.4506 44.83 29.4506 44.7926 29.4506 44.7177V43.8637C29.4506 43.7888 29.4506 43.7514 29.4651 43.7228C29.4779 43.6977 29.4984 43.6773 29.5235 43.6645C29.5521 43.6499 29.5895 43.6499 29.6643 43.6499H34.9394C35.0142 43.6499 35.0517 43.6499 35.0802 43.6645C35.1054 43.6773 35.1258 43.6977 35.1386 43.7228C35.1532 43.7514 35.1532 43.7888 35.1532 43.8637V44.7177C35.1532 44.7926 35.1532 44.83 35.1386 44.8586C35.1258 44.8837 35.1054 44.9041 35.0802 44.9169C35.0517 44.9315 35.0142 44.9315 34.9394 44.9315H33.221C33.1462 44.9315 33.1088 44.9315 33.0802 44.9461C33.055 44.9589 33.0346 44.9793 33.0218 45.0044C33.0072 45.033 33.0072 45.0704 33.0072 45.1452V50.3906C33.0072 50.4654 33.0072 50.5028 32.9927 50.5314C32.9799 50.5565 32.9594 50.5769 32.9343 50.5897C32.9057 50.6043 32.8683 50.6043 32.7935 50.6043H31.8102C31.7354 50.6043 31.698 50.6043 31.6694 50.5897C31.6443 50.5769 31.6239 50.5565 31.6111 50.5314C31.5965 50.5028 31.5965 50.4654 31.5965 50.3906V45.1452C31.5965 45.0704 31.5965 45.033 31.5819 45.0044C31.5691 44.9793 31.5487 44.9589 31.5235 44.9461C31.495 44.9315 31.4576 44.9315 31.3827 44.9315H29.6643Z" fill="#2845C1"/>
    <path d="M35.0587 50.6043C34.9547 50.6043 34.9027 50.6043 34.8694 50.5825C34.8402 50.5634 34.8197 50.5336 34.8122 50.4996C34.8036 50.4607 34.822 50.4121 34.8588 50.3149L37.3296 43.788C37.3485 43.7382 37.3579 43.7133 37.3742 43.6949C37.3885 43.6787 37.4066 43.6663 37.4268 43.6586C37.4497 43.6499 37.4763 43.6499 37.5296 43.6499H39.0822C39.1354 43.6499 39.162 43.6499 39.1849 43.6586C39.2052 43.6663 39.2232 43.6787 39.2376 43.6949C39.2538 43.7133 39.2632 43.7382 39.2821 43.788L41.753 50.3149C41.7898 50.4121 41.8082 50.4607 41.7996 50.4996C41.792 50.5336 41.7715 50.5634 41.7423 50.5825C41.709 50.6043 41.657 50.6043 41.5531 50.6043H40.5115C40.4577 50.6043 40.4309 50.6043 40.4078 50.5955C40.3875 50.5877 40.3693 50.575 40.355 50.5586C40.3387 50.54 40.3294 50.5148 40.3109 50.4644L39.7482 48.9361C39.7297 48.8856 39.7204 48.8604 39.7042 48.8418C39.6898 48.8254 39.6717 48.8128 39.6513 48.805C39.6282 48.7962 39.6014 48.7962 39.5477 48.7962H37.0641C37.0103 48.7962 36.9835 48.7962 36.9604 48.805C36.9401 48.8128 36.9219 48.8254 36.9076 48.8418C36.8913 48.8604 36.882 48.8856 36.8635 48.9361L36.3008 50.4644C36.2823 50.5148 36.273 50.54 36.2568 50.5586C36.2424 50.575 36.2243 50.5877 36.2039 50.5955C36.1809 50.6043 36.154 50.6043 36.1003 50.6043H35.0587ZM37.4569 47.307C37.4216 47.4036 37.404 47.4518 37.4129 47.4904C37.4207 47.5242 37.4413 47.5536 37.4703 47.5725C37.5035 47.594 37.5549 47.594 37.6577 47.594H38.954C39.0568 47.594 39.1082 47.594 39.1414 47.5725C39.1705 47.5536 39.191 47.5242 39.1988 47.4904C39.2077 47.4518 39.1901 47.4036 39.1548 47.307L38.5067 45.5313C38.4447 45.3616 38.4138 45.2768 38.3685 45.2528C38.3293 45.232 38.2824 45.232 38.2432 45.2528C38.1979 45.2768 38.167 45.3616 38.1051 45.5313L37.4569 47.307Z" fill="#2845C1"/>
    <path d="M92.7865 23.7114C94.0396 23.7114 95.202 23.985 96.2728 24.5317C97.2695 25.0301 98.0677 25.6513 98.6671 26.3956C98.7655 26.5178 98.7441 26.6949 98.6248 26.7967L96.5189 28.5933C96.3861 28.7066 96.1855 28.6825 96.0754 28.5471C95.6864 28.0683 95.2393 27.6639 94.7347 27.334C94.1424 26.9468 93.4927 26.7524 92.7865 26.7524C92.2856 26.7525 91.853 26.8442 91.4886 27.0264C91.1469 27.2087 90.8843 27.4479 90.702 27.7441C90.5425 28.0403 90.4632 28.3713 90.4632 28.7358C90.4634 29.2823 90.6563 29.7381 91.0433 30.1025C91.4535 30.4443 91.9786 30.7411 92.6166 30.9917C93.2543 31.2423 93.9261 31.5159 94.6322 31.812C95.3613 32.0854 96.045 32.4273 96.683 32.8374C97.321 33.2247 97.8337 33.7484 98.2211 34.4092C98.6311 35.047 98.8362 35.8555 98.8363 36.835C98.8363 37.9968 98.5517 38.9884 97.9823 39.8086C97.4356 40.6059 96.7064 41.2214 95.7953 41.6543C94.8839 42.0872 93.8802 42.3047 92.7865 42.3047C91.3058 42.3046 90.0186 42.031 88.9252 41.4844C87.9174 40.9595 87.0256 40.2693 86.25 39.4154C86.1396 39.2939 86.1531 39.1062 86.2764 38.9977L88.3815 37.1452C88.51 37.0321 88.7066 37.0497 88.8184 37.1794C89.3138 37.7541 89.8621 38.2326 90.4632 38.6133C91.1467 39.046 91.9099 39.2622 92.7528 39.2622C93.5503 39.2622 94.1547 39.0571 94.5648 38.647C94.9975 38.2142 95.2137 37.6902 95.2137 37.0752C95.2137 36.5057 95.0084 36.0503 94.5985 35.7085C94.2111 35.3667 93.6984 35.07 93.0604 34.8193C92.4224 34.5687 91.7388 34.3061 91.0096 34.0327C90.3036 33.7366 89.6318 33.3836 88.994 32.9736C88.3561 32.5635 87.8309 32.0397 87.4208 31.4019C87.0334 30.7411 86.8407 29.8974 86.8407 28.8721C86.8407 27.9152 87.091 27.0496 87.5922 26.2749C88.0934 25.4774 88.788 24.8498 89.6766 24.394C90.5879 23.9384 91.6247 23.7115 92.7865 23.7114Z" fill="#2845C1"/>
    <path d="M106.982 23.7114C108.235 23.7115 109.398 23.9849 110.469 24.5317C111.465 25.0301 112.264 25.6513 112.863 26.3956C112.961 26.5178 112.94 26.6949 112.821 26.7967L110.715 28.5933C110.582 28.7066 110.381 28.6825 110.271 28.547C109.882 28.0683 109.435 27.664 108.931 27.334C108.338 26.9467 107.688 26.7525 106.982 26.7524C106.481 26.7524 106.048 26.8441 105.683 27.0264C105.341 27.2086 105.079 27.4479 104.896 27.7441C104.737 28.0403 104.658 28.3714 104.658 28.7358C104.658 29.2825 104.852 29.7381 105.239 30.1025C105.649 30.4442 106.173 30.7411 106.811 30.9917C107.449 31.2423 108.122 31.5158 108.828 31.812C109.557 32.0854 110.241 32.4274 110.879 32.8374C111.516 33.2247 112.03 33.7486 112.417 34.4092C112.827 35.047 113.032 35.8557 113.032 36.835C113.032 37.9969 112.746 38.9884 112.177 39.8086C111.63 40.606 110.901 41.2214 109.99 41.6543C109.078 42.0872 108.076 42.3046 106.982 42.3047C105.501 42.3047 104.213 42.0312 103.119 41.4844C102.112 40.9595 101.22 40.2693 100.444 39.4154C100.334 39.2939 100.347 39.1062 100.471 38.9977L102.576 37.1452C102.704 37.0321 102.901 37.0497 103.013 37.1794C103.508 37.7541 104.056 38.2326 104.658 38.6133C105.341 39.0461 106.104 39.2621 106.947 39.2622C107.745 39.2622 108.349 39.0571 108.759 38.647C109.192 38.2141 109.408 37.6903 109.408 37.0752C109.408 36.5056 109.203 36.0503 108.793 35.7085C108.405 35.3667 107.893 35.07 107.255 34.8193C106.617 34.5687 105.933 34.3061 105.204 34.0327C104.498 33.7366 103.826 33.3836 103.188 32.9736C102.551 32.5636 102.027 32.0395 101.617 31.4019C101.229 30.7411 101.035 29.8974 101.035 28.8721C101.035 27.9152 101.285 27.0495 101.786 26.2749C102.288 25.4775 102.982 24.8497 103.871 24.394C104.782 23.9383 105.82 23.7114 106.982 23.7114Z" fill="#2845C1"/>
    <path d="M129.497 23.7114C130.75 23.7114 131.912 23.9849 132.983 24.5317C133.98 25.0301 134.778 25.6512 135.378 26.3956C135.476 26.5178 135.455 26.6949 135.335 26.7967L133.229 28.5933C133.097 28.7066 132.896 28.6825 132.786 28.547C132.397 28.0683 131.95 27.664 131.445 27.334C130.853 26.9466 130.203 26.7524 129.497 26.7524C128.996 26.7525 128.562 26.8441 128.198 27.0264C127.856 27.2086 127.595 27.4481 127.412 27.7441C127.253 28.0404 127.172 28.3713 127.172 28.7358C127.172 29.2825 127.367 29.7381 127.754 30.1025C128.164 30.4443 128.688 30.7411 129.326 30.9917C129.964 31.2423 130.636 31.5158 131.343 31.812C132.072 32.0854 132.755 32.4273 133.393 32.8374C134.031 33.2247 134.544 33.7485 134.932 34.4092C135.341 35.047 135.547 35.8556 135.547 36.835C135.547 37.9967 135.262 38.9884 134.693 39.8086C134.146 40.6061 133.416 41.2214 132.504 41.6543C131.593 42.0872 130.591 42.3047 129.497 42.3047C128.016 42.3047 126.728 42.0312 125.634 41.4844C124.627 40.9595 123.736 40.2692 122.96 39.4154C122.85 39.2939 122.864 39.1062 122.987 38.9977L125.09 37.1453C125.219 37.0322 125.416 37.0498 125.527 37.1795C126.023 37.7541 126.571 38.2326 127.172 38.6133C127.856 39.0462 128.62 39.2622 129.463 39.2622C130.26 39.2621 130.864 39.0569 131.274 38.647C131.707 38.2141 131.924 37.6903 131.924 37.0752C131.924 36.5058 131.719 36.0502 131.309 35.7085C130.922 35.3668 130.409 35.0699 129.771 34.8193C129.133 34.5687 128.449 34.3061 127.72 34.0327C127.014 33.7365 126.341 33.3838 125.703 32.9736C125.065 32.5636 124.541 32.0396 124.131 31.4019C123.744 30.7411 123.55 29.8974 123.55 28.8721C123.55 27.9151 123.801 27.0496 124.303 26.2749C124.804 25.4774 125.498 24.8497 126.387 24.394C127.298 23.9385 128.335 23.7114 129.497 23.7114Z" fill="#2845C1"/>
    <path fill-rule="evenodd" clip-rule="evenodd" d="M159.286 24.0542C160.859 24.0542 162.192 24.3386 163.285 24.9082C164.379 25.4778 165.2 26.2641 165.746 27.2666C166.316 28.2691 166.6 29.3972 166.6 30.6504V41.6634C166.6 41.8291 166.466 41.9634 166.3 41.9634H163.14C162.974 41.9634 162.84 41.8291 162.84 41.6634V40.5243C162.84 40.3827 162.657 40.3156 162.558 40.4172C162.406 40.5745 162.238 40.7253 162.055 40.8691C161.44 41.3704 160.722 41.7588 159.902 42.0322C159.082 42.3284 158.25 42.476 157.407 42.4761C155.721 42.4761 154.341 42.0208 153.27 41.1094C152.199 40.198 151.665 38.9782 151.665 37.4517C151.665 36.153 152.154 35.0481 153.134 34.1367C154.114 33.2253 155.526 32.6209 157.372 32.3247L162.59 31.4384C162.735 31.4139 162.84 31.289 162.84 31.1427V30.6504C162.84 29.6254 162.499 28.8279 161.816 28.2583C161.133 27.666 160.244 27.3693 159.15 27.3691C158.262 27.3691 157.452 27.5633 156.723 27.9507C156.106 28.2891 155.576 28.7403 155.132 29.3048C155.027 29.439 154.833 29.4697 154.698 29.366L152.409 27.6148C152.28 27.5163 152.252 27.3329 152.351 27.2048C153.078 26.2676 154 25.5248 155.116 24.9771C156.346 24.3618 157.737 24.0542 159.286 24.0542ZM158.33 34.8208C157.305 34.9803 156.563 35.2757 156.108 35.7085C155.652 36.1185 155.424 36.6426 155.424 37.2803C155.424 37.9182 155.663 38.4434 156.141 38.8535C156.643 39.2637 157.315 39.4688 158.158 39.4688C159.207 39.4687 160.13 39.2295 160.927 38.751C161.581 38.3583 162.135 37.8572 162.589 37.2494C162.761 37.0192 162.84 36.7349 162.84 36.4474V34.4262C162.84 34.2409 162.674 34.0999 162.491 34.1302L158.33 34.8208Z" fill="#2845C1"/>
    <path d="M143.98 24.4368C143.98 24.6025 144.115 24.7368 144.28 24.7368H149.253C149.418 24.7368 149.553 24.8711 149.553 25.0368V27.8206C149.553 27.9863 149.418 28.1206 149.253 28.1206H144.28C144.115 28.1206 143.98 28.2549 143.98 28.4206V35.8799C143.98 36.6316 144.106 37.2239 144.357 37.6567C144.607 38.0894 144.96 38.4082 145.416 38.6133C145.871 38.7956 146.408 38.8872 147.023 38.8872C147.615 38.8872 148.117 38.853 148.527 38.7847C148.761 38.7327 148.976 38.677 149.173 38.6177C149.374 38.5568 149.586 38.7033 149.586 38.9139V41.597C149.586 41.7156 149.517 41.8239 149.406 41.8669C149.041 42.0092 148.633 42.1099 148.184 42.1685C147.683 42.2595 147.091 42.3047 146.407 42.3047C145.04 42.3047 143.889 42.0654 142.955 41.5869C142.044 41.0856 141.349 40.3675 140.87 39.4336C140.415 38.4768 140.188 37.2922 140.188 35.8799V28.4206C140.188 28.2549 140.053 28.1206 139.888 28.1206H137.413C137.247 28.1206 137.113 27.9863 137.113 27.8206V25.0368C137.113 24.8711 137.247 24.7368 137.413 24.7368H139.888C140.053 24.7368 140.188 24.6025 140.188 24.4368V20.7316C140.188 20.566 140.322 20.4316 140.488 20.4316H143.68C143.846 20.4316 143.98 20.566 143.98 20.7316V24.4368Z" fill="#2845C1"/>
    <path d="M195.844 24.4368C195.844 24.6025 195.979 24.7368 196.144 24.7368H201.115C201.281 24.7368 201.415 24.8711 201.415 25.0368V27.8206C201.415 27.9863 201.281 28.1206 201.115 28.1206H196.144C195.979 28.1206 195.844 28.2549 195.844 28.4206V35.8799C195.845 36.6314 195.969 37.2239 196.219 37.6567C196.47 38.0897 196.824 38.4082 197.28 38.6133C197.736 38.7955 198.271 38.8871 198.886 38.8872C199.478 38.8872 199.98 38.853 200.39 38.7847C200.624 38.7327 200.839 38.677 201.036 38.6176C201.237 38.5568 201.449 38.7033 201.449 38.9138V41.597C201.449 41.7156 201.38 41.8239 201.269 41.8669C200.904 42.0091 200.497 42.1099 200.049 42.1685C199.547 42.2596 198.954 42.3047 198.27 42.3047C196.903 42.3046 195.753 42.0653 194.819 41.5869C193.908 41.0856 193.213 40.3678 192.735 39.4336C192.279 38.4767 192.051 37.2924 192.051 35.8799V28.4206C192.051 28.2549 191.916 28.1206 191.751 28.1206H189.138C188.972 28.1206 188.838 27.9863 188.838 27.8206V25.0368C188.838 24.8711 188.972 24.7368 189.138 24.7368H191.751C191.916 24.7368 192.051 24.6025 192.051 24.4368V20.7316C192.051 20.566 192.185 20.4316 192.351 20.4316H195.544C195.71 20.4316 195.844 20.566 195.844 20.7316V24.4368Z" fill="#2845C1"/>
    <path fill-rule="evenodd" clip-rule="evenodd" d="M85.2313 41.5551C85.3075 41.7517 85.1624 41.9634 84.9516 41.9634H81.1201C80.9954 41.9634 80.8837 41.8862 80.8395 41.7695L78.5033 35.5947C78.4591 35.4781 78.3474 35.4009 78.2227 35.4009H68.506C68.3814 35.4009 68.2698 35.4779 68.2256 35.5943L65.8794 41.7699C65.8352 41.8864 65.7236 41.9634 65.599 41.9634H61.8003C61.5896 41.9634 61.4446 41.752 61.5204 41.5554L70.516 18.2301C70.5607 18.1144 70.6719 18.0381 70.7959 18.0381H75.9216C76.0455 18.0381 76.1567 18.1142 76.2014 18.2298L85.2313 41.5551ZM69.8042 31.4406C69.7296 31.6369 69.8746 31.8472 70.0846 31.8472H76.6509C76.8607 31.8472 77.0058 31.6372 76.9315 31.441L73.6548 22.7842C73.557 22.526 73.1919 22.5258 73.0938 22.7839L69.8042 31.4406Z" fill="#2845C1"/>
    <path d="M120.206 41.6634C120.206 41.8291 120.072 41.9634 119.906 41.9634H116.747C116.581 41.9634 116.447 41.8291 116.447 41.6634V25.0368C116.447 24.8711 116.581 24.7368 116.747 24.7368H119.906C120.072 24.7368 120.206 24.8711 120.206 25.0368V41.6634Z" fill="#2845C1"/>
    <path d="M180.014 24.0542C181.29 24.0542 182.429 24.3387 183.431 24.9082C184.457 25.4778 185.266 26.3215 185.859 27.438C186.451 28.5544 186.748 29.9562 186.748 31.6421V41.6634C186.748 41.8291 186.613 41.9634 186.448 41.9634H183.254C183.088 41.9634 182.954 41.8291 182.954 41.6634V31.7783C182.954 30.4569 182.612 29.4313 181.928 28.7021C181.245 27.9502 180.31 27.5742 179.125 27.5742C178.373 27.5743 177.712 27.722 177.143 28.0181C176.573 28.2915 176.084 28.6457 175.674 29.0786C175.379 29.4076 175.117 29.7496 174.889 30.1049C174.747 30.3244 174.682 30.5826 174.682 30.8437V41.6634C174.682 41.8291 174.548 41.9634 174.382 41.9634H171.223C171.057 41.9634 170.923 41.8291 170.923 41.6634V25.0368C170.923 24.8711 171.057 24.7368 171.223 24.7368H174.382C174.548 24.7368 174.682 24.8711 174.682 25.0368V25.9339C174.682 26.069 174.849 26.137 174.947 26.0443C175.513 25.5106 176.165 25.0632 176.904 24.7031C177.793 24.2703 178.829 24.0542 180.014 24.0542Z" fill="#2845C1"/>
    <path d="M118.36 16.125C118.816 16.125 119.226 16.2385 119.591 16.4663C119.978 16.6942 120.275 17.0018 120.48 17.3892C120.708 17.7537 120.821 18.164 120.821 18.6196C120.821 19.0751 120.707 19.4966 120.48 19.8838C120.275 20.2711 119.978 20.5788 119.591 20.8066C119.226 21.0117 118.816 21.1143 118.36 21.1143C117.905 21.1142 117.483 21.0117 117.096 20.8066C116.709 20.5788 116.401 20.2711 116.173 19.8838C115.945 19.4965 115.832 19.0752 115.832 18.6196C115.832 17.9361 116.071 17.355 116.55 16.8765C117.051 16.3754 117.654 16.1251 118.36 16.125Z" fill="#2845C1"/>
    <path fill-rule="evenodd" clip-rule="evenodd" d="M345.694 24.2788C347.534 24.2789 349.109 24.716 350.42 25.5898C351.754 26.4407 352.777 27.5787 353.49 29.0044C354.226 30.4074 354.595 31.9606 354.595 33.6626C354.595 34.9274 354.388 36.1231 353.974 37.25C353.56 38.377 352.961 39.3775 352.179 40.2515C351.42 41.1253 350.489 41.8153 349.386 42.3213C348.305 42.8042 347.074 43.0463 345.694 43.0464C344.499 43.0464 343.44 42.8513 342.52 42.4604C341.6 42.0695 340.784 41.5057 340.071 40.77C340.033 40.73 339.967 40.7548 339.967 40.8096V50.3633C339.967 50.531 339.967 50.6156 339.935 50.6797C339.906 50.7361 339.859 50.7828 339.803 50.8115C339.739 50.844 339.654 50.8438 339.486 50.8438H336.687C336.519 50.8438 336.435 50.844 336.371 50.8115C336.314 50.7828 336.268 50.7361 336.239 50.6797C336.206 50.6156 336.207 50.531 336.207 50.3633V25.4492C336.207 25.2815 336.206 25.1969 336.239 25.1328C336.268 25.0764 336.314 25.0297 336.371 25.001C336.435 24.9685 336.519 24.9688 336.687 24.9688H339.486C339.654 24.9688 339.739 24.9685 339.803 25.001C339.859 25.0297 339.906 25.0764 339.935 25.1328C339.967 25.1969 339.967 25.2815 339.967 25.4492V26.5142C339.967 26.5687 340.033 26.5944 340.071 26.5552C340.784 25.8194 341.6 25.2557 342.52 24.8647C343.44 24.4738 344.498 24.2788 345.694 24.2788ZM345.211 27.8325C344.13 27.8325 343.129 28.0853 342.209 28.5913C341.52 28.9626 340.912 29.4771 340.386 30.1338C340.263 30.2873 340.2 30.3643 340.131 30.5C340.078 30.6032 340.021 30.7674 339.998 30.8809C339.967 31.0302 339.967 31.1627 339.967 31.4272V35.8965C339.967 36.1612 339.967 36.2943 339.998 36.4429C340.021 36.5564 340.077 36.7191 340.129 36.8223C340.198 36.9573 340.26 37.0355 340.384 37.1914C340.911 37.8535 341.519 38.3797 342.209 38.769C343.129 39.2519 344.13 39.4927 345.211 39.4927C346.315 39.4927 347.27 39.2399 348.075 38.7339C348.903 38.2049 349.535 37.5028 349.972 36.6289C350.432 35.755 350.662 34.7664 350.662 33.6626C350.662 32.5586 350.432 31.5688 349.972 30.6948C349.535 29.8211 348.902 29.1309 348.075 28.625C347.27 28.096 346.315 27.8325 345.211 27.8325Z" fill="#2845C1"/>
    <path d="M287.536 24.2788C288.824 24.2788 290.008 24.5545 291.089 25.1064C292.035 25.5793 292.804 26.1537 293.395 26.8291C293.49 26.9381 293.539 26.9935 293.556 27.0635C293.571 27.1218 293.565 27.1923 293.543 27.248C293.516 27.315 293.456 27.3667 293.338 27.4692L291.483 29.0776C291.347 29.1962 291.278 29.2551 291.208 29.2725C291.143 29.2885 291.085 29.2843 291.023 29.2593C290.957 29.2322 290.892 29.1579 290.764 29.0103C290.402 28.5917 289.993 28.2332 289.537 27.9351C288.939 27.5443 288.284 27.3492 287.571 27.3491C287.065 27.3491 286.628 27.4407 286.26 27.6245C285.915 27.8085 285.65 28.0506 285.466 28.3496C285.282 28.6486 285.19 28.9822 285.19 29.3501C285.19 29.902 285.398 30.362 285.812 30.73C286.225 31.0748 286.754 31.3736 287.398 31.6265C288.042 31.8795 288.721 32.1566 289.434 32.4556C290.147 32.7315 290.825 33.076 291.469 33.4897C292.113 33.8807 292.643 34.4106 293.057 35.0776C293.47 35.7215 293.676 36.5383 293.676 37.5269C293.653 38.6997 293.367 39.7004 292.815 40.5283C292.263 41.3333 291.526 41.9546 290.606 42.3916C289.686 42.8283 288.674 43.0463 287.571 43.0464C286.076 43.0464 284.775 42.7708 283.671 42.2188C282.705 41.7156 281.845 41.0628 281.09 40.2603C280.982 40.1449 280.927 40.0865 280.907 40.0156C280.89 39.9552 280.893 39.8852 280.916 39.8267C280.942 39.758 281.006 39.7031 281.13 39.5938L282.977 37.9678C283.111 37.8501 283.178 37.7908 283.248 37.7729C283.312 37.7568 283.372 37.7604 283.433 37.7847C283.5 37.8114 283.562 37.882 283.686 38.0234C284.154 38.5572 284.666 39.0017 285.224 39.355C285.914 39.7689 286.685 39.976 287.536 39.9761C288.341 39.9761 288.962 39.769 289.399 39.355C289.836 38.9181 290.055 38.3893 290.055 37.7686C290.055 37.1939 289.848 36.7336 289.434 36.3887C289.02 36.0437 288.49 35.7437 287.846 35.4907C287.202 35.2378 286.512 34.9727 285.776 34.6968C285.063 34.3978 284.384 34.0414 283.74 33.6274C283.097 33.2135 282.568 32.6726 282.154 32.0059C281.763 31.3389 281.568 30.4995 281.568 29.4878C281.568 28.499 281.821 27.6139 282.327 26.832C282.833 26.05 283.535 25.4287 284.432 24.9688C285.351 24.5089 286.386 24.2788 287.536 24.2788Z" fill="#2845C1"/>
    <path d="M305.036 24.2788C306.623 24.2788 308.038 24.6003 309.28 25.2441C310.396 25.7921 311.334 26.519 312.092 27.4253C312.193 27.5453 312.242 27.6063 312.258 27.6787C312.271 27.74 312.264 27.8108 312.237 27.8677C312.206 27.9348 312.141 27.9856 312.01 28.0859L309.817 29.7661C309.678 29.873 309.609 29.9267 309.541 29.9404C309.476 29.9533 309.422 29.9474 309.362 29.9214C309.298 29.8936 309.235 29.8207 309.11 29.6738C308.696 29.188 308.19 28.7812 307.589 28.4536C306.853 28.0397 305.991 27.8326 305.002 27.8325C304.197 27.8325 303.45 27.9818 302.76 28.2808C302.093 28.5567 301.506 28.9589 301 29.4878C300.518 30.0168 300.138 30.6381 299.862 31.3511C299.609 32.0641 299.481 32.8346 299.481 33.6626C299.481 34.7665 299.724 35.7671 300.207 36.6641C300.69 37.538 301.346 38.2279 302.174 38.7339C303.002 39.2397 303.968 39.4927 305.071 39.4927C306.014 39.4926 306.853 39.2855 307.589 38.8716C308.19 38.544 308.697 38.1373 309.11 37.6514C309.235 37.5043 309.298 37.4301 309.362 37.4023C309.422 37.3763 309.476 37.3704 309.541 37.3833C309.609 37.397 309.679 37.4505 309.819 37.5576L312.006 39.2363C312.138 39.3376 312.205 39.3885 312.236 39.4561C312.262 39.5134 312.269 39.5849 312.255 39.6465C312.239 39.7192 312.188 39.7797 312.085 39.8999C311.328 40.7871 310.393 41.5144 309.28 42.0811C308.038 42.7249 306.623 43.0464 305.036 43.0464C303.081 43.0463 301.391 42.6214 299.965 41.7705C298.539 40.8965 297.435 39.7453 296.653 38.3193C295.894 36.8935 295.515 35.3413 295.515 33.6626C295.515 32.3976 295.732 31.2007 296.169 30.0737C296.606 28.9469 297.24 27.9462 298.068 27.0723C298.896 26.1985 299.897 25.5205 301.069 25.0376C302.242 24.5317 303.564 24.2789 305.036 24.2788Z" fill="#2845C1"/>
    <path d="M376.302 24.2788C377.59 24.2788 378.775 24.5545 379.856 25.1064C380.802 25.5793 381.57 26.1536 382.162 26.8291C382.257 26.9381 382.305 26.9935 382.323 27.0635C382.337 27.1219 382.332 27.1923 382.31 27.248C382.283 27.315 382.223 27.3667 382.104 27.4692L380.25 29.0776C380.113 29.1962 380.045 29.2551 379.975 29.2725C379.91 29.2885 379.852 29.2843 379.79 29.2593C379.723 29.2322 379.659 29.1579 379.531 29.0103C379.168 28.5917 378.759 28.2332 378.303 27.9351C377.705 27.5441 377.049 27.3491 376.336 27.3491C375.83 27.3492 375.393 27.4406 375.025 27.6245C374.68 27.8085 374.416 28.0507 374.232 28.3496C374.048 28.6486 373.956 28.9821 373.956 29.3501C373.956 29.9019 374.163 30.362 374.577 30.73C374.991 31.075 375.521 31.3735 376.165 31.6265C376.808 31.8794 377.486 32.1566 378.199 32.4556C378.912 32.7316 379.591 33.0757 380.235 33.4897C380.879 33.8807 381.408 34.4107 381.822 35.0776C382.236 35.7216 382.443 36.538 382.443 37.5269C382.42 38.6997 382.132 39.7004 381.58 40.5283C381.028 41.3331 380.292 41.9547 379.373 42.3916C378.453 42.8285 377.44 43.0464 376.336 43.0464C374.841 43.0463 373.542 42.7706 372.438 42.2188C371.472 41.7156 370.612 41.0628 369.857 40.2603C369.748 40.1449 369.694 40.0865 369.674 40.0156C369.657 39.9552 369.66 39.8852 369.683 39.8267C369.709 39.758 369.772 39.7031 369.896 39.5938L371.744 37.9678C371.877 37.8501 371.945 37.7908 372.015 37.7729C372.078 37.7568 372.138 37.7604 372.199 37.7847C372.266 37.8114 372.329 37.882 372.453 38.0234C372.92 38.5572 373.433 39.0017 373.991 39.355C374.681 39.7689 375.451 39.9761 376.302 39.9761C377.107 39.976 377.729 39.7689 378.166 39.355C378.602 38.9182 378.82 38.3892 378.82 37.7686C378.82 37.1936 378.613 36.7337 378.199 36.3887C377.785 36.0437 377.257 35.7437 376.613 35.4907C375.969 35.2377 375.279 34.9728 374.543 34.6968C373.83 34.3978 373.151 34.0414 372.507 33.6274C371.863 33.2135 371.334 32.6727 370.92 32.0059C370.53 31.3389 370.333 30.4997 370.333 29.4878C370.333 28.4992 370.586 27.6138 371.092 26.832C371.598 26.0501 372.3 25.4287 373.197 24.9688C374.117 24.5087 375.152 24.2788 376.302 24.2788Z" fill="#2845C1"/>
    <path fill-rule="evenodd" clip-rule="evenodd" d="M250.427 24.2788C252.014 24.2788 253.36 24.5666 254.464 25.1416C255.568 25.7166 256.396 26.5101 256.948 27.522C257.5 28.5107 257.776 29.649 257.776 30.9365V41.876C257.776 42.0436 257.776 42.1283 257.744 42.1924C257.715 42.2488 257.668 42.2955 257.612 42.3242C257.548 42.3567 257.463 42.3564 257.295 42.3564H254.53C254.362 42.3564 254.278 42.3567 254.213 42.3242C254.157 42.2955 254.11 42.2488 254.082 42.1924C254.049 42.1283 254.049 42.0436 254.049 41.876V41.123C254.049 40.904 254.049 40.7942 254.014 40.7524C253.982 40.714 253.941 40.6969 253.891 40.6997C253.837 40.7029 253.752 40.7825 253.583 40.9414C253.47 41.0486 253.349 41.1519 253.222 41.252C252.601 41.758 251.876 42.1493 251.048 42.4253C250.243 42.7242 249.414 42.8735 248.563 42.8735C246.839 42.8734 245.436 42.4135 244.355 41.4937C243.274 40.5737 242.733 39.3431 242.733 37.8022C242.733 36.4913 243.228 35.3872 244.217 34.4902C245.206 33.5704 246.632 32.949 248.495 32.627L253.649 31.751C253.791 31.7269 253.863 31.7148 253.916 31.6792C253.963 31.6479 254 31.6045 254.023 31.5532C254.049 31.4947 254.049 31.4219 254.049 31.2778V30.9365C254.049 29.9017 253.693 29.0852 252.98 28.4873C252.29 27.8894 251.393 27.5908 250.289 27.5908C249.392 27.5908 248.576 27.7979 247.84 28.2119C247.27 28.5244 246.773 28.933 246.35 29.4365C246.228 29.5815 246.166 29.6545 246.103 29.6826C246.043 29.7085 245.987 29.7143 245.924 29.7017C245.855 29.688 245.785 29.6348 245.647 29.5288L243.625 27.9805C243.495 27.8803 243.43 27.8293 243.398 27.7622C243.372 27.7056 243.364 27.6357 243.376 27.5747C243.392 27.5024 243.442 27.4423 243.542 27.3228C244.276 26.4408 245.18 25.7366 246.252 25.2104C247.471 24.5895 248.863 24.2789 250.427 24.2788ZM253.768 34.4053L249.461 35.1465C248.426 35.3075 247.679 35.606 247.219 36.043C246.759 36.4798 246.529 37.0086 246.529 37.6294C246.529 38.2733 246.77 38.8033 247.252 39.2173C247.758 39.6313 248.427 39.8384 249.255 39.8384C250.336 39.8383 251.279 39.5962 252.083 39.1133C252.691 38.7489 253.212 38.2927 253.649 37.7451C253.761 37.6057 253.816 37.5359 253.885 37.4009C253.936 37.3008 253.996 37.1301 254.019 37.02C254.049 36.8711 254.049 36.7439 254.049 36.4897V34.6411C254.049 34.5436 254.049 34.4941 254.029 34.4595C254.011 34.4293 253.984 34.4056 253.951 34.3936C253.914 34.3798 253.865 34.3887 253.768 34.4053Z" fill="#2845C1"/>
    <path d="M361.994 20.6211C362.161 20.6211 362.246 20.6208 362.31 20.6533C362.367 20.6821 362.413 20.7287 362.442 20.7852C362.474 20.8493 362.474 20.9339 362.474 21.1016V24.4883C362.474 24.656 362.474 24.7406 362.506 24.8047C362.535 24.8611 362.582 24.9078 362.638 24.9365C362.702 24.969 362.787 24.9688 362.955 24.9688H367.617C367.785 24.9688 367.869 24.9685 367.934 25.001C367.99 25.0297 368.037 25.0764 368.065 25.1328C368.098 25.1969 368.098 25.2815 368.098 25.4492V27.8691C368.098 28.0368 368.098 28.1214 368.065 28.1855C368.037 28.242 367.99 28.2886 367.934 28.3174C367.869 28.3499 367.785 28.3496 367.617 28.3496H362.955C362.787 28.3496 362.702 28.3493 362.638 28.3818C362.582 28.4106 362.535 28.4572 362.506 28.5137C362.474 28.5778 362.474 28.6624 362.474 28.8301V36.2158C362.474 36.9746 362.59 37.584 362.82 38.0439C363.073 38.4808 363.429 38.7916 363.889 38.9756C364.349 39.1595 364.901 39.2509 365.544 39.251C366.142 39.251 366.649 39.2174 367.063 39.1484C367.219 39.1139 367.366 39.0792 367.506 39.0444C367.729 38.9887 367.842 38.9611 367.922 38.9858C367.994 39.0082 368.05 39.0519 368.089 39.1162C368.132 39.1879 368.133 39.2999 368.133 39.522V41.8643C368.133 41.9792 368.133 42.0375 368.112 42.0898C368.095 42.1337 368.063 42.1794 368.027 42.21C367.985 42.2461 367.935 42.2631 367.835 42.2979C367.484 42.4209 367.111 42.5094 366.718 42.563C366.212 42.655 365.613 42.7021 364.923 42.7021C363.544 42.7021 362.383 42.4598 361.44 41.9771C360.52 41.4941 359.818 40.7692 359.335 39.8032C358.875 38.8373 358.645 37.6416 358.645 36.2158V28.8301C358.645 28.6624 358.645 28.5778 358.613 28.5137C358.584 28.4572 358.537 28.4106 358.481 28.3818C358.417 28.3493 358.332 28.3496 358.165 28.3496H355.882C355.715 28.3496 355.63 28.3499 355.566 28.3174C355.509 28.2886 355.463 28.242 355.434 28.1855C355.402 28.1214 355.402 28.0368 355.402 27.8691V25.4492C355.402 25.2815 355.402 25.1969 355.434 25.1328C355.463 25.0764 355.509 25.0297 355.566 25.001C355.63 24.9685 355.715 24.9688 355.882 24.9688H358.165C358.332 24.9688 358.417 24.969 358.481 24.9365C358.537 24.9078 358.584 24.8611 358.613 24.8047C358.645 24.7406 358.645 24.656 358.645 24.4883V21.1016C358.645 20.9339 358.645 20.8493 358.677 20.7852C358.706 20.7287 358.753 20.6821 358.809 20.6533C358.873 20.6208 358.958 20.6211 359.125 20.6211H361.994Z" fill="#2845C1"/>
    <path d="M230.581 18.207C230.749 18.207 230.833 18.2068 230.897 18.2393C230.954 18.268 231.001 18.3146 231.029 18.3711C231.062 18.4352 231.062 18.5198 231.062 18.6875V21.5557C231.062 21.7233 231.062 21.8079 231.029 21.8721C231.001 21.9285 230.954 21.9751 230.897 22.0039C230.833 22.0364 230.749 22.0361 230.581 22.0361H223.849C223.681 22.0361 223.596 22.0359 223.532 22.0684C223.476 22.0971 223.429 22.1437 223.4 22.2002C223.368 22.2643 223.368 22.3489 223.368 22.5166V41.876C223.368 42.0436 223.368 42.1283 223.336 42.1924C223.307 42.2488 223.261 42.2955 223.204 42.3242C223.14 42.3567 223.055 42.3564 222.888 42.3564H219.64C219.472 42.3564 219.388 42.3567 219.324 42.3242C219.267 42.2955 219.221 42.2488 219.192 42.1924C219.159 42.1283 219.16 42.0436 219.16 41.876V22.5166C219.16 22.3489 219.16 22.2643 219.127 22.2002C219.099 22.1437 219.052 22.0971 218.996 22.0684C218.931 22.0359 218.847 22.0361 218.679 22.0361H211.98C211.813 22.0361 211.728 22.0364 211.664 22.0039C211.608 21.9751 211.561 21.9285 211.532 21.8721C211.5 21.8079 211.5 21.7233 211.5 21.5557V18.6875C211.5 18.5198 211.5 18.4352 211.532 18.3711C211.561 18.3146 211.608 18.268 211.664 18.2393C211.728 18.2068 211.813 18.207 211.98 18.207H230.581Z" fill="#2845C1"/>
    <path d="M240.22 24.623C240.519 24.6231 240.795 24.6459 241.047 24.6919C241.172 24.7146 241.291 24.7397 241.405 24.7681C241.514 24.7953 241.569 24.8095 241.617 24.8457C241.657 24.8758 241.694 24.9239 241.714 24.9702C241.737 25.0258 241.737 25.0874 241.737 25.2104V27.9409C241.737 28.1516 241.737 28.2579 241.696 28.3276C241.66 28.3907 241.608 28.4346 241.54 28.4595C241.464 28.4868 241.354 28.4667 241.137 28.4272C241.05 28.4116 240.963 28.3969 240.875 28.3833C240.599 28.3373 240.265 28.3145 239.874 28.3145C239.161 28.3145 238.517 28.4302 237.942 28.6602C237.367 28.8901 236.872 29.2009 236.458 29.5918C236.214 29.822 235.995 30.0642 235.799 30.3184C235.697 30.451 235.645 30.5181 235.579 30.6509C235.531 30.7479 235.474 30.917 235.453 31.0229C235.424 31.168 235.424 31.2898 235.424 31.5327V41.876C235.424 42.0436 235.424 42.1283 235.392 42.1924C235.363 42.2488 235.316 42.2955 235.26 42.3242C235.196 42.3567 235.111 42.3564 234.943 42.3564H232.144C231.976 42.3564 231.892 42.3567 231.828 42.3242C231.771 42.2955 231.725 42.2488 231.696 42.1924C231.663 42.1283 231.664 42.0436 231.664 41.876V25.4492C231.664 25.2815 231.663 25.1969 231.696 25.1328C231.725 25.0764 231.771 25.0297 231.828 25.001C231.892 24.9685 231.976 24.9688 232.144 24.9688H234.943C235.111 24.9688 235.196 24.9685 235.26 25.001C235.316 25.0297 235.363 25.0764 235.392 25.1328C235.424 25.1969 235.424 25.2815 235.424 25.4492V26.2622C235.424 26.4554 235.424 26.5526 235.459 26.5947C235.49 26.6319 235.535 26.6506 235.583 26.6475C235.638 26.6437 235.711 26.5749 235.853 26.4365C235.995 26.2988 236.139 26.1657 236.287 26.0381C236.816 25.6012 237.402 25.2554 238.046 25.0024C238.69 24.7495 239.415 24.623 240.22 24.623Z" fill="#2845C1"/>
    <path d="M271.349 24.2788C272.637 24.2788 273.788 24.5666 274.8 25.1416C275.835 25.7165 276.64 26.5669 277.214 27.6934C277.812 28.8203 278.112 30.2352 278.112 31.937V41.876C278.112 42.0436 278.113 42.1283 278.08 42.1924C278.051 42.2488 278.005 42.2955 277.948 42.3242C277.884 42.3567 277.8 42.3564 277.632 42.3564H274.797C274.63 42.3564 274.545 42.3567 274.481 42.3242C274.425 42.2955 274.378 42.2488 274.349 42.1924C274.317 42.1283 274.317 42.0436 274.317 41.876V32.0762C274.317 30.7422 273.971 29.7067 273.281 28.9707C272.591 28.2118 271.649 27.8325 270.453 27.8325C269.694 27.8325 269.027 27.9818 268.452 28.2808C267.877 28.5567 267.382 28.9132 266.968 29.3501C266.733 29.6126 266.515 29.8839 266.313 30.1631C266.194 30.3277 266.135 30.4104 266.076 30.5381C266.029 30.6386 265.981 30.785 265.96 30.894C265.934 31.0326 265.934 31.1593 265.934 31.4126V41.876C265.934 42.0436 265.934 42.1283 265.901 42.1924C265.873 42.2488 265.826 42.2955 265.77 42.3242C265.705 42.3567 265.621 42.3564 265.453 42.3564H262.654C262.486 42.3564 262.402 42.3567 262.337 42.3242C262.281 42.2955 262.234 42.2488 262.206 42.1924C262.173 42.1283 262.173 42.0436 262.173 41.876V25.4492C262.173 25.2815 262.173 25.1969 262.206 25.1328C262.234 25.0764 262.281 25.0297 262.337 25.001C262.402 24.9685 262.486 24.9688 262.654 24.9688H265.453C265.621 24.9688 265.705 24.9685 265.77 25.001C265.826 25.0297 265.873 25.0764 265.901 25.1328C265.934 25.1969 265.934 25.2815 265.934 25.4492V25.9839C265.934 26.1749 265.933 26.2716 265.967 26.3135C265.998 26.3509 266.042 26.3697 266.09 26.3677C266.144 26.365 266.219 26.2993 266.366 26.167C266.906 25.6812 267.52 25.2696 268.21 24.9336C269.107 24.4967 270.153 24.2789 271.349 24.2788Z" fill="#2845C1"/>
    <path d="M323.518 24.623C323.817 24.6231 324.093 24.6459 324.346 24.6919C324.47 24.7146 324.59 24.7397 324.703 24.7681C324.812 24.7953 324.867 24.8095 324.916 24.8457C324.956 24.8758 324.993 24.9239 325.012 24.9702C325.035 25.0258 325.036 25.0874 325.036 25.2104V27.9409C325.036 28.1516 325.035 28.2579 324.995 28.3276C324.958 28.3907 324.907 28.4346 324.838 28.4595C324.762 28.4868 324.653 28.4667 324.435 28.4272C324.349 28.4116 324.261 28.3969 324.173 28.3833C323.897 28.3374 323.563 28.3145 323.172 28.3145C322.46 28.3145 321.815 28.4302 321.24 28.6602C320.666 28.8901 320.172 29.201 319.758 29.5918C319.514 29.8223 319.294 30.0654 319.097 30.3198C318.995 30.4517 318.943 30.5181 318.877 30.6509C318.829 30.748 318.773 30.9171 318.751 31.0229C318.722 31.1682 318.722 31.2899 318.722 31.5327V41.876C318.722 42.0436 318.722 42.1283 318.69 42.1924C318.661 42.2488 318.615 42.2955 318.558 42.3242C318.494 42.3567 318.409 42.3564 318.242 42.3564H315.442C315.275 42.3564 315.19 42.3567 315.126 42.3242C315.07 42.2955 315.023 42.2488 314.994 42.1924C314.962 42.1283 314.962 42.0436 314.962 41.876V25.4492C314.962 25.2815 314.962 25.1969 314.994 25.1328C315.023 25.0764 315.07 25.0297 315.126 25.001C315.19 24.9685 315.275 24.9688 315.442 24.9688H318.242C318.409 24.9688 318.494 24.9685 318.558 25.001C318.615 25.0297 318.661 25.0764 318.69 25.1328C318.722 25.1969 318.722 25.2815 318.722 25.4492V26.2622C318.722 26.4554 318.722 26.5526 318.757 26.5947C318.789 26.6319 318.833 26.6506 318.882 26.6475C318.937 26.6437 319.009 26.5749 319.151 26.4365C319.293 26.2988 319.437 26.1657 319.585 26.0381C320.114 25.6011 320.7 25.2554 321.344 25.0024C321.988 24.7495 322.713 24.623 323.518 24.623Z" fill="#2845C1"/>
    <path d="M331.088 24.9688C331.256 24.9688 331.341 24.9685 331.405 25.001C331.461 25.0297 331.508 25.0764 331.537 25.1328C331.569 25.1969 331.569 25.2815 331.569 25.4492V41.876C331.569 42.0436 331.569 42.1283 331.537 42.1924C331.508 42.2488 331.461 42.2955 331.405 42.3242C331.341 42.3567 331.256 42.3564 331.088 42.3564H328.288C328.12 42.3564 328.035 42.3567 327.971 42.3242C327.915 42.2955 327.868 42.2488 327.839 42.1924C327.807 42.1283 327.807 42.0436 327.807 41.876V25.4492C327.807 25.2815 327.807 25.1969 327.839 25.1328C327.868 25.0764 327.915 25.0297 327.971 25.001C328.035 24.9685 328.12 24.9688 328.288 24.9688H331.088Z" fill="#2845C1"/>
    <path d="M329.706 16.2749C330.165 16.275 330.58 16.3892 330.948 16.6191C331.339 16.8261 331.649 17.1262 331.879 17.5171C332.109 17.9079 332.224 18.3333 332.224 18.793C332.224 19.2527 332.109 19.6781 331.879 20.0688C331.649 20.4368 331.339 20.7368 330.948 20.9668C330.58 21.1967 330.165 21.311 329.706 21.311C329.269 21.311 328.854 21.1967 328.463 20.9668C328.072 20.7368 327.762 20.4368 327.532 20.0688C327.302 19.678 327.186 19.2528 327.186 18.793C327.186 18.103 327.428 17.5167 327.911 17.0337C328.417 16.5277 329.016 16.2749 329.706 16.2749Z" fill="#2845C1"/>
    <defs>
        <linearGradient id="paint0_linear_4910_1235" x1="30" y1="40.5" x2="30" y2="54" gradientUnits="userSpaceOnUse">
            <stop stop-color="#2845C1"/>
            <stop offset="1" stop-color="#EEF1F4"/>
        </linearGradient>
    </defs>
</svg>
