<svg width="24" height="24" viewBox="0 0 24 24" fill="none" xmlns="http://www.w3.org/2000/svg">
    <path d="M16.2229 21.6234C17.0987 21.3778 17.9375 20.9297 18.4879 20.1377C19.0312 19.3622 19.1841 18.3785 19.1841 17.4319V3.56325C19.1841 3.31769 19.1708 3.07168 19.1412 2.82861C19.5762 2.99971 19.9115 3.28244 20.147 3.67679C20.4249 4.12518 20.5638 4.71567 20.5638 5.44826V19.5348C20.5638 20.5263 20.3207 21.2684 19.8344 21.761C19.3481 22.2536 18.6155 22.4999 17.6366 22.4999H12.3157C12.4417 22.4778 12.568 22.4551 12.6947 22.4317C13.805 22.2333 14.9785 21.964 16.2139 21.6259L16.2229 21.6234Z"
          fill="#EDF0FF"/>
    <path fill-rule="evenodd" clip-rule="evenodd"
          d="M3.43652 19.2412V5.13578C3.43652 4.27688 3.66704 3.62639 4.12806 3.18431C4.5954 2.74224 5.21431 2.49909 5.98479 2.45488C7.12157 2.38542 8.19834 2.29068 9.21512 2.17069C10.2319 2.04438 11.2045 1.89913 12.1328 1.73493C13.0675 1.57073 13.9769 1.38758 14.8611 1.18549C15.7705 0.970763 16.4684 1.07812 16.9547 1.50757C17.4409 1.93702 17.6841 2.62224 17.6841 3.56324V17.4319C17.6841 18.2592 17.542 18.875 17.2578 19.2791C16.9736 19.6896 16.4936 19.9896 15.8179 20.1791C14.618 20.5075 13.4875 20.7664 12.4265 20.9559C11.3655 21.1517 10.3298 21.3001 9.31933 21.4011C8.30886 21.5022 7.27314 21.5811 6.21215 21.6379C5.3343 21.6885 4.65224 21.5053 4.16595 21.0885C3.67967 20.678 3.43652 20.0623 3.43652 19.2412ZM6.90649 7.69682C8.29761 7.60828 9.57237 7.47229 10.7307 7.28874C11.0117 7.24292 11.2923 7.1952 11.5718 7.14569C11.8644 7.09388 12.0759 6.83894 12.0759 6.54253C12.0759 6.15865 11.7285 5.86957 11.3512 5.93392C11.1345 5.97088 10.9167 6.00681 10.6976 6.04171C9.55097 6.22442 8.28389 6.35998 6.89642 6.44828C6.68864 6.46168 6.52332 6.52641 6.41706 6.65543C6.31657 6.77746 6.26733 6.92422 6.26733 7.09151C6.26733 7.26159 6.32472 7.40963 6.43926 7.53133L6.44087 7.53294C6.56502 7.65709 6.72277 7.71083 6.90649 7.69682ZM6.90601 10.842C8.29731 10.7535 9.57224 10.6175 10.7307 10.4339C11.8941 10.2442 13.0452 10.0228 14.1834 9.76992C14.4144 9.71859 14.5874 9.63775 14.6739 9.51222C14.759 9.39155 14.801 9.25322 14.801 9.0999C14.801 8.92697 14.7352 8.778 14.607 8.65697C14.469 8.52665 14.2761 8.49629 14.0478 8.54329L14.0463 8.54362C12.9617 8.78955 11.8455 9.00397 10.6976 9.18687C9.55097 9.36959 8.28389 9.50515 6.89642 9.59344C6.68864 9.60684 6.52332 9.67157 6.41706 9.80059C6.31707 9.92202 6.26733 10.0654 6.26733 10.2272C6.26733 10.4027 6.32406 10.5542 6.43919 10.6766L6.4425 10.6797C6.56625 10.7961 6.72237 10.8491 6.90413 10.8421L6.90601 10.842ZM6.90635 13.9871C8.29753 13.8922 9.57232 13.7531 10.7306 13.5695C11.8942 13.3861 13.0451 13.1679 14.1834 12.915C14.4149 12.8635 14.5881 12.7793 14.6745 12.647C14.7587 12.5272 14.801 12.3924 14.801 12.245C14.801 12.072 14.7352 11.9231 14.607 11.802C14.469 11.6717 14.2761 11.6414 14.0478 11.6884L14.0467 11.6886C12.962 11.9283 11.8456 12.1396 10.6976 12.3225C9.55085 12.5052 8.28375 12.6439 6.89621 12.7385C6.68853 12.752 6.52328 12.8167 6.41706 12.9457C6.31707 13.0671 6.26733 13.2105 6.26733 13.3723C6.26733 13.5478 6.32406 13.6993 6.43919 13.8216L6.4425 13.8248C6.56625 13.9412 6.72237 13.9942 6.90413 13.9872L6.90635 13.9871ZM10.7307 16.6928C9.57237 16.8763 8.29762 17.0123 6.90651 17.1009C6.72278 17.1149 6.56503 17.0611 6.44087 16.937L6.43929 16.9354C6.32475 16.8136 6.26733 16.6656 6.26733 16.4956C6.26733 16.3283 6.31657 16.1815 6.41706 16.0595C6.52332 15.9305 6.68871 15.8657 6.89649 15.8523C8.28396 15.764 9.55097 15.6285 10.6976 15.4458C10.9167 15.4109 11.1345 15.3749 11.3512 15.338C11.7285 15.2736 12.0759 15.5627 12.0759 15.9466C12.0759 16.243 11.8644 16.4979 11.5718 16.5497C11.2923 16.5992 11.0117 16.647 10.7307 16.6928Z"
          fill="#EDF0FF"/>
</svg>
