<svg width="32" height="40" viewBox="0 0 32 40" fill="none" xmlns="http://www.w3.org/2000/svg">
    <g filter="url(#filter0_d_4997_1332)">
        <rect x="4.35" y="2.35" width="23.3" height="31.3" rx="3.20556" fill="white"/>
        <rect x="4.35" y="2.35" width="23.3" height="31.3" rx="3.20556" stroke="#CFD5DE" stroke-width="0.7"/>
        <rect x="4.35" y="2.35" width="23.3" height="31.3" rx="3.20556" stroke="#F6F8F9" stroke-opacity="0.8"
              stroke-width="0.7"/>
        <path fill-rule="evenodd" clip-rule="evenodd"
              d="M7.5564 7.7778C7.5564 7.28689 7.95437 6.88892 8.44529 6.88892H23.5C23.9909 6.88892 24.3889 7.28689 24.3889 7.7778C24.3889 8.26872 23.9909 8.66669 23.5 8.66669H8.44529C7.95437 8.66669 7.5564 8.26872 7.5564 7.7778ZM7.5564 10.4445C7.5564 9.95355 7.95437 9.55558 8.44529 9.55558H23.5C23.9909 9.55558 24.3889 9.95355 24.3889 10.4445C24.3889 10.9354 23.9909 11.3334 23.5 11.3334H8.44529C7.95437 11.3334 7.5564 10.9354 7.5564 10.4445ZM7.5564 13.1111C7.5564 12.6202 7.95437 12.2222 8.44529 12.2222H23.5C23.9909 12.2222 24.3889 12.6202 24.3889 13.1111C24.3889 13.6021 23.9909 14 23.5 14H8.44529C7.95437 14 7.5564 13.6021 7.5564 13.1111ZM7.5564 15.7778C7.5564 15.2869 7.95437 14.8889 8.44529 14.8889H15.5C15.9909 14.8889 16.3889 15.2869 16.3889 15.7778C16.3889 16.2687 15.9909 16.6667 15.5 16.6667H8.44529C7.95437 16.6667 7.5564 16.2687 7.5564 15.7778Z"
              fill="#6A6AF4"/>
        <path fill-rule="evenodd" clip-rule="evenodd"
              d="M7.5564 7.7778C7.5564 7.28689 7.95437 6.88892 8.44529 6.88892H23.5C23.9909 6.88892 24.3889 7.28689 24.3889 7.7778C24.3889 8.26872 23.9909 8.66669 23.5 8.66669H8.44529C7.95437 8.66669 7.5564 8.26872 7.5564 7.7778ZM7.5564 10.4445C7.5564 9.95355 7.95437 9.55558 8.44529 9.55558H23.5C23.9909 9.55558 24.3889 9.95355 24.3889 10.4445C24.3889 10.9354 23.9909 11.3334 23.5 11.3334H8.44529C7.95437 11.3334 7.5564 10.9354 7.5564 10.4445ZM7.5564 13.1111C7.5564 12.6202 7.95437 12.2222 8.44529 12.2222H23.5C23.9909 12.2222 24.3889 12.6202 24.3889 13.1111C24.3889 13.6021 23.9909 14 23.5 14H8.44529C7.95437 14 7.5564 13.6021 7.5564 13.1111ZM7.5564 15.7778C7.5564 15.2869 7.95437 14.8889 8.44529 14.8889H15.5C15.9909 14.8889 16.3889 15.2869 16.3889 15.7778C16.3889 16.2687 15.9909 16.6667 15.5 16.6667H8.44529C7.95437 16.6667 7.5564 16.2687 7.5564 15.7778Z"
              fill="white" fill-opacity="0.65"/>
        <path fill-rule="evenodd" clip-rule="evenodd"
              d="M7.5564 7.7778C7.5564 7.28689 7.95437 6.88892 8.44529 6.88892H23.5C23.9909 6.88892 24.3889 7.28689 24.3889 7.7778C24.3889 8.26872 23.9909 8.66669 23.5 8.66669H8.44529C7.95437 8.66669 7.5564 8.26872 7.5564 7.7778ZM7.5564 10.4445C7.5564 9.95355 7.95437 9.55558 8.44529 9.55558H23.5C23.9909 9.55558 24.3889 9.95355 24.3889 10.4445C24.3889 10.9354 23.9909 11.3334 23.5 11.3334H8.44529C7.95437 11.3334 7.5564 10.9354 7.5564 10.4445ZM7.5564 13.1111C7.5564 12.6202 7.95437 12.2222 8.44529 12.2222H23.5C23.9909 12.2222 24.3889 12.6202 24.3889 13.1111C24.3889 13.6021 23.9909 14 23.5 14H8.44529C7.95437 14 7.5564 13.6021 7.5564 13.1111ZM7.5564 15.7778C7.5564 15.2869 7.95437 14.8889 8.44529 14.8889H15.5C15.9909 14.8889 16.3889 15.2869 16.3889 15.7778C16.3889 16.2687 15.9909 16.6667 15.5 16.6667H8.44529C7.95437 16.6667 7.5564 16.2687 7.5564 15.7778Z"
              fill="#CFD5DE"/>
        <path fill-rule="evenodd" clip-rule="evenodd"
              d="M7.5564 7.7778C7.5564 7.28689 7.95437 6.88892 8.44529 6.88892H23.5C23.9909 6.88892 24.3889 7.28689 24.3889 7.7778C24.3889 8.26872 23.9909 8.66669 23.5 8.66669H8.44529C7.95437 8.66669 7.5564 8.26872 7.5564 7.7778ZM7.5564 10.4445C7.5564 9.95355 7.95437 9.55558 8.44529 9.55558H23.5C23.9909 9.55558 24.3889 9.95355 24.3889 10.4445C24.3889 10.9354 23.9909 11.3334 23.5 11.3334H8.44529C7.95437 11.3334 7.5564 10.9354 7.5564 10.4445ZM7.5564 13.1111C7.5564 12.6202 7.95437 12.2222 8.44529 12.2222H23.5C23.9909 12.2222 24.3889 12.6202 24.3889 13.1111C24.3889 13.6021 23.9909 14 23.5 14H8.44529C7.95437 14 7.5564 13.6021 7.5564 13.1111ZM7.5564 15.7778C7.5564 15.2869 7.95437 14.8889 8.44529 14.8889H15.5C15.9909 14.8889 16.3889 15.2869 16.3889 15.7778C16.3889 16.2687 15.9909 16.6667 15.5 16.6667H8.44529C7.95437 16.6667 7.5564 16.2687 7.5564 15.7778Z"
              fill="#F6F8F9" fill-opacity="0.8"/>
    </g>
    <defs>
        <filter id="filter0_d_4997_1332" x="-4" y="0" width="40" height="40" filterUnits="userSpaceOnUse"
                color-interpolation-filters="sRGB">
            <feFlood flood-opacity="0" result="BackgroundImageFix"/>
            <feColorMatrix in="SourceAlpha" type="matrix" values="0 0 0 0 0 0 0 0 0 0 0 0 0 0 0 0 0 0 127 0"
                           result="hardAlpha"/>
            <feOffset dy="2"/>
            <feGaussianBlur stdDeviation="2"/>
            <feComposite in2="hardAlpha" operator="out"/>
            <feColorMatrix type="matrix" values="0 0 0 0 0.0941176 0 0 0 0 0.105882 0 0 0 0 0.141176 0 0 0 0.05 0"/>
            <feBlend mode="normal" in2="BackgroundImageFix" result="effect1_dropShadow_4997_1332"/>
            <feBlend mode="normal" in="SourceGraphic" in2="effect1_dropShadow_4997_1332" result="shape"/>
        </filter>
    </defs>
</svg>
