<svg width="24" height="24" viewBox="0 0 24 24" fill="none" xmlns="http://www.w3.org/2000/svg">
    <path d="M9.31567 3.5C10.0568 3.5 10.6573 4.10071 10.6575 4.8418V19.1582C10.6573 19.8993 10.0568 20.5 9.31567 20.5H6.63208C5.89096 20.5 5.28947 19.8993 5.28931 19.1582V4.8418C5.28947 4.10071 5.89096 3.5 6.63208 3.5H9.31567Z" fill="#555E74"/>
    <path d="M17.3684 3.5C18.1095 3.5 18.71 4.10071 18.7102 4.8418V19.1582C18.71 19.8993 18.1095 20.5 17.3684 20.5H14.6838C13.9429 20.4998 13.3422 19.8992 13.342 19.1582V4.8418C13.3422 4.10085 13.9429 3.50022 14.6838 3.5H17.3684Z" fill="#555E74"/>
</svg>
