<svg width="32" height="32" viewBox="0 0 32 32" fill="none" xmlns="http://www.w3.org/2000/svg">
    <circle opacity="0.2" cx="16" cy="16" r="10" stroke="#555E74" stroke-width="2.22222"/>
    <path d="M14.4342 11.0416C14.8665 11.0416 15.2168 11.392 15.2169 11.8243V20.1756C15.2168 20.6079 14.8665 20.9583 14.4342 20.9583H12.8687C12.4364 20.9583 12.0855 20.6079 12.0854 20.1756V11.8243C12.0855 11.392 12.4364 11.0416 12.8687 11.0416H14.4342Z"
          fill="#555E74"/>
    <path d="M19.1316 11.0416C19.5639 11.0416 19.9142 11.392 19.9143 11.8243V20.1756C19.9142 20.6079 19.5639 20.9583 19.1316 20.9583H17.5656C17.1334 20.9582 16.783 20.6078 16.7829 20.1756V11.8243C16.783 11.3921 17.1334 11.0418 17.5656 11.0416H19.1316Z"
          fill="#555E74"/>
</svg>
