<svg width="25" height="24" viewBox="0 0 25 24" fill="none" xmlns="http://www.w3.org/2000/svg">
    <g clip-path="url(#clip0_4958_2601)">
        <path d="M13.0049 8C13.7405 8 14.4084 8.18099 15.0078 8.54199C15.6138 8.90291 16.0971 9.38623 16.458 9.99219C16.819 10.5983 17 11.2693 17 12.0049C17 12.7405 16.819 13.4114 16.458 14.0176C16.0971 14.6169 15.6139 15.097 15.0078 15.458C14.4084 15.819 13.7405 16 13.0049 16C12.2693 16 11.5983 15.819 10.9922 15.458C10.3861 15.097 9.90293 14.6169 9.54199 14.0176C9.18099 13.4114 9 12.7405 9 12.0049C9.00004 11.2693 9.18102 10.5983 9.54199 9.99219C9.90291 9.38623 10.3862 8.90291 10.9922 8.54199C11.5983 8.18102 12.2693 8.00004 13.0049 8Z"
              fill="#BD0F23"/>
        <path fill-rule="evenodd" clip-rule="evenodd"
              d="M13 1C19.0751 1 24 5.92487 24 12C24 18.0751 19.0751 23 13 23C6.92487 23 2 18.0751 2 12C2 5.92487 6.92487 1 13 1ZM13 3C8.02944 3 4 7.02944 4 12C4 16.9706 8.02944 21 13 21C17.9706 21 22 16.9706 22 12C22 7.02944 17.9706 3 13 3Z"
              fill="#BD0F23"/>
    </g>
    <defs>
        <clipPath id="clip0_4958_2601">
            <rect width="25" height="24" fill="white" transform="matrix(-1 0 0 1 25 0)"/>
        </clipPath>
    </defs>
</svg>
