<svg width="24" height="24" viewBox="0 0 24 24" fill="none" xmlns="http://www.w3.org/2000/svg">
    <path d="M7.63985 3.50001C8.03327 3.5014 8.41928 3.60668 8.75909 3.80494L19.491 10.0651C19.8296 10.2616 20.1115 10.5438 20.307 10.8829C20.5025 11.222 20.6055 11.6064 20.6059 11.9978C20.6062 12.3893 20.5037 12.7741 20.3088 13.1136C20.1383 13.4105 19.9023 13.6638 19.6194 13.8545L19.4954 13.9322L8.75909 20.1951C8.41926 20.3934 8.0333 20.4986 7.63985 20.5C7.24634 20.5013 6.85922 20.3989 6.51799 20.2029C6.17674 20.0069 5.89292 19.724 5.69582 19.3834C5.49882 19.0428 5.39515 18.6559 5.39526 18.2624V5.73761C5.39515 5.34409 5.49877 4.95725 5.69582 4.61663C5.89292 4.27598 6.17674 3.99312 6.51799 3.79708C6.8592 3.60111 7.24637 3.49868 7.63985 3.50001Z"
          fill="#555E74"/>
</svg>
