<svg width="24" height="24" viewBox="0 0 24 24" fill="none" xmlns="http://www.w3.org/2000/svg">
    <path d="M12.7998 8C13.9199 8 14.4804 7.99979 14.9082 8.21777C15.2845 8.40951 15.5905 8.71554 15.7822 9.0918C16.0002 9.51962 16 10.0801 16 11.2002V12.7998C16 13.9199 16.0002 14.4804 15.7822 14.9082C15.5905 15.2845 15.2845 15.5905 14.9082 15.7822C14.4804 16.0002 13.9199 16 12.7998 16H11.2002C10.0801 16 9.51962 16.0002 9.0918 15.7822C8.71554 15.5905 8.40951 15.2845 8.21777 14.9082C7.99979 14.4804 8 13.9199 8 12.7998V11.2002C8 10.0801 7.99979 9.51962 8.21777 9.0918C8.40951 8.71554 8.71554 8.40951 9.0918 8.21777C9.51962 7.99979 10.0801 8 11.2002 8H12.7998Z"
          fill="#FFEDEB"/>
    <path fill-rule="evenodd" clip-rule="evenodd"
          d="M12 1C18.0751 1 23 5.92487 23 12C23 18.0751 18.0751 23 12 23C5.92487 23 1 18.0751 1 12C1 5.92487 5.92487 1 12 1ZM12 3C7.02944 3 3 7.02944 3 12C3 16.9706 7.02944 21 12 21C16.9706 21 21 16.9706 21 12C21 7.02944 16.9706 3 12 3Z"
          fill="#FFEDEB"/>
</svg>
