<svg width="32" height="32" viewBox="0 0 32 32" fill="none" xmlns="http://www.w3.org/2000/svg">
    <circle opacity="0.2" cx="16" cy="16" r="10" stroke="#555E74" stroke-width="2.22222"/>
    <path d="M16.0096 19C16.5619 19 17.0096 19.4478 17.0096 20C17.0096 20.5523 16.5619 21 16.0096 21H15.9999C15.4476 20.9999 14.9999 20.5523 14.9999 20C15 19.4478 15.4477 19.0001 15.9999 19H16.0096ZM15.9999 11C16.5522 11 16.9999 11.4477 16.9999 12V16C16.9998 16.5522 16.5521 17 15.9999 17C15.4477 16.9999 14.9999 16.5522 14.9999 16V12C14.9999 11.4477 15.4476 11.0001 15.9999 11Z"
          fill="#555E74"/>
</svg>
