<svg width="21" height="25" viewBox="0 0 21 25" fill="none" xmlns="http://www.w3.org/2000/svg">
    <path d="M17.1808 13.1268C17.1933 12.1807 17.4507 11.253 17.9291 10.4301C18.4075 9.60722 19.0914 8.91583 19.917 8.42027C19.3925 7.68895 18.7005 7.0871 17.8961 6.66253C17.0917 6.23795 16.197 6.00235 15.283 5.97443C13.3332 5.77462 11.4431 7.11346 10.4495 7.11346C9.43675 7.11346 7.90705 5.99427 6.25979 6.02735C5.19431 6.06096 4.15591 6.36345 3.24577 6.90536C2.33563 7.44726 1.58479 8.2101 1.06641 9.11953C-1.17904 12.9151 0.495868 18.4934 2.64687 21.5615C3.72307 23.0639 4.98082 24.742 6.62659 24.6825C8.23707 24.6173 8.83855 23.6799 10.7825 23.6799C12.7085 23.6799 13.2728 24.6825 14.9519 24.6447C16.6801 24.6173 17.7688 23.1357 18.8073 21.6191C19.5805 20.5486 20.1756 19.3655 20.5703 18.1136C19.5663 17.699 18.7095 17.005 18.1068 16.1183C17.504 15.2315 17.182 14.1911 17.1808 13.1268Z"
          fill="black"/>
    <path d="M14.0093 3.95681C14.9516 2.85249 15.4158 1.43308 15.3034 0C13.8639 0.147611 12.5341 0.819306 11.5792 1.88125C11.1122 2.40004 10.7546 3.00358 10.5268 3.65738C10.2989 4.31118 10.2053 5.00241 10.2512 5.69156C10.9713 5.6988 11.6836 5.54644 12.3345 5.24595C12.9855 4.94546 13.5581 4.50468 14.0093 3.95681Z"
          fill="black"/>
</svg>
