<svg width="24" height="32" viewBox="0 0 24 32" fill="none" xmlns="http://www.w3.org/2000/svg">
    <rect x="0.35" y="0.35" width="23.3" height="31.3" rx="3.20556" fill="white"/>
    <rect x="0.35" y="0.35" width="23.3" height="31.3" rx="3.20556" stroke="#3677CC" stroke-width="0.7"/>
    <rect x="0.35" y="0.35" width="23.3" height="31.3" rx="3.20556" stroke="#F6F8F9" stroke-opacity="0.8"
          stroke-width="0.7"/>
    <path fill-rule="evenodd" clip-rule="evenodd"
          d="M3.5564 5.77756C3.5564 5.28664 3.95437 4.88867 4.44529 4.88867H19.5C19.9909 4.88867 20.3889 5.28664 20.3889 5.77756C20.3889 6.26848 19.9909 6.66645 19.5 6.66645H4.44529C3.95437 6.66645 3.5564 6.26848 3.5564 5.77756ZM3.5564 8.44423C3.5564 7.95331 3.95437 7.55534 4.44529 7.55534H19.5C19.9909 7.55534 20.3889 7.95331 20.3889 8.44423C20.3889 8.93515 19.9909 9.33312 19.5 9.33312H4.44529C3.95437 9.33312 3.5564 8.93515 3.5564 8.44423ZM3.5564 11.1109C3.5564 10.62 3.95437 10.222 4.44529 10.222H19.5C19.9909 10.222 20.3889 10.62 20.3889 11.1109C20.3889 11.6018 19.9909 11.9998 19.5 11.9998H4.44529C3.95437 11.9998 3.5564 11.6018 3.5564 11.1109ZM3.5564 13.7776C3.5564 13.2866 3.95437 12.8887 4.44529 12.8887H11.5C11.9909 12.8887 12.3889 13.2866 12.3889 13.7776C12.3889 14.2685 11.9909 14.6664 11.5 14.6664H4.44529C3.95437 14.6664 3.5564 14.2685 3.5564 13.7776Z"
          fill="#6A6AF4"/>
    <path fill-rule="evenodd" clip-rule="evenodd"
          d="M3.5564 5.77756C3.5564 5.28664 3.95437 4.88867 4.44529 4.88867H19.5C19.9909 4.88867 20.3889 5.28664 20.3889 5.77756C20.3889 6.26848 19.9909 6.66645 19.5 6.66645H4.44529C3.95437 6.66645 3.5564 6.26848 3.5564 5.77756ZM3.5564 8.44423C3.5564 7.95331 3.95437 7.55534 4.44529 7.55534H19.5C19.9909 7.55534 20.3889 7.95331 20.3889 8.44423C20.3889 8.93515 19.9909 9.33312 19.5 9.33312H4.44529C3.95437 9.33312 3.5564 8.93515 3.5564 8.44423ZM3.5564 11.1109C3.5564 10.62 3.95437 10.222 4.44529 10.222H19.5C19.9909 10.222 20.3889 10.62 20.3889 11.1109C20.3889 11.6018 19.9909 11.9998 19.5 11.9998H4.44529C3.95437 11.9998 3.5564 11.6018 3.5564 11.1109ZM3.5564 13.7776C3.5564 13.2866 3.95437 12.8887 4.44529 12.8887H11.5C11.9909 12.8887 12.3889 13.2866 12.3889 13.7776C12.3889 14.2685 11.9909 14.6664 11.5 14.6664H4.44529C3.95437 14.6664 3.5564 14.2685 3.5564 13.7776Z"
          fill="white" fill-opacity="0.65"/>
    <path fill-rule="evenodd" clip-rule="evenodd"
          d="M3.5564 5.77756C3.5564 5.28664 3.95437 4.88867 4.44529 4.88867H19.5C19.9909 4.88867 20.3889 5.28664 20.3889 5.77756C20.3889 6.26848 19.9909 6.66645 19.5 6.66645H4.44529C3.95437 6.66645 3.5564 6.26848 3.5564 5.77756ZM3.5564 8.44423C3.5564 7.95331 3.95437 7.55534 4.44529 7.55534H19.5C19.9909 7.55534 20.3889 7.95331 20.3889 8.44423C20.3889 8.93515 19.9909 9.33312 19.5 9.33312H4.44529C3.95437 9.33312 3.5564 8.93515 3.5564 8.44423ZM3.5564 11.1109C3.5564 10.62 3.95437 10.222 4.44529 10.222H19.5C19.9909 10.222 20.3889 10.62 20.3889 11.1109C20.3889 11.6018 19.9909 11.9998 19.5 11.9998H4.44529C3.95437 11.9998 3.5564 11.6018 3.5564 11.1109ZM3.5564 13.7776C3.5564 13.2866 3.95437 12.8887 4.44529 12.8887H11.5C11.9909 12.8887 12.3889 13.2866 12.3889 13.7776C12.3889 14.2685 11.9909 14.6664 11.5 14.6664H4.44529C3.95437 14.6664 3.5564 14.2685 3.5564 13.7776Z"
          fill="#3677CC"/>
    <path fill-rule="evenodd" clip-rule="evenodd"
          d="M3.5564 5.77756C3.5564 5.28664 3.95437 4.88867 4.44529 4.88867H19.5C19.9909 4.88867 20.3889 5.28664 20.3889 5.77756C20.3889 6.26848 19.9909 6.66645 19.5 6.66645H4.44529C3.95437 6.66645 3.5564 6.26848 3.5564 5.77756ZM3.5564 8.44423C3.5564 7.95331 3.95437 7.55534 4.44529 7.55534H19.5C19.9909 7.55534 20.3889 7.95331 20.3889 8.44423C20.3889 8.93515 19.9909 9.33312 19.5 9.33312H4.44529C3.95437 9.33312 3.5564 8.93515 3.5564 8.44423ZM3.5564 11.1109C3.5564 10.62 3.95437 10.222 4.44529 10.222H19.5C19.9909 10.222 20.3889 10.62 20.3889 11.1109C20.3889 11.6018 19.9909 11.9998 19.5 11.9998H4.44529C3.95437 11.9998 3.5564 11.6018 3.5564 11.1109ZM3.5564 13.7776C3.5564 13.2866 3.95437 12.8887 4.44529 12.8887H11.5C11.9909 12.8887 12.3889 13.2866 12.3889 13.7776C12.3889 14.2685 11.9909 14.6664 11.5 14.6664H4.44529C3.95437 14.6664 3.5564 14.2685 3.5564 13.7776Z"
          fill="#F6F8F9" fill-opacity="0.8"/>
</svg>
