<svg width="32" height="40" viewBox="0 0 32 40" fill="none" xmlns="http://www.w3.org/2000/svg">
    <g filter="url(#filter0_d_4918_1548)">
        <rect x="4.35" y="2.35" width="23.3" height="31.3" rx="3.20556" fill="white"/>
        <rect x="4.35" y="2.35" width="23.3" height="31.3" rx="3.20556" stroke="#3677CC" stroke-width="0.7"/>
        <rect x="4.35" y="2.35" width="23.3" height="31.3" rx="3.20556" stroke="#F6F8F9" stroke-opacity="0.8" stroke-width="0.7"/>
        <path fill-rule="evenodd" clip-rule="evenodd" d="M7.5564 7.77756C7.5564 7.28664 7.95437 6.88867 8.44529 6.88867H23.5C23.9909 6.88867 24.3889 7.28664 24.3889 7.77756C24.3889 8.26848 23.9909 8.66645 23.5 8.66645H8.44529C7.95437 8.66645 7.5564 8.26848 7.5564 7.77756ZM7.5564 10.4442C7.5564 9.95331 7.95437 9.55534 8.44529 9.55534H23.5C23.9909 9.55534 24.3889 9.95331 24.3889 10.4442C24.3889 10.9351 23.9909 11.3331 23.5 11.3331H8.44529C7.95437 11.3331 7.5564 10.9351 7.5564 10.4442ZM7.5564 13.1109C7.5564 12.62 7.95437 12.222 8.44529 12.222H23.5C23.9909 12.222 24.3889 12.62 24.3889 13.1109C24.3889 13.6018 23.9909 13.9998 23.5 13.9998H8.44529C7.95437 13.9998 7.5564 13.6018 7.5564 13.1109ZM7.5564 15.7776C7.5564 15.2866 7.95437 14.8887 8.44529 14.8887H15.5C15.9909 14.8887 16.3889 15.2866 16.3889 15.7776C16.3889 16.2685 15.9909 16.6664 15.5 16.6664H8.44529C7.95437 16.6664 7.5564 16.2685 7.5564 15.7776Z" fill="#6A6AF4"/>
        <path fill-rule="evenodd" clip-rule="evenodd" d="M7.5564 7.77756C7.5564 7.28664 7.95437 6.88867 8.44529 6.88867H23.5C23.9909 6.88867 24.3889 7.28664 24.3889 7.77756C24.3889 8.26848 23.9909 8.66645 23.5 8.66645H8.44529C7.95437 8.66645 7.5564 8.26848 7.5564 7.77756ZM7.5564 10.4442C7.5564 9.95331 7.95437 9.55534 8.44529 9.55534H23.5C23.9909 9.55534 24.3889 9.95331 24.3889 10.4442C24.3889 10.9351 23.9909 11.3331 23.5 11.3331H8.44529C7.95437 11.3331 7.5564 10.9351 7.5564 10.4442ZM7.5564 13.1109C7.5564 12.62 7.95437 12.222 8.44529 12.222H23.5C23.9909 12.222 24.3889 12.62 24.3889 13.1109C24.3889 13.6018 23.9909 13.9998 23.5 13.9998H8.44529C7.95437 13.9998 7.5564 13.6018 7.5564 13.1109ZM7.5564 15.7776C7.5564 15.2866 7.95437 14.8887 8.44529 14.8887H15.5C15.9909 14.8887 16.3889 15.2866 16.3889 15.7776C16.3889 16.2685 15.9909 16.6664 15.5 16.6664H8.44529C7.95437 16.6664 7.5564 16.2685 7.5564 15.7776Z" fill="white" fill-opacity="0.65"/>
        <path fill-rule="evenodd" clip-rule="evenodd" d="M7.5564 7.77756C7.5564 7.28664 7.95437 6.88867 8.44529 6.88867H23.5C23.9909 6.88867 24.3889 7.28664 24.3889 7.77756C24.3889 8.26848 23.9909 8.66645 23.5 8.66645H8.44529C7.95437 8.66645 7.5564 8.26848 7.5564 7.77756ZM7.5564 10.4442C7.5564 9.95331 7.95437 9.55534 8.44529 9.55534H23.5C23.9909 9.55534 24.3889 9.95331 24.3889 10.4442C24.3889 10.9351 23.9909 11.3331 23.5 11.3331H8.44529C7.95437 11.3331 7.5564 10.9351 7.5564 10.4442ZM7.5564 13.1109C7.5564 12.62 7.95437 12.222 8.44529 12.222H23.5C23.9909 12.222 24.3889 12.62 24.3889 13.1109C24.3889 13.6018 23.9909 13.9998 23.5 13.9998H8.44529C7.95437 13.9998 7.5564 13.6018 7.5564 13.1109ZM7.5564 15.7776C7.5564 15.2866 7.95437 14.8887 8.44529 14.8887H15.5C15.9909 14.8887 16.3889 15.2866 16.3889 15.7776C16.3889 16.2685 15.9909 16.6664 15.5 16.6664H8.44529C7.95437 16.6664 7.5564 16.2685 7.5564 15.7776Z" fill="#3677CC"/>
        <path fill-rule="evenodd" clip-rule="evenodd" d="M7.5564 7.77756C7.5564 7.28664 7.95437 6.88867 8.44529 6.88867H23.5C23.9909 6.88867 24.3889 7.28664 24.3889 7.77756C24.3889 8.26848 23.9909 8.66645 23.5 8.66645H8.44529C7.95437 8.66645 7.5564 8.26848 7.5564 7.77756ZM7.5564 10.4442C7.5564 9.95331 7.95437 9.55534 8.44529 9.55534H23.5C23.9909 9.55534 24.3889 9.95331 24.3889 10.4442C24.3889 10.9351 23.9909 11.3331 23.5 11.3331H8.44529C7.95437 11.3331 7.5564 10.9351 7.5564 10.4442ZM7.5564 13.1109C7.5564 12.62 7.95437 12.222 8.44529 12.222H23.5C23.9909 12.222 24.3889 12.62 24.3889 13.1109C24.3889 13.6018 23.9909 13.9998 23.5 13.9998H8.44529C7.95437 13.9998 7.5564 13.6018 7.5564 13.1109ZM7.5564 15.7776C7.5564 15.2866 7.95437 14.8887 8.44529 14.8887H15.5C15.9909 14.8887 16.3889 15.2866 16.3889 15.7776C16.3889 16.2685 15.9909 16.6664 15.5 16.6664H8.44529C7.95437 16.6664 7.5564 16.2685 7.5564 15.7776Z" fill="#F6F8F9" fill-opacity="0.8"/>
    </g>
    <defs>
        <filter id="filter0_d_4918_1548" x="-4" y="0" width="40" height="40" filterUnits="userSpaceOnUse" color-interpolation-filters="sRGB">
            <feFlood flood-opacity="0" result="BackgroundImageFix"/>
            <feColorMatrix in="SourceAlpha" type="matrix" values="0 0 0 0 0 0 0 0 0 0 0 0 0 0 0 0 0 0 127 0" result="hardAlpha"/>
            <feOffset dy="2"/>
            <feGaussianBlur stdDeviation="2"/>
            <feComposite in2="hardAlpha" operator="out"/>
            <feColorMatrix type="matrix" values="0 0 0 0 0.0941176 0 0 0 0 0.105882 0 0 0 0 0.141176 0 0 0 0.05 0"/>
            <feBlend mode="normal" in2="BackgroundImageFix" result="effect1_dropShadow_4918_1548"/>
            <feBlend mode="normal" in="SourceGraphic" in2="effect1_dropShadow_4918_1548" result="shape"/>
        </filter>
    </defs>
</svg>
