<svg width="16" height="16" viewBox="0 0 16 16" fill="none" xmlns="http://www.w3.org/2000/svg">
    <path d="M10.8153 14.4156C11.3991 14.2519 11.9583 13.9531 12.3252 13.4251C12.6874 12.9082 12.7894 12.2523 12.7894 11.6213V2.3755C12.7894 2.21179 12.7805 2.04779 12.7608 1.88574C13.0508 1.99981 13.2743 2.18829 13.4313 2.45119C13.6166 2.75012 13.7092 3.14378 13.7092 3.63217V13.0232C13.7092 13.6842 13.5471 14.1789 13.2229 14.5073C12.8987 14.8357 12.4103 14.9999 11.7577 14.9999H8.21045C8.29447 14.9852 8.37869 14.9701 8.4631 14.9545C9.20335 14.8222 9.98565 14.6427 10.8093 14.4173L10.8153 14.4156Z"
          fill="#EDF0FF"/>
    <path fill-rule="evenodd" clip-rule="evenodd"
          d="M2.29102 12.8275V3.42385C2.29102 2.85125 2.44469 2.4176 2.75204 2.12288C3.0636 1.82816 3.47621 1.66606 3.98986 1.63659C4.74771 1.59028 5.46556 1.52712 6.14342 1.44713C6.82127 1.36292 7.46965 1.26609 8.08856 1.15662C8.71168 1.04715 9.31796 0.925053 9.9074 0.790325C10.5137 0.647175 10.9789 0.71875 11.3031 1.00505C11.6273 1.29135 11.7894 1.74816 11.7894 2.37549V11.6213C11.7894 12.1728 11.6947 12.5833 11.5052 12.8528C11.3157 13.1264 10.9958 13.3264 10.5453 13.4527C9.74531 13.6717 8.99167 13.8443 8.28434 13.9706C7.57701 14.1011 6.88653 14.2 6.21289 14.2674C5.53924 14.3348 4.84876 14.3874 4.14143 14.4253C3.5562 14.459 3.10149 14.3369 2.7773 14.059C2.45311 13.7853 2.29102 13.3748 2.29102 12.8275ZM4.60433 5.13121C5.53174 5.07219 6.38158 4.98153 7.15377 4.85916C7.34112 4.82861 7.5282 4.7968 7.71456 4.76379C7.90958 4.72925 8.05063 4.55929 8.05063 4.36168C8.05063 4.10577 7.81901 3.91305 7.56749 3.95595C7.42301 3.98059 7.27777 4.00454 7.13176 4.02781C6.36731 4.14962 5.5226 4.23999 4.59761 4.29885C4.45909 4.30779 4.34888 4.35094 4.27804 4.43696C4.21105 4.51831 4.17822 4.61614 4.17822 4.72767C4.17822 4.84106 4.21648 4.93975 4.29284 5.02089L4.29391 5.02196C4.37668 5.10473 4.48185 5.14055 4.60433 5.13121ZM4.60401 7.22801C5.53154 7.16898 6.38149 7.07831 7.15377 6.95593C7.92939 6.82947 8.69681 6.6819 9.4556 6.51328C9.60957 6.47906 9.72491 6.42517 9.7826 6.34148C9.83931 6.26103 9.86736 6.16882 9.86736 6.0666C9.86736 5.95131 9.82344 5.852 9.73802 5.77131C9.64603 5.68443 9.5174 5.66419 9.3652 5.69553L9.36423 5.69575C8.64116 5.8597 7.89701 6.00265 7.13176 6.12458C6.36731 6.24639 5.5226 6.33676 4.59761 6.39563C4.45909 6.40456 4.34888 6.44771 4.27804 6.53373C4.21138 6.61468 4.17822 6.71026 4.17822 6.81813C4.17822 6.93513 4.21604 7.03616 4.29279 7.11771L4.295 7.11979C4.3775 7.19743 4.48158 7.23275 4.60275 7.22809L4.60401 7.22801ZM4.60423 9.32471C5.53169 9.26147 6.38155 9.1687 7.15373 9.04634C7.92943 8.92408 8.69672 8.77863 9.4556 8.60999C9.60994 8.5757 9.72538 8.51956 9.78299 8.43134C9.83915 8.35144 9.86736 8.26163 9.86736 8.16331C9.86736 8.04803 9.82344 7.94871 9.73802 7.86803C9.64603 7.78115 9.5174 7.76092 9.3652 7.79226L9.3645 7.79241C8.64134 7.95217 7.8971 8.09304 7.13176 8.21498C6.36724 8.3368 5.5225 8.42928 4.59747 8.49235C4.45902 8.50131 4.34885 8.54446 4.27804 8.63045C4.21138 8.71139 4.17822 8.80697 4.17822 8.91485C4.17822 9.03185 4.21604 9.13288 4.29279 9.21443L4.295 9.21651C4.3775 9.29415 4.48158 9.32947 4.60275 9.32481L4.60423 9.32471ZM7.15377 11.1285C6.38158 11.2509 5.53174 11.3416 4.60434 11.4006C4.48185 11.4099 4.37668 11.3741 4.29391 11.2913L4.29286 11.2902C4.2165 11.2091 4.17822 11.1104 4.17822 10.997C4.17822 10.8855 4.21105 10.7877 4.27804 10.7063C4.34888 10.6203 4.45914 10.5771 4.59766 10.5682C5.52264 10.5093 6.36731 10.419 7.13176 10.2972C7.27777 10.2739 7.42301 10.25 7.56749 10.2253C7.81901 10.1824 8.05063 10.3751 8.05063 10.631C8.05063 10.8287 7.90958 10.9986 7.71456 11.0332C7.5282 11.0662 7.34112 11.098 7.15377 11.1285Z"
          fill="#EDF0FF"/>
</svg>
