<svg width="19" height="22" viewBox="0 0 19 22" fill="none" xmlns="http://www.w3.org/2000/svg">
    <path d="M8.64347 10.1047L0.0787354 19.4003C0.0795398 19.4019 0.0795397 19.4044 0.0803441 19.406C0.343392 20.4154 1.24435 21.1582 2.31424 21.1582C2.74219 21.1582 3.1436 21.0397 3.4879 20.8324L3.51525 20.816L13.1555 15.1276L8.64347 10.1047Z"
          fill="#EA4335"/>
    <path d="M17.3082 8.52166L17.3002 8.5159L13.1381 6.04887L8.4491 10.3158L13.155 15.1265L17.2946 12.6841C18.0202 12.2827 18.5133 11.5004 18.5133 10.5988C18.5133 9.70212 18.0274 8.92392 17.3082 8.52166Z"
          fill="#FBBC04"/>
    <path d="M0.0788338 1.7577C0.0273505 1.95183 0 2.15584 0 2.36643V18.7925C0 19.0031 0.0273505 19.2071 0.0796382 19.4004L8.93798 10.3425L0.0788338 1.7577Z"
          fill="#4285F4"/>
    <path d="M8.70701 10.5791L13.1394 6.0473L3.51042 0.338326C3.16049 0.123623 2.75184 0.000230789 2.31504 0.000230789C1.24515 0.000230789 0.342587 0.744699 0.0795393 1.75488C0.0795393 1.7557 0.0787354 1.75652 0.0787354 1.75734L8.70701 10.5791Z"
          fill="#34A853"/>
</svg>
